<svg width="2791" height="1946" xmlns="http://www.w3.org/2000/svg" xmlns:xlink="http://www.w3.org/1999/xlink" xml:space="preserve" overflow="hidden"><defs><clipPath id="clip0"><rect x="6" y="2" width="2791" height="1946"/></clipPath><clipPath id="clip1"><rect x="9" y="1301" width="201" height="1040"/></clipPath></defs><g clip-path="url(#clip0)" transform="translate(-6 -2)"><path d="M548.026 5.06332 1193.76 5.06332 1193.76 236.063 548.026 236.063Z" fill="#0070C0" fill-rule="evenodd"/><path d="M1193.76 5.06332 1709.71 5.06332 1709.71 236.063 1193.76 236.063Z" fill="#385723" fill-rule="evenodd"/><path d="M2020.86 5.06332 2503.54 5.06332 2503.54 236.063 2020.86 236.063Z" fill="#ED7D31" fill-rule="evenodd"/><path d="M548.026 236.063 1193.76 236.063 1193.76 447.993 548.026 447.993Z" fill="#DEEBF7" fill-rule="evenodd"/><path d="M1193.76 236.063 1709.71 236.063 1709.71 447.993 1193.76 447.993Z" fill="#E2F0D9" fill-rule="evenodd"/><path d="M2020.86 236.063 2503.54 236.063 2503.54 447.993 2020.86 447.993Z" fill="#FBE5D6" fill-rule="evenodd"/><path d="M548.026 447.993 1193.76 447.993 1193.76 581.843 548.026 581.843Z" fill="#DEEBF7" fill-rule="evenodd"/><path d="M1193.76 447.993 1709.71 447.993 1709.71 581.843 1193.76 581.843Z" fill="#E2F0D9" fill-rule="evenodd"/><path d="M2020.86 447.993 2503.54 447.993 2503.54 581.843 2020.86 581.843Z" fill="#FBE5D6" fill-rule="evenodd"/><path d="M548.026 581.843 1193.76 581.843 1193.76 665.499 548.026 665.499Z" fill="#DEEBF7" fill-rule="evenodd"/><path d="M1193.76 581.843 1709.71 581.843 1709.71 665.499 1193.76 665.499Z" fill="#E2F0D9" fill-rule="evenodd"/><path d="M2020.86 581.843 2503.54 581.843 2503.54 665.499 2020.86 665.499Z" fill="#FBE5D6" fill-rule="evenodd"/><path d="M548.026 665.499 1193.76 665.499 1193.76 1496.73 548.026 1496.73Z" fill="#DEEBF7" fill-rule="evenodd"/><path d="M1193.76 665.499 1709.71 665.499 1709.71 1496.73 1193.76 1496.73Z" fill="#E2F0D9" fill-rule="evenodd"/><path d="M2020.86 665.499 2503.54 665.499 2503.54 1496.73 2020.86 1496.73Z" fill="#FBE5D6" fill-rule="evenodd"/><path d="M548.026 1496.73 1193.76 1496.73 1193.76 1705.73 548.026 1705.73Z" fill="#DEEBF7" fill-rule="evenodd"/><path d="M1193.76 1496.73 1709.71 1496.73 1709.71 1705.73 1193.76 1705.73Z" fill="#E2F0D9" fill-rule="evenodd"/><path d="M2020.86 1496.73 2503.54 1496.73 2503.54 1705.73 2020.86 1705.73Z" fill="#FBE5D6" fill-rule="evenodd"/><path d="M548.026 1705.73 1193.76 1705.73 1193.76 1848.73 548.026 1848.73Z" fill="#DEEBF7" fill-rule="evenodd"/><path d="M1193.76 1705.73 1709.71 1705.73 1709.71 1848.73 1193.76 1848.73Z" fill="#E2F0D9" fill-rule="evenodd"/><path d="M2020.86 1705.73 2503.54 1705.73 2503.54 1848.73 2020.86 1848.73Z" fill="#FBE5D6" fill-rule="evenodd"/><path d="M209.348 2.77165 209.348 1939.02" stroke="#000000" stroke-width="4.58333" stroke-linejoin="round" stroke-miterlimit="10" fill="none" fill-rule="evenodd"/><path d="M548.026 2.77165 548.026 1851.02" stroke="#000000" stroke-width="4.58333" stroke-linejoin="round" stroke-miterlimit="10" fill="none" fill-rule="evenodd"/><path d="M1193.76 2.77165 1193.76 1851.02" stroke="#000000" stroke-width="4.58333" stroke-linejoin="round" stroke-miterlimit="10" fill="none" fill-rule="evenodd"/><path d="M1709.71 2.77165 1709.71 1851.02" stroke="#000000" stroke-width="4.58333" stroke-linejoin="round" stroke-miterlimit="10" fill="none" fill-rule="evenodd"/><path d="M2020.86 2.77165 2020.86 1851.02" stroke="#000000" stroke-width="4.58333" stroke-linejoin="round" stroke-miterlimit="10" fill="none" fill-rule="evenodd"/><path d="M2503.54 2.77165 2503.54 1851.02" stroke="#000000" stroke-width="4.58333" stroke-linejoin="round" stroke-miterlimit="10" fill="none" fill-rule="evenodd"/><path d="M6.87392 236.063 2794.18 236.063" stroke="#000000" stroke-width="4.58333" stroke-linejoin="round" stroke-miterlimit="10" fill="none" fill-rule="evenodd"/><path d="M6.87392 447.993 2794.18 447.993" stroke="#000000" stroke-width="4.58333" stroke-linejoin="round" stroke-miterlimit="10" fill="none" fill-rule="evenodd"/><path d="M6.87392 581.843 2794.18 581.843" stroke="#000000" stroke-width="4.58333" stroke-linejoin="round" stroke-miterlimit="10" fill="none" fill-rule="evenodd"/><path d="M6.87392 665.499 2794.18 665.499" stroke="#000000" stroke-width="4.58333" stroke-linejoin="round" stroke-miterlimit="10" fill="none" fill-rule="evenodd"/><path d="M6.87392 1496.73 2794.18 1496.73" stroke="#000000" stroke-width="4.58333" stroke-linejoin="round" stroke-miterlimit="10" fill="none" fill-rule="evenodd"/><path d="M6.87392 1705.73 2794.18 1705.73" stroke="#000000" stroke-width="4.58333" stroke-linejoin="round" stroke-miterlimit="10" fill="none" fill-rule="evenodd"/><path d="M207.056 1848.73 2794.18 1848.73" stroke="#000000" stroke-width="4.58333" stroke-linejoin="round" stroke-miterlimit="10" fill="none" fill-rule="evenodd"/><path d="M9.16558 2.77165 9.16558 1939.02" stroke="#000000" stroke-width="4.58333" stroke-linejoin="round" stroke-miterlimit="10" fill="none" fill-rule="evenodd"/><path d="M2791.89 2.77165 2791.89 1939.02" stroke="#000000" stroke-width="4.58333" stroke-linejoin="round" stroke-miterlimit="10" fill="none" fill-rule="evenodd"/><path d="M6.87392 5.06332 2794.18 5.06332" stroke="#000000" stroke-width="4.58333" stroke-linejoin="round" stroke-miterlimit="10" fill="none" fill-rule="evenodd"/><path d="M6.87392 1936.73 2794.18 1936.73" stroke="#000000" stroke-width="4.58333" stroke-linejoin="round" stroke-miterlimit="10" fill="none" fill-rule="evenodd"/><text font-family="Arial,Arial_MSFontService,sans-serif" font-weight="700" font-size="41" transform="matrix(1 0 0 1 308.791 86)">ENTRY </text><text font-family="Arial,Arial_MSFontService,sans-serif" font-weight="700" font-size="41" transform="matrix(1 0 0 1 293.895 136)">SURVEY </text><text font-family="Arial,Arial_MSFontService,sans-serif" font-weight="700" font-size="41" transform="matrix(1 0 0 1 309.937 185)">[SUR1]</text><text fill="#FFFFFF" font-family="Arial,Arial_MSFontService,sans-serif" font-weight="700" font-size="41" transform="matrix(1 0 0 1 701.309 111)">INITIAL SESSION</text><text fill="#FFFFFF" font-family="Arial,Arial_MSFontService,sans-serif" font-weight="700" font-size="41" transform="matrix(1 0 0 1 804.434 161)">[SES1]</text><text fill="#FFFFFF" font-family="Arial,Arial_MSFontService,sans-serif" font-weight="700" font-size="41" transform="matrix(1 0 0 1 1295.9 62)">LONGITUDINAL </text><text fill="#FFFFFF" font-family="Arial,Arial_MSFontService,sans-serif" font-weight="700" font-size="41" transform="matrix(1 0 0 1 1342.88 112)">TRACKING</text><text fill="#FFFFFF" font-family="Arial,Arial_MSFontService,sans-serif" font-weight="700" font-size="41" transform="matrix(1 0 0 1 1298.19 161)">[SES2a, SES2b, </text><text fill="#FFFFFF" font-family="Arial,Arial_MSFontService,sans-serif" font-weight="700" font-size="41" transform="matrix(1 0 0 1 1309.65 211)">SES2c SES2d]</text><text font-family="Arial,Arial_MSFontService,sans-serif" font-weight="700" font-size="41" transform="matrix(1 0 0 1 1762.16 86)">MID</text><text font-family="Arial,Arial_MSFontService,sans-serif" font-weight="700" font-size="41" transform="matrix(1 0 0 1 1837.79 86)">-</text><text font-family="Arial,Arial_MSFontService,sans-serif" font-weight="700" font-size="41" transform="matrix(1 0 0 1 1851.54 86)">TERM </text><text font-family="Arial,Arial_MSFontService,sans-serif" font-weight="700" font-size="41" transform="matrix(1 0 0 1 1780.49 136)">SURVEY </text><text font-family="Arial,Arial_MSFontService,sans-serif" font-weight="700" font-size="41" transform="matrix(1 0 0 1 1796.54 185)">[SUR2]</text><text font-family="Arial,Arial_MSFontService,sans-serif" font-weight="700" font-size="41" transform="matrix(1 0 0 1 2104.07 111)">FINAL SESSION</text><text font-family="Arial,Arial_MSFontService,sans-serif" font-weight="700" font-size="41" transform="matrix(1 0 0 1 2195.74 161)">[SES3]</text><text font-family="Arial,Arial_MSFontService,sans-serif" font-weight="700" font-size="41" transform="matrix(1 0 0 1 2601.88 86)">EXIT </text><text font-family="Arial,Arial_MSFontService,sans-serif" font-weight="700" font-size="41" transform="matrix(1 0 0 1 2562.92 136)">SURVEY</text><text font-family="Arial,Arial_MSFontService,sans-serif" font-weight="700" font-size="41" transform="matrix(1 0 0 1 2578.96 185)">[SUR3]</text><text font-family="Arial,Arial_MSFontService,sans-serif" font-weight="700" font-size="41" transform="matrix(1 0 0 1 65.7147 357)">Why</text><text font-family="Arial,Arial_MSFontService,sans-serif" font-weight="400" font-size="37" transform="matrix(1 0 0 1 242.348 312)">Record </text><text font-family="Arial,Arial_MSFontService,sans-serif" font-weight="400" font-size="37" transform="matrix(1 0 0 1 242.348 356)">individual</text><text font-family="Arial,Arial_MSFontService,sans-serif" font-weight="400" font-size="37" transform="matrix(1 0 0 1 395.889 356)">-</text><text font-family="Arial,Arial_MSFontService,sans-serif" font-weight="400" font-size="37" transform="matrix(1 0 0 1 242.348 400)">differences</text><text font-family="Arial,Arial_MSFontService,sans-serif" font-weight="400" font-size="41" transform="matrix(1 0 0 1 581.026 333)">Establish baseline search </text><text font-family="Arial,Arial_MSFontService,sans-serif" font-weight="400" font-size="41" transform="matrix(1 0 0 1 581.026 383)">behaviour and initial knowledge</text><text font-family="Arial,Arial_MSFontService,sans-serif" font-weight="400" font-size="37" transform="matrix(1 0 0 1 1226.76 290)">Understand change in </text><text font-family="Arial,Arial_MSFontService,sans-serif" font-weight="400" font-size="37" transform="matrix(1 0 0 1 1226.76 334)">search behaviour and </text><text font-family="Arial,Arial_MSFontService,sans-serif" font-weight="400" font-size="37" transform="matrix(1 0 0 1 1226.76 378)">knowledge acquisition over </text><text font-family="Arial,Arial_MSFontService,sans-serif" font-weight="400" font-size="37" transform="matrix(1 0 0 1 1226.76 422)">time</text><text font-family="Arial,Arial_MSFontService,sans-serif" font-weight="400" font-size="37" transform="matrix(1 0 0 1 1742.71 312)">Track changes </text><text font-family="Arial,Arial_MSFontService,sans-serif" font-weight="400" font-size="37" transform="matrix(1 0 0 1 1742.71 356)">in individual </text><text font-family="Arial,Arial_MSFontService,sans-serif" font-weight="400" font-size="37" transform="matrix(1 0 0 1 1742.71 400)">differences</text><text font-family="Arial,Arial_MSFontService,sans-serif" font-weight="400" font-size="37" transform="matrix(1 0 0 1 2053.86 312)">Record “evolved” search </text><text font-family="Arial,Arial_MSFontService,sans-serif" font-weight="400" font-size="37" transform="matrix(1 0 0 1 2053.86 356)">behaviour, and “final” </text><text font-family="Arial,Arial_MSFontService,sans-serif" font-weight="400" font-size="37" transform="matrix(1 0 0 1 2053.86 400)">knowledge</text><text font-family="Arial,Arial_MSFontService,sans-serif" font-weight="400" font-size="37" transform="matrix(1 0 0 1 2536.54 312)">Final state of </text><text font-family="Arial,Arial_MSFontService,sans-serif" font-weight="400" font-size="37" transform="matrix(1 0 0 1 2536.54 356)">individual </text><text font-family="Arial,Arial_MSFontService,sans-serif" font-weight="400" font-size="37" transform="matrix(1 0 0 1 2536.54 400)">differences</text><text font-family="Arial,Arial_MSFontService,sans-serif" font-weight="700" font-size="41" transform="matrix(1 0 0 1 53.1105 530)">When</text><text font-family="Arial,Arial_MSFontService,sans-serif" font-weight="400" font-size="41" transform="matrix(1 0 0 1 242.348 505)">Week 1</text><text font-family="Arial,Arial_MSFontService,sans-serif" font-weight="400" font-size="41" transform="matrix(1 0 0 1 382.139 505)">-</text><text font-family="Arial,Arial_MSFontService,sans-serif" font-weight="400" font-size="41" transform="matrix(1 0 0 1 395.889 505)">2 of </text><text font-family="Arial,Arial_MSFontService,sans-serif" font-weight="400" font-size="41" transform="matrix(1 0 0 1 242.348 555)">semester</text><text font-family="Arial,Arial_MSFontService,sans-serif" font-weight="400" font-size="41" transform="matrix(1 0 0 1 581.026 505)">Weeks 1</text><text font-family="Arial,Arial_MSFontService,sans-serif" font-weight="400" font-size="41" transform="matrix(1 0 0 1 741.443 505)">-</text><text font-family="Arial,Arial_MSFontService,sans-serif" font-weight="400" font-size="41" transform="matrix(1 0 0 1 755.193 505)">2 of semester; after </text><text font-family="Arial,Arial_MSFontService,sans-serif" font-weight="400" font-size="41" transform="matrix(1 0 0 1 581.026 555)">SUR1</text><text font-family="Arial,Arial_MSFontService,sans-serif" font-weight="400" font-size="41" transform="matrix(1 0 0 1 1226.76 505)">Four different points </text><text font-family="Arial,Arial_MSFontService,sans-serif" font-weight="400" font-size="41" transform="matrix(1 0 0 1 1226.76 555)">over the semester </text><text font-family="Arial,Arial_MSFontService,sans-serif" font-weight="400" font-size="41" transform="matrix(1 0 0 1 1742.71 505)">S</text><text font-family="Arial,Arial_MSFontService,sans-serif" font-weight="400" font-size="41" transform="matrix(1 0 0 1 1770.21 505)">emester </text><text font-family="Arial,Arial_MSFontService,sans-serif" font-weight="400" font-size="41" transform="matrix(1 0 0 1 1742.71 555)">mid</text><text font-family="Arial,Arial_MSFontService,sans-serif" font-weight="400" font-size="41" transform="matrix(1 0 0 1 1809.17 555)">-</text><text font-family="Arial,Arial_MSFontService,sans-serif" font-weight="400" font-size="41" transform="matrix(1 0 0 1 1822.92 555)">point</text><text font-family="Arial,Arial_MSFontService,sans-serif" font-weight="400" font-size="41" transform="matrix(1 0 0 1 2053.86 505)">After last day of </text><text font-family="Arial,Arial_MSFontService,sans-serif" font-weight="400" font-size="41" transform="matrix(1 0 0 1 2053.86 555)">classes</text><text font-family="Arial,Arial_MSFontService,sans-serif" font-weight="400" font-size="41" transform="matrix(1 0 0 1 2536.54 505)">Anytime </text><text font-family="Arial,Arial_MSFontService,sans-serif" font-weight="400" font-size="41" transform="matrix(1 0 0 1 2536.54 555)">after SES3</text><text font-family="Arial,Arial_MSFontService,sans-serif" font-weight="700" font-size="41" transform="matrix(1 0 0 1 46.2355 639)">Where</text><text font-family="Arial,Arial_MSFontService,sans-serif" font-weight="400" font-size="41" transform="matrix(1 0 0 1 242.348 639)">Asynchronous</text><text font-family="Arial,Arial_MSFontService,sans-serif" font-weight="700" font-size="41" transform="matrix(1 0 0 1 581.026 639)">Synchronous</text><text font-family="Arial,Arial_MSFontService,sans-serif" font-weight="400" font-size="41" transform="matrix(1 0 0 1 844.568 639)">: Remote</text><text font-family="Arial,Arial_MSFontService,sans-serif" font-weight="400" font-size="41" transform="matrix(1 0 0 1 1226.76 639)">Async</text><text font-family="Arial,Arial_MSFontService,sans-serif" font-weight="400" font-size="41" transform="matrix(1 0 0 1 1742.71 639)">Async</text><text font-family="Arial,Arial_MSFontService,sans-serif" font-weight="700" font-size="41" transform="matrix(1 0 0 1 2053.86 639)">Sync:</text><text font-family="Arial,Arial_MSFontService,sans-serif" font-weight="400" font-size="41" transform="matrix(1 0 0 1 2177.61 639)">Remote</text><text font-family="Arial,Arial_MSFontService,sans-serif" font-weight="400" font-size="41" transform="matrix(1 0 0 1 2536.54 639)">Async</text><text font-family="Arial,Arial_MSFontService,sans-serif" font-weight="700" font-size="41" transform="matrix(1 0 0 1 58.8397 1096)">What</text><text font-family="Arial,Arial_MSFontService,sans-serif" font-weight="400" font-size="37" text-decoration="underline" transform="matrix(1 0 0 1 242.348 718)">Only in SUR1</text><text font-family="Arial,Arial_MSFontService,sans-serif" font-weight="400" font-size="37" transform="matrix(1 0 0 1 465.212 718)">:</text><text font-family="Arial,Arial_MSFontService,sans-serif" font-weight="400" font-size="37" transform="matrix(1 0 0 1 242.348 762)">−</text><text font-family="Arial,Arial_MSFontService,sans-serif" font-weight="400" font-size="37" transform="matrix(1 0 0 1 263.545 762)">Consent Form</text><text font-family="Arial,Arial_MSFontService,sans-serif" font-weight="400" font-size="37" transform="matrix(1 0 0 1 242.348 806)">−</text><text font-family="Arial,Arial_MSFontService,sans-serif" font-weight="400" font-size="37" transform="matrix(1 0 0 1 263.545 806)">Search Exp. &amp; </text><text font-family="Arial,Arial_MSFontService,sans-serif" font-weight="400" font-size="37" transform="matrix(1 0 0 1 255.41 850)">IT proficiency</text><text font-family="Arial,Arial_MSFontService,sans-serif" font-weight="400" font-size="37" text-decoration="underline" transform="matrix(1 0 0 1 242.348 938)">Repeated in </text><text font-family="Arial,Arial_MSFontService,sans-serif" font-weight="400" font-size="37" text-decoration="underline" transform="matrix(1 0 0 1 242.348 982)">SUR2 and </text><text font-family="Arial,Arial_MSFontService,sans-serif" font-weight="400" font-size="37" text-decoration="underline" transform="matrix(1 0 0 1 242.348 1026)">SUR3</text><text font-family="Arial,Arial_MSFontService,sans-serif" font-weight="400" font-size="37" transform="matrix(1 0 0 1 340.316 1026)">:</text><text font-family="Arial,Arial_MSFontService,sans-serif" font-weight="400" font-size="37" transform="matrix(1 0 0 1 242.348 1070)">−</text><text font-family="Arial,Arial_MSFontService,sans-serif" font-weight="400" font-size="37" transform="matrix(1 0 0 1 263.545 1070)">Course Load</text><text font-family="Arial,Arial_MSFontService,sans-serif" font-weight="400" font-size="37" transform="matrix(1 0 0 1 242.348 1114)">−</text><text font-family="Arial,Arial_MSFontService,sans-serif" font-weight="400" font-size="37" transform="matrix(1 0 0 1 263.545 1114)">Note</text><text font-family="Arial,Arial_MSFontService,sans-serif" font-weight="400" font-size="37" transform="matrix(1 0 0 1 341.462 1114)">-</text><text font-family="Arial,Arial_MSFontService,sans-serif" font-weight="400" font-size="37" transform="matrix(1 0 0 1 353.493 1114)">taking </text><text font-family="Arial,Arial_MSFontService,sans-serif" font-weight="400" font-size="37" transform="matrix(1 0 0 1 255.41 1158)">strategies</text><text font-family="Arial,Arial_MSFontService,sans-serif" font-weight="400" font-size="37" transform="matrix(1 0 0 1 242.348 1202)">−</text><text font-family="Arial,Arial_MSFontService,sans-serif" font-weight="400" font-size="37" transform="matrix(1 0 0 1 263.545 1202)">Motivation</text><text font-family="Arial,Arial_MSFontService,sans-serif" font-weight="400" font-size="37" transform="matrix(1 0 0 1 242.348 1246)">−</text><text font-family="Arial,Arial_MSFontService,sans-serif" font-weight="400" font-size="37" transform="matrix(1 0 0 1 263.545 1246)">Self</text><text font-family="Arial,Arial_MSFontService,sans-serif" font-weight="400" font-size="37" transform="matrix(1 0 0 1 327.139 1246)">-</text><text font-family="Arial,Arial_MSFontService,sans-serif" font-weight="400" font-size="37" transform="matrix(1 0 0 1 339.17 1246)">regulation</text><text font-family="Arial,Arial_MSFontService,sans-serif" font-weight="400" font-size="37" transform="matrix(1 0 0 1 242.348 1290)">−</text><text font-family="Arial,Arial_MSFontService,sans-serif" font-weight="400" font-size="37" transform="matrix(1 0 0 1 263.545 1290)">Metacognition</text><text font-family="Arial,Arial_MSFontService,sans-serif" font-weight="700" font-size="39" transform="matrix(1 0 0 1 581.026 720)">Two search tasks:</text><text font-family="Arial,Arial_MSFontService,sans-serif" font-weight="400" font-size="39" transform="matrix(1 0 0 1 931.651 720)">for each </text><text font-family="Arial,Arial_MSFontService,sans-serif" font-weight="400" font-size="39" transform="matrix(1 0 0 1 581.026 767)">task, participants searched to </text><text font-family="Arial,Arial_MSFontService,sans-serif" font-weight="400" font-size="39" transform="matrix(1 0 0 1 581.026 813)">find at least three unique, good </text><text font-family="Arial,Arial_MSFontService,sans-serif" font-weight="400" font-size="39" transform="matrix(1 0 0 1 581.026 860)">quality online resources relevant </text><text font-family="Arial,Arial_MSFontService,sans-serif" font-weight="400" font-size="39" transform="matrix(1 0 0 1 581.026 907)">to a given topic.</text><text font-family="Arial,Arial_MSFontService,sans-serif" font-weight="400" font-size="39" transform="matrix(1 0 0 1 581.026 1000)">•</text><text font-family="Arial,Arial_MSFontService,sans-serif" font-weight="400" font-size="39" text-decoration="underline" transform="matrix(1 0 0 1 606.922 1000)">Pre</text><text font-family="Arial,Arial_MSFontService,sans-serif" font-weight="400" font-size="39" text-decoration="underline" transform="matrix(1 0 0 1 667.651 1000)">-</text><text font-family="Arial,Arial_MSFontService,sans-serif" font-weight="400" font-size="39" text-decoration="underline" transform="matrix(1 0 0 1 680.828 1000)">search self reporting</text><text font-family="Arial,Arial_MSFontService,sans-serif" font-weight="400" font-size="39" transform="matrix(1 0 0 1 1035.46 1000)">: </text><text font-family="Arial,Arial_MSFontService,sans-serif" font-weight="400" font-size="39" transform="matrix(1 0 0 1 606.922 1047)">existing knowledge, interest, </text><text font-family="Arial,Arial_MSFontService,sans-serif" font-weight="400" font-size="39" transform="matrix(1 0 0 1 606.922 1094)">perceived difficulty </text><text font-family="Arial,Arial_MSFontService,sans-serif" font-weight="400" font-size="39" transform="matrix(1 0 0 1 581.026 1141)">•</text><text font-family="Arial,Arial_MSFontService,sans-serif" font-weight="400" font-size="39" text-decoration="underline" transform="matrix(1 0 0 1 606.922 1141)">Post</text><text font-family="Arial,Arial_MSFontService,sans-serif" font-weight="400" font-size="39" text-decoration="underline" transform="matrix(1 0 0 1 684.839 1141)">-</text><text font-family="Arial,Arial_MSFontService,sans-serif" font-weight="400" font-size="39" text-decoration="underline" transform="matrix(1 0 0 1 698.016 1141)">search self reporting</text><text font-family="Arial,Arial_MSFontService,sans-serif" font-weight="400" font-size="39" transform="matrix(1 0 0 1 1052.65 1141)">: </text><text font-family="Arial,Arial_MSFontService,sans-serif" font-weight="400" font-size="39" transform="matrix(1 0 0 1 606.922 1187)">perceived learning, perceived </text><text font-family="Arial,Arial_MSFontService,sans-serif" font-weight="400" font-size="39" transform="matrix(1 0 0 1 606.922 1234)">search success, interest and </text><text font-family="Arial,Arial_MSFontService,sans-serif" font-weight="400" font-size="39" transform="matrix(1 0 0 1 606.922 1281)">motivation, decision making</text><text font-family="Arial,Arial_MSFontService,sans-serif" font-weight="700" font-size="39" transform="matrix(1 0 0 1 581.026 1361)">One website reliability </text><text font-family="Arial,Arial_MSFontService,sans-serif" font-weight="700" font-size="39" transform="matrix(1 0 0 1 581.026 1407)">assessment</text><text font-family="Arial,Arial_MSFontService,sans-serif" font-weight="400" font-size="39" transform="matrix(1 0 0 1 815.922 1407)">from Stanford </text><text font-family="Arial,Arial_MSFontService,sans-serif" font-weight="400" font-size="39" transform="matrix(1 0 0 1 581.026 1454)">History Education Group (SHEG)</text><text font-family="Arial,Arial_MSFontService,sans-serif" font-weight="400" font-size="39" transform="matrix(1 0 0 1 1226.76 720)">Participants </text><text font-family="Arial,Arial_MSFontService,sans-serif" font-weight="400" font-size="39" text-decoration="underline" transform="matrix(1 0 0 1 1441.6 720)">recorded </text><text font-family="Arial,Arial_MSFontService,sans-serif" font-weight="400" font-size="39" text-decoration="underline" transform="matrix(1 0 0 1 1226.76 770)">browsing activity</text><text font-family="Arial,Arial_MSFontService,sans-serif" font-weight="400" font-size="39" transform="matrix(1 0 0 1 1524.1 770)">when </text><text font-family="Arial,Arial_MSFontService,sans-serif" font-weight="400" font-size="39" transform="matrix(1 0 0 1 1226.76 820)">they worked on </text><text font-family="Arial,Arial_MSFontService,sans-serif" font-weight="700" font-size="39" transform="matrix(1 0 0 1 1502.9 820)">final </text><text font-family="Arial,Arial_MSFontService,sans-serif" font-weight="700" font-size="39" transform="matrix(1 0 0 1 1226.76 870)">project assignment </text><text font-family="Arial,Arial_MSFontService,sans-serif" font-weight="700" font-size="39" transform="matrix(1 0 0 1 1596.86 870)">–</text><text font-family="Arial,Arial_MSFontService,sans-serif" font-weight="400" font-size="39" transform="matrix(1 0 0 1 1226.76 920)">writing a research paper </text><text font-family="Arial,Arial_MSFontService,sans-serif" font-weight="400" font-size="39" transform="matrix(1 0 0 1 1226.76 970)">–</text><text font-family="Arial,Arial_MSFontService,sans-serif" font-weight="400" font-size="39" transform="matrix(1 0 0 1 1270.3 970)">at four different points </text><text font-family="Arial,Arial_MSFontService,sans-serif" font-weight="400" font-size="39" transform="matrix(1 0 0 1 1226.76 1020)">in the semester.</text><text font-family="Arial,Arial_MSFontService,sans-serif" font-weight="400" font-size="39" transform="matrix(1 0 0 1 1226.76 1098)">−</text><text font-family="Arial,Arial_MSFontService,sans-serif" font-weight="400" font-size="39" transform="matrix(1 0 0 1 1260.56 1098)">SESa: Proposal</text><text font-family="Arial,Arial_MSFontService,sans-serif" font-weight="400" font-size="39" transform="matrix(1 0 0 1 1226.76 1144)">−</text><text font-family="Arial,Arial_MSFontService,sans-serif" font-weight="400" font-size="39" transform="matrix(1 0 0 1 1260.56 1144)">SES2b: Paper Outline</text><text font-family="Arial,Arial_MSFontService,sans-serif" font-weight="400" font-size="39" transform="matrix(1 0 0 1 1226.76 1191)">−</text><text font-family="Arial,Arial_MSFontService,sans-serif" font-weight="400" font-size="39" transform="matrix(1 0 0 1 1260.56 1191)">SES2c: Rough Draft</text><text font-family="Arial,Arial_MSFontService,sans-serif" font-weight="400" font-size="39" transform="matrix(1 0 0 1 1226.76 1238)">−</text><text font-family="Arial,Arial_MSFontService,sans-serif" font-weight="400" font-size="39" transform="matrix(1 0 0 1 1260.56 1238)">SES2d: Final Paper</text><text font-family="Arial,Arial_MSFontService,sans-serif" font-weight="400" font-size="39" transform="matrix(1 0 0 1 1226.76 1339)">Participants also shared </text><text font-family="Arial,Arial_MSFontService,sans-serif" font-weight="400" font-size="39" transform="matrix(1 0 0 1 1226.76 1389)">(anonymized) assignment </text><text font-family="Arial,Arial_MSFontService,sans-serif" font-weight="400" font-size="39" transform="matrix(1 0 0 1 1226.76 1439)">submission</text><text font-family="Arial,Arial_MSFontService,sans-serif" font-weight="400" font-size="41" transform="matrix(1 0 0 1 1742.71 722)">Similar to </text><text font-family="Arial,Arial_MSFontService,sans-serif" font-weight="400" font-size="41" transform="matrix(1 0 0 1 1742.71 772)">SUR1, with </text><text font-family="Arial,Arial_MSFontService,sans-serif" font-weight="400" font-size="41" transform="matrix(1 0 0 1 1742.71 821)">repeated </text><text font-family="Arial,Arial_MSFontService,sans-serif" font-weight="400" font-size="41" transform="matrix(1 0 0 1 1742.71 871)">components</text><text font-family="Arial,Arial_MSFontService,sans-serif" font-weight="700" font-size="41" transform="matrix(1 0 0 1 2053.86 722)">Two search tasks:</text><text font-family="Arial,Arial_MSFontService,sans-serif" font-weight="400" font-size="41" transform="matrix(1 0 0 1 2053.86 775)">one task</text><text font-family="Arial,Arial_MSFontService,sans-serif" font-weight="400" font-size="41" transform="matrix(1 0 0 1 2209.69 775)">-</text><text font-family="Arial,Arial_MSFontService,sans-serif" font-weight="400" font-size="41" transform="matrix(1 0 0 1 2223.44 775)">topic </text><text font-family="Arial,Arial_MSFontService,sans-serif" font-weight="400" font-size="41" transform="matrix(1 0 0 1 2053.86 828)">repeated from SES1, </text><text font-family="Arial,Arial_MSFontService,sans-serif" font-weight="400" font-size="41" transform="matrix(1 0 0 1 2053.86 881)">one new; same format </text><text font-family="Arial,Arial_MSFontService,sans-serif" font-weight="400" font-size="41" transform="matrix(1 0 0 1 2053.86 934)">as SES1</text><text font-family="Arial,Arial_MSFontService,sans-serif" font-weight="700" font-size="41" transform="matrix(1 0 0 1 2053.86 1022)">One website </text><text font-family="Arial,Arial_MSFontService,sans-serif" font-weight="700" font-size="41" transform="matrix(1 0 0 1 2053.86 1075)">reliability </text><text font-family="Arial,Arial_MSFontService,sans-serif" font-weight="700" font-size="41" transform="matrix(1 0 0 1 2053.86 1128)">assessment</text><text font-family="Arial,Arial_MSFontService,sans-serif" font-weight="400" font-size="41" transform="matrix(1 0 0 1 2301.36 1128)">from </text><text font-family="Arial,Arial_MSFontService,sans-serif" font-weight="400" font-size="41" transform="matrix(1 0 0 1 2053.86 1181)">SHEG (topic different </text><text font-family="Arial,Arial_MSFontService,sans-serif" font-weight="400" font-size="41" transform="matrix(1 0 0 1 2053.86 1234)">from SES1)</text><text font-family="Arial,Arial_MSFontService,sans-serif" font-weight="700" font-size="41" transform="matrix(1 0 0 1 2053.86 1322)">Semi</text><text font-family="Arial,Arial_MSFontService,sans-serif" font-weight="700" font-size="41" transform="matrix(1 0 0 1 2152.4 1322)">-</text><text font-family="Arial,Arial_MSFontService,sans-serif" font-weight="700" font-size="41" transform="matrix(1 0 0 1 2166.15 1322)">structured </text><text font-family="Arial,Arial_MSFontService,sans-serif" font-weight="700" font-size="41" transform="matrix(1 0 0 1 2053.86 1372)">interview:</text><text font-family="Arial,Arial_MSFontService,sans-serif" font-weight="400" font-size="41" transform="matrix(1 0 0 1 2257.82 1372)">reflection </text><text font-family="Arial,Arial_MSFontService,sans-serif" font-weight="400" font-size="41" transform="matrix(1 0 0 1 2053.86 1421)">on searching and </text><text font-family="Arial,Arial_MSFontService,sans-serif" font-weight="400" font-size="41" transform="matrix(1 0 0 1 2053.86 1471)">learning experience.</text><text font-family="Arial,Arial_MSFontService,sans-serif" font-weight="400" font-size="41" transform="matrix(1 0 0 1 2536.54 722)">Similar to</text><text font-family="Arial,Arial_MSFontService,sans-serif" font-weight="400" font-size="41" transform="matrix(1 0 0 1 2536.54 772)">SUR2</text><text font-family="Arial,Arial_MSFontService,sans-serif" font-weight="400" font-size="37" transform="matrix(1 0 0 1 2536.54 866)">Participants </text><text font-family="Arial,Arial_MSFontService,sans-serif" font-weight="400" font-size="37" transform="matrix(1 0 0 1 2536.54 910)">self</text><text font-family="Arial,Arial_MSFontService,sans-serif" font-weight="400" font-size="37" transform="matrix(1 0 0 1 2593.83 910)">-</text><text font-family="Arial,Arial_MSFontService,sans-serif" font-weight="400" font-size="37" transform="matrix(1 0 0 1 2605.86 910)">reported </text><text font-family="Arial,Arial_MSFontService,sans-serif" font-weight="400" font-size="37" transform="matrix(1 0 0 1 2536.54 954)">scores and </text><text font-family="Arial,Arial_MSFontService,sans-serif" font-weight="400" font-size="37" transform="matrix(1 0 0 1 2536.54 998)">grades they </text><text font-family="Arial,Arial_MSFontService,sans-serif" font-weight="400" font-size="37" transform="matrix(1 0 0 1 2536.54 1042)">received for </text><text font-family="Arial,Arial_MSFontService,sans-serif" font-weight="400" font-size="37" transform="matrix(1 0 0 1 2536.54 1086)">different </text><text font-family="Arial,Arial_MSFontService,sans-serif" font-weight="400" font-size="37" transform="matrix(1 0 0 1 2536.54 1130)">parts of the </text><text font-family="Arial,Arial_MSFontService,sans-serif" font-weight="400" font-size="37" transform="matrix(1 0 0 1 2536.54 1174)">final project</text><text font-family="Arial Narrow,Arial Narrow_MSFontService,sans-serif" font-weight="700" font-stretch="condensed" font-size="41" transform="matrix(1 0 0 1 45.3763 1567)">Approx. </text><text font-family="Arial Narrow,Arial Narrow_MSFontService,sans-serif" font-weight="700" font-stretch="condensed" font-size="41" transform="matrix(1 0 0 1 70.0117 1617)">Time </text><text font-family="Arial Narrow,Arial Narrow_MSFontService,sans-serif" font-weight="700" font-stretch="condensed" font-size="41" transform="matrix(1 0 0 1 62.2888 1666)">Reqd.</text><text font-family="Arial,Arial_MSFontService,sans-serif" font-weight="400" font-size="46" transform="matrix(1 0 0 1 242.348 1591)">10 </text><text font-family="Arial,Arial_MSFontService,sans-serif" font-weight="400" font-size="46" transform="matrix(1 0 0 1 305.368 1591)">-</text><text font-family="Arial,Arial_MSFontService,sans-serif" font-weight="400" font-size="46" transform="matrix(1 0 0 1 333.441 1591)">15 </text><text font-family="Arial,Arial_MSFontService,sans-serif" font-weight="400" font-size="46" transform="matrix(1 0 0 1 242.348 1646)">mins</text><text font-family="Arial,Arial_MSFontService,sans-serif" font-weight="400" font-size="46" transform="matrix(1 0 0 1 581.026 1619)">60 </text><text font-family="Arial,Arial_MSFontService,sans-serif" font-weight="400" font-size="46" transform="matrix(1 0 0 1 644.047 1619)">-</text><text font-family="Arial,Arial_MSFontService,sans-serif" font-weight="400" font-size="46" transform="matrix(1 0 0 1 672.12 1619)">90 mins</text><text font-family="Arial,Arial_MSFontService,sans-serif" font-weight="400" font-size="37" transform="matrix(1 0 0 1 1226.76 1549)">No time limit for working on </text><text font-family="Arial,Arial_MSFontService,sans-serif" font-weight="400" font-size="37" transform="matrix(1 0 0 1 1226.76 1593)">assignments. Sharing data </text><text font-family="Arial,Arial_MSFontService,sans-serif" font-weight="400" font-size="37" transform="matrix(1 0 0 1 1226.76 1637)">with researchers took 1</text><text font-family="Arial,Arial_MSFontService,sans-serif" font-weight="400" font-size="37" transform="matrix(1 0 0 1 1607.75 1637)">-</text><text font-family="Arial,Arial_MSFontService,sans-serif" font-weight="400" font-size="37" transform="matrix(1 0 0 1 1619.78 1637)">5 </text><text font-family="Arial,Arial_MSFontService,sans-serif" font-weight="400" font-size="37" transform="matrix(1 0 0 1 1226.76 1681)">minutes.</text><text font-family="Arial,Arial_MSFontService,sans-serif" font-weight="400" font-size="41" transform="matrix(1 0 0 1 1742.71 1616)">10 </text><text font-family="Arial,Arial_MSFontService,sans-serif" font-weight="400" font-size="41" transform="matrix(1 0 0 1 1800.01 1616)">-</text><text font-family="Arial,Arial_MSFontService,sans-serif" font-weight="400" font-size="41" transform="matrix(1 0 0 1 1825.21 1616)">15 mins</text><text font-family="Arial,Arial_MSFontService,sans-serif" font-weight="400" font-size="41" transform="matrix(1 0 0 1 2053.86 1616)">60 </text><text font-family="Arial,Arial_MSFontService,sans-serif" font-weight="400" font-size="41" transform="matrix(1 0 0 1 2111.15 1616)">-</text><text font-family="Arial,Arial_MSFontService,sans-serif" font-weight="400" font-size="41" transform="matrix(1 0 0 1 2136.36 1616)">90 mins</text><text font-family="Arial,Arial_MSFontService,sans-serif" font-weight="400" font-size="41" transform="matrix(1 0 0 1 2536.54 1592)">10 </text><text font-family="Arial,Arial_MSFontService,sans-serif" font-weight="400" font-size="41" transform="matrix(1 0 0 1 2593.83 1592)">-</text><text font-family="Arial,Arial_MSFontService,sans-serif" font-weight="400" font-size="41" transform="matrix(1 0 0 1 2619.04 1592)">15 </text><text font-family="Arial,Arial_MSFontService,sans-serif" font-weight="400" font-size="41" transform="matrix(1 0 0 1 2536.54 1642)">mins</text><g clip-path="url(#clip1)"><text font-family="Arial,Arial_MSFontService,sans-serif" font-weight="700" font-size="41" transform="matrix(1 0 0 1 43.9439 1787)">Comp: </text></g><text font-family="Arial,Arial_MSFontService,sans-serif" font-weight="700" font-size="41" transform="matrix(1 0 0 1 51.9647 1837)">(USD)</text><text font-family="Arial,Arial_MSFontService,sans-serif" font-weight="700" font-size="41" transform="matrix(1 0 0 1 63.423 1886)">$150</text><text font-family="Arial,Arial_MSFontService,sans-serif" font-weight="400" font-size="46" transform="matrix(1 0 0 1 242.348 1795)">$5</text><text font-family="Arial,Arial_MSFontService,sans-serif" font-weight="400" font-size="46" transform="matrix(1 0 0 1 581.026 1795)">$25</text><text font-family="Arial,Arial_MSFontService,sans-serif" font-weight="400" font-size="46" transform="matrix(1 0 0 1 1226.76 1767)">$5, $5, $10, $15</text><text font-family="Arial,Arial_MSFontService,sans-serif" font-weight="400" font-size="46" transform="matrix(1 0 0 1 1226.76 1822)">(total $35)</text><text font-family="Arial,Arial_MSFontService,sans-serif" font-weight="400" font-size="46" transform="matrix(1 0 0 1 1742.71 1795)">$10</text><text font-family="Arial,Arial_MSFontService,sans-serif" font-weight="400" font-size="46" transform="matrix(1 0 0 1 2053.86 1795)">$30</text><text font-family="Arial,Arial_MSFontService,sans-serif" font-weight="400" font-size="46" transform="matrix(1 0 0 1 2536.54 1795)">$15</text><text font-family="Arial,Arial_MSFontService,sans-serif" font-weight="400" font-size="46" transform="matrix(1 0 0 1 773.586 1910)">Bonus $30 paid in the end, if participant completed all parts of the study.</text></g></svg>