<?xml version="1.0" encoding="utf-8" standalone="no"?>
<!DOCTYPE svg PUBLIC "-//W3C//DTD SVG 1.1//EN"
  "http://www.w3.org/Graphics/SVG/1.1/DTD/svg11.dtd">
<svg xmlns:xlink="http://www.w3.org/1999/xlink" width="895.386pt" height="381.297862pt" viewBox="0 0 895.386 381.297862" xmlns="http://www.w3.org/2000/svg" version="1.1">
 <metadata>
  <rdf:RDF xmlns:dc="http://purl.org/dc/elements/1.1/" xmlns:cc="http://creativecommons.org/ns#" xmlns:rdf="http://www.w3.org/1999/02/22-rdf-syntax-ns#">
   <cc:Work>
    <dc:type rdf:resource="http://purl.org/dc/dcmitype/StillImage"/>
    <dc:date>2023-02-22T13:18:49.159190</dc:date>
    <dc:format>image/svg+xml</dc:format>
    <dc:creator>
     <cc:Agent>
      <dc:title>Matplotlib v3.6.3, https://matplotlib.org/</dc:title>
     </cc:Agent>
    </dc:creator>
   </cc:Work>
  </rdf:RDF>
 </metadata>
 <defs>
  <style type="text/css">*{stroke-linejoin: round; stroke-linecap: butt}</style>
 </defs>
 <g id="figure_1">
  <g id="patch_1">
   <path d="M 0 381.297862 
L 895.386 381.297862 
L 895.386 0 
L 0 0 
z
" style="fill: #ffffff"/>
  </g>
  <g id="axes_1">
   <g id="patch_2">
    <path d="M 51.186 320.4 
L 431.640545 320.4 
L 431.640545 43.2 
L 51.186 43.2 
z
" style="fill: #ffffff"/>
   </g>
   <g id="matplotlib.axis_1">
    <g id="xtick_1">
     <g id="text_1">
      <!-- LO -->
      <g style="fill: #262626" transform="translate(137.495855 338.148312) scale(0.132 -0.132)">
       <defs>
        <path id="ArialMT-4c" d="M 469 0 
L 469 4581 
L 1075 4581 
L 1075 541 
L 3331 541 
L 3331 0 
L 469 0 
z
" transform="scale(0.015625)"/>
        <path id="ArialMT-4f" d="M 309 2231 
Q 309 3372 921 4017 
Q 1534 4663 2503 4663 
Q 3138 4663 3647 4359 
Q 4156 4056 4423 3514 
Q 4691 2972 4691 2284 
Q 4691 1588 4409 1038 
Q 4128 488 3612 205 
Q 3097 -78 2500 -78 
Q 1853 -78 1343 234 
Q 834 547 571 1087 
Q 309 1628 309 2231 
z
M 934 2222 
Q 934 1394 1379 917 
Q 1825 441 2497 441 
Q 3181 441 3623 922 
Q 4066 1403 4066 2288 
Q 4066 2847 3877 3264 
Q 3688 3681 3323 3911 
Q 2959 4141 2506 4141 
Q 1863 4141 1398 3698 
Q 934 3256 934 2222 
z
" transform="scale(0.015625)"/>
       </defs>
       <use xlink:href="#ArialMT-4c"/>
       <use xlink:href="#ArialMT-4f" x="55.615234"/>
      </g>
     </g>
    </g>
    <g id="xtick_2">
     <g id="text_2">
      <!-- HI -->
      <g style="fill: #262626" transform="translate(329.926909 338.148312) scale(0.132 -0.132)">
       <defs>
        <path id="ArialMT-48" d="M 513 0 
L 513 4581 
L 1119 4581 
L 1119 2700 
L 3500 2700 
L 3500 4581 
L 4106 4581 
L 4106 0 
L 3500 0 
L 3500 2159 
L 1119 2159 
L 1119 0 
L 513 0 
z
" transform="scale(0.015625)"/>
        <path id="ArialMT-49" d="M 597 0 
L 597 4581 
L 1203 4581 
L 1203 0 
L 597 0 
z
" transform="scale(0.015625)"/>
       </defs>
       <use xlink:href="#ArialMT-48"/>
       <use xlink:href="#ArialMT-49" x="72.216797"/>
      </g>
     </g>
    </g>
    <g id="text_3">
     <!-- Profile Name -->
     <g style="fill: #262626" transform="translate(199.800648 355.079062) scale(0.144 -0.144)">
      <defs>
       <path id="ArialMT-50" d="M 494 0 
L 494 4581 
L 2222 4581 
Q 2678 4581 2919 4538 
Q 3256 4481 3484 4323 
Q 3713 4166 3852 3881 
Q 3991 3597 3991 3256 
Q 3991 2672 3619 2267 
Q 3247 1863 2275 1863 
L 1100 1863 
L 1100 0 
L 494 0 
z
M 1100 2403 
L 2284 2403 
Q 2872 2403 3119 2622 
Q 3366 2841 3366 3238 
Q 3366 3525 3220 3729 
Q 3075 3934 2838 4000 
Q 2684 4041 2272 4041 
L 1100 4041 
L 1100 2403 
z
" transform="scale(0.015625)"/>
       <path id="ArialMT-72" d="M 416 0 
L 416 3319 
L 922 3319 
L 922 2816 
Q 1116 3169 1280 3281 
Q 1444 3394 1641 3394 
Q 1925 3394 2219 3213 
L 2025 2691 
Q 1819 2813 1613 2813 
Q 1428 2813 1281 2702 
Q 1134 2591 1072 2394 
Q 978 2094 978 1738 
L 978 0 
L 416 0 
z
" transform="scale(0.015625)"/>
       <path id="ArialMT-6f" d="M 213 1659 
Q 213 2581 725 3025 
Q 1153 3394 1769 3394 
Q 2453 3394 2887 2945 
Q 3322 2497 3322 1706 
Q 3322 1066 3130 698 
Q 2938 331 2570 128 
Q 2203 -75 1769 -75 
Q 1072 -75 642 372 
Q 213 819 213 1659 
z
M 791 1659 
Q 791 1022 1069 705 
Q 1347 388 1769 388 
Q 2188 388 2466 706 
Q 2744 1025 2744 1678 
Q 2744 2294 2464 2611 
Q 2184 2928 1769 2928 
Q 1347 2928 1069 2612 
Q 791 2297 791 1659 
z
" transform="scale(0.015625)"/>
       <path id="ArialMT-66" d="M 556 0 
L 556 2881 
L 59 2881 
L 59 3319 
L 556 3319 
L 556 3672 
Q 556 4006 616 4169 
Q 697 4388 901 4523 
Q 1106 4659 1475 4659 
Q 1713 4659 2000 4603 
L 1916 4113 
Q 1741 4144 1584 4144 
Q 1328 4144 1222 4034 
Q 1116 3925 1116 3625 
L 1116 3319 
L 1763 3319 
L 1763 2881 
L 1116 2881 
L 1116 0 
L 556 0 
z
" transform="scale(0.015625)"/>
       <path id="ArialMT-69" d="M 425 3934 
L 425 4581 
L 988 4581 
L 988 3934 
L 425 3934 
z
M 425 0 
L 425 3319 
L 988 3319 
L 988 0 
L 425 0 
z
" transform="scale(0.015625)"/>
       <path id="ArialMT-6c" d="M 409 0 
L 409 4581 
L 972 4581 
L 972 0 
L 409 0 
z
" transform="scale(0.015625)"/>
       <path id="ArialMT-65" d="M 2694 1069 
L 3275 997 
Q 3138 488 2766 206 
Q 2394 -75 1816 -75 
Q 1088 -75 661 373 
Q 234 822 234 1631 
Q 234 2469 665 2931 
Q 1097 3394 1784 3394 
Q 2450 3394 2872 2941 
Q 3294 2488 3294 1666 
Q 3294 1616 3291 1516 
L 816 1516 
Q 847 969 1125 678 
Q 1403 388 1819 388 
Q 2128 388 2347 550 
Q 2566 713 2694 1069 
z
M 847 1978 
L 2700 1978 
Q 2663 2397 2488 2606 
Q 2219 2931 1791 2931 
Q 1403 2931 1139 2672 
Q 875 2413 847 1978 
z
" transform="scale(0.015625)"/>
       <path id="ArialMT-20" transform="scale(0.015625)"/>
       <path id="ArialMT-4e" d="M 488 0 
L 488 4581 
L 1109 4581 
L 3516 984 
L 3516 4581 
L 4097 4581 
L 4097 0 
L 3475 0 
L 1069 3600 
L 1069 0 
L 488 0 
z
" transform="scale(0.015625)"/>
       <path id="ArialMT-61" d="M 2588 409 
Q 2275 144 1986 34 
Q 1697 -75 1366 -75 
Q 819 -75 525 192 
Q 231 459 231 875 
Q 231 1119 342 1320 
Q 453 1522 633 1644 
Q 813 1766 1038 1828 
Q 1203 1872 1538 1913 
Q 2219 1994 2541 2106 
Q 2544 2222 2544 2253 
Q 2544 2597 2384 2738 
Q 2169 2928 1744 2928 
Q 1347 2928 1158 2789 
Q 969 2650 878 2297 
L 328 2372 
Q 403 2725 575 2942 
Q 747 3159 1072 3276 
Q 1397 3394 1825 3394 
Q 2250 3394 2515 3294 
Q 2781 3194 2906 3042 
Q 3031 2891 3081 2659 
Q 3109 2516 3109 2141 
L 3109 1391 
Q 3109 606 3145 398 
Q 3181 191 3288 0 
L 2700 0 
Q 2613 175 2588 409 
z
M 2541 1666 
Q 2234 1541 1622 1453 
Q 1275 1403 1131 1340 
Q 988 1278 909 1158 
Q 831 1038 831 891 
Q 831 666 1001 516 
Q 1172 366 1500 366 
Q 1825 366 2078 508 
Q 2331 650 2450 897 
Q 2541 1088 2541 1459 
L 2541 1666 
z
" transform="scale(0.015625)"/>
       <path id="ArialMT-6d" d="M 422 0 
L 422 3319 
L 925 3319 
L 925 2853 
Q 1081 3097 1340 3245 
Q 1600 3394 1931 3394 
Q 2300 3394 2536 3241 
Q 2772 3088 2869 2813 
Q 3263 3394 3894 3394 
Q 4388 3394 4653 3120 
Q 4919 2847 4919 2278 
L 4919 0 
L 4359 0 
L 4359 2091 
Q 4359 2428 4304 2576 
Q 4250 2725 4106 2815 
Q 3963 2906 3769 2906 
Q 3419 2906 3187 2673 
Q 2956 2441 2956 1928 
L 2956 0 
L 2394 0 
L 2394 2156 
Q 2394 2531 2256 2718 
Q 2119 2906 1806 2906 
Q 1569 2906 1367 2781 
Q 1166 2656 1075 2415 
Q 984 2175 984 1722 
L 984 0 
L 422 0 
z
" transform="scale(0.015625)"/>
      </defs>
      <use xlink:href="#ArialMT-50"/>
      <use xlink:href="#ArialMT-72" x="66.699219"/>
      <use xlink:href="#ArialMT-6f" x="100"/>
      <use xlink:href="#ArialMT-66" x="155.615234"/>
      <use xlink:href="#ArialMT-69" x="183.398438"/>
      <use xlink:href="#ArialMT-6c" x="205.615234"/>
      <use xlink:href="#ArialMT-65" x="227.832031"/>
      <use xlink:href="#ArialMT-20" x="283.447266"/>
      <use xlink:href="#ArialMT-4e" x="311.230469"/>
      <use xlink:href="#ArialMT-61" x="383.447266"/>
      <use xlink:href="#ArialMT-6d" x="439.0625"/>
      <use xlink:href="#ArialMT-65" x="522.363281"/>
     </g>
     <!-- $(U=1, n_{HI}=2, n_{LO}=23, p=.0133)$ -->
     <g style="fill: #262626" transform="translate(117.573273 371.073862) scale(0.144 -0.144)">
      <defs>
       <path id="DejaVuSans-28" d="M 1984 4856 
Q 1566 4138 1362 3434 
Q 1159 2731 1159 2009 
Q 1159 1288 1364 580 
Q 1569 -128 1984 -844 
L 1484 -844 
Q 1016 -109 783 600 
Q 550 1309 550 2009 
Q 550 2706 781 3412 
Q 1013 4119 1484 4856 
L 1984 4856 
z
" transform="scale(0.015625)"/>
       <path id="DejaVuSans-Oblique-55" d="M 991 4666 
L 1625 4666 
L 1075 1831 
Q 1041 1641 1027 1517 
Q 1013 1394 1013 1300 
Q 1013 869 1253 645 
Q 1494 422 1959 422 
Q 2563 422 2898 753 
Q 3234 1084 3378 1831 
L 3928 4666 
L 4563 4666 
L 4000 1753 
Q 3816 809 3300 359 
Q 2784 -91 1888 -91 
Q 1188 -91 780 261 
Q 372 613 372 1216 
Q 372 1325 387 1461 
Q 403 1597 434 1753 
L 991 4666 
z
" transform="scale(0.015625)"/>
       <path id="DejaVuSans-3d" d="M 678 2906 
L 4684 2906 
L 4684 2381 
L 678 2381 
L 678 2906 
z
M 678 1631 
L 4684 1631 
L 4684 1100 
L 678 1100 
L 678 1631 
z
" transform="scale(0.015625)"/>
       <path id="DejaVuSans-31" d="M 794 531 
L 1825 531 
L 1825 4091 
L 703 3866 
L 703 4441 
L 1819 4666 
L 2450 4666 
L 2450 531 
L 3481 531 
L 3481 0 
L 794 0 
L 794 531 
z
" transform="scale(0.015625)"/>
       <path id="DejaVuSans-2c" d="M 750 794 
L 1409 794 
L 1409 256 
L 897 -744 
L 494 -744 
L 750 256 
L 750 794 
z
" transform="scale(0.015625)"/>
       <path id="DejaVuSans-Oblique-6e" d="M 3566 2113 
L 3156 0 
L 2578 0 
L 2988 2091 
Q 3016 2238 3031 2350 
Q 3047 2463 3047 2528 
Q 3047 2791 2881 2937 
Q 2716 3084 2419 3084 
Q 1956 3084 1622 2776 
Q 1288 2469 1184 1941 
L 800 0 
L 225 0 
L 903 3500 
L 1478 3500 
L 1363 2950 
Q 1603 3253 1940 3418 
Q 2278 3584 2650 3584 
Q 3113 3584 3367 3334 
Q 3622 3084 3622 2631 
Q 3622 2519 3608 2391 
Q 3594 2263 3566 2113 
z
" transform="scale(0.015625)"/>
       <path id="DejaVuSans-Oblique-48" d="M 1081 4666 
L 1716 4666 
L 1344 2753 
L 3634 2753 
L 4006 4666 
L 4641 4666 
L 3731 0 
L 3097 0 
L 3531 2222 
L 1241 2222 
L 806 0 
L 172 0 
L 1081 4666 
z
" transform="scale(0.015625)"/>
       <path id="DejaVuSans-Oblique-49" d="M 1081 4666 
L 1716 4666 
L 806 0 
L 172 0 
L 1081 4666 
z
" transform="scale(0.015625)"/>
       <path id="DejaVuSans-32" d="M 1228 531 
L 3431 531 
L 3431 0 
L 469 0 
L 469 531 
Q 828 903 1448 1529 
Q 2069 2156 2228 2338 
Q 2531 2678 2651 2914 
Q 2772 3150 2772 3378 
Q 2772 3750 2511 3984 
Q 2250 4219 1831 4219 
Q 1534 4219 1204 4116 
Q 875 4013 500 3803 
L 500 4441 
Q 881 4594 1212 4672 
Q 1544 4750 1819 4750 
Q 2544 4750 2975 4387 
Q 3406 4025 3406 3419 
Q 3406 3131 3298 2873 
Q 3191 2616 2906 2266 
Q 2828 2175 2409 1742 
Q 1991 1309 1228 531 
z
" transform="scale(0.015625)"/>
       <path id="DejaVuSans-Oblique-4c" d="M 1075 4666 
L 1709 4666 
L 909 525 
L 3181 525 
L 3078 0 
L 172 0 
L 1075 4666 
z
" transform="scale(0.015625)"/>
       <path id="DejaVuSans-Oblique-4f" d="M 2919 4238 
Q 2400 4238 2003 3986 
Q 1606 3734 1313 3219 
Q 1125 2891 1026 2522 
Q 928 2153 928 1778 
Q 928 1128 1239 775 
Q 1550 422 2119 422 
Q 2631 422 3032 676 
Q 3434 931 3719 1434 
Q 3909 1772 4009 2142 
Q 4109 2513 4109 2881 
Q 4109 3528 3796 3883 
Q 3484 4238 2919 4238 
z
M 2100 -91 
Q 1241 -91 748 418 
Q 256 928 256 1813 
Q 256 2319 448 2847 
Q 641 3375 978 3788 
Q 1375 4272 1862 4511 
Q 2350 4750 2938 4750 
Q 3794 4750 4287 4245 
Q 4781 3741 4781 2869 
Q 4781 2331 4593 1812 
Q 4406 1294 4056 872 
Q 3656 384 3173 146 
Q 2691 -91 2100 -91 
z
" transform="scale(0.015625)"/>
       <path id="DejaVuSans-33" d="M 2597 2516 
Q 3050 2419 3304 2112 
Q 3559 1806 3559 1356 
Q 3559 666 3084 287 
Q 2609 -91 1734 -91 
Q 1441 -91 1130 -33 
Q 819 25 488 141 
L 488 750 
Q 750 597 1062 519 
Q 1375 441 1716 441 
Q 2309 441 2620 675 
Q 2931 909 2931 1356 
Q 2931 1769 2642 2001 
Q 2353 2234 1838 2234 
L 1294 2234 
L 1294 2753 
L 1863 2753 
Q 2328 2753 2575 2939 
Q 2822 3125 2822 3475 
Q 2822 3834 2567 4026 
Q 2313 4219 1838 4219 
Q 1578 4219 1281 4162 
Q 984 4106 628 3988 
L 628 4550 
Q 988 4650 1302 4700 
Q 1616 4750 1894 4750 
Q 2613 4750 3031 4423 
Q 3450 4097 3450 3541 
Q 3450 3153 3228 2886 
Q 3006 2619 2597 2516 
z
" transform="scale(0.015625)"/>
       <path id="DejaVuSans-Oblique-70" d="M 3175 2156 
Q 3175 2616 2975 2859 
Q 2775 3103 2400 3103 
Q 2144 3103 1911 2972 
Q 1678 2841 1497 2591 
Q 1319 2344 1212 1994 
Q 1106 1644 1106 1300 
Q 1106 863 1306 627 
Q 1506 391 1875 391 
Q 2147 391 2380 519 
Q 2613 647 2778 891 
Q 2956 1147 3065 1494 
Q 3175 1841 3175 2156 
z
M 1394 2969 
Q 1625 3272 1939 3428 
Q 2253 3584 2638 3584 
Q 3175 3584 3472 3232 
Q 3769 2881 3769 2247 
Q 3769 1728 3584 1258 
Q 3400 788 3053 416 
Q 2822 169 2531 39 
Q 2241 -91 1919 -91 
Q 1547 -91 1294 64 
Q 1041 219 916 525 
L 556 -1331 
L -19 -1331 
L 922 3500 
L 1497 3500 
L 1394 2969 
z
" transform="scale(0.015625)"/>
       <path id="DejaVuSans-2e" d="M 684 794 
L 1344 794 
L 1344 0 
L 684 0 
L 684 794 
z
" transform="scale(0.015625)"/>
       <path id="DejaVuSans-30" d="M 2034 4250 
Q 1547 4250 1301 3770 
Q 1056 3291 1056 2328 
Q 1056 1369 1301 889 
Q 1547 409 2034 409 
Q 2525 409 2770 889 
Q 3016 1369 3016 2328 
Q 3016 3291 2770 3770 
Q 2525 4250 2034 4250 
z
M 2034 4750 
Q 2819 4750 3233 4129 
Q 3647 3509 3647 2328 
Q 3647 1150 3233 529 
Q 2819 -91 2034 -91 
Q 1250 -91 836 529 
Q 422 1150 422 2328 
Q 422 3509 836 4129 
Q 1250 4750 2034 4750 
z
" transform="scale(0.015625)"/>
       <path id="DejaVuSans-29" d="M 513 4856 
L 1013 4856 
Q 1481 4119 1714 3412 
Q 1947 2706 1947 2009 
Q 1947 1309 1714 600 
Q 1481 -109 1013 -844 
L 513 -844 
Q 928 -128 1133 580 
Q 1338 1288 1338 2009 
Q 1338 2731 1133 3434 
Q 928 4138 513 4856 
z
" transform="scale(0.015625)"/>
      </defs>
      <use xlink:href="#DejaVuSans-28" transform="translate(0 0.125)"/>
      <use xlink:href="#DejaVuSans-Oblique-55" transform="translate(39.013672 0.125)"/>
      <use xlink:href="#DejaVuSans-3d" transform="translate(131.689453 0.125)"/>
      <use xlink:href="#DejaVuSans-31" transform="translate(234.960938 0.125)"/>
      <use xlink:href="#DejaVuSans-2c" transform="translate(298.583984 0.125)"/>
      <use xlink:href="#DejaVuSans-Oblique-6e" transform="translate(349.853516 0.125)"/>
      <use xlink:href="#DejaVuSans-Oblique-48" transform="translate(413.232422 -16.28125) scale(0.7)"/>
      <use xlink:href="#DejaVuSans-Oblique-49" transform="translate(465.869141 -16.28125) scale(0.7)"/>
      <use xlink:href="#DejaVuSans-3d" transform="translate(508.730469 0.125)"/>
      <use xlink:href="#DejaVuSans-32" transform="translate(612.001953 0.125)"/>
      <use xlink:href="#DejaVuSans-2c" transform="translate(675.625 0.125)"/>
      <use xlink:href="#DejaVuSans-Oblique-6e" transform="translate(726.894531 0.125)"/>
      <use xlink:href="#DejaVuSans-Oblique-4c" transform="translate(790.273438 -16.28125) scale(0.7)"/>
      <use xlink:href="#DejaVuSans-Oblique-4f" transform="translate(829.272461 -16.28125) scale(0.7)"/>
      <use xlink:href="#DejaVuSans-3d" transform="translate(906.586914 0.125)"/>
      <use xlink:href="#DejaVuSans-32" transform="translate(1009.858398 0.125)"/>
      <use xlink:href="#DejaVuSans-33" transform="translate(1073.481445 0.125)"/>
      <use xlink:href="#DejaVuSans-2c" transform="translate(1137.104492 0.125)"/>
      <use xlink:href="#DejaVuSans-Oblique-70" transform="translate(1188.374023 0.125)"/>
      <use xlink:href="#DejaVuSans-3d" transform="translate(1271.333008 0.125)"/>
      <use xlink:href="#DejaVuSans-2e" transform="translate(1374.604492 0.125)"/>
      <use xlink:href="#DejaVuSans-30" transform="translate(1425.874023 0.125)"/>
      <use xlink:href="#DejaVuSans-31" transform="translate(1489.49707 0.125)"/>
      <use xlink:href="#DejaVuSans-33" transform="translate(1553.120117 0.125)"/>
      <use xlink:href="#DejaVuSans-33" transform="translate(1616.743164 0.125)"/>
      <use xlink:href="#DejaVuSans-29" transform="translate(1680.366211 0.125)"/>
     </g>
    </g>
   </g>
   <g id="matplotlib.axis_2">
    <g id="ytick_1">
     <g id="line2d_1">
      <path d="M 51.186 313.323676 
L 431.640545 313.323676 
" clip-path="url(#pf0a71875d4)" style="fill: none; stroke: #cccccc; stroke-width: 0.8; stroke-linecap: round"/>
     </g>
     <g id="text_4">
      <!-- 0.4 -->
      <g style="fill: #262626" transform="translate(24.538 318.047832) scale(0.132 -0.132)">
       <defs>
        <path id="ArialMT-30" d="M 266 2259 
Q 266 3072 433 3567 
Q 600 4063 929 4331 
Q 1259 4600 1759 4600 
Q 2128 4600 2406 4451 
Q 2684 4303 2865 4023 
Q 3047 3744 3150 3342 
Q 3253 2941 3253 2259 
Q 3253 1453 3087 958 
Q 2922 463 2592 192 
Q 2263 -78 1759 -78 
Q 1097 -78 719 397 
Q 266 969 266 2259 
z
M 844 2259 
Q 844 1131 1108 757 
Q 1372 384 1759 384 
Q 2147 384 2411 759 
Q 2675 1134 2675 2259 
Q 2675 3391 2411 3762 
Q 2147 4134 1753 4134 
Q 1366 4134 1134 3806 
Q 844 3388 844 2259 
z
" transform="scale(0.015625)"/>
        <path id="ArialMT-2e" d="M 581 0 
L 581 641 
L 1222 641 
L 1222 0 
L 581 0 
z
" transform="scale(0.015625)"/>
        <path id="ArialMT-34" d="M 2069 0 
L 2069 1097 
L 81 1097 
L 81 1613 
L 2172 4581 
L 2631 4581 
L 2631 1613 
L 3250 1613 
L 3250 1097 
L 2631 1097 
L 2631 0 
L 2069 0 
z
M 2069 1613 
L 2069 3678 
L 634 1613 
L 2069 1613 
z
" transform="scale(0.015625)"/>
       </defs>
       <use xlink:href="#ArialMT-30"/>
       <use xlink:href="#ArialMT-2e" x="55.615234"/>
       <use xlink:href="#ArialMT-34" x="83.398438"/>
      </g>
     </g>
    </g>
    <g id="ytick_2">
     <g id="line2d_2">
      <path d="M 51.186 253.355427 
L 431.640545 253.355427 
" clip-path="url(#pf0a71875d4)" style="fill: none; stroke: #cccccc; stroke-width: 0.8; stroke-linecap: round"/>
     </g>
     <g id="text_5">
      <!-- 0.5 -->
      <g style="fill: #262626" transform="translate(24.538 258.079583) scale(0.132 -0.132)">
       <defs>
        <path id="ArialMT-35" d="M 266 1200 
L 856 1250 
Q 922 819 1161 601 
Q 1400 384 1738 384 
Q 2144 384 2425 690 
Q 2706 997 2706 1503 
Q 2706 1984 2436 2262 
Q 2166 2541 1728 2541 
Q 1456 2541 1237 2417 
Q 1019 2294 894 2097 
L 366 2166 
L 809 4519 
L 3088 4519 
L 3088 3981 
L 1259 3981 
L 1013 2750 
Q 1425 3038 1878 3038 
Q 2478 3038 2890 2622 
Q 3303 2206 3303 1553 
Q 3303 931 2941 478 
Q 2500 -78 1738 -78 
Q 1113 -78 717 272 
Q 322 622 266 1200 
z
" transform="scale(0.015625)"/>
       </defs>
       <use xlink:href="#ArialMT-30"/>
       <use xlink:href="#ArialMT-2e" x="55.615234"/>
       <use xlink:href="#ArialMT-35" x="83.398438"/>
      </g>
     </g>
    </g>
    <g id="ytick_3">
     <g id="line2d_3">
      <path d="M 51.186 193.387178 
L 431.640545 193.387178 
" clip-path="url(#pf0a71875d4)" style="fill: none; stroke: #cccccc; stroke-width: 0.8; stroke-linecap: round"/>
     </g>
     <g id="text_6">
      <!-- 0.6 -->
      <g style="fill: #262626" transform="translate(24.538 198.111334) scale(0.132 -0.132)">
       <defs>
        <path id="ArialMT-36" d="M 3184 3459 
L 2625 3416 
Q 2550 3747 2413 3897 
Q 2184 4138 1850 4138 
Q 1581 4138 1378 3988 
Q 1113 3794 959 3422 
Q 806 3050 800 2363 
Q 1003 2672 1297 2822 
Q 1591 2972 1913 2972 
Q 2475 2972 2870 2558 
Q 3266 2144 3266 1488 
Q 3266 1056 3080 686 
Q 2894 316 2569 119 
Q 2244 -78 1831 -78 
Q 1128 -78 684 439 
Q 241 956 241 2144 
Q 241 3472 731 4075 
Q 1159 4600 1884 4600 
Q 2425 4600 2770 4297 
Q 3116 3994 3184 3459 
z
M 888 1484 
Q 888 1194 1011 928 
Q 1134 663 1356 523 
Q 1578 384 1822 384 
Q 2178 384 2434 671 
Q 2691 959 2691 1453 
Q 2691 1928 2437 2201 
Q 2184 2475 1800 2475 
Q 1419 2475 1153 2201 
Q 888 1928 888 1484 
z
" transform="scale(0.015625)"/>
       </defs>
       <use xlink:href="#ArialMT-30"/>
       <use xlink:href="#ArialMT-2e" x="55.615234"/>
       <use xlink:href="#ArialMT-36" x="83.398438"/>
      </g>
     </g>
    </g>
    <g id="ytick_4">
     <g id="line2d_4">
      <path d="M 51.186 133.418929 
L 431.640545 133.418929 
" clip-path="url(#pf0a71875d4)" style="fill: none; stroke: #cccccc; stroke-width: 0.8; stroke-linecap: round"/>
     </g>
     <g id="text_7">
      <!-- 0.7 -->
      <g style="fill: #262626" transform="translate(24.538 138.143085) scale(0.132 -0.132)">
       <defs>
        <path id="ArialMT-37" d="M 303 3981 
L 303 4522 
L 3269 4522 
L 3269 4084 
Q 2831 3619 2401 2847 
Q 1972 2075 1738 1259 
Q 1569 684 1522 0 
L 944 0 
Q 953 541 1156 1306 
Q 1359 2072 1739 2783 
Q 2119 3494 2547 3981 
L 303 3981 
z
" transform="scale(0.015625)"/>
       </defs>
       <use xlink:href="#ArialMT-30"/>
       <use xlink:href="#ArialMT-2e" x="55.615234"/>
       <use xlink:href="#ArialMT-37" x="83.398438"/>
      </g>
     </g>
    </g>
    <g id="ytick_5">
     <g id="line2d_5">
      <path d="M 51.186 73.45068 
L 431.640545 73.45068 
" clip-path="url(#pf0a71875d4)" style="fill: none; stroke: #cccccc; stroke-width: 0.8; stroke-linecap: round"/>
     </g>
     <g id="text_8">
      <!-- 0.8 -->
      <g style="fill: #262626" transform="translate(24.538 78.174836) scale(0.132 -0.132)">
       <defs>
        <path id="ArialMT-38" d="M 1131 2484 
Q 781 2613 612 2850 
Q 444 3088 444 3419 
Q 444 3919 803 4259 
Q 1163 4600 1759 4600 
Q 2359 4600 2725 4251 
Q 3091 3903 3091 3403 
Q 3091 3084 2923 2848 
Q 2756 2613 2416 2484 
Q 2838 2347 3058 2040 
Q 3278 1734 3278 1309 
Q 3278 722 2862 322 
Q 2447 -78 1769 -78 
Q 1091 -78 675 323 
Q 259 725 259 1325 
Q 259 1772 486 2073 
Q 713 2375 1131 2484 
z
M 1019 3438 
Q 1019 3113 1228 2906 
Q 1438 2700 1772 2700 
Q 2097 2700 2305 2904 
Q 2513 3109 2513 3406 
Q 2513 3716 2298 3927 
Q 2084 4138 1766 4138 
Q 1444 4138 1231 3931 
Q 1019 3725 1019 3438 
z
M 838 1322 
Q 838 1081 952 856 
Q 1066 631 1291 507 
Q 1516 384 1775 384 
Q 2178 384 2440 643 
Q 2703 903 2703 1303 
Q 2703 1709 2433 1975 
Q 2163 2241 1756 2241 
Q 1359 2241 1098 1978 
Q 838 1716 838 1322 
z
" transform="scale(0.015625)"/>
       </defs>
       <use xlink:href="#ArialMT-30"/>
       <use xlink:href="#ArialMT-2e" x="55.615234"/>
       <use xlink:href="#ArialMT-38" x="83.398438"/>
      </g>
     </g>
    </g>
    <g id="text_9">
     <!-- search_tactics_Hs_beg -->
     <g style="fill: #262626" transform="translate(17.50725 256.636125) rotate(-90) scale(0.144 -0.144)">
      <defs>
       <path id="ArialMT-73" d="M 197 991 
L 753 1078 
Q 800 744 1014 566 
Q 1228 388 1613 388 
Q 2000 388 2187 545 
Q 2375 703 2375 916 
Q 2375 1106 2209 1216 
Q 2094 1291 1634 1406 
Q 1016 1563 777 1677 
Q 538 1791 414 1992 
Q 291 2194 291 2438 
Q 291 2659 392 2848 
Q 494 3038 669 3163 
Q 800 3259 1026 3326 
Q 1253 3394 1513 3394 
Q 1903 3394 2198 3281 
Q 2494 3169 2634 2976 
Q 2775 2784 2828 2463 
L 2278 2388 
Q 2241 2644 2061 2787 
Q 1881 2931 1553 2931 
Q 1166 2931 1000 2803 
Q 834 2675 834 2503 
Q 834 2394 903 2306 
Q 972 2216 1119 2156 
Q 1203 2125 1616 2013 
Q 2213 1853 2448 1751 
Q 2684 1650 2818 1456 
Q 2953 1263 2953 975 
Q 2953 694 2789 445 
Q 2625 197 2315 61 
Q 2006 -75 1616 -75 
Q 969 -75 630 194 
Q 291 463 197 991 
z
" transform="scale(0.015625)"/>
       <path id="ArialMT-63" d="M 2588 1216 
L 3141 1144 
Q 3050 572 2676 248 
Q 2303 -75 1759 -75 
Q 1078 -75 664 370 
Q 250 816 250 1647 
Q 250 2184 428 2587 
Q 606 2991 970 3192 
Q 1334 3394 1763 3394 
Q 2303 3394 2647 3120 
Q 2991 2847 3088 2344 
L 2541 2259 
Q 2463 2594 2264 2762 
Q 2066 2931 1784 2931 
Q 1359 2931 1093 2626 
Q 828 2322 828 1663 
Q 828 994 1084 691 
Q 1341 388 1753 388 
Q 2084 388 2306 591 
Q 2528 794 2588 1216 
z
" transform="scale(0.015625)"/>
       <path id="ArialMT-68" d="M 422 0 
L 422 4581 
L 984 4581 
L 984 2938 
Q 1378 3394 1978 3394 
Q 2347 3394 2619 3248 
Q 2891 3103 3008 2847 
Q 3125 2591 3125 2103 
L 3125 0 
L 2563 0 
L 2563 2103 
Q 2563 2525 2380 2717 
Q 2197 2909 1863 2909 
Q 1613 2909 1392 2779 
Q 1172 2650 1078 2428 
Q 984 2206 984 1816 
L 984 0 
L 422 0 
z
" transform="scale(0.015625)"/>
       <path id="ArialMT-5f" d="M -97 -1272 
L -97 -866 
L 3631 -866 
L 3631 -1272 
L -97 -1272 
z
" transform="scale(0.015625)"/>
       <path id="ArialMT-74" d="M 1650 503 
L 1731 6 
Q 1494 -44 1306 -44 
Q 1000 -44 831 53 
Q 663 150 594 308 
Q 525 466 525 972 
L 525 2881 
L 113 2881 
L 113 3319 
L 525 3319 
L 525 4141 
L 1084 4478 
L 1084 3319 
L 1650 3319 
L 1650 2881 
L 1084 2881 
L 1084 941 
Q 1084 700 1114 631 
Q 1144 563 1211 522 
Q 1278 481 1403 481 
Q 1497 481 1650 503 
z
" transform="scale(0.015625)"/>
       <path id="ArialMT-62" d="M 941 0 
L 419 0 
L 419 4581 
L 981 4581 
L 981 2947 
Q 1338 3394 1891 3394 
Q 2197 3394 2470 3270 
Q 2744 3147 2920 2923 
Q 3097 2700 3197 2384 
Q 3297 2069 3297 1709 
Q 3297 856 2875 390 
Q 2453 -75 1863 -75 
Q 1275 -75 941 416 
L 941 0 
z
M 934 1684 
Q 934 1088 1097 822 
Q 1363 388 1816 388 
Q 2184 388 2453 708 
Q 2722 1028 2722 1663 
Q 2722 2313 2464 2622 
Q 2206 2931 1841 2931 
Q 1472 2931 1203 2611 
Q 934 2291 934 1684 
z
" transform="scale(0.015625)"/>
       <path id="ArialMT-67" d="M 319 -275 
L 866 -356 
Q 900 -609 1056 -725 
Q 1266 -881 1628 -881 
Q 2019 -881 2231 -725 
Q 2444 -569 2519 -288 
Q 2563 -116 2559 434 
Q 2191 0 1641 0 
Q 956 0 581 494 
Q 206 988 206 1678 
Q 206 2153 378 2554 
Q 550 2956 876 3175 
Q 1203 3394 1644 3394 
Q 2231 3394 2613 2919 
L 2613 3319 
L 3131 3319 
L 3131 450 
Q 3131 -325 2973 -648 
Q 2816 -972 2473 -1159 
Q 2131 -1347 1631 -1347 
Q 1038 -1347 672 -1080 
Q 306 -813 319 -275 
z
M 784 1719 
Q 784 1066 1043 766 
Q 1303 466 1694 466 
Q 2081 466 2343 764 
Q 2606 1063 2606 1700 
Q 2606 2309 2336 2618 
Q 2066 2928 1684 2928 
Q 1309 2928 1046 2623 
Q 784 2319 784 1719 
z
" transform="scale(0.015625)"/>
      </defs>
      <use xlink:href="#ArialMT-73"/>
      <use xlink:href="#ArialMT-65" x="50"/>
      <use xlink:href="#ArialMT-61" x="105.615234"/>
      <use xlink:href="#ArialMT-72" x="161.230469"/>
      <use xlink:href="#ArialMT-63" x="194.53125"/>
      <use xlink:href="#ArialMT-68" x="244.53125"/>
      <use xlink:href="#ArialMT-5f" x="300.146484"/>
      <use xlink:href="#ArialMT-74" x="355.761719"/>
      <use xlink:href="#ArialMT-61" x="383.544922"/>
      <use xlink:href="#ArialMT-63" x="439.160156"/>
      <use xlink:href="#ArialMT-74" x="489.160156"/>
      <use xlink:href="#ArialMT-69" x="516.943359"/>
      <use xlink:href="#ArialMT-63" x="539.160156"/>
      <use xlink:href="#ArialMT-73" x="589.160156"/>
      <use xlink:href="#ArialMT-5f" x="639.160156"/>
      <use xlink:href="#ArialMT-48" x="694.775391"/>
      <use xlink:href="#ArialMT-73" x="766.992188"/>
      <use xlink:href="#ArialMT-5f" x="816.992188"/>
      <use xlink:href="#ArialMT-62" x="872.607422"/>
      <use xlink:href="#ArialMT-65" x="928.222656"/>
      <use xlink:href="#ArialMT-67" x="983.837891"/>
     </g>
    </g>
   </g>
   <g id="PolyCollection_1">
    <defs>
     <path id="m2c6dfcf209" d="M 147.373122 -73.497862 
L 145.226151 -73.497862 
L 144.916774 -75.624783 
L 144.540154 -77.751703 
L 144.088125 -79.878623 
L 143.553168 -82.005544 
L 142.928838 -84.132464 
L 142.21018 -86.259384 
L 141.394113 -88.386305 
L 140.479732 -90.513225 
L 139.468492 -92.640145 
L 138.364257 -94.767066 
L 137.17319 -96.893986 
L 135.903473 -99.020906 
L 134.564893 -101.147827 
L 133.168298 -103.274747 
L 131.724984 -105.401667 
L 130.246062 -107.528587 
L 128.741855 -109.655508 
L 127.221396 -111.782428 
L 125.692067 -113.909348 
L 124.159414 -116.036269 
L 122.627163 -118.163189 
L 121.097428 -120.290109 
L 119.571097 -122.41703 
L 118.048353 -124.54395 
L 116.529266 -126.67087 
L 115.014401 -128.797791 
L 113.505363 -130.924711 
L 112.0052 -133.051631 
L 110.51861 -135.178551 
L 109.051889 -137.305472 
L 107.612605 -139.432392 
L 106.208978 -141.559312 
L 104.849018 -143.686233 
L 103.539472 -145.813153 
L 102.284695 -147.940073 
L 101.08556 -150.066994 
L 99.938572 -152.193914 
L 98.835328 -154.320834 
L 97.762462 -156.447755 
L 96.702191 -158.574675 
L 95.63349 -160.701595 
L 94.533901 -162.828515 
L 93.381873 -164.955436 
L 92.159458 -167.082356 
L 90.85514 -169.209276 
L 89.466508 -171.336197 
L 88.002489 -173.463117 
L 86.484845 -175.590037 
L 84.948727 -177.716958 
L 83.442117 -179.843878 
L 82.02412 -181.970798 
L 80.762167 -184.097719 
L 79.728301 -186.224639 
L 78.994812 -188.351559 
L 78.629557 -190.478479 
L 78.691342 -192.6054 
L 79.225732 -194.73232 
L 80.261638 -196.85924 
L 81.808929 -198.986161 
L 83.857276 -201.113081 
L 86.376281 -203.240001 
L 89.316885 -205.366922 
L 92.61391 -207.493842 
L 96.189538 -209.620762 
L 99.957458 -211.747683 
L 103.82737 -213.874603 
L 107.70954 -216.001523 
L 111.5191 -218.128443 
L 115.179838 -220.255364 
L 118.627262 -222.382284 
L 121.810792 -224.509204 
L 124.695005 -226.636125 
L 127.259927 -228.763045 
L 129.500418 -230.889965 
L 131.424775 -233.016886 
L 133.052707 -235.143806 
L 134.41285 -237.270726 
L 135.540051 -239.397647 
L 136.472589 -241.524567 
L 137.249546 -243.651487 
L 137.908464 -245.778407 
L 138.48342 -247.905328 
L 139.003607 -250.032248 
L 139.492439 -252.159168 
L 139.967188 -254.286089 
L 140.439103 -256.413009 
L 140.913927 -258.539929 
L 141.392727 -260.66685 
L 141.872908 -262.79377 
L 142.349318 -264.92069 
L 142.815335 -267.047611 
L 143.263851 -269.174531 
L 143.688098 -271.301451 
L 144.082267 -273.428371 
L 144.44192 -275.555292 
L 144.7642 -277.682212 
L 145.047856 -279.809132 
L 145.293126 -281.936053 
L 145.501525 -284.062973 
L 147.097748 -284.062973 
L 147.097748 -284.062973 
L 147.306146 -281.936053 
L 147.551417 -279.809132 
L 147.835072 -277.682212 
L 148.157353 -275.555292 
L 148.517006 -273.428371 
L 148.911175 -271.301451 
L 149.335421 -269.174531 
L 149.783938 -267.047611 
L 150.249955 -264.92069 
L 150.726365 -262.79377 
L 151.206545 -260.66685 
L 151.685345 -258.539929 
L 152.16017 -256.413009 
L 152.632085 -254.286089 
L 153.106834 -252.159168 
L 153.595666 -250.032248 
L 154.115853 -247.905328 
L 154.690809 -245.778407 
L 155.349727 -243.651487 
L 156.126684 -241.524567 
L 157.059222 -239.397647 
L 158.186423 -237.270726 
L 159.546566 -235.143806 
L 161.174497 -233.016886 
L 163.098855 -230.889965 
L 165.339346 -228.763045 
L 167.904267 -226.636125 
L 170.788481 -224.509204 
L 173.972011 -222.382284 
L 177.419435 -220.255364 
L 181.080173 -218.128443 
L 184.889733 -216.001523 
L 188.771902 -213.874603 
L 192.641815 -211.747683 
L 196.409735 -209.620762 
L 199.985363 -207.493842 
L 203.282388 -205.366922 
L 206.222992 -203.240001 
L 208.741997 -201.113081 
L 210.790343 -198.986161 
L 212.337635 -196.85924 
L 213.373541 -194.73232 
L 213.907931 -192.6054 
L 213.969716 -190.478479 
L 213.60446 -188.351559 
L 212.870971 -186.224639 
L 211.837106 -184.097719 
L 210.575153 -181.970798 
L 209.157156 -179.843878 
L 207.650545 -177.716958 
L 206.114427 -175.590037 
L 204.596784 -173.463117 
L 203.132764 -171.336197 
L 201.744133 -169.209276 
L 200.439815 -167.082356 
L 199.2174 -164.955436 
L 198.065372 -162.828515 
L 196.965783 -160.701595 
L 195.897082 -158.574675 
L 194.83681 -156.447755 
L 193.763945 -154.320834 
L 192.6607 -152.193914 
L 191.513712 -150.066994 
L 190.314578 -147.940073 
L 189.059801 -145.813153 
L 187.750255 -143.686233 
L 186.390295 -141.559312 
L 184.986668 -139.432392 
L 183.547383 -137.305472 
L 182.080663 -135.178551 
L 180.594073 -133.051631 
L 179.09391 -130.924711 
L 177.584872 -128.797791 
L 176.070007 -126.67087 
L 174.55092 -124.54395 
L 173.028175 -122.41703 
L 171.501845 -120.290109 
L 169.97211 -118.163189 
L 168.439859 -116.036269 
L 166.907206 -113.909348 
L 165.377877 -111.782428 
L 163.857418 -109.655508 
L 162.353211 -107.528587 
L 160.874288 -105.401667 
L 159.430975 -103.274747 
L 158.03438 -101.147827 
L 156.6958 -99.020906 
L 155.426083 -96.893986 
L 154.235015 -94.767066 
L 153.130781 -92.640145 
L 152.119541 -90.513225 
L 151.20516 -88.386305 
L 150.389093 -86.259384 
L 149.670435 -84.132464 
L 149.046104 -82.005544 
L 148.511148 -79.878623 
L 148.059119 -77.751703 
L 147.682499 -75.624783 
L 147.373122 -73.497862 
z
" style="stroke: #3f3f3f; stroke-width: 1.2"/>
    </defs>
    <g clip-path="url(#pf0a71875d4)">
     <use xlink:href="#m2c6dfcf209" x="0" y="381.297862" style="fill: #3274a1; stroke: #3f3f3f; stroke-width: 1.2"/>
    </g>
   </g>
   <g id="PolyCollection_2">
    <defs>
     <path id="md28f498297" d="M 343.763251 -197.142747 
L 329.290567 -197.142747 
L 328.424832 -198.439264 
L 327.483898 -199.73578 
L 326.465171 -201.032296 
L 325.366491 -202.328813 
L 324.186203 -203.625329 
L 322.923218 -204.921845 
L 321.577081 -206.218362 
L 320.148027 -207.514878 
L 318.637025 -208.811394 
L 317.045828 -210.107911 
L 315.376996 -211.404427 
L 313.633921 -212.700943 
L 311.820829 -213.99746 
L 309.942774 -215.293976 
L 308.005615 -216.590492 
L 306.015978 -217.887008 
L 303.9812 -219.183525 
L 301.909266 -220.480041 
L 299.80872 -221.776557 
L 297.688575 -223.073074 
L 295.558203 -224.36959 
L 293.42722 -225.666106 
L 291.305363 -226.962623 
L 289.202359 -228.259139 
L 287.127801 -229.555655 
L 285.09102 -230.852172 
L 283.100958 -232.148688 
L 281.166056 -233.445204 
L 279.294153 -234.741721 
L 277.492391 -236.038237 
L 275.767143 -237.334753 
L 274.123958 -238.631269 
L 272.567523 -239.927786 
L 271.101649 -241.224302 
L 269.729276 -242.520818 
L 268.4525 -243.817335 
L 267.272617 -245.113851 
L 266.190194 -246.410367 
L 265.205142 -247.706884 
L 264.316822 -249.0034 
L 263.524139 -250.299916 
L 262.825665 -251.596433 
L 262.219752 -252.892949 
L 261.704646 -254.189465 
L 261.278605 -255.485982 
L 260.939996 -256.782498 
L 260.687396 -258.079014 
L 260.519662 -259.37553 
L 260.436 -260.672047 
L 260.436 -261.968563 
L 260.519662 -263.265079 
L 260.687396 -264.561596 
L 260.939996 -265.858112 
L 261.278605 -267.154628 
L 261.704646 -268.451145 
L 262.219752 -269.747661 
L 262.825665 -271.044177 
L 263.524139 -272.340694 
L 264.316822 -273.63721 
L 265.205142 -274.933726 
L 266.190194 -276.230243 
L 267.272617 -277.526759 
L 268.4525 -278.823275 
L 269.729276 -280.119792 
L 271.101649 -281.416308 
L 272.567523 -282.712824 
L 274.123958 -284.00934 
L 275.767143 -285.305857 
L 277.492391 -286.602373 
L 279.294153 -287.898889 
L 281.166056 -289.195406 
L 283.100958 -290.491922 
L 285.09102 -291.788438 
L 287.127801 -293.084955 
L 289.202359 -294.381471 
L 291.305363 -295.677987 
L 293.42722 -296.974504 
L 295.558203 -298.27102 
L 297.688575 -299.567536 
L 299.80872 -300.864053 
L 301.909266 -302.160569 
L 303.9812 -303.457085 
L 306.015978 -304.753601 
L 308.005615 -306.050118 
L 309.942774 -307.346634 
L 311.820829 -308.64315 
L 313.633921 -309.939667 
L 315.376996 -311.236183 
L 317.045828 -312.532699 
L 318.637025 -313.829216 
L 320.148027 -315.125732 
L 321.577081 -316.422248 
L 322.923218 -317.718765 
L 324.186203 -319.015281 
L 325.366491 -320.311797 
L 326.465171 -321.608314 
L 327.483898 -322.90483 
L 328.424832 -324.201346 
L 329.290567 -325.497862 
L 343.763251 -325.497862 
L 343.763251 -325.497862 
L 344.628986 -324.201346 
L 345.56992 -322.90483 
L 346.588647 -321.608314 
L 347.687327 -320.311797 
L 348.867616 -319.015281 
L 350.130601 -317.718765 
L 351.476737 -316.422248 
L 352.905792 -315.125732 
L 354.416793 -313.829216 
L 356.007991 -312.532699 
L 357.676822 -311.236183 
L 359.419897 -309.939667 
L 361.232989 -308.64315 
L 363.111044 -307.346634 
L 365.048203 -306.050118 
L 367.03784 -304.753601 
L 369.072618 -303.457085 
L 371.144552 -302.160569 
L 373.245098 -300.864053 
L 375.365243 -299.567536 
L 377.495615 -298.27102 
L 379.626598 -296.974504 
L 381.748456 -295.677987 
L 383.85146 -294.381471 
L 385.926017 -293.084955 
L 387.962798 -291.788438 
L 389.952861 -290.491922 
L 391.887762 -289.195406 
L 393.759665 -287.898889 
L 395.561427 -286.602373 
L 397.286675 -285.305857 
L 398.92986 -284.00934 
L 400.486295 -282.712824 
L 401.952169 -281.416308 
L 403.324542 -280.119792 
L 404.601319 -278.823275 
L 405.781201 -277.526759 
L 406.863625 -276.230243 
L 407.848676 -274.933726 
L 408.736997 -273.63721 
L 409.529679 -272.340694 
L 410.228153 -271.044177 
L 410.834066 -269.747661 
L 411.349172 -268.451145 
L 411.775213 -267.154628 
L 412.113822 -265.858112 
L 412.366422 -264.561596 
L 412.534156 -263.265079 
L 412.617818 -261.968563 
L 412.617818 -260.672047 
L 412.534156 -259.37553 
L 412.366422 -258.079014 
L 412.113822 -256.782498 
L 411.775213 -255.485982 
L 411.349172 -254.189465 
L 410.834066 -252.892949 
L 410.228153 -251.596433 
L 409.529679 -250.299916 
L 408.736997 -249.0034 
L 407.848676 -247.706884 
L 406.863625 -246.410367 
L 405.781201 -245.113851 
L 404.601319 -243.817335 
L 403.324542 -242.520818 
L 401.952169 -241.224302 
L 400.486295 -239.927786 
L 398.92986 -238.631269 
L 397.286675 -237.334753 
L 395.561427 -236.038237 
L 393.759665 -234.741721 
L 391.887762 -233.445204 
L 389.952861 -232.148688 
L 387.962798 -230.852172 
L 385.926017 -229.555655 
L 383.85146 -228.259139 
L 381.748456 -226.962623 
L 379.626598 -225.666106 
L 377.495615 -224.36959 
L 375.365243 -223.073074 
L 373.245098 -221.776557 
L 371.144552 -220.480041 
L 369.072618 -219.183525 
L 367.03784 -217.887008 
L 365.048203 -216.590492 
L 363.111044 -215.293976 
L 361.232989 -213.99746 
L 359.419897 -212.700943 
L 357.676822 -211.404427 
L 356.007991 -210.107911 
L 354.416793 -208.811394 
L 352.905792 -207.514878 
L 351.476737 -206.218362 
L 350.130601 -204.921845 
L 348.867616 -203.625329 
L 347.687327 -202.328813 
L 346.588647 -201.032296 
L 345.56992 -199.73578 
L 344.628986 -198.439264 
L 343.763251 -197.142747 
z
" style="stroke: #3f3f3f; stroke-width: 1.2"/>
    </defs>
    <g clip-path="url(#pf0a71875d4)">
     <use xlink:href="#md28f498297" x="0" y="381.297862" style="fill: #e1812c; stroke: #3f3f3f; stroke-width: 1.2"/>
    </g>
   </g>
   <g id="line2d_6">
    <path d="M 146.299636 272.090344 
L 146.299636 132.944546 
" clip-path="url(#pf0a71875d4)" style="fill: none; stroke: #3f3f3f; stroke-width: 1.2; stroke-linecap: round"/>
   </g>
   <g id="line2d_7">
    <path d="M 146.299636 227.148675 
L 146.299636 185.093983 
" clip-path="url(#pf0a71875d4)" style="fill: none; stroke: #3f3f3f; stroke-width: 3.6; stroke-linecap: round"/>
   </g>
   <g id="line2d_8">
    <path d="M 336.526909 138.513723 
L 336.526909 101.441392 
" clip-path="url(#pf0a71875d4)" style="fill: none; stroke: #3f3f3f; stroke-width: 1.2; stroke-linecap: round"/>
   </g>
   <g id="line2d_9">
    <path d="M 336.526909 129.24564 
L 336.526909 110.709475 
" clip-path="url(#pf0a71875d4)" style="fill: none; stroke: #3f3f3f; stroke-width: 3.6; stroke-linecap: round"/>
   </g>
   <g id="patch_3">
    <path d="M 51.186 320.4 
L 51.186 43.2 
" style="fill: none; stroke: #cccccc; stroke-linejoin: miter; stroke-linecap: square"/>
   </g>
   <g id="patch_4">
    <path d="M 51.186 320.4 
L 431.640545 320.4 
" style="fill: none; stroke: #cccccc; stroke-linejoin: miter; stroke-linecap: square"/>
   </g>
   <g id="PathCollection_1">
    <defs>
     <path id="m83416e41cd" d="M 0 1.2 
C 0.318244 1.2 0.623496 1.07356 0.848528 0.848528 
C 1.07356 0.623496 1.2 0.318244 1.2 0 
C 1.2 -0.318244 1.07356 -0.623496 0.848528 -0.848528 
C 0.623496 -1.07356 0.318244 -1.2 0 -1.2 
C -0.318244 -1.2 -0.623496 -1.07356 -0.848528 -0.848528 
C -1.07356 -0.623496 -1.2 -0.318244 -1.2 0 
C -1.2 0.318244 -1.07356 0.623496 -0.848528 0.848528 
C -0.623496 1.07356 -0.318244 1.2 0 1.2 
z
" style="stroke: #3f3f3f; stroke-width: 0.8"/>
    </defs>
    <g clip-path="url(#pf0a71875d4)">
     <use xlink:href="#m83416e41cd" x="146.299636" y="193.87041" style="fill: #ffffff; stroke: #3f3f3f; stroke-width: 0.8"/>
    </g>
   </g>
   <g id="PathCollection_2">
    <g clip-path="url(#pf0a71875d4)">
     <use xlink:href="#m83416e41cd" x="336.526909" y="119.977558" style="fill: #ffffff; stroke: #3f3f3f; stroke-width: 0.8"/>
    </g>
   </g>
   <g id="text_10">
    <!-- Overall -->
    <g style="fill: #262626" transform="translate(218.608398 37.2) scale(0.144 -0.144)">
     <defs>
      <path id="ArialMT-76" d="M 1344 0 
L 81 3319 
L 675 3319 
L 1388 1331 
Q 1503 1009 1600 663 
Q 1675 925 1809 1294 
L 2547 3319 
L 3125 3319 
L 1869 0 
L 1344 0 
z
" transform="scale(0.015625)"/>
     </defs>
     <use xlink:href="#ArialMT-4f"/>
     <use xlink:href="#ArialMT-76" x="77.783203"/>
     <use xlink:href="#ArialMT-65" x="127.783203"/>
     <use xlink:href="#ArialMT-72" x="183.398438"/>
     <use xlink:href="#ArialMT-61" x="216.699219"/>
     <use xlink:href="#ArialMT-6c" x="272.314453"/>
     <use xlink:href="#ArialMT-6c" x="294.53125"/>
    </g>
   </g>
  </g>
  <g id="axes_2">
   <g id="patch_5">
    <path d="M 507.731455 320.4 
L 888.186 320.4 
L 888.186 43.2 
L 507.731455 43.2 
z
" style="fill: #ffffff"/>
   </g>
   <g id="matplotlib.axis_3">
    <g id="xtick_3">
     <g id="text_11">
      <!-- QSNR1: Beginning -->
      <g style="fill: #262626" transform="translate(547.08231 338.317437) scale(0.132 -0.132)">
       <defs>
        <path id="ArialMT-51" d="M 3966 491 
Q 4388 200 4744 66 
L 4566 -356 
Q 4072 -178 3581 206 
Q 3072 -78 2456 -78 
Q 1834 -78 1328 222 
Q 822 522 548 1065 
Q 275 1609 275 2291 
Q 275 2969 550 3525 
Q 825 4081 1333 4372 
Q 1841 4663 2469 4663 
Q 3103 4663 3612 4361 
Q 4122 4059 4389 3517 
Q 4656 2975 4656 2294 
Q 4656 1728 4484 1276 
Q 4313 825 3966 491 
z
M 2631 1266 
Q 3156 1119 3497 828 
Q 4031 1316 4031 2294 
Q 4031 2850 3842 3265 
Q 3653 3681 3289 3911 
Q 2925 4141 2472 4141 
Q 1794 4141 1347 3677 
Q 900 3213 900 2291 
Q 900 1397 1342 919 
Q 1784 441 2472 441 
Q 2797 441 3084 563 
Q 2800 747 2484 825 
L 2631 1266 
z
" transform="scale(0.015625)"/>
        <path id="ArialMT-53" d="M 288 1472 
L 859 1522 
Q 900 1178 1048 958 
Q 1197 738 1509 602 
Q 1822 466 2213 466 
Q 2559 466 2825 569 
Q 3091 672 3220 851 
Q 3350 1031 3350 1244 
Q 3350 1459 3225 1620 
Q 3100 1781 2813 1891 
Q 2628 1963 1997 2114 
Q 1366 2266 1113 2400 
Q 784 2572 623 2826 
Q 463 3081 463 3397 
Q 463 3744 659 4045 
Q 856 4347 1234 4503 
Q 1613 4659 2075 4659 
Q 2584 4659 2973 4495 
Q 3363 4331 3572 4012 
Q 3781 3694 3797 3291 
L 3216 3247 
Q 3169 3681 2898 3903 
Q 2628 4125 2100 4125 
Q 1550 4125 1298 3923 
Q 1047 3722 1047 3438 
Q 1047 3191 1225 3031 
Q 1400 2872 2139 2705 
Q 2878 2538 3153 2413 
Q 3553 2228 3743 1945 
Q 3934 1663 3934 1294 
Q 3934 928 3725 604 
Q 3516 281 3123 101 
Q 2731 -78 2241 -78 
Q 1619 -78 1198 103 
Q 778 284 539 648 
Q 300 1013 288 1472 
z
" transform="scale(0.015625)"/>
        <path id="ArialMT-52" d="M 503 0 
L 503 4581 
L 2534 4581 
Q 3147 4581 3465 4457 
Q 3784 4334 3975 4021 
Q 4166 3709 4166 3331 
Q 4166 2844 3850 2509 
Q 3534 2175 2875 2084 
Q 3116 1969 3241 1856 
Q 3506 1613 3744 1247 
L 4541 0 
L 3778 0 
L 3172 953 
Q 2906 1366 2734 1584 
Q 2563 1803 2427 1890 
Q 2291 1978 2150 2013 
Q 2047 2034 1813 2034 
L 1109 2034 
L 1109 0 
L 503 0 
z
M 1109 2559 
L 2413 2559 
Q 2828 2559 3062 2645 
Q 3297 2731 3419 2920 
Q 3541 3109 3541 3331 
Q 3541 3656 3305 3865 
Q 3069 4075 2559 4075 
L 1109 4075 
L 1109 2559 
z
" transform="scale(0.015625)"/>
        <path id="ArialMT-31" d="M 2384 0 
L 1822 0 
L 1822 3584 
Q 1619 3391 1289 3197 
Q 959 3003 697 2906 
L 697 3450 
Q 1169 3672 1522 3987 
Q 1875 4303 2022 4600 
L 2384 4600 
L 2384 0 
z
" transform="scale(0.015625)"/>
        <path id="ArialMT-3a" d="M 578 2678 
L 578 3319 
L 1219 3319 
L 1219 2678 
L 578 2678 
z
M 578 0 
L 578 641 
L 1219 641 
L 1219 0 
L 578 0 
z
" transform="scale(0.015625)"/>
        <path id="ArialMT-42" d="M 469 0 
L 469 4581 
L 2188 4581 
Q 2713 4581 3030 4442 
Q 3347 4303 3526 4014 
Q 3706 3725 3706 3409 
Q 3706 3116 3547 2856 
Q 3388 2597 3066 2438 
Q 3481 2316 3704 2022 
Q 3928 1728 3928 1328 
Q 3928 1006 3792 729 
Q 3656 453 3456 303 
Q 3256 153 2954 76 
Q 2653 0 2216 0 
L 469 0 
z
M 1075 2656 
L 2066 2656 
Q 2469 2656 2644 2709 
Q 2875 2778 2992 2937 
Q 3109 3097 3109 3338 
Q 3109 3566 3000 3739 
Q 2891 3913 2687 3977 
Q 2484 4041 1991 4041 
L 1075 4041 
L 1075 2656 
z
M 1075 541 
L 2216 541 
Q 2509 541 2628 563 
Q 2838 600 2978 687 
Q 3119 775 3209 942 
Q 3300 1109 3300 1328 
Q 3300 1584 3169 1773 
Q 3038 1963 2805 2039 
Q 2572 2116 2134 2116 
L 1075 2116 
L 1075 541 
z
" transform="scale(0.015625)"/>
        <path id="ArialMT-6e" d="M 422 0 
L 422 3319 
L 928 3319 
L 928 2847 
Q 1294 3394 1984 3394 
Q 2284 3394 2536 3286 
Q 2788 3178 2913 3003 
Q 3038 2828 3088 2588 
Q 3119 2431 3119 2041 
L 3119 0 
L 2556 0 
L 2556 2019 
Q 2556 2363 2490 2533 
Q 2425 2703 2258 2804 
Q 2091 2906 1866 2906 
Q 1506 2906 1245 2678 
Q 984 2450 984 1813 
L 984 0 
L 422 0 
z
" transform="scale(0.015625)"/>
       </defs>
       <use xlink:href="#ArialMT-51"/>
       <use xlink:href="#ArialMT-53" x="77.783203"/>
       <use xlink:href="#ArialMT-4e" x="144.482422"/>
       <use xlink:href="#ArialMT-52" x="216.699219"/>
       <use xlink:href="#ArialMT-31" x="288.916016"/>
       <use xlink:href="#ArialMT-3a" x="344.53125"/>
       <use xlink:href="#ArialMT-20" x="372.314453"/>
       <use xlink:href="#ArialMT-42" x="400.097656"/>
       <use xlink:href="#ArialMT-65" x="466.796875"/>
       <use xlink:href="#ArialMT-67" x="522.412109"/>
       <use xlink:href="#ArialMT-69" x="578.027344"/>
       <use xlink:href="#ArialMT-6e" x="600.244141"/>
       <use xlink:href="#ArialMT-6e" x="655.859375"/>
       <use xlink:href="#ArialMT-69" x="711.474609"/>
       <use xlink:href="#ArialMT-6e" x="733.691406"/>
       <use xlink:href="#ArialMT-67" x="789.306641"/>
      </g>
     </g>
    </g>
    <g id="xtick_4">
     <g id="text_12">
      <!-- QSNR3: End -->
      <g style="fill: #262626" transform="translate(754.923332 338.148312) scale(0.132 -0.132)">
       <defs>
        <path id="ArialMT-33" d="M 269 1209 
L 831 1284 
Q 928 806 1161 595 
Q 1394 384 1728 384 
Q 2125 384 2398 659 
Q 2672 934 2672 1341 
Q 2672 1728 2419 1979 
Q 2166 2231 1775 2231 
Q 1616 2231 1378 2169 
L 1441 2663 
Q 1497 2656 1531 2656 
Q 1891 2656 2178 2843 
Q 2466 3031 2466 3422 
Q 2466 3731 2256 3934 
Q 2047 4138 1716 4138 
Q 1388 4138 1169 3931 
Q 950 3725 888 3313 
L 325 3413 
Q 428 3978 793 4289 
Q 1159 4600 1703 4600 
Q 2078 4600 2393 4439 
Q 2709 4278 2876 4000 
Q 3044 3722 3044 3409 
Q 3044 3113 2884 2869 
Q 2725 2625 2413 2481 
Q 2819 2388 3044 2092 
Q 3269 1797 3269 1353 
Q 3269 753 2831 336 
Q 2394 -81 1725 -81 
Q 1122 -81 723 278 
Q 325 638 269 1209 
z
" transform="scale(0.015625)"/>
        <path id="ArialMT-45" d="M 506 0 
L 506 4581 
L 3819 4581 
L 3819 4041 
L 1113 4041 
L 1113 2638 
L 3647 2638 
L 3647 2100 
L 1113 2100 
L 1113 541 
L 3925 541 
L 3925 0 
L 506 0 
z
" transform="scale(0.015625)"/>
        <path id="ArialMT-64" d="M 2575 0 
L 2575 419 
Q 2259 -75 1647 -75 
Q 1250 -75 917 144 
Q 584 363 401 755 
Q 219 1147 219 1656 
Q 219 2153 384 2558 
Q 550 2963 881 3178 
Q 1213 3394 1622 3394 
Q 1922 3394 2156 3267 
Q 2391 3141 2538 2938 
L 2538 4581 
L 3097 4581 
L 3097 0 
L 2575 0 
z
M 797 1656 
Q 797 1019 1065 703 
Q 1334 388 1700 388 
Q 2069 388 2326 689 
Q 2584 991 2584 1609 
Q 2584 2291 2321 2609 
Q 2059 2928 1675 2928 
Q 1300 2928 1048 2622 
Q 797 2316 797 1656 
z
" transform="scale(0.015625)"/>
       </defs>
       <use xlink:href="#ArialMT-51"/>
       <use xlink:href="#ArialMT-53" x="77.783203"/>
       <use xlink:href="#ArialMT-4e" x="144.482422"/>
       <use xlink:href="#ArialMT-52" x="216.699219"/>
       <use xlink:href="#ArialMT-33" x="288.916016"/>
       <use xlink:href="#ArialMT-3a" x="344.53125"/>
       <use xlink:href="#ArialMT-20" x="372.314453"/>
       <use xlink:href="#ArialMT-45" x="400.097656"/>
       <use xlink:href="#ArialMT-6e" x="466.796875"/>
       <use xlink:href="#ArialMT-64" x="522.412109"/>
      </g>
     </g>
    </g>
    <g id="text_13">
     <!--  -->
     <g style="fill: #262626" transform="translate(697.958727 355.402875) scale(0.144 -0.144)"/>
     <!-- Time of Semester -->
     <g style="fill: #262626" transform="translate(641.416227 370.633575) scale(0.144 -0.144)">
      <defs>
       <path id="ArialMT-54" d="M 1659 0 
L 1659 4041 
L 150 4041 
L 150 4581 
L 3781 4581 
L 3781 4041 
L 2266 4041 
L 2266 0 
L 1659 0 
z
" transform="scale(0.015625)"/>
      </defs>
      <use xlink:href="#ArialMT-54"/>
      <use xlink:href="#ArialMT-69" x="57.333984"/>
      <use xlink:href="#ArialMT-6d" x="79.550781"/>
      <use xlink:href="#ArialMT-65" x="162.851562"/>
      <use xlink:href="#ArialMT-20" x="218.466797"/>
      <use xlink:href="#ArialMT-6f" x="246.25"/>
      <use xlink:href="#ArialMT-66" x="301.865234"/>
      <use xlink:href="#ArialMT-20" x="329.648438"/>
      <use xlink:href="#ArialMT-53" x="357.431641"/>
      <use xlink:href="#ArialMT-65" x="424.130859"/>
      <use xlink:href="#ArialMT-6d" x="479.746094"/>
      <use xlink:href="#ArialMT-65" x="563.046875"/>
      <use xlink:href="#ArialMT-73" x="618.662109"/>
      <use xlink:href="#ArialMT-74" x="668.662109"/>
      <use xlink:href="#ArialMT-65" x="696.445312"/>
      <use xlink:href="#ArialMT-72" x="752.060547"/>
     </g>
    </g>
   </g>
   <g id="matplotlib.axis_4">
    <g id="ytick_6">
     <g id="line2d_10">
      <path d="M 507.731455 302.068807 
L 888.186 302.068807 
" clip-path="url(#p1f045e45e1)" style="fill: none; stroke: #cccccc; stroke-width: 0.8; stroke-linecap: round"/>
     </g>
     <g id="text_14">
      <!-- 0.40 -->
      <g style="fill: #262626" transform="translate(473.743017 306.792963) scale(0.132 -0.132)">
       <use xlink:href="#ArialMT-30"/>
       <use xlink:href="#ArialMT-2e" x="55.615234"/>
       <use xlink:href="#ArialMT-34" x="83.398438"/>
       <use xlink:href="#ArialMT-30" x="139.013672"/>
      </g>
     </g>
    </g>
    <g id="ytick_7">
     <g id="line2d_11">
      <path d="M 507.731455 267.324564 
L 888.186 267.324564 
" clip-path="url(#p1f045e45e1)" style="fill: none; stroke: #cccccc; stroke-width: 0.8; stroke-linecap: round"/>
     </g>
     <g id="text_15">
      <!-- 0.45 -->
      <g style="fill: #262626" transform="translate(473.743017 272.04872) scale(0.132 -0.132)">
       <use xlink:href="#ArialMT-30"/>
       <use xlink:href="#ArialMT-2e" x="55.615234"/>
       <use xlink:href="#ArialMT-34" x="83.398438"/>
       <use xlink:href="#ArialMT-35" x="139.013672"/>
      </g>
     </g>
    </g>
    <g id="ytick_8">
     <g id="line2d_12">
      <path d="M 507.731455 232.580321 
L 888.186 232.580321 
" clip-path="url(#p1f045e45e1)" style="fill: none; stroke: #cccccc; stroke-width: 0.8; stroke-linecap: round"/>
     </g>
     <g id="text_16">
      <!-- 0.50 -->
      <g style="fill: #262626" transform="translate(473.743017 237.304477) scale(0.132 -0.132)">
       <use xlink:href="#ArialMT-30"/>
       <use xlink:href="#ArialMT-2e" x="55.615234"/>
       <use xlink:href="#ArialMT-35" x="83.398438"/>
       <use xlink:href="#ArialMT-30" x="139.013672"/>
      </g>
     </g>
    </g>
    <g id="ytick_9">
     <g id="line2d_13">
      <path d="M 507.731455 197.836078 
L 888.186 197.836078 
" clip-path="url(#p1f045e45e1)" style="fill: none; stroke: #cccccc; stroke-width: 0.8; stroke-linecap: round"/>
     </g>
     <g id="text_17">
      <!-- 0.55 -->
      <g style="fill: #262626" transform="translate(473.743017 202.560234) scale(0.132 -0.132)">
       <use xlink:href="#ArialMT-30"/>
       <use xlink:href="#ArialMT-2e" x="55.615234"/>
       <use xlink:href="#ArialMT-35" x="83.398438"/>
       <use xlink:href="#ArialMT-35" x="139.013672"/>
      </g>
     </g>
    </g>
    <g id="ytick_10">
     <g id="line2d_14">
      <path d="M 507.731455 163.091835 
L 888.186 163.091835 
" clip-path="url(#p1f045e45e1)" style="fill: none; stroke: #cccccc; stroke-width: 0.8; stroke-linecap: round"/>
     </g>
     <g id="text_18">
      <!-- 0.60 -->
      <g style="fill: #262626" transform="translate(473.743017 167.815991) scale(0.132 -0.132)">
       <use xlink:href="#ArialMT-30"/>
       <use xlink:href="#ArialMT-2e" x="55.615234"/>
       <use xlink:href="#ArialMT-36" x="83.398438"/>
       <use xlink:href="#ArialMT-30" x="139.013672"/>
      </g>
     </g>
    </g>
    <g id="ytick_11">
     <g id="line2d_15">
      <path d="M 507.731455 128.347592 
L 888.186 128.347592 
" clip-path="url(#p1f045e45e1)" style="fill: none; stroke: #cccccc; stroke-width: 0.8; stroke-linecap: round"/>
     </g>
     <g id="text_19">
      <!-- 0.65 -->
      <g style="fill: #262626" transform="translate(473.743017 133.071748) scale(0.132 -0.132)">
       <use xlink:href="#ArialMT-30"/>
       <use xlink:href="#ArialMT-2e" x="55.615234"/>
       <use xlink:href="#ArialMT-36" x="83.398438"/>
       <use xlink:href="#ArialMT-35" x="139.013672"/>
      </g>
     </g>
    </g>
    <g id="ytick_12">
     <g id="line2d_16">
      <path d="M 507.731455 93.603349 
L 888.186 93.603349 
" clip-path="url(#p1f045e45e1)" style="fill: none; stroke: #cccccc; stroke-width: 0.8; stroke-linecap: round"/>
     </g>
     <g id="text_20">
      <!-- 0.70 -->
      <g style="fill: #262626" transform="translate(473.743017 98.327505) scale(0.132 -0.132)">
       <use xlink:href="#ArialMT-30"/>
       <use xlink:href="#ArialMT-2e" x="55.615234"/>
       <use xlink:href="#ArialMT-37" x="83.398438"/>
       <use xlink:href="#ArialMT-30" x="139.013672"/>
      </g>
     </g>
    </g>
    <g id="ytick_13">
     <g id="line2d_17">
      <path d="M 507.731455 58.859106 
L 888.186 58.859106 
" clip-path="url(#p1f045e45e1)" style="fill: none; stroke: #cccccc; stroke-width: 0.8; stroke-linecap: round"/>
     </g>
     <g id="text_21">
      <!-- 0.75 -->
      <g style="fill: #262626" transform="translate(473.743017 63.583262) scale(0.132 -0.132)">
       <use xlink:href="#ArialMT-30"/>
       <use xlink:href="#ArialMT-2e" x="55.615234"/>
       <use xlink:href="#ArialMT-37" x="83.398438"/>
       <use xlink:href="#ArialMT-35" x="139.013672"/>
      </g>
     </g>
    </g>
    <g id="text_22">
     <!-- search_tactics_Hs_beg -->
     <g style="fill: #262626" transform="translate(466.712267 256.636125) rotate(-90) scale(0.144 -0.144)">
      <use xlink:href="#ArialMT-73"/>
      <use xlink:href="#ArialMT-65" x="50"/>
      <use xlink:href="#ArialMT-61" x="105.615234"/>
      <use xlink:href="#ArialMT-72" x="161.230469"/>
      <use xlink:href="#ArialMT-63" x="194.53125"/>
      <use xlink:href="#ArialMT-68" x="244.53125"/>
      <use xlink:href="#ArialMT-5f" x="300.146484"/>
      <use xlink:href="#ArialMT-74" x="355.761719"/>
      <use xlink:href="#ArialMT-61" x="383.544922"/>
      <use xlink:href="#ArialMT-63" x="439.160156"/>
      <use xlink:href="#ArialMT-74" x="489.160156"/>
      <use xlink:href="#ArialMT-69" x="516.943359"/>
      <use xlink:href="#ArialMT-63" x="539.160156"/>
      <use xlink:href="#ArialMT-73" x="589.160156"/>
      <use xlink:href="#ArialMT-5f" x="639.160156"/>
      <use xlink:href="#ArialMT-48" x="694.775391"/>
      <use xlink:href="#ArialMT-73" x="766.992188"/>
      <use xlink:href="#ArialMT-5f" x="816.992188"/>
      <use xlink:href="#ArialMT-62" x="872.607422"/>
      <use xlink:href="#ArialMT-65" x="928.222656"/>
      <use xlink:href="#ArialMT-67" x="983.837891"/>
     </g>
    </g>
   </g>
   <g id="patch_6">
    <path d="M 602.845091 580.022751 
L 602.845091 580.022751 
L 602.845091 580.022751 
L 602.845091 580.022751 
z
" clip-path="url(#p1f045e45e1)" style="fill: #3274a1; stroke: #3f3f3f; stroke-width: 0.6; stroke-linejoin: miter"/>
   </g>
   <g id="patch_7">
    <path d="M 602.845091 580.022751 
L 602.845091 580.022751 
L 602.845091 580.022751 
L 602.845091 580.022751 
z
" clip-path="url(#p1f045e45e1)" style="fill: #e1812c; stroke: #3f3f3f; stroke-width: 0.6; stroke-linejoin: miter"/>
   </g>
   <g id="PolyCollection_3">
    <defs>
     <path id="mb2767e4aab" d="M 604.286101 -122.724235 
L 602.845091 -122.724235 
L 602.845091 -124.772454 
L 602.845091 -126.820672 
L 602.845091 -128.868891 
L 602.845091 -130.917109 
L 602.845091 -132.965328 
L 602.845091 -135.013546 
L 602.845091 -137.061765 
L 602.845091 -139.109983 
L 602.845091 -141.158202 
L 602.845091 -143.20642 
L 602.845091 -145.254638 
L 602.845091 -147.302857 
L 602.845091 -149.351075 
L 602.845091 -151.399294 
L 602.845091 -153.447512 
L 602.845091 -155.495731 
L 602.845091 -157.543949 
L 602.845091 -159.592168 
L 602.845091 -161.640386 
L 602.845091 -163.688605 
L 602.845091 -165.736823 
L 602.845091 -167.785041 
L 602.845091 -169.83326 
L 602.845091 -171.881478 
L 602.845091 -173.929697 
L 602.845091 -175.977915 
L 602.845091 -178.026134 
L 602.845091 -180.074352 
L 602.845091 -182.122571 
L 602.845091 -184.170789 
L 602.845091 -186.219008 
L 602.845091 -188.267226 
L 602.845091 -190.315444 
L 602.845091 -192.363663 
L 602.845091 -194.411881 
L 602.845091 -196.4601 
L 602.845091 -198.508318 
L 602.845091 -200.556537 
L 602.845091 -202.604755 
L 602.845091 -204.652974 
L 602.845091 -206.701192 
L 602.845091 -208.749411 
L 602.845091 -210.797629 
L 602.845091 -212.845847 
L 602.845091 -214.894066 
L 602.845091 -216.942284 
L 602.845091 -218.990503 
L 602.845091 -221.038721 
L 602.845091 -223.08694 
L 602.845091 -225.135158 
L 602.845091 -227.183377 
L 602.845091 -229.231595 
L 602.845091 -231.279814 
L 602.845091 -233.328032 
L 602.845091 -235.37625 
L 602.845091 -237.424469 
L 602.845091 -239.472687 
L 602.845091 -241.520906 
L 602.845091 -243.569124 
L 602.845091 -245.617343 
L 602.845091 -247.665561 
L 602.845091 -249.71378 
L 602.845091 -251.761998 
L 602.845091 -253.810217 
L 602.845091 -255.858435 
L 602.845091 -257.906653 
L 602.845091 -259.954872 
L 602.845091 -262.00309 
L 602.845091 -264.051309 
L 602.845091 -266.099527 
L 602.845091 -268.147746 
L 602.845091 -270.195964 
L 602.845091 -272.244183 
L 602.845091 -274.292401 
L 602.845091 -276.34062 
L 602.845091 -278.388838 
L 602.845091 -280.437056 
L 602.845091 -282.485275 
L 602.845091 -284.533493 
L 602.845091 -286.581712 
L 602.845091 -288.62993 
L 602.845091 -290.678149 
L 602.845091 -292.726367 
L 602.845091 -294.774586 
L 602.845091 -296.822804 
L 602.845091 -298.871023 
L 602.845091 -300.919241 
L 602.845091 -302.967459 
L 602.845091 -305.015678 
L 602.845091 -307.063896 
L 602.845091 -309.112115 
L 602.845091 -311.160333 
L 602.845091 -313.208552 
L 602.845091 -315.25677 
L 602.845091 -317.304989 
L 602.845091 -319.353207 
L 602.845091 -321.401426 
L 602.845091 -323.449644 
L 602.845091 -325.497863 
L 604.148793 -325.497863 
L 604.148793 -325.497863 
L 604.460118 -323.449644 
L 604.821915 -321.401426 
L 605.235955 -319.353207 
L 605.702397 -317.304989 
L 606.219482 -315.25677 
L 606.783306 -313.208552 
L 607.387716 -311.160333 
L 608.024354 -309.112115 
L 608.682893 -307.063896 
L 609.351466 -305.015678 
L 610.017304 -302.967459 
L 610.667565 -300.919241 
L 611.290325 -298.871023 
L 611.875665 -296.822804 
L 612.416815 -294.774586 
L 612.911247 -292.726367 
L 613.361643 -290.678149 
L 613.776652 -288.62993 
L 614.171347 -286.581712 
L 614.567325 -284.533493 
L 614.992386 -282.485275 
L 615.47979 -280.437056 
L 616.067067 -278.388838 
L 616.794451 -276.34062 
L 617.702961 -274.292401 
L 618.832253 -272.244183 
L 620.218337 -270.195964 
L 621.891287 -268.147746 
L 623.873094 -266.099527 
L 626.175776 -264.051309 
L 628.799903 -262.00309 
L 631.733621 -259.954872 
L 634.952274 -257.906653 
L 638.418674 -255.858435 
L 642.084027 -253.810217 
L 645.889491 -251.761998 
L 649.7683 -249.71378 
L 653.648339 -247.665561 
L 657.455047 -245.617343 
L 661.114483 -243.569124 
L 664.556384 -241.520906 
L 667.717062 -239.472687 
L 670.541956 -237.424469 
L 672.987735 -235.37625 
L 675.023821 -233.328032 
L 676.633262 -231.279814 
L 677.812932 -229.231595 
L 678.573041 -227.183377 
L 678.936 -225.135158 
L 678.934706 -223.08694 
L 678.610355 -221.038721 
L 678.009894 -218.990503 
L 677.183266 -216.942284 
L 676.180593 -214.894066 
L 675.049475 -212.845847 
L 673.832542 -210.797629 
L 672.565429 -208.749411 
L 671.275272 -206.701192 
L 669.979835 -204.652974 
L 668.687315 -202.604755 
L 667.39681 -200.556537 
L 666.099421 -198.508318 
L 664.779888 -196.4601 
L 663.418603 -194.411881 
L 661.993859 -192.363663 
L 660.484128 -190.315444 
L 658.87019 -188.267226 
L 657.136959 -186.219008 
L 655.274853 -184.170789 
L 653.280644 -182.122571 
L 651.157748 -180.074352 
L 648.915966 -178.026134 
L 646.570764 -175.977915 
L 644.14219 -173.929697 
L 641.653554 -171.881478 
L 639.130023 -169.83326 
L 636.597249 -167.785041 
L 634.080153 -165.736823 
L 631.60194 -163.688605 
L 629.183378 -161.640386 
L 626.842372 -159.592168 
L 624.593797 -157.543949 
L 622.449535 -155.495731 
L 620.418687 -153.447512 
L 618.507861 -151.399294 
L 616.721502 -149.351075 
L 615.062211 -147.302857 
L 613.531014 -145.254638 
L 612.127572 -143.20642 
L 610.850336 -141.158202 
L 609.696645 -139.109983 
L 608.662796 -137.061765 
L 607.744105 -135.013546 
L 606.934969 -132.965328 
L 606.228961 -130.917109 
L 605.61894 -128.868891 
L 605.097211 -126.820672 
L 604.655689 -124.772454 
L 604.286101 -122.724235 
z
" style="stroke: #3f3f3f; stroke-width: 1.2"/>
    </defs>
    <g clip-path="url(#p1f045e45e1)">
     <use xlink:href="#mb2767e4aab" x="0" y="381.297862" style="fill: #e1812c; stroke: #3f3f3f; stroke-width: 1.2"/>
    </g>
   </g>
   <g id="PolyCollection_4">
    <defs>
     <path id="m5e1734dd9f" d="M 796.86144 -73.497863 
L 793.072364 -73.497863 
L 793.072364 -75.615412 
L 793.072364 -77.732962 
L 793.072364 -79.850512 
L 793.072364 -81.968061 
L 793.072364 -84.085611 
L 793.072364 -86.203161 
L 793.072364 -88.320711 
L 793.072364 -90.43826 
L 793.072364 -92.55581 
L 793.072364 -94.67336 
L 793.072364 -96.79091 
L 793.072364 -98.908459 
L 793.072364 -101.026009 
L 793.072364 -103.143559 
L 793.072364 -105.261109 
L 793.072364 -107.378658 
L 793.072364 -109.496208 
L 793.072364 -111.613758 
L 793.072364 -113.731308 
L 793.072364 -115.848857 
L 793.072364 -117.966407 
L 793.072364 -120.083957 
L 793.072364 -122.201507 
L 793.072364 -124.319056 
L 793.072364 -126.436606 
L 793.072364 -128.554156 
L 793.072364 -130.671706 
L 793.072364 -132.789255 
L 793.072364 -134.906805 
L 793.072364 -137.024355 
L 793.072364 -139.141905 
L 793.072364 -141.259454 
L 793.072364 -143.377004 
L 793.072364 -145.494554 
L 793.072364 -147.612104 
L 793.072364 -149.729653 
L 793.072364 -151.847203 
L 793.072364 -153.964753 
L 793.072364 -156.082303 
L 793.072364 -158.199852 
L 793.072364 -160.317402 
L 793.072364 -162.434952 
L 793.072364 -164.552502 
L 793.072364 -166.670051 
L 793.072364 -168.787601 
L 793.072364 -170.905151 
L 793.072364 -173.022701 
L 793.072364 -175.14025 
L 793.072364 -177.2578 
L 793.072364 -179.37535 
L 793.072364 -181.4929 
L 793.072364 -183.610449 
L 793.072364 -185.727999 
L 793.072364 -187.845549 
L 793.072364 -189.963098 
L 793.072364 -192.080648 
L 793.072364 -194.198198 
L 793.072364 -196.315748 
L 793.072364 -198.433297 
L 793.072364 -200.550847 
L 793.072364 -202.668397 
L 793.072364 -204.785947 
L 793.072364 -206.903496 
L 793.072364 -209.021046 
L 793.072364 -211.138596 
L 793.072364 -213.256146 
L 793.072364 -215.373695 
L 793.072364 -217.491245 
L 793.072364 -219.608795 
L 793.072364 -221.726345 
L 793.072364 -223.843894 
L 793.072364 -225.961444 
L 793.072364 -228.078994 
L 793.072364 -230.196544 
L 793.072364 -232.314093 
L 793.072364 -234.431643 
L 793.072364 -236.549193 
L 793.072364 -238.666743 
L 793.072364 -240.784292 
L 793.072364 -242.901842 
L 793.072364 -245.019392 
L 793.072364 -247.136942 
L 793.072364 -249.254491 
L 793.072364 -251.372041 
L 793.072364 -253.489591 
L 793.072364 -255.607141 
L 793.072364 -257.72469 
L 793.072364 -259.84224 
L 793.072364 -261.95979 
L 793.072364 -264.07734 
L 793.072364 -266.194889 
L 793.072364 -268.312439 
L 793.072364 -270.429989 
L 793.072364 -272.547539 
L 793.072364 -274.665088 
L 793.072364 -276.782638 
L 793.072364 -278.900188 
L 793.072364 -281.017738 
L 793.072364 -283.135287 
L 798.256565 -283.135287 
L 798.256565 -283.135287 
L 799.200633 -281.017738 
L 800.272664 -278.900188 
L 801.480956 -276.782638 
L 802.832579 -274.665088 
L 804.333005 -272.547539 
L 805.985721 -270.429989 
L 807.791867 -268.312439 
L 809.749884 -266.194889 
L 811.855222 -264.07734 
L 814.100101 -261.95979 
L 816.473352 -259.84224 
L 818.960366 -257.72469 
L 821.543142 -255.607141 
L 824.200468 -253.489591 
L 826.908225 -251.372041 
L 829.639821 -249.254491 
L 832.36675 -247.136942 
L 835.059265 -245.019392 
L 837.687144 -242.901842 
L 840.220526 -240.784292 
L 842.63079 -238.666743 
L 844.891442 -236.549193 
L 846.978976 -234.431643 
L 848.873671 -232.314093 
L 850.560285 -230.196544 
L 852.028623 -228.078994 
L 853.273934 -225.961444 
L 854.297135 -223.843894 
L 855.104831 -221.726345 
L 855.70913 -219.608795 
L 856.127264 -217.491245 
L 856.381013 -215.373695 
L 856.495971 -213.256146 
L 856.500665 -211.138596 
L 856.425579 -209.021046 
L 856.302105 -206.903496 
L 856.16148 -204.785947 
L 856.033741 -202.668397 
L 855.946736 -200.550847 
L 855.925242 -198.433297 
L 855.990202 -196.315748 
L 856.15812 -194.198198 
L 856.440632 -192.080648 
L 856.844244 -189.963098 
L 857.370257 -187.845549 
L 858.014867 -185.727999 
L 858.769414 -183.610449 
L 859.620779 -181.4929 
L 860.55189 -179.37535 
L 861.542322 -177.2578 
L 862.568952 -175.14025 
L 863.606656 -173.022701 
L 864.629012 -170.905151 
L 865.608988 -168.787601 
L 866.519602 -166.670051 
L 867.334532 -164.552502 
L 868.028671 -162.434952 
L 868.578615 -160.317402 
L 868.963084 -158.199852 
L 869.163273 -156.082303 
L 869.163135 -153.964753 
L 868.949606 -151.847203 
L 868.512761 -149.729653 
L 867.845918 -147.612104 
L 866.945695 -145.494554 
L 865.812013 -143.377004 
L 864.448049 -141.259454 
L 862.860152 -139.141905 
L 861.057715 -137.024355 
L 859.052994 -134.906805 
L 856.860896 -132.789255 
L 854.498719 -130.671706 
L 851.985857 -128.554156 
L 849.343463 -126.436606 
L 846.594085 -124.319056 
L 843.761277 -122.201507 
L 840.869186 -120.083957 
L 837.942134 -117.966407 
L 835.0042 -115.848857 
L 832.078812 -113.731308 
L 829.188357 -111.613758 
L 826.353829 -109.496208 
L 823.59451 -107.378658 
L 820.927707 -105.261109 
L 818.368539 -103.143559 
L 815.929788 -101.026009 
L 813.621803 -98.908459 
L 811.452478 -96.79091 
L 809.427282 -94.67336 
L 807.549341 -92.55581 
L 805.819576 -90.43826 
L 804.236878 -88.320711 
L 802.798318 -86.203161 
L 801.499379 -84.085611 
L 800.334208 -81.968061 
L 799.295867 -79.850512 
L 798.376588 -77.732962 
L 797.568017 -75.615412 
L 796.86144 -73.497863 
z
" style="stroke: #3f3f3f; stroke-width: 1.2"/>
    </defs>
    <g clip-path="url(#p1f045e45e1)">
     <use xlink:href="#m5e1734dd9f" x="0" y="381.297862" style="fill: #e1812c; stroke: #3f3f3f; stroke-width: 1.2"/>
    </g>
   </g>
   <g id="line2d_18">
    <path d="M 526.754182 99.506964 
L 602.845091 99.506964 
" clip-path="url(#p1f045e45e1)" style="fill: none; stroke: #3f3f3f; stroke-width: 1.2; stroke-linecap: round"/>
   </g>
   <g id="line2d_19">
    <path d="M 716.981455 56.54923 
L 793.072364 56.54923 
" clip-path="url(#p1f045e45e1)" style="fill: none; stroke: #3f3f3f; stroke-width: 1.2; stroke-linecap: round"/>
   </g>
   <g id="patch_8">
    <path d="M 507.731455 320.4 
L 507.731455 43.2 
" style="fill: none; stroke: #cccccc; stroke-linejoin: miter; stroke-linecap: square"/>
   </g>
   <g id="patch_9">
    <path d="M 507.731455 320.4 
L 888.186 320.4 
" style="fill: none; stroke: #cccccc; stroke-linejoin: miter; stroke-linecap: square"/>
   </g>
   <g id="text_23">
    <!-- Across Time -->
    <g style="fill: #262626" transform="translate(658.351977 37.2) scale(0.144 -0.144)">
     <defs>
      <path id="ArialMT-41" d="M -9 0 
L 1750 4581 
L 2403 4581 
L 4278 0 
L 3588 0 
L 3053 1388 
L 1138 1388 
L 634 0 
L -9 0 
z
M 1313 1881 
L 2866 1881 
L 2388 3150 
Q 2169 3728 2063 4100 
Q 1975 3659 1816 3225 
L 1313 1881 
z
" transform="scale(0.015625)"/>
     </defs>
     <use xlink:href="#ArialMT-41"/>
     <use xlink:href="#ArialMT-63" x="66.699219"/>
     <use xlink:href="#ArialMT-72" x="116.699219"/>
     <use xlink:href="#ArialMT-6f" x="150"/>
     <use xlink:href="#ArialMT-73" x="205.615234"/>
     <use xlink:href="#ArialMT-73" x="255.615234"/>
     <use xlink:href="#ArialMT-20" x="305.615234"/>
     <use xlink:href="#ArialMT-54" x="331.648438"/>
     <use xlink:href="#ArialMT-69" x="388.982422"/>
     <use xlink:href="#ArialMT-6d" x="411.199219"/>
     <use xlink:href="#ArialMT-65" x="494.5"/>
    </g>
   </g>
   <g id="legend_1">
    <g id="patch_10">
     <path d="M 516.971455 313.8 
L 605.476705 313.8 
Q 608.116705 313.8 608.116705 311.16 
L 608.116705 255.367125 
Q 608.116705 252.727125 605.476705 252.727125 
L 516.971455 252.727125 
Q 514.331455 252.727125 514.331455 255.367125 
L 514.331455 311.16 
Q 514.331455 313.8 516.971455 313.8 
z
" style="fill: #ffffff; opacity: 0.8; stroke: #cccccc; stroke-width: 0.8; stroke-linejoin: miter"/>
    </g>
    <g id="text_24">
     <!-- Profile Name -->
     <g style="fill: #262626" transform="translate(519.611455 268.314375) scale(0.144 -0.144)">
      <use xlink:href="#ArialMT-50"/>
      <use xlink:href="#ArialMT-72" x="66.699219"/>
      <use xlink:href="#ArialMT-6f" x="100"/>
      <use xlink:href="#ArialMT-66" x="155.615234"/>
      <use xlink:href="#ArialMT-69" x="183.398438"/>
      <use xlink:href="#ArialMT-6c" x="205.615234"/>
      <use xlink:href="#ArialMT-65" x="227.832031"/>
      <use xlink:href="#ArialMT-20" x="283.447266"/>
      <use xlink:href="#ArialMT-4e" x="311.230469"/>
      <use xlink:href="#ArialMT-61" x="383.447266"/>
      <use xlink:href="#ArialMT-6d" x="439.0625"/>
      <use xlink:href="#ArialMT-65" x="522.363281"/>
     </g>
    </g>
    <g id="patch_11">
     <path d="M 533.940298 287.224687 
L 560.340298 287.224687 
L 560.340298 277.984687 
L 533.940298 277.984687 
z
" style="fill: #3274a1; stroke: #3f3f3f; stroke-width: 0.6; stroke-linejoin: miter"/>
    </g>
    <g id="text_25">
     <!-- HI -->
     <g style="fill: #262626" transform="translate(570.900298 287.224687) scale(0.132 -0.132)">
      <use xlink:href="#ArialMT-48"/>
      <use xlink:href="#ArialMT-49" x="72.216797"/>
     </g>
    </g>
    <g id="patch_12">
     <path d="M 533.940298 305.8965 
L 560.340298 305.8965 
L 560.340298 296.6565 
L 533.940298 296.6565 
z
" style="fill: #e1812c; stroke: #3f3f3f; stroke-width: 0.6; stroke-linejoin: miter"/>
    </g>
    <g id="text_26">
     <!-- LO -->
     <g style="fill: #262626" transform="translate(570.900298 305.8965) scale(0.132 -0.132)">
      <use xlink:href="#ArialMT-4c"/>
      <use xlink:href="#ArialMT-4f" x="55.615234"/>
     </g>
    </g>
   </g>
  </g>
  <g id="text_27">
   <!-- Stationary Entropy of Search Tactics at Task Beginning - - Non-repeated Task(s) -->
   <g style="fill: #262626" transform="translate(153.16905 19.7793) scale(0.1728 -0.1728)">
    <defs>
     <path id="ArialMT-79" d="M 397 -1278 
L 334 -750 
Q 519 -800 656 -800 
Q 844 -800 956 -737 
Q 1069 -675 1141 -563 
Q 1194 -478 1313 -144 
Q 1328 -97 1363 -6 
L 103 3319 
L 709 3319 
L 1400 1397 
Q 1534 1031 1641 628 
Q 1738 1016 1872 1384 
L 2581 3319 
L 3144 3319 
L 1881 -56 
Q 1678 -603 1566 -809 
Q 1416 -1088 1222 -1217 
Q 1028 -1347 759 -1347 
Q 597 -1347 397 -1278 
z
" transform="scale(0.015625)"/>
     <path id="ArialMT-70" d="M 422 -1272 
L 422 3319 
L 934 3319 
L 934 2888 
Q 1116 3141 1344 3267 
Q 1572 3394 1897 3394 
Q 2322 3394 2647 3175 
Q 2972 2956 3137 2557 
Q 3303 2159 3303 1684 
Q 3303 1175 3120 767 
Q 2938 359 2589 142 
Q 2241 -75 1856 -75 
Q 1575 -75 1351 44 
Q 1128 163 984 344 
L 984 -1272 
L 422 -1272 
z
M 931 1641 
Q 931 1000 1190 694 
Q 1450 388 1819 388 
Q 2194 388 2461 705 
Q 2728 1022 2728 1688 
Q 2728 2322 2467 2637 
Q 2206 2953 1844 2953 
Q 1484 2953 1207 2617 
Q 931 2281 931 1641 
z
" transform="scale(0.015625)"/>
     <path id="ArialMT-6b" d="M 425 0 
L 425 4581 
L 988 4581 
L 988 1969 
L 2319 3319 
L 3047 3319 
L 1778 2088 
L 3175 0 
L 2481 0 
L 1384 1697 
L 988 1316 
L 988 0 
L 425 0 
z
" transform="scale(0.015625)"/>
     <path id="ArialMT-2d" d="M 203 1375 
L 203 1941 
L 1931 1941 
L 1931 1375 
L 203 1375 
z
" transform="scale(0.015625)"/>
     <path id="ArialMT-28" d="M 1497 -1347 
Q 1031 -759 709 28 
Q 388 816 388 1659 
Q 388 2403 628 3084 
Q 909 3875 1497 4659 
L 1900 4659 
Q 1522 4009 1400 3731 
Q 1209 3300 1100 2831 
Q 966 2247 966 1656 
Q 966 153 1900 -1347 
L 1497 -1347 
z
" transform="scale(0.015625)"/>
     <path id="ArialMT-29" d="M 791 -1347 
L 388 -1347 
Q 1322 153 1322 1656 
Q 1322 2244 1188 2822 
Q 1081 3291 891 3722 
Q 769 4003 388 4659 
L 791 4659 
Q 1378 3875 1659 3084 
Q 1900 2403 1900 1659 
Q 1900 816 1576 28 
Q 1253 -759 791 -1347 
z
" transform="scale(0.015625)"/>
    </defs>
    <use xlink:href="#ArialMT-53"/>
    <use xlink:href="#ArialMT-74" x="66.699219"/>
    <use xlink:href="#ArialMT-61" x="94.482422"/>
    <use xlink:href="#ArialMT-74" x="150.097656"/>
    <use xlink:href="#ArialMT-69" x="177.880859"/>
    <use xlink:href="#ArialMT-6f" x="200.097656"/>
    <use xlink:href="#ArialMT-6e" x="255.712891"/>
    <use xlink:href="#ArialMT-61" x="311.328125"/>
    <use xlink:href="#ArialMT-72" x="366.943359"/>
    <use xlink:href="#ArialMT-79" x="400.244141"/>
    <use xlink:href="#ArialMT-20" x="450.244141"/>
    <use xlink:href="#ArialMT-45" x="478.027344"/>
    <use xlink:href="#ArialMT-6e" x="544.726562"/>
    <use xlink:href="#ArialMT-74" x="600.341797"/>
    <use xlink:href="#ArialMT-72" x="628.125"/>
    <use xlink:href="#ArialMT-6f" x="661.425781"/>
    <use xlink:href="#ArialMT-70" x="717.041016"/>
    <use xlink:href="#ArialMT-79" x="772.65625"/>
    <use xlink:href="#ArialMT-20" x="822.65625"/>
    <use xlink:href="#ArialMT-6f" x="850.439453"/>
    <use xlink:href="#ArialMT-66" x="906.054688"/>
    <use xlink:href="#ArialMT-20" x="933.837891"/>
    <use xlink:href="#ArialMT-53" x="961.621094"/>
    <use xlink:href="#ArialMT-65" x="1028.320312"/>
    <use xlink:href="#ArialMT-61" x="1083.935547"/>
    <use xlink:href="#ArialMT-72" x="1139.550781"/>
    <use xlink:href="#ArialMT-63" x="1172.851562"/>
    <use xlink:href="#ArialMT-68" x="1222.851562"/>
    <use xlink:href="#ArialMT-20" x="1278.466797"/>
    <use xlink:href="#ArialMT-54" x="1304.5"/>
    <use xlink:href="#ArialMT-61" x="1354.458984"/>
    <use xlink:href="#ArialMT-63" x="1410.074219"/>
    <use xlink:href="#ArialMT-74" x="1460.074219"/>
    <use xlink:href="#ArialMT-69" x="1487.857422"/>
    <use xlink:href="#ArialMT-63" x="1510.074219"/>
    <use xlink:href="#ArialMT-73" x="1560.074219"/>
    <use xlink:href="#ArialMT-20" x="1610.074219"/>
    <use xlink:href="#ArialMT-61" x="1637.857422"/>
    <use xlink:href="#ArialMT-74" x="1693.472656"/>
    <use xlink:href="#ArialMT-20" x="1721.255859"/>
    <use xlink:href="#ArialMT-54" x="1747.289062"/>
    <use xlink:href="#ArialMT-61" x="1797.248047"/>
    <use xlink:href="#ArialMT-73" x="1852.863281"/>
    <use xlink:href="#ArialMT-6b" x="1902.863281"/>
    <use xlink:href="#ArialMT-20" x="1952.863281"/>
    <use xlink:href="#ArialMT-42" x="1980.646484"/>
    <use xlink:href="#ArialMT-65" x="2047.345703"/>
    <use xlink:href="#ArialMT-67" x="2102.960938"/>
    <use xlink:href="#ArialMT-69" x="2158.576172"/>
    <use xlink:href="#ArialMT-6e" x="2180.792969"/>
    <use xlink:href="#ArialMT-6e" x="2236.408203"/>
    <use xlink:href="#ArialMT-69" x="2292.023438"/>
    <use xlink:href="#ArialMT-6e" x="2314.240234"/>
    <use xlink:href="#ArialMT-67" x="2369.855469"/>
    <use xlink:href="#ArialMT-20" x="2425.470703"/>
    <use xlink:href="#ArialMT-2d" x="2453.253906"/>
    <use xlink:href="#ArialMT-2d" x="2486.554688"/>
    <use xlink:href="#ArialMT-20" x="2519.855469"/>
    <use xlink:href="#ArialMT-4e" x="2547.638672"/>
    <use xlink:href="#ArialMT-6f" x="2619.855469"/>
    <use xlink:href="#ArialMT-6e" x="2675.470703"/>
    <use xlink:href="#ArialMT-2d" x="2731.085938"/>
    <use xlink:href="#ArialMT-72" x="2764.386719"/>
    <use xlink:href="#ArialMT-65" x="2797.6875"/>
    <use xlink:href="#ArialMT-70" x="2853.302734"/>
    <use xlink:href="#ArialMT-65" x="2908.917969"/>
    <use xlink:href="#ArialMT-61" x="2964.533203"/>
    <use xlink:href="#ArialMT-74" x="3020.148438"/>
    <use xlink:href="#ArialMT-65" x="3047.931641"/>
    <use xlink:href="#ArialMT-64" x="3103.546875"/>
    <use xlink:href="#ArialMT-20" x="3159.162109"/>
    <use xlink:href="#ArialMT-54" x="3185.195312"/>
    <use xlink:href="#ArialMT-61" x="3235.154297"/>
    <use xlink:href="#ArialMT-73" x="3290.769531"/>
    <use xlink:href="#ArialMT-6b" x="3340.769531"/>
    <use xlink:href="#ArialMT-28" x="3390.769531"/>
    <use xlink:href="#ArialMT-73" x="3424.070312"/>
    <use xlink:href="#ArialMT-29" x="3474.070312"/>
   </g>
  </g>
 </g>
 <defs>
  <clipPath id="pf0a71875d4">
   <rect x="51.186" y="43.2" width="380.454545" height="277.2"/>
  </clipPath>
  <clipPath id="p1f045e45e1">
   <rect x="507.731455" y="43.2" width="380.454545" height="277.2"/>
  </clipPath>
 </defs>
</svg>
