<svg width="2772" height="995" xmlns="http://www.w3.org/2000/svg" xmlns:xlink="http://www.w3.org/1999/xlink" xml:space="preserve" overflow="hidden"><defs><clipPath id="clip0"><rect x="0" y="36" width="2772" height="995"/></clipPath><clipPath id="clip1"><rect x="0" y="370" width="330" height="331"/></clipPath><clipPath id="clip2"><rect x="0" y="370" width="330" height="331"/></clipPath><clipPath id="clip3"><rect x="0" y="370" width="330" height="331"/></clipPath></defs><g clip-path="url(#clip0)" transform="matrix(1 0 0 1 0 -36)"><g clip-path="url(#clip1)"><g clip-path="url(#clip2)"><g clip-path="url(#clip3)"><path d="M113.438 476.875C113.438 493.961 99.5863 507.812 82.5 507.812 65.4137 507.812 51.5625 493.961 51.5625 476.875 51.5625 459.789 65.4137 445.937 82.5 445.937 99.5863 445.937 113.438 459.789 113.438 476.875Z" fill="#000000" fill-rule="nonzero" fill-opacity="1"/><path d="M278.438 476.875C278.438 493.961 264.586 507.812 247.5 507.812 230.414 507.812 216.562 493.961 216.562 476.875 216.562 459.789 230.414 445.937 247.5 445.937 264.586 445.937 278.438 459.789 278.438 476.875Z" fill="#000000" fill-rule="nonzero" fill-opacity="1"/><path d="M226.875 626.062 226.875 595.125C226.875 590.312 224.812 585.5 220.687 582.75 212.438 575.875 201.438 571.062 190.438 568.312 182.875 566.25 173.938 564.187 165 564.187 156.75 564.187 147.812 565.562 139.562 568.312 128.562 571.062 118.25 576.562 109.312 582.75 105.188 586.187 103.125 590.312 103.125 595.125L103.125 626.062 226.875 626.062Z" fill="#000000" fill-rule="nonzero" fill-opacity="1"/><path d="M195.938 525C195.938 542.086 182.086 555.937 165 555.937 147.914 555.937 134.062 542.086 134.062 525 134.062 507.914 147.914 494.062 165 494.062 182.086 494.062 195.938 507.914 195.938 525Z" fill="#000000" fill-rule="nonzero" fill-opacity="1"/><path d="M303.188 534.625C294.938 527.75 283.938 522.937 272.938 520.187 265.375 518.125 256.438 516.062 247.5 516.062 239.25 516.062 230.312 517.437 222.062 520.187 217.938 521.562 213.812 522.937 209.688 525L209.688 525.687C209.688 537.375 204.875 548.375 197.312 555.937 210.375 560.062 220.687 565.562 228.938 571.75 231 573.812 233.063 575.187 234.437 577.937L309.375 577.937 309.375 547C309.375 542.187 307.312 537.375 303.188 534.625Z" fill="#000000" fill-rule="nonzero" fill-opacity="1"/><path d="M101.062 571.75 101.062 571.75C110.688 564.875 121.688 559.375 132.688 555.937 125.125 547.687 120.312 537.375 120.312 525.687 120.312 525 120.312 525 120.312 524.312 116.188 522.937 112.062 520.875 107.938 520.187 100.375 518.125 91.4375 516.062 82.5 516.062 74.25 516.062 65.3125 517.437 57.0625 520.187 46.0625 523.625 35.75 528.437 26.8125 534.625 22.6875 537.375 20.625 542.187 20.625 547L20.625 577.937 94.875 577.937C96.9375 575.187 98.3125 573.812 101.062 571.75Z" fill="#000000" fill-rule="nonzero" fill-opacity="1"/></g></g></g><path d="M424.5 97.3346C424.5 67.0504 449.05 42.5001 479.335 42.5001L899.666 42.5001C929.95 42.5001 954.5 67.0504 954.5 97.3346L954.5 316.666C954.5 346.95 929.95 371.5 899.666 371.5L479.335 371.5C449.05 371.5 424.5 346.95 424.5 316.666Z" stroke="#000000" stroke-width="4.58333" stroke-linecap="butt" stroke-linejoin="miter" stroke-miterlimit="8" stroke-opacity="1" fill="#FFFFFF" fill-rule="evenodd" fill-opacity="1"/><text fill="#000000" fill-opacity="1" font-family="Arial,Arial_MSFontService,sans-serif" font-style="normal" font-variant="normal" font-weight="700" font-stretch="normal" font-size="41" text-anchor="start" direction="ltr" writing-mode="lr-tb" unicode-bidi="normal" text-decoration="none" transform="matrix(1 0 0 1 474.375 123)">Individual</text><text fill="#000000" fill-opacity="1" font-family="Arial,Arial_MSFontService,sans-serif" font-style="normal" font-variant="normal" font-weight="700" font-stretch="normal" font-size="41" text-anchor="start" direction="ltr" writing-mode="lr-tb" unicode-bidi="normal" text-decoration="none" transform="matrix(1 0 0 1 678.333 123)">Differences </text><text fill="#000000" fill-opacity="1" font-family="Arial,Arial_MSFontService,sans-serif" font-style="normal" font-variant="normal" font-weight="700" font-stretch="normal" font-size="41" text-anchor="start" direction="ltr" writing-mode="lr-tb" unicode-bidi="normal" text-decoration="none" transform="matrix(1 0 0 1 531.666 173)">Questionnaires:</text><text fill="#000000" fill-opacity="1" font-family="Arial,Arial_MSFontService,sans-serif" font-style="normal" font-variant="normal" font-weight="400" font-stretch="normal" font-size="41" text-anchor="start" direction="ltr" writing-mode="lr-tb" unicode-bidi="normal" text-decoration="none" transform="matrix(1 0 0 1 546.562 222)">Motivation (IMI) </text><text fill="#000000" fill-opacity="1" font-family="Arial,Arial_MSFontService,sans-serif" font-style="normal" font-variant="normal" font-weight="400" font-stretch="normal" font-size="41" text-anchor="start" direction="ltr" writing-mode="lr-tb" unicode-bidi="normal" text-decoration="none" transform="matrix(1 0 0 1 504.166 272)">Metacognition (MAI)</text><text fill="#000000" fill-opacity="1" font-family="Arial,Arial_MSFontService,sans-serif" font-style="normal" font-variant="normal" font-weight="400" font-stretch="normal" font-size="41" text-anchor="start" direction="ltr" writing-mode="lr-tb" unicode-bidi="normal" text-decoration="none" transform="matrix(1 0 0 1 491.562 321)">Self</text><text fill="#000000" fill-opacity="1" font-family="Arial,Arial_MSFontService,sans-serif" font-style="normal" font-variant="normal" font-weight="400" font-stretch="normal" font-size="41" text-anchor="start" direction="ltr" writing-mode="lr-tb" unicode-bidi="normal" text-decoration="none" transform="matrix(1 0 0 1 562.604 321)">-</text><text fill="#000000" fill-opacity="1" font-family="Arial,Arial_MSFontService,sans-serif" font-style="normal" font-variant="normal" font-weight="400" font-stretch="normal" font-size="41" text-anchor="start" direction="ltr" writing-mode="lr-tb" unicode-bidi="normal" text-decoration="none" transform="matrix(1 0 0 1 576.354 321)">regulation</text><text fill="#000000" fill-opacity="1" font-family="Arial,Arial_MSFontService,sans-serif" font-style="normal" font-variant="normal" font-weight="400" font-stretch="normal" font-size="41" text-anchor="start" direction="ltr" writing-mode="lr-tb" unicode-bidi="normal" text-decoration="none" transform="matrix(1 0 0 1 768.854 321)">(SRQ)</text><path d="M259.5 821.001C259.5 801.394 275.394 785.5 295.001 785.5L789.999 785.5C809.606 785.5 825.5 801.394 825.5 821.001L825.5 962.999C825.5 982.606 809.606 998.5 789.999 998.5L295.001 998.5C275.394 998.5 259.5 982.606 259.5 962.999Z" stroke="#000000" stroke-width="4.58333" stroke-linecap="butt" stroke-linejoin="miter" stroke-miterlimit="8" stroke-opacity="1" fill="#FFFFFF" fill-rule="evenodd" fill-opacity="1"/><text fill="#000000" fill-opacity="1" font-family="Arial,Arial_MSFontService,sans-serif" font-style="normal" font-variant="normal" font-weight="700" font-stretch="normal" font-size="41" text-anchor="start" direction="ltr" writing-mode="lr-tb" unicode-bidi="normal" text-decoration="none" transform="matrix(1 0 0 1 446.646 857)">Log Data:</text><text fill="#000000" fill-opacity="1" font-family="Arial,Arial_MSFontService,sans-serif" font-style="normal" font-variant="normal" font-weight="400" font-stretch="normal" font-size="41" text-anchor="start" direction="ltr" writing-mode="lr-tb" unicode-bidi="normal" text-decoration="none" transform="matrix(1 0 0 1 301.125 907)">URL visits, Mouse Events, </text><text fill="#000000" fill-opacity="1" font-family="Arial,Arial_MSFontService,sans-serif" font-style="normal" font-variant="normal" font-weight="400" font-stretch="normal" font-size="41" text-anchor="start" direction="ltr" writing-mode="lr-tb" unicode-bidi="normal" text-decoration="none" transform="matrix(1 0 0 1 336.646 956)">Webnavigation Events</text><path d="M163.211 370.622 163.591 362.818 164.731 354.927 166.597 347.081 169.163 339.296 172.401 331.589 176.285 323.973 180.789 316.463 185.886 309.072 191.553 301.814 197.764 294.703 204.496 287.752 211.724 280.975 219.424 274.386 227.574 267.999 236.148 261.828 245.124 255.888 254.478 250.193 264.204 244.747 284.574 234.722 306.1 225.902 328.557 218.421 340.111 215.21 351.814 212.383 363.661 209.948 375.627 207.923 387.711 206.318 401.156 205.26 401.516 209.829 388.131 210.882 388.253 210.869 376.271 212.461 376.352 212.448 364.465 214.461 364.544 214.446 352.775 216.864 352.852 216.847 341.226 219.656 341.301 219.637 329.84 222.822 329.951 222.788 307.622 230.226 307.766 230.172 286.385 238.933 286.528 238.869 266.283 248.833 266.39 248.776 256.754 254.172 256.826 254.129 247.544 259.78 247.617 259.734 238.715 265.626 238.789 265.575 230.289 271.692 230.364 271.635 222.291 277.963 222.367 277.901 214.743 284.424 214.821 284.354 207.671 291.058 207.75 290.98 201.098 297.849 201.178 297.763 195.047 304.782 195.127 304.685 189.541 311.839 189.621 311.73 184.603 319.005 184.682 318.883 180.256 326.263 180.333 326.125 176.523 333.596 176.594 333.442 173.424 340.988 173.488 340.818 170.981 348.423 171.034 348.236 169.214 355.887 169.252 355.684 168.143 363.365 168.164 363.149 167.789 370.845ZM396.13 194.018 424.229 206.5 397.384 221.489Z" fill="#000000" fill-rule="nonzero" fill-opacity="1"/><path d="M0.0689412-2.29063 17.9591-1.75219 35.7733-0.177037 53.3034 2.36346 70.4122 5.80057 86.9622 10.0661 102.816 15.0925 117.838 20.8129 131.889 27.1615 144.836 34.074 156.518 41.4743 161.88 45.3643 166.861 49.3446 171.464 53.4219 175.67 57.5901 179.462 61.8436 182.983 66.3867 184.74 71.1501 180.44 72.7362 178.805 68.3044 179.144 68.9151 175.887 64.7135 175.988 64.8346 172.296 60.6929 172.394 60.7957 168.283 56.7225 168.377 56.8101 163.866 52.814 163.955 52.889 159.06 48.9784 159.145 49.0429 153.885 45.2265 154.004 45.3075 142.455 37.9914 142.602 38.077 129.798 31.2403 129.933 31.3072 116.014 25.0183 116.142 25.0715 101.246 19.399 101.369 19.4418 85.6369 14.4541 85.7575 14.4887 69.3282 10.2543 69.4488 10.2819 52.4617 6.86927 52.5844 6.89047 35.1791 4.36807 35.306 4.38286 17.6218 2.8192 17.7547 2.82707-0.0689412 2.29063ZM193.968 62.9658 190.366 93.5 168.1 72.2978Z" fill="#000000" fill-rule="nonzero" fill-opacity="1" transform="matrix(1.83697e-16 1 1 -1.83697e-16 165.5 701.5)"/><path d="M930.5 798.335C930.5 773.021 951.021 752.5 976.335 752.5L1569.67 752.5C1594.98 752.5 1615.5 773.021 1615.5 798.335L1615.5 981.665C1615.5 1006.98 1594.98 1027.5 1569.67 1027.5L976.335 1027.5C951.021 1027.5 930.5 1006.98 930.5 981.665Z" stroke="#000000" stroke-width="4.58333" stroke-linecap="butt" stroke-linejoin="miter" stroke-miterlimit="8" stroke-opacity="1" fill="#FFFFFF" fill-rule="evenodd" fill-opacity="1"/><text fill="#000000" fill-opacity="1" font-family="Arial,Arial_MSFontService,sans-serif" font-style="normal" font-variant="normal" font-weight="700" font-stretch="normal" font-size="41" text-anchor="start" direction="ltr" writing-mode="lr-tb" unicode-bidi="normal" text-decoration="none" transform="matrix(1 0 0 1 1102.98 830)">Log Data Analysis:</text><text fill="#000000" fill-opacity="1" font-family="Arial,Arial_MSFontService,sans-serif" font-style="normal" font-variant="normal" font-weight="400" font-stretch="normal" font-size="41" text-anchor="start" direction="ltr" writing-mode="lr-tb" unicode-bidi="normal" text-decoration="none" transform="matrix(1 0 0 1 976.368 880)">1. </text><text fill="#000000" fill-opacity="1" font-family="Arial,Arial_MSFontService,sans-serif" font-style="normal" font-variant="normal" font-weight="400" font-stretch="normal" font-size="41" text-anchor="start" direction="ltr" writing-mode="lr-tb" unicode-bidi="normal" text-decoration="none" transform="matrix(1 0 0 1 1022.2 880)">URL Categorization</text><text fill="#000000" fill-opacity="1" font-family="Arial,Arial_MSFontService,sans-serif" font-style="normal" font-variant="normal" font-weight="400" font-stretch="normal" font-size="41" text-anchor="start" direction="ltr" writing-mode="lr-tb" unicode-bidi="normal" text-decoration="none" transform="matrix(1 0 0 1 976.368 929)">2. Active Tab</text><text fill="#000000" fill-opacity="1" font-family="Arial,Arial_MSFontService,sans-serif" font-style="normal" font-variant="normal" font-weight="400" font-stretch="normal" font-size="41" text-anchor="start" direction="ltr" writing-mode="lr-tb" unicode-bidi="normal" text-decoration="none" transform="matrix(1 0 0 1 1228.45 929)">Identification</text><text fill="#000000" fill-opacity="1" font-family="Arial,Arial_MSFontService,sans-serif" font-style="normal" font-variant="normal" font-weight="400" font-stretch="normal" font-size="41" text-anchor="start" direction="ltr" writing-mode="lr-tb" unicode-bidi="normal" text-decoration="none" transform="matrix(1 0 0 1 976.368 979)">3.</text><text fill="#000000" fill-opacity="1" font-family="Arial,Arial_MSFontService,sans-serif" font-style="normal" font-variant="normal" font-weight="400" font-stretch="normal" font-size="41" text-anchor="start" direction="ltr" writing-mode="lr-tb" unicode-bidi="normal" text-decoration="none" transform="matrix(1 0 0 1 1022.2 979)">Parsing</text><text fill="#000000" fill-opacity="1" font-family="Arial,Arial_MSFontService,sans-serif" font-style="normal" font-variant="normal" font-weight="400" font-stretch="normal" font-size="41" text-anchor="start" direction="ltr" writing-mode="lr-tb" unicode-bidi="normal" text-decoration="none" transform="matrix(1 0 0 1 1173.45 979)">Log</text><text fill="#000000" fill-opacity="1" font-family="Arial,Arial_MSFontService,sans-serif" font-style="normal" font-variant="normal" font-weight="400" font-stretch="normal" font-size="41" text-anchor="start" direction="ltr" writing-mode="lr-tb" unicode-bidi="normal" text-decoration="none" transform="matrix(1 0 0 1 1253.66 979)">Data</text><text fill="#000000" fill-opacity="1" font-family="Arial,Arial_MSFontService,sans-serif" font-style="normal" font-variant="normal" font-weight="400" font-stretch="normal" font-size="41" text-anchor="start" direction="ltr" writing-mode="lr-tb" unicode-bidi="normal" text-decoration="none" transform="matrix(1 0 0 1 1352.2 979)">of Active</text><text fill="#000000" fill-opacity="1" font-family="Arial,Arial_MSFontService,sans-serif" font-style="normal" font-variant="normal" font-weight="400" font-stretch="normal" font-size="41" text-anchor="start" direction="ltr" writing-mode="lr-tb" unicode-bidi="normal" text-decoration="none" transform="matrix(1 0 0 1 1521.78 979)">Ta</text><text fill="#000000" fill-opacity="1" font-family="Arial,Arial_MSFontService,sans-serif" font-style="normal" font-variant="normal" font-weight="400" font-stretch="normal" font-size="41" text-anchor="start" direction="ltr" writing-mode="lr-tb" unicode-bidi="normal" text-decoration="none" transform="matrix(1 0 0 1 1569.91 979)">b</text><path d="M1127.5 161C1127.5 148.021 1138.02 137.5 1151 137.5L1666 137.5C1678.98 137.5 1689.5 148.021 1689.5 161L1689.5 255C1689.5 267.978 1678.98 278.5 1666 278.5L1151 278.5C1138.02 278.5 1127.5 267.978 1127.5 255Z" stroke="#000000" stroke-width="4.58333" stroke-linecap="butt" stroke-linejoin="miter" stroke-miterlimit="8" stroke-opacity="1" fill="#FFFFFF" fill-rule="evenodd" fill-opacity="1"/><text fill="#000000" fill-opacity="1" font-family="Arial,Arial_MSFontService,sans-serif" font-style="normal" font-variant="normal" font-weight="700" font-stretch="normal" font-size="41" text-anchor="start" direction="ltr" writing-mode="lr-tb" unicode-bidi="normal" text-decoration="none" transform="matrix(1 0 0 1 1178.83 198)">Latent Profile Analysis:</text><text fill="#000000" fill-opacity="1" font-family="Arial,Arial_MSFontService,sans-serif" font-style="normal" font-variant="normal" font-weight="400" font-stretch="normal" font-size="41" text-anchor="start" direction="ltr" writing-mode="lr-tb" unicode-bidi="normal" text-decoration="none" transform="matrix(1 0 0 1 1191.44 248)">Identifying User Groups</text><path d="M967.5 485C967.5 468.708 980.708 455.5 997 455.5L1549 455.5C1565.29 455.5 1578.5 468.708 1578.5 485L1578.5 603C1578.5 619.292 1565.29 632.5 1549 632.5L997 632.5C980.708 632.5 967.5 619.292 967.5 603Z" stroke="#000000" stroke-width="4.58333" stroke-linecap="butt" stroke-linejoin="miter" stroke-miterlimit="8" stroke-opacity="1" fill="#FFFFFF" fill-rule="evenodd" fill-opacity="1"/><text fill="#000000" fill-opacity="1" font-family="Arial,Arial_MSFontService,sans-serif" font-style="normal" font-variant="normal" font-weight="700" font-stretch="normal" font-size="41" text-anchor="start" direction="ltr" writing-mode="lr-tb" unicode-bidi="normal" text-decoration="none" transform="matrix(1 0 0 1 1021.39 534)">Levels of Search Activity:</text><text fill="#000000" fill-opacity="1" font-family="Arial,Arial_MSFontService,sans-serif" font-style="normal" font-variant="normal" font-weight="400" font-stretch="normal" font-size="41" text-anchor="start" direction="ltr" writing-mode="lr-tb" unicode-bidi="normal" text-decoration="none" transform="matrix(1 0 0 1 989.884 584)">Moves </text><text fill="#000000" fill-opacity="1" font-family="Wingdings,Wingdings_MSFontService,sans-serif" font-style="normal" font-variant="normal" font-weight="400" font-stretch="normal" font-size="41" text-anchor="start" direction="ltr" writing-mode="lr-tb" unicode-bidi="normal" text-decoration="none" transform="matrix(1 0 0 1 1122.8 584)"></text><text fill="#000000" fill-opacity="1" font-family="Arial,Arial_MSFontService,sans-serif" font-style="normal" font-variant="normal" font-weight="400" font-stretch="normal" font-size="41" text-anchor="start" direction="ltr" writing-mode="lr-tb" unicode-bidi="normal" text-decoration="none" transform="matrix(1 0 0 1 1174.94 584)">Tactics </text><text fill="#000000" fill-opacity="1" font-family="Wingdings,Wingdings_MSFontService,sans-serif" font-style="normal" font-variant="normal" font-weight="400" font-stretch="normal" font-size="41" text-anchor="start" direction="ltr" writing-mode="lr-tb" unicode-bidi="normal" text-decoration="none" transform="matrix(1 0 0 1 1317.02 584)"></text><text fill="#000000" fill-opacity="1" font-family="Arial,Arial_MSFontService,sans-serif" font-style="normal" font-variant="normal" font-weight="400" font-stretch="normal" font-size="41" text-anchor="start" direction="ltr" writing-mode="lr-tb" unicode-bidi="normal" text-decoration="none" transform="matrix(1 0 0 1 1369.15 584)">Strategies</text><path d="M0.0048203-2.29166 9.79794-2.27106 19.2882-2.21282 28.1641-2.1223 36.1178-2.00489 39.6563-1.93769 42.8494-1.86576 45.6612-1.78967 48.0558-1.70996 50.0008-1.6269 51.4783-1.53943 52.6058-1.43003 53.1068-1.28721 53.4079-1.20138 53.001-1.27846 53.8787-1.19331 53.7928-1.20001 55.2085-1.1162 55.1709-1.11812 57.0863-1.03632 57.0647-1.03714 59.4414-0.958031 59.4272-0.958461 62.2266-0.882706 62.2162-0.882964 65.4001-0.811237 65.392-0.811405 68.9217-0.744378 68.912-0.744542 76.8556-0.627273 76.8365-0.627475 82.0557-0.593872 82.0262 3.98937 76.7974 3.9557 68.8395 3.83822 65.3009 3.77103 62.1078 3.69909 59.2961 3.623 56.9015 3.5433 54.9565 3.46023 53.4789 3.37276 52.3514 3.26337 51.8504 3.12054 51.5493 3.03472 51.9562 3.1118 51.0786 3.02664 51.1645 3.03335 49.7487 2.94954 49.7864 2.95146 47.871 2.86966 47.8925 2.87048 45.5158 2.79136 45.5301 2.79179 42.7306 2.71604 42.741 2.7163 39.5572 2.64457 39.5653 2.64474 36.0355 2.57771 36.0452 2.57788 28.1017 2.46061 28.1121 2.46074 19.2461 2.37032 19.2554 2.3704 9.77443 2.31221 9.78367 2.31225-0.0048203 2.29166ZM77.5391-12.0791 104.957 1.83333 77.3764 15.4204Z" fill="#000000" fill-rule="nonzero" fill-opacity="1" transform="matrix(1 0 0 -1 825.5 891.333)"/><path d="M1.44585e-07-2.29167 11.1721-2.29167 21.9933-2.29166 32.1126-2.29165 41.1791-2.29162 45.2078-2.2916 48.8417-2.29158 52.0369-2.29155 54.7496-2.29151 56.9358-2.29147 58.5517-2.29142 59.5534-2.29137 59.8974-2.29131 60.2406-2.29131 61.2423-2.29131 62.8581-2.29131 65.0443-2.29131 67.7569-2.29131 70.9521-2.29131 74.5859-2.29131 78.6146-2.29131 87.681-2.29131 96.8769-2.29131 96.8769 2.29203 87.681 2.29203 78.6146 2.29203 74.5859 2.29203 70.9521 2.29203 67.7569 2.29203 65.0443 2.29203 62.8581 2.29203 61.2423 2.29203 60.2406 2.29203 59.8965 2.29203 59.5532 2.29196 58.5515 2.29191 56.9357 2.29186 54.7495 2.29182 52.0369 2.29178 48.8417 2.29175 45.2078 2.29173 41.1791 2.29171 32.1126 2.29169 21.9933 2.29167 11.1721 2.29167-1.44585e-07 2.29167ZM92.2935-13.7496 119.794 0.000360892 92.2935 13.7504Z" fill="#000000" fill-rule="nonzero" fill-opacity="1" transform="matrix(-1.83697e-16 -1 -1 1.83697e-16 1272.5 752.294)"/><path d="M954.501 204.208 970.638 204.216 986.269 204.239 993.737 204.255 1000.89 204.273 1007.66 204.295 1013.98 204.318 1019.81 204.344 1025.06 204.372 1029.67 204.401 1033.59 204.431 1036.76 204.462 1039.11 204.495 1040.62 204.529 1041.16 204.565 1041.66 204.598 1041.56 204.593 1043.01 204.626 1042.99 204.626 1045.32 204.658 1045.31 204.658 1048.47 204.689 1052.38 204.719 1056.99 204.748 1062.24 204.776 1068.06 204.801 1074.38 204.825 1081.15 204.846 1088.3 204.865 1095.76 204.881 1104.61 204.891 1104.6 209.474 1095.75 209.464 1088.28 209.448 1081.13 209.43 1074.36 209.408 1068.04 209.385 1062.21 209.359 1056.96 209.331 1052.35 209.302 1048.42 209.272 1045.26 209.241 1042.91 209.208 1041.41 209.174 1040.86 209.138 1040.36 209.105 1040.46 209.11 1039.02 209.077 1039.04 209.077 1036.7 209.045 1036.71 209.045 1033.56 209.014 1029.64 208.984 1025.03 208.955 1019.78 208.927 1013.97 208.902 1007.64 208.878 1000.88 208.857 993.727 208.838 986.263 208.822 970.635 208.8 954.499 208.792ZM1100.03 193.429 1127.52 207.203 1100.01 220.929Z" fill="#000000" fill-rule="nonzero" fill-opacity="1"/><rect x="2250" y="132" width="521" height="786" fill="#D9D9D9" fill-opacity="1"/><text fill="#000000" fill-opacity="1" font-family="Arial,Arial_MSFontService,sans-serif" font-style="normal" font-variant="normal" font-weight="700" font-stretch="normal" font-size="48" text-anchor="start" direction="ltr" writing-mode="lr-tb" unicode-bidi="normal" text-decoration="none" transform="matrix(1 0 0 1 2392.67 195)">Outcomes</text><path d="M2301.5 254.834C2301.5 241.395 2312.39 230.5 2325.83 230.5L2691.17 230.5C2704.61 230.5 2715.5 241.395 2715.5 254.834L2715.5 352.166C2715.5 365.605 2704.61 376.5 2691.17 376.5L2325.83 376.5C2312.39 376.5 2301.5 365.605 2301.5 352.166Z" stroke="#000000" stroke-width="4.58333" stroke-linecap="butt" stroke-linejoin="miter" stroke-miterlimit="8" stroke-opacity="1" fill="#FFFFFF" fill-rule="evenodd" fill-opacity="1"/><text fill="#000000" fill-opacity="1" font-family="Arial,Arial_MSFontService,sans-serif" font-style="normal" font-variant="normal" font-weight="400" font-stretch="normal" font-size="41" text-anchor="start" direction="ltr" writing-mode="lr-tb" unicode-bidi="normal" text-decoration="none" transform="matrix(1 0 0 1 2346.67 293)">Overall difference </text><text fill="#000000" fill-opacity="1" font-family="Arial,Arial_MSFontService,sans-serif" font-style="normal" font-variant="normal" font-weight="400" font-stretch="normal" font-size="41" text-anchor="start" direction="ltr" writing-mode="lr-tb" unicode-bidi="normal" text-decoration="none" transform="matrix(1 0 0 1 2361.56 343)">between groups</text><path d="M2340.5 485.167C2340.5 468.783 2353.78 455.5 2370.17 455.5L2685.83 455.5C2702.22 455.5 2715.5 468.783 2715.5 485.167L2715.5 603.833C2715.5 620.217 2702.22 633.5 2685.83 633.5L2370.17 633.5C2353.78 633.5 2340.5 620.217 2340.5 603.833Z" stroke="#000000" stroke-width="4.58333" stroke-linecap="butt" stroke-linejoin="miter" stroke-miterlimit="8" stroke-opacity="1" fill="#FFFFFF" fill-rule="evenodd" fill-opacity="1"/><text fill="#000000" fill-opacity="1" font-family="Arial,Arial_MSFontService,sans-serif" font-style="normal" font-variant="normal" font-weight="400" font-stretch="normal" font-size="41" text-anchor="start" direction="ltr" writing-mode="lr-tb" unicode-bidi="normal" text-decoration="none" transform="matrix(1 0 0 1 2441.77 510)">Trends in </text><text fill="#000000" fill-opacity="1" font-family="Arial,Arial_MSFontService,sans-serif" font-style="normal" font-variant="normal" font-weight="400" font-stretch="normal" font-size="41" text-anchor="start" direction="ltr" writing-mode="lr-tb" unicode-bidi="normal" text-decoration="none" transform="matrix(1 0 0 1 2381.04 560)">differences over </text><text fill="#000000" fill-opacity="1" font-family="Arial,Arial_MSFontService,sans-serif" font-style="normal" font-variant="normal" font-weight="400" font-stretch="normal" font-size="41" text-anchor="start" direction="ltr" writing-mode="lr-tb" unicode-bidi="normal" text-decoration="none" transform="matrix(1 0 0 1 2488.75 609)">time</text><path d="M2319.5 731.501C2319.5 716.036 2332.04 703.5 2347.5 703.5L2687.5 703.5C2702.96 703.5 2715.5 716.036 2715.5 731.501L2715.5 843.499C2715.5 858.964 2702.96 871.5 2687.5 871.5L2347.5 871.5C2332.04 871.5 2319.5 858.964 2319.5 843.499Z" stroke="#000000" stroke-width="4.58333" stroke-linecap="butt" stroke-linejoin="miter" stroke-miterlimit="8" stroke-opacity="1" fill="#FFFFFF" fill-rule="evenodd" fill-opacity="1"/><text fill="#000000" fill-opacity="1" font-family="Arial,Arial_MSFontService,sans-serif" font-style="normal" font-variant="normal" font-weight="400" font-stretch="normal" font-size="41" text-anchor="start" direction="ltr" writing-mode="lr-tb" unicode-bidi="normal" text-decoration="none" transform="matrix(1 0 0 1 2406.25 778)">Entropy and </text><text fill="#000000" fill-opacity="1" font-family="Arial,Arial_MSFontService,sans-serif" font-style="normal" font-variant="normal" font-weight="400" font-stretch="normal" font-size="41" text-anchor="start" direction="ltr" writing-mode="lr-tb" unicode-bidi="normal" text-decoration="none" transform="matrix(1 0 0 1 2342.08 828)">Sequence Analysis</text><path d="M1655.5 486.001C1655.5 469.708 1668.71 456.5 1685 456.5L2057 456.5C2073.29 456.5 2086.5 469.708 2086.5 486.001L2086.5 603.999C2086.5 620.292 2073.29 633.5 2057 633.5L1685 633.5C1668.71 633.5 1655.5 620.292 1655.5 603.999Z" stroke="#000000" stroke-width="4.58333" stroke-linecap="butt" stroke-linejoin="miter" stroke-miterlimit="8" stroke-opacity="1" fill="#FFFFFF" fill-rule="evenodd" fill-opacity="1"/><text fill="#000000" fill-opacity="1" font-family="Arial,Arial_MSFontService,sans-serif" font-style="normal" font-variant="normal" font-weight="400" font-stretch="normal" font-size="41" text-anchor="start" direction="ltr" writing-mode="lr-tb" unicode-bidi="normal" text-decoration="none" transform="matrix(1 0 0 1 1736.39 535)">Search activity </text><text fill="#000000" fill-opacity="1" font-family="Arial,Arial_MSFontService,sans-serif" font-style="normal" font-variant="normal" font-weight="400" font-stretch="normal" font-size="41" text-anchor="start" direction="ltr" writing-mode="lr-tb" unicode-bidi="normal" text-decoration="none" transform="matrix(1 0 0 1 1679.1 585)">clustered into groups</text><path d="M1689.6 205.211 1698.18 205.575 1706.83 206.665 1715.43 208.45 1723.98 210.906 1732.45 214.008 1740.82 217.73 1749.08 222.049 1757.21 226.941 1765.2 232.381 1773.03 238.345 1780.69 244.812 1788.16 251.757 1795.42 259.158 1802.46 266.991 1809.27 275.234 1815.83 283.882 1828.1 302.194 1839.16 321.804 1848.88 342.49 1853.21 353.218 1857.15 364.132 1860.69 375.231 1863.81 386.491 1866.5 397.89 1868.73 409.406 1870.51 421.04 1871.58 433.097 1867.01 433.502 1865.95 421.517 1865.96 421.659 1864.21 410.142 1864.22 410.234 1862.01 398.809 1862.03 398.897 1859.36 387.586 1859.38 387.672 1856.29 376.497 1856.31 376.581 1852.8 365.565 1852.83 365.647 1848.92 354.814 1848.95 354.894 1844.66 344.265 1844.71 344.382 1835.05 323.83 1835.13 323.982 1824.15 304.523 1824.24 304.672 1812.06 286.488 1812.14 286.599 1805.65 278.042 1805.7 278.115 1798.96 269.946 1799.02 270.019 1792.05 262.259 1792.12 262.332 1784.93 255.005 1785 255.078 1777.61 248.206 1777.69 248.278 1770.12 241.885 1770.21 241.957 1762.47 236.064 1762.57 236.135 1754.69 230.766 1754.79 230.835 1746.78 226.012 1746.89 226.079 1738.76 221.825 1738.89 221.889 1730.66 218.227 1730.8 218.285 1722.48 215.238 1722.64 215.288 1714.25 212.879 1714.42 212.92 1705.99 211.171 1706.16 211.201 1697.7 210.134 1697.89 210.15 1689.4 209.79ZM1882.77 427.974 1870.54 456.182 1855.31 429.472Z" fill="#000000" fill-rule="nonzero" fill-opacity="1"/><path d="M1578.5 542.208 1585.68 542.217 1592.64 542.241 1599.15 542.279 1604.99 542.328 1609.93 542.386 1613.74 542.451 1615.16 542.486 1616.24 542.523 1617.03 542.566 1617.37 542.622 1617.59 542.658 1617.35 542.631 1617.99 542.667 1617.94 542.665 1618.98 542.7 1618.96 542.699 1620.36 542.733 1620.35 542.733 1624.14 542.798 1624.12 542.798 1632.6 542.865 1632.56 547.449 1624.08 547.381 1620.26 547.316 1618.84 547.281 1617.76 547.245 1616.97 547.201 1616.63 547.146 1616.41 547.11 1616.65 547.136 1616.01 547.1 1616.06 547.102 1615.02 547.067 1615.04 547.068 1613.64 547.034 1613.65 547.034 1609.85 546.969 1609.87 546.969 1604.94 546.911 1604.95 546.911 1599.13 546.862 1592.63 546.825 1585.68 546.8 1578.5 546.792ZM1628.07 531.385 1655.5 545.267 1627.93 558.885Z" fill="#000000" fill-rule="nonzero" fill-opacity="1"/><path d="M0.15722-2.28627 10.3806-1.58323 20.658 0.493103 30.7469 3.83378 40.5693 8.34247 50.0493 13.9251 59.1118 20.4899 67.6815 27.9466 75.6829 36.2063 83.0396 45.1814 89.6744 54.7846 95.5096 64.9293 100.466 75.5291 104.464 86.4977 107.422 97.7487 109.258 109.195 109.882 120.619 110.499 131.924 110.474 131.686 112.273 142.903 112.227 142.683 115.129 153.723 115.066 153.521 118.993 164.295 118.916 164.109 123.789 174.53 123.699 174.358 129.439 184.337 129.338 184.177 135.865 193.625 135.752 193.474 142.989 202.303 142.863 202.162 150.73 210.283 150.588 210.149 159.007 217.474 158.847 217.347 167.739 223.788 167.558 223.669 176.843 229.137 176.636 229.029 186.237 233.436 185.821 233.292 193.195 235.078 192.116 239.533 184.527 237.694 174.618 233.146 165.138 227.563 156.076 220.999 147.506 213.542 139.505 205.282 132.148 196.307 125.513 186.704 119.678 176.559 114.721 165.96 110.724 154.991 107.765 143.74 105.929 132.294 105.305 120.869 104.688 109.564 104.714 109.802 102.914 98.5856 102.961 98.8054 100.058 87.7657 100.121 87.9677 96.1943 77.1933 96.2715 77.3792 91.3988 66.9585 91.4882 67.1304 85.7487 57.1519 85.8497 57.312 79.3222 47.8641 79.4352 48.0142 72.1984 39.1854 72.3248 39.3271 64.4575 31.2057 64.5992 31.3401 56.1803 24.0146 56.3402 24.1417 47.4485 17.7006 47.63 17.8194 38.3443 12.3512 38.5511 12.4592 28.9502 8.05215 29.1858 8.14492 19.3484 4.88753 19.615 4.95831 9.61999 2.93903 9.91658 2.97901-0.15722 2.28627ZM190.659 222.95 215.188 241.489 185.64 249.988Z" fill="#000000" fill-rule="nonzero" fill-opacity="1" transform="matrix(1 0 0 -1 2086.5 544.989)"/><path d="M0.000416945-2.29167 23.7027-2.28735 46.6612-2.27517 57.6288-2.26647 68.1308-2.25623 78.0744-2.24458 87.3666-2.23167 95.9143-2.21763 103.624-2.2026 110.404-2.18673 116.16-2.17016 120.8-2.15302 124.235-2.13543 126.383-2.11741 127.131-2.09898 127.86-2.08107 127.822-2.08168 129.948-2.0639 129.94-2.06395 133.368-2.04644 138.003-2.02937 143.756-2.01284 150.534-1.997 158.242-1.98201 166.788-1.96799 176.08-1.95509 186.022-1.94345 196.523-1.93322 207.49-1.92453 231.232-1.91331 231.23 2.67002 207.486 2.6588 196.519 2.65011 186.017 2.63988 176.073 2.62824 166.781 2.61534 158.233 2.60132 150.523 2.58632 143.743 2.57048 137.986 2.55394 133.345 2.53683 129.913 2.5193 127.766 2.50134 127.018 2.48297 126.289 2.46499 126.326 2.4656 124.201 2.44777 124.208 2.44782 120.783 2.43028 116.147 2.41315 110.393 2.39659 103.616 2.38072 95.9068 2.3657 87.3602 2.35166 78.0691 2.33875 68.1263 2.3271 57.6251 2.31686 46.6588 2.30817 23.7018 2.29598-0.000416945 2.29167ZM226.651-13.3727 254.148 0.383629 226.645 14.1273Z" fill="#000000" fill-rule="nonzero" fill-opacity="1" transform="matrix(1 0 0 -1 2086.5 544.884)"/><path d="M2086.65 542.213 2097.72 542.918 2108.83 544.998 2119.74 548.345 2130.37 552.866 2140.64 558.467 2150.46 565.056 2159.75 572.544 2168.43 580.842 2176.41 589.861 2183.61 599.513 2189.94 609.714 2195.32 620.374 2199.66 631.409 2202.88 642.732 2204.87 654.254 2205.55 665.747 2206.22 677.112 2206.19 676.856 2208.14 688.132 2208.09 687.897 2211.24 698.995 2211.17 698.782 2215.43 709.613 2215.34 709.42 2220.63 719.896 2220.53 719.719 2226.76 729.751 2226.65 729.589 2233.73 739.087 2233.61 738.939 2241.46 747.814 2241.33 747.676 2249.87 755.841 2249.72 755.713 2258.86 763.077 2258.7 762.958 2268.35 769.433 2268.17 769.324 2278.24 774.822 2278.04 774.724 2288.46 779.155 2288.1 779.035 2297.93 781.391 2296.86 785.848 2286.85 783.448 2276.15 778.899 2265.88 773.298 2256.06 766.708 2246.77 759.22 2238.09 750.923 2230.11 741.904 2222.92 732.251 2216.58 722.051 2211.2 711.39 2206.86 700.355 2203.65 689.033 2201.65 677.511 2200.97 666.017 2200.3 654.652 2200.33 654.909 2198.38 643.633 2198.43 643.867 2195.28 632.769 2195.36 632.983 2191.09 622.151 2191.18 622.345 2185.89 611.869 2185.99 612.045 2179.76 602.014 2179.87 602.175 2172.79 592.678 2172.91 592.826 2165.06 583.951 2165.19 584.088 2156.65 575.924 2156.8 576.052 2147.66 568.688 2147.82 568.807 2138.17 562.331 2138.35 562.44 2128.28 556.943 2128.48 557.04 2118.06 552.61 2118.28 552.692 2107.61 549.417 2107.86 549.479 2097.01 547.449 2097.29 547.483 2086.35 546.787ZM2295.06 769.316 2320.02 787.265 2290.68 796.466Z" fill="#000000" fill-rule="nonzero" fill-opacity="1"/></g></svg>