<?xml version="1.0" encoding="utf-8" standalone="no"?>
<!DOCTYPE svg PUBLIC "-//W3C//DTD SVG 1.1//EN"
  "http://www.w3.org/Graphics/SVG/1.1/DTD/svg11.dtd">
<svg xmlns:xlink="http://www.w3.org/1999/xlink" width="891.718875pt" height="381.297862pt" viewBox="0 0 891.718875 381.297862" xmlns="http://www.w3.org/2000/svg" version="1.1">
 <metadata>
  <rdf:RDF xmlns:dc="http://purl.org/dc/elements/1.1/" xmlns:cc="http://creativecommons.org/ns#" xmlns:rdf="http://www.w3.org/1999/02/22-rdf-syntax-ns#">
   <cc:Work>
    <dc:type rdf:resource="http://purl.org/dc/dcmitype/StillImage"/>
    <dc:date>2023-02-22T13:29:42.512916</dc:date>
    <dc:format>image/svg+xml</dc:format>
    <dc:creator>
     <cc:Agent>
      <dc:title>Matplotlib v3.6.3, https://matplotlib.org/</dc:title>
     </cc:Agent>
    </dc:creator>
   </cc:Work>
  </rdf:RDF>
 </metadata>
 <defs>
  <style type="text/css">*{stroke-linejoin: round; stroke-linecap: butt}</style>
 </defs>
 <g id="figure_1">
  <g id="patch_1">
   <path d="M 0 381.297862 
L 891.718875 381.297862 
L 891.718875 0 
L 0 0 
z
" style="fill: #ffffff"/>
  </g>
  <g id="axes_1">
   <g id="patch_2">
    <path d="M 47.518875 320.4 
L 427.97342 320.4 
L 427.97342 43.2 
L 47.518875 43.2 
z
" style="fill: #ffffff"/>
   </g>
   <g id="matplotlib.axis_1">
    <g id="xtick_1">
     <g id="text_1">
      <!-- LO -->
      <g style="fill: #262626" transform="translate(133.82873 338.148312) scale(0.132 -0.132)">
       <defs>
        <path id="ArialMT-4c" d="M 469 0 
L 469 4581 
L 1075 4581 
L 1075 541 
L 3331 541 
L 3331 0 
L 469 0 
z
" transform="scale(0.015625)"/>
        <path id="ArialMT-4f" d="M 309 2231 
Q 309 3372 921 4017 
Q 1534 4663 2503 4663 
Q 3138 4663 3647 4359 
Q 4156 4056 4423 3514 
Q 4691 2972 4691 2284 
Q 4691 1588 4409 1038 
Q 4128 488 3612 205 
Q 3097 -78 2500 -78 
Q 1853 -78 1343 234 
Q 834 547 571 1087 
Q 309 1628 309 2231 
z
M 934 2222 
Q 934 1394 1379 917 
Q 1825 441 2497 441 
Q 3181 441 3623 922 
Q 4066 1403 4066 2288 
Q 4066 2847 3877 3264 
Q 3688 3681 3323 3911 
Q 2959 4141 2506 4141 
Q 1863 4141 1398 3698 
Q 934 3256 934 2222 
z
" transform="scale(0.015625)"/>
       </defs>
       <use xlink:href="#ArialMT-4c"/>
       <use xlink:href="#ArialMT-4f" x="55.615234"/>
      </g>
     </g>
    </g>
    <g id="xtick_2">
     <g id="text_2">
      <!-- HI -->
      <g style="fill: #262626" transform="translate(326.259784 338.148312) scale(0.132 -0.132)">
       <defs>
        <path id="ArialMT-48" d="M 513 0 
L 513 4581 
L 1119 4581 
L 1119 2700 
L 3500 2700 
L 3500 4581 
L 4106 4581 
L 4106 0 
L 3500 0 
L 3500 2159 
L 1119 2159 
L 1119 0 
L 513 0 
z
" transform="scale(0.015625)"/>
        <path id="ArialMT-49" d="M 597 0 
L 597 4581 
L 1203 4581 
L 1203 0 
L 597 0 
z
" transform="scale(0.015625)"/>
       </defs>
       <use xlink:href="#ArialMT-48"/>
       <use xlink:href="#ArialMT-49" x="72.216797"/>
      </g>
     </g>
    </g>
    <g id="text_3">
     <!-- Profile Name -->
     <g style="fill: #262626" transform="translate(196.133523 355.079062) scale(0.144 -0.144)">
      <defs>
       <path id="ArialMT-50" d="M 494 0 
L 494 4581 
L 2222 4581 
Q 2678 4581 2919 4538 
Q 3256 4481 3484 4323 
Q 3713 4166 3852 3881 
Q 3991 3597 3991 3256 
Q 3991 2672 3619 2267 
Q 3247 1863 2275 1863 
L 1100 1863 
L 1100 0 
L 494 0 
z
M 1100 2403 
L 2284 2403 
Q 2872 2403 3119 2622 
Q 3366 2841 3366 3238 
Q 3366 3525 3220 3729 
Q 3075 3934 2838 4000 
Q 2684 4041 2272 4041 
L 1100 4041 
L 1100 2403 
z
" transform="scale(0.015625)"/>
       <path id="ArialMT-72" d="M 416 0 
L 416 3319 
L 922 3319 
L 922 2816 
Q 1116 3169 1280 3281 
Q 1444 3394 1641 3394 
Q 1925 3394 2219 3213 
L 2025 2691 
Q 1819 2813 1613 2813 
Q 1428 2813 1281 2702 
Q 1134 2591 1072 2394 
Q 978 2094 978 1738 
L 978 0 
L 416 0 
z
" transform="scale(0.015625)"/>
       <path id="ArialMT-6f" d="M 213 1659 
Q 213 2581 725 3025 
Q 1153 3394 1769 3394 
Q 2453 3394 2887 2945 
Q 3322 2497 3322 1706 
Q 3322 1066 3130 698 
Q 2938 331 2570 128 
Q 2203 -75 1769 -75 
Q 1072 -75 642 372 
Q 213 819 213 1659 
z
M 791 1659 
Q 791 1022 1069 705 
Q 1347 388 1769 388 
Q 2188 388 2466 706 
Q 2744 1025 2744 1678 
Q 2744 2294 2464 2611 
Q 2184 2928 1769 2928 
Q 1347 2928 1069 2612 
Q 791 2297 791 1659 
z
" transform="scale(0.015625)"/>
       <path id="ArialMT-66" d="M 556 0 
L 556 2881 
L 59 2881 
L 59 3319 
L 556 3319 
L 556 3672 
Q 556 4006 616 4169 
Q 697 4388 901 4523 
Q 1106 4659 1475 4659 
Q 1713 4659 2000 4603 
L 1916 4113 
Q 1741 4144 1584 4144 
Q 1328 4144 1222 4034 
Q 1116 3925 1116 3625 
L 1116 3319 
L 1763 3319 
L 1763 2881 
L 1116 2881 
L 1116 0 
L 556 0 
z
" transform="scale(0.015625)"/>
       <path id="ArialMT-69" d="M 425 3934 
L 425 4581 
L 988 4581 
L 988 3934 
L 425 3934 
z
M 425 0 
L 425 3319 
L 988 3319 
L 988 0 
L 425 0 
z
" transform="scale(0.015625)"/>
       <path id="ArialMT-6c" d="M 409 0 
L 409 4581 
L 972 4581 
L 972 0 
L 409 0 
z
" transform="scale(0.015625)"/>
       <path id="ArialMT-65" d="M 2694 1069 
L 3275 997 
Q 3138 488 2766 206 
Q 2394 -75 1816 -75 
Q 1088 -75 661 373 
Q 234 822 234 1631 
Q 234 2469 665 2931 
Q 1097 3394 1784 3394 
Q 2450 3394 2872 2941 
Q 3294 2488 3294 1666 
Q 3294 1616 3291 1516 
L 816 1516 
Q 847 969 1125 678 
Q 1403 388 1819 388 
Q 2128 388 2347 550 
Q 2566 713 2694 1069 
z
M 847 1978 
L 2700 1978 
Q 2663 2397 2488 2606 
Q 2219 2931 1791 2931 
Q 1403 2931 1139 2672 
Q 875 2413 847 1978 
z
" transform="scale(0.015625)"/>
       <path id="ArialMT-20" transform="scale(0.015625)"/>
       <path id="ArialMT-4e" d="M 488 0 
L 488 4581 
L 1109 4581 
L 3516 984 
L 3516 4581 
L 4097 4581 
L 4097 0 
L 3475 0 
L 1069 3600 
L 1069 0 
L 488 0 
z
" transform="scale(0.015625)"/>
       <path id="ArialMT-61" d="M 2588 409 
Q 2275 144 1986 34 
Q 1697 -75 1366 -75 
Q 819 -75 525 192 
Q 231 459 231 875 
Q 231 1119 342 1320 
Q 453 1522 633 1644 
Q 813 1766 1038 1828 
Q 1203 1872 1538 1913 
Q 2219 1994 2541 2106 
Q 2544 2222 2544 2253 
Q 2544 2597 2384 2738 
Q 2169 2928 1744 2928 
Q 1347 2928 1158 2789 
Q 969 2650 878 2297 
L 328 2372 
Q 403 2725 575 2942 
Q 747 3159 1072 3276 
Q 1397 3394 1825 3394 
Q 2250 3394 2515 3294 
Q 2781 3194 2906 3042 
Q 3031 2891 3081 2659 
Q 3109 2516 3109 2141 
L 3109 1391 
Q 3109 606 3145 398 
Q 3181 191 3288 0 
L 2700 0 
Q 2613 175 2588 409 
z
M 2541 1666 
Q 2234 1541 1622 1453 
Q 1275 1403 1131 1340 
Q 988 1278 909 1158 
Q 831 1038 831 891 
Q 831 666 1001 516 
Q 1172 366 1500 366 
Q 1825 366 2078 508 
Q 2331 650 2450 897 
Q 2541 1088 2541 1459 
L 2541 1666 
z
" transform="scale(0.015625)"/>
       <path id="ArialMT-6d" d="M 422 0 
L 422 3319 
L 925 3319 
L 925 2853 
Q 1081 3097 1340 3245 
Q 1600 3394 1931 3394 
Q 2300 3394 2536 3241 
Q 2772 3088 2869 2813 
Q 3263 3394 3894 3394 
Q 4388 3394 4653 3120 
Q 4919 2847 4919 2278 
L 4919 0 
L 4359 0 
L 4359 2091 
Q 4359 2428 4304 2576 
Q 4250 2725 4106 2815 
Q 3963 2906 3769 2906 
Q 3419 2906 3187 2673 
Q 2956 2441 2956 1928 
L 2956 0 
L 2394 0 
L 2394 2156 
Q 2394 2531 2256 2718 
Q 2119 2906 1806 2906 
Q 1569 2906 1367 2781 
Q 1166 2656 1075 2415 
Q 984 2175 984 1722 
L 984 0 
L 422 0 
z
" transform="scale(0.015625)"/>
      </defs>
      <use xlink:href="#ArialMT-50"/>
      <use xlink:href="#ArialMT-72" x="66.699219"/>
      <use xlink:href="#ArialMT-6f" x="100"/>
      <use xlink:href="#ArialMT-66" x="155.615234"/>
      <use xlink:href="#ArialMT-69" x="183.398438"/>
      <use xlink:href="#ArialMT-6c" x="205.615234"/>
      <use xlink:href="#ArialMT-65" x="227.832031"/>
      <use xlink:href="#ArialMT-20" x="283.447266"/>
      <use xlink:href="#ArialMT-4e" x="311.230469"/>
      <use xlink:href="#ArialMT-61" x="383.447266"/>
      <use xlink:href="#ArialMT-6d" x="439.0625"/>
      <use xlink:href="#ArialMT-65" x="522.363281"/>
     </g>
     <!-- $(U=80, n_{HI}=4, n_{LO}=21, p=.0048)$ -->
     <g style="fill: #262626" transform="translate(109.298148 371.073862) scale(0.144 -0.144)">
      <defs>
       <path id="DejaVuSans-28" d="M 1984 4856 
Q 1566 4138 1362 3434 
Q 1159 2731 1159 2009 
Q 1159 1288 1364 580 
Q 1569 -128 1984 -844 
L 1484 -844 
Q 1016 -109 783 600 
Q 550 1309 550 2009 
Q 550 2706 781 3412 
Q 1013 4119 1484 4856 
L 1984 4856 
z
" transform="scale(0.015625)"/>
       <path id="DejaVuSans-Oblique-55" d="M 991 4666 
L 1625 4666 
L 1075 1831 
Q 1041 1641 1027 1517 
Q 1013 1394 1013 1300 
Q 1013 869 1253 645 
Q 1494 422 1959 422 
Q 2563 422 2898 753 
Q 3234 1084 3378 1831 
L 3928 4666 
L 4563 4666 
L 4000 1753 
Q 3816 809 3300 359 
Q 2784 -91 1888 -91 
Q 1188 -91 780 261 
Q 372 613 372 1216 
Q 372 1325 387 1461 
Q 403 1597 434 1753 
L 991 4666 
z
" transform="scale(0.015625)"/>
       <path id="DejaVuSans-3d" d="M 678 2906 
L 4684 2906 
L 4684 2381 
L 678 2381 
L 678 2906 
z
M 678 1631 
L 4684 1631 
L 4684 1100 
L 678 1100 
L 678 1631 
z
" transform="scale(0.015625)"/>
       <path id="DejaVuSans-38" d="M 2034 2216 
Q 1584 2216 1326 1975 
Q 1069 1734 1069 1313 
Q 1069 891 1326 650 
Q 1584 409 2034 409 
Q 2484 409 2743 651 
Q 3003 894 3003 1313 
Q 3003 1734 2745 1975 
Q 2488 2216 2034 2216 
z
M 1403 2484 
Q 997 2584 770 2862 
Q 544 3141 544 3541 
Q 544 4100 942 4425 
Q 1341 4750 2034 4750 
Q 2731 4750 3128 4425 
Q 3525 4100 3525 3541 
Q 3525 3141 3298 2862 
Q 3072 2584 2669 2484 
Q 3125 2378 3379 2068 
Q 3634 1759 3634 1313 
Q 3634 634 3220 271 
Q 2806 -91 2034 -91 
Q 1263 -91 848 271 
Q 434 634 434 1313 
Q 434 1759 690 2068 
Q 947 2378 1403 2484 
z
M 1172 3481 
Q 1172 3119 1398 2916 
Q 1625 2713 2034 2713 
Q 2441 2713 2670 2916 
Q 2900 3119 2900 3481 
Q 2900 3844 2670 4047 
Q 2441 4250 2034 4250 
Q 1625 4250 1398 4047 
Q 1172 3844 1172 3481 
z
" transform="scale(0.015625)"/>
       <path id="DejaVuSans-30" d="M 2034 4250 
Q 1547 4250 1301 3770 
Q 1056 3291 1056 2328 
Q 1056 1369 1301 889 
Q 1547 409 2034 409 
Q 2525 409 2770 889 
Q 3016 1369 3016 2328 
Q 3016 3291 2770 3770 
Q 2525 4250 2034 4250 
z
M 2034 4750 
Q 2819 4750 3233 4129 
Q 3647 3509 3647 2328 
Q 3647 1150 3233 529 
Q 2819 -91 2034 -91 
Q 1250 -91 836 529 
Q 422 1150 422 2328 
Q 422 3509 836 4129 
Q 1250 4750 2034 4750 
z
" transform="scale(0.015625)"/>
       <path id="DejaVuSans-2c" d="M 750 794 
L 1409 794 
L 1409 256 
L 897 -744 
L 494 -744 
L 750 256 
L 750 794 
z
" transform="scale(0.015625)"/>
       <path id="DejaVuSans-Oblique-6e" d="M 3566 2113 
L 3156 0 
L 2578 0 
L 2988 2091 
Q 3016 2238 3031 2350 
Q 3047 2463 3047 2528 
Q 3047 2791 2881 2937 
Q 2716 3084 2419 3084 
Q 1956 3084 1622 2776 
Q 1288 2469 1184 1941 
L 800 0 
L 225 0 
L 903 3500 
L 1478 3500 
L 1363 2950 
Q 1603 3253 1940 3418 
Q 2278 3584 2650 3584 
Q 3113 3584 3367 3334 
Q 3622 3084 3622 2631 
Q 3622 2519 3608 2391 
Q 3594 2263 3566 2113 
z
" transform="scale(0.015625)"/>
       <path id="DejaVuSans-Oblique-48" d="M 1081 4666 
L 1716 4666 
L 1344 2753 
L 3634 2753 
L 4006 4666 
L 4641 4666 
L 3731 0 
L 3097 0 
L 3531 2222 
L 1241 2222 
L 806 0 
L 172 0 
L 1081 4666 
z
" transform="scale(0.015625)"/>
       <path id="DejaVuSans-Oblique-49" d="M 1081 4666 
L 1716 4666 
L 806 0 
L 172 0 
L 1081 4666 
z
" transform="scale(0.015625)"/>
       <path id="DejaVuSans-34" d="M 2419 4116 
L 825 1625 
L 2419 1625 
L 2419 4116 
z
M 2253 4666 
L 3047 4666 
L 3047 1625 
L 3713 1625 
L 3713 1100 
L 3047 1100 
L 3047 0 
L 2419 0 
L 2419 1100 
L 313 1100 
L 313 1709 
L 2253 4666 
z
" transform="scale(0.015625)"/>
       <path id="DejaVuSans-Oblique-4c" d="M 1075 4666 
L 1709 4666 
L 909 525 
L 3181 525 
L 3078 0 
L 172 0 
L 1075 4666 
z
" transform="scale(0.015625)"/>
       <path id="DejaVuSans-Oblique-4f" d="M 2919 4238 
Q 2400 4238 2003 3986 
Q 1606 3734 1313 3219 
Q 1125 2891 1026 2522 
Q 928 2153 928 1778 
Q 928 1128 1239 775 
Q 1550 422 2119 422 
Q 2631 422 3032 676 
Q 3434 931 3719 1434 
Q 3909 1772 4009 2142 
Q 4109 2513 4109 2881 
Q 4109 3528 3796 3883 
Q 3484 4238 2919 4238 
z
M 2100 -91 
Q 1241 -91 748 418 
Q 256 928 256 1813 
Q 256 2319 448 2847 
Q 641 3375 978 3788 
Q 1375 4272 1862 4511 
Q 2350 4750 2938 4750 
Q 3794 4750 4287 4245 
Q 4781 3741 4781 2869 
Q 4781 2331 4593 1812 
Q 4406 1294 4056 872 
Q 3656 384 3173 146 
Q 2691 -91 2100 -91 
z
" transform="scale(0.015625)"/>
       <path id="DejaVuSans-32" d="M 1228 531 
L 3431 531 
L 3431 0 
L 469 0 
L 469 531 
Q 828 903 1448 1529 
Q 2069 2156 2228 2338 
Q 2531 2678 2651 2914 
Q 2772 3150 2772 3378 
Q 2772 3750 2511 3984 
Q 2250 4219 1831 4219 
Q 1534 4219 1204 4116 
Q 875 4013 500 3803 
L 500 4441 
Q 881 4594 1212 4672 
Q 1544 4750 1819 4750 
Q 2544 4750 2975 4387 
Q 3406 4025 3406 3419 
Q 3406 3131 3298 2873 
Q 3191 2616 2906 2266 
Q 2828 2175 2409 1742 
Q 1991 1309 1228 531 
z
" transform="scale(0.015625)"/>
       <path id="DejaVuSans-31" d="M 794 531 
L 1825 531 
L 1825 4091 
L 703 3866 
L 703 4441 
L 1819 4666 
L 2450 4666 
L 2450 531 
L 3481 531 
L 3481 0 
L 794 0 
L 794 531 
z
" transform="scale(0.015625)"/>
       <path id="DejaVuSans-Oblique-70" d="M 3175 2156 
Q 3175 2616 2975 2859 
Q 2775 3103 2400 3103 
Q 2144 3103 1911 2972 
Q 1678 2841 1497 2591 
Q 1319 2344 1212 1994 
Q 1106 1644 1106 1300 
Q 1106 863 1306 627 
Q 1506 391 1875 391 
Q 2147 391 2380 519 
Q 2613 647 2778 891 
Q 2956 1147 3065 1494 
Q 3175 1841 3175 2156 
z
M 1394 2969 
Q 1625 3272 1939 3428 
Q 2253 3584 2638 3584 
Q 3175 3584 3472 3232 
Q 3769 2881 3769 2247 
Q 3769 1728 3584 1258 
Q 3400 788 3053 416 
Q 2822 169 2531 39 
Q 2241 -91 1919 -91 
Q 1547 -91 1294 64 
Q 1041 219 916 525 
L 556 -1331 
L -19 -1331 
L 922 3500 
L 1497 3500 
L 1394 2969 
z
" transform="scale(0.015625)"/>
       <path id="DejaVuSans-2e" d="M 684 794 
L 1344 794 
L 1344 0 
L 684 0 
L 684 794 
z
" transform="scale(0.015625)"/>
       <path id="DejaVuSans-29" d="M 513 4856 
L 1013 4856 
Q 1481 4119 1714 3412 
Q 1947 2706 1947 2009 
Q 1947 1309 1714 600 
Q 1481 -109 1013 -844 
L 513 -844 
Q 928 -128 1133 580 
Q 1338 1288 1338 2009 
Q 1338 2731 1133 3434 
Q 928 4138 513 4856 
z
" transform="scale(0.015625)"/>
      </defs>
      <use xlink:href="#DejaVuSans-28" transform="translate(0 0.125)"/>
      <use xlink:href="#DejaVuSans-Oblique-55" transform="translate(39.013672 0.125)"/>
      <use xlink:href="#DejaVuSans-3d" transform="translate(131.689453 0.125)"/>
      <use xlink:href="#DejaVuSans-38" transform="translate(234.960938 0.125)"/>
      <use xlink:href="#DejaVuSans-30" transform="translate(298.583984 0.125)"/>
      <use xlink:href="#DejaVuSans-2c" transform="translate(362.207031 0.125)"/>
      <use xlink:href="#DejaVuSans-Oblique-6e" transform="translate(413.476562 0.125)"/>
      <use xlink:href="#DejaVuSans-Oblique-48" transform="translate(476.855469 -16.28125) scale(0.7)"/>
      <use xlink:href="#DejaVuSans-Oblique-49" transform="translate(529.492188 -16.28125) scale(0.7)"/>
      <use xlink:href="#DejaVuSans-3d" transform="translate(572.353516 0.125)"/>
      <use xlink:href="#DejaVuSans-34" transform="translate(675.625 0.125)"/>
      <use xlink:href="#DejaVuSans-2c" transform="translate(739.248047 0.125)"/>
      <use xlink:href="#DejaVuSans-Oblique-6e" transform="translate(790.517578 0.125)"/>
      <use xlink:href="#DejaVuSans-Oblique-4c" transform="translate(853.896484 -16.28125) scale(0.7)"/>
      <use xlink:href="#DejaVuSans-Oblique-4f" transform="translate(892.895508 -16.28125) scale(0.7)"/>
      <use xlink:href="#DejaVuSans-3d" transform="translate(970.209961 0.125)"/>
      <use xlink:href="#DejaVuSans-32" transform="translate(1073.481445 0.125)"/>
      <use xlink:href="#DejaVuSans-31" transform="translate(1137.104492 0.125)"/>
      <use xlink:href="#DejaVuSans-2c" transform="translate(1200.727539 0.125)"/>
      <use xlink:href="#DejaVuSans-Oblique-70" transform="translate(1251.99707 0.125)"/>
      <use xlink:href="#DejaVuSans-3d" transform="translate(1334.956055 0.125)"/>
      <use xlink:href="#DejaVuSans-2e" transform="translate(1438.227539 0.125)"/>
      <use xlink:href="#DejaVuSans-30" transform="translate(1489.49707 0.125)"/>
      <use xlink:href="#DejaVuSans-30" transform="translate(1553.120117 0.125)"/>
      <use xlink:href="#DejaVuSans-34" transform="translate(1616.743164 0.125)"/>
      <use xlink:href="#DejaVuSans-38" transform="translate(1680.366211 0.125)"/>
      <use xlink:href="#DejaVuSans-29" transform="translate(1743.989258 0.125)"/>
     </g>
    </g>
   </g>
   <g id="matplotlib.axis_2">
    <g id="ytick_1">
     <g id="line2d_1">
      <path d="M 47.518875 270.305212 
L 427.97342 270.305212 
" clip-path="url(#p09b20c4f60)" style="fill: none; stroke: #cccccc; stroke-width: 0.8; stroke-linecap: round"/>
     </g>
     <g id="text_4">
      <!-- 0 -->
      <g style="fill: #262626" transform="translate(31.878438 275.029369) scale(0.132 -0.132)">
       <defs>
        <path id="ArialMT-30" d="M 266 2259 
Q 266 3072 433 3567 
Q 600 4063 929 4331 
Q 1259 4600 1759 4600 
Q 2128 4600 2406 4451 
Q 2684 4303 2865 4023 
Q 3047 3744 3150 3342 
Q 3253 2941 3253 2259 
Q 3253 1453 3087 958 
Q 2922 463 2592 192 
Q 2263 -78 1759 -78 
Q 1097 -78 719 397 
Q 266 969 266 2259 
z
M 844 2259 
Q 844 1131 1108 757 
Q 1372 384 1759 384 
Q 2147 384 2411 759 
Q 2675 1134 2675 2259 
Q 2675 3391 2411 3762 
Q 2147 4134 1753 4134 
Q 1366 4134 1134 3806 
Q 844 3388 844 2259 
z
" transform="scale(0.015625)"/>
       </defs>
       <use xlink:href="#ArialMT-30"/>
      </g>
     </g>
    </g>
    <g id="ytick_2">
     <g id="line2d_2">
      <path d="M 47.518875 215.840466 
L 427.97342 215.840466 
" clip-path="url(#p09b20c4f60)" style="fill: none; stroke: #cccccc; stroke-width: 0.8; stroke-linecap: round"/>
     </g>
     <g id="text_5">
      <!-- 20 -->
      <g style="fill: #262626" transform="translate(24.538 220.564623) scale(0.132 -0.132)">
       <defs>
        <path id="ArialMT-32" d="M 3222 541 
L 3222 0 
L 194 0 
Q 188 203 259 391 
Q 375 700 629 1000 
Q 884 1300 1366 1694 
Q 2113 2306 2375 2664 
Q 2638 3022 2638 3341 
Q 2638 3675 2398 3904 
Q 2159 4134 1775 4134 
Q 1369 4134 1125 3890 
Q 881 3647 878 3216 
L 300 3275 
Q 359 3922 746 4261 
Q 1134 4600 1788 4600 
Q 2447 4600 2831 4234 
Q 3216 3869 3216 3328 
Q 3216 3053 3103 2787 
Q 2991 2522 2730 2228 
Q 2469 1934 1863 1422 
Q 1356 997 1212 845 
Q 1069 694 975 541 
L 3222 541 
z
" transform="scale(0.015625)"/>
       </defs>
       <use xlink:href="#ArialMT-32"/>
       <use xlink:href="#ArialMT-30" x="55.615234"/>
      </g>
     </g>
    </g>
    <g id="ytick_3">
     <g id="line2d_3">
      <path d="M 47.518875 161.37572 
L 427.97342 161.37572 
" clip-path="url(#p09b20c4f60)" style="fill: none; stroke: #cccccc; stroke-width: 0.8; stroke-linecap: round"/>
     </g>
     <g id="text_6">
      <!-- 40 -->
      <g style="fill: #262626" transform="translate(24.538 166.099876) scale(0.132 -0.132)">
       <defs>
        <path id="ArialMT-34" d="M 2069 0 
L 2069 1097 
L 81 1097 
L 81 1613 
L 2172 4581 
L 2631 4581 
L 2631 1613 
L 3250 1613 
L 3250 1097 
L 2631 1097 
L 2631 0 
L 2069 0 
z
M 2069 1613 
L 2069 3678 
L 634 1613 
L 2069 1613 
z
" transform="scale(0.015625)"/>
       </defs>
       <use xlink:href="#ArialMT-34"/>
       <use xlink:href="#ArialMT-30" x="55.615234"/>
      </g>
     </g>
    </g>
    <g id="ytick_4">
     <g id="line2d_4">
      <path d="M 47.518875 106.910974 
L 427.97342 106.910974 
" clip-path="url(#p09b20c4f60)" style="fill: none; stroke: #cccccc; stroke-width: 0.8; stroke-linecap: round"/>
     </g>
     <g id="text_7">
      <!-- 60 -->
      <g style="fill: #262626" transform="translate(24.538 111.63513) scale(0.132 -0.132)">
       <defs>
        <path id="ArialMT-36" d="M 3184 3459 
L 2625 3416 
Q 2550 3747 2413 3897 
Q 2184 4138 1850 4138 
Q 1581 4138 1378 3988 
Q 1113 3794 959 3422 
Q 806 3050 800 2363 
Q 1003 2672 1297 2822 
Q 1591 2972 1913 2972 
Q 2475 2972 2870 2558 
Q 3266 2144 3266 1488 
Q 3266 1056 3080 686 
Q 2894 316 2569 119 
Q 2244 -78 1831 -78 
Q 1128 -78 684 439 
Q 241 956 241 2144 
Q 241 3472 731 4075 
Q 1159 4600 1884 4600 
Q 2425 4600 2770 4297 
Q 3116 3994 3184 3459 
z
M 888 1484 
Q 888 1194 1011 928 
Q 1134 663 1356 523 
Q 1578 384 1822 384 
Q 2178 384 2434 671 
Q 2691 959 2691 1453 
Q 2691 1928 2437 2201 
Q 2184 2475 1800 2475 
Q 1419 2475 1153 2201 
Q 888 1928 888 1484 
z
" transform="scale(0.015625)"/>
       </defs>
       <use xlink:href="#ArialMT-36"/>
       <use xlink:href="#ArialMT-30" x="55.615234"/>
      </g>
     </g>
    </g>
    <g id="ytick_5">
     <g id="line2d_5">
      <path d="M 47.518875 52.446228 
L 427.97342 52.446228 
" clip-path="url(#p09b20c4f60)" style="fill: none; stroke: #cccccc; stroke-width: 0.8; stroke-linecap: round"/>
     </g>
     <g id="text_8">
      <!-- 80 -->
      <g style="fill: #262626" transform="translate(24.538 57.170384) scale(0.132 -0.132)">
       <defs>
        <path id="ArialMT-38" d="M 1131 2484 
Q 781 2613 612 2850 
Q 444 3088 444 3419 
Q 444 3919 803 4259 
Q 1163 4600 1759 4600 
Q 2359 4600 2725 4251 
Q 3091 3903 3091 3403 
Q 3091 3084 2923 2848 
Q 2756 2613 2416 2484 
Q 2838 2347 3058 2040 
Q 3278 1734 3278 1309 
Q 3278 722 2862 322 
Q 2447 -78 1769 -78 
Q 1091 -78 675 323 
Q 259 725 259 1325 
Q 259 1772 486 2073 
Q 713 2375 1131 2484 
z
M 1019 3438 
Q 1019 3113 1228 2906 
Q 1438 2700 1772 2700 
Q 2097 2700 2305 2904 
Q 2513 3109 2513 3406 
Q 2513 3716 2298 3927 
Q 2084 4138 1766 4138 
Q 1444 4138 1231 3931 
Q 1019 3725 1019 3438 
z
M 838 1322 
Q 838 1081 952 856 
Q 1066 631 1291 507 
Q 1516 384 1775 384 
Q 2178 384 2440 643 
Q 2703 903 2703 1303 
Q 2703 1709 2433 1975 
Q 2163 2241 1756 2241 
Q 1359 2241 1098 1978 
Q 838 1716 838 1322 
z
" transform="scale(0.015625)"/>
       </defs>
       <use xlink:href="#ArialMT-38"/>
       <use xlink:href="#ArialMT-30" x="55.615234"/>
      </g>
     </g>
    </g>
    <g id="text_9">
     <!-- query_len_sum -->
     <g style="fill: #262626" transform="translate(17.50725 231.0255) rotate(-90) scale(0.144 -0.144)">
      <defs>
       <path id="ArialMT-71" d="M 2538 -1272 
L 2538 353 
Q 2406 169 2170 47 
Q 1934 -75 1669 -75 
Q 1078 -75 651 397 
Q 225 869 225 1691 
Q 225 2191 398 2587 
Q 572 2984 901 3189 
Q 1231 3394 1625 3394 
Q 2241 3394 2594 2875 
L 2594 3319 
L 3100 3319 
L 3100 -1272 
L 2538 -1272 
z
M 803 1669 
Q 803 1028 1072 708 
Q 1341 388 1716 388 
Q 2075 388 2334 692 
Q 2594 997 2594 1619 
Q 2594 2281 2320 2615 
Q 2047 2950 1678 2950 
Q 1313 2950 1058 2639 
Q 803 2328 803 1669 
z
" transform="scale(0.015625)"/>
       <path id="ArialMT-75" d="M 2597 0 
L 2597 488 
Q 2209 -75 1544 -75 
Q 1250 -75 995 37 
Q 741 150 617 320 
Q 494 491 444 738 
Q 409 903 409 1263 
L 409 3319 
L 972 3319 
L 972 1478 
Q 972 1038 1006 884 
Q 1059 663 1231 536 
Q 1403 409 1656 409 
Q 1909 409 2131 539 
Q 2353 669 2445 892 
Q 2538 1116 2538 1541 
L 2538 3319 
L 3100 3319 
L 3100 0 
L 2597 0 
z
" transform="scale(0.015625)"/>
       <path id="ArialMT-79" d="M 397 -1278 
L 334 -750 
Q 519 -800 656 -800 
Q 844 -800 956 -737 
Q 1069 -675 1141 -563 
Q 1194 -478 1313 -144 
Q 1328 -97 1363 -6 
L 103 3319 
L 709 3319 
L 1400 1397 
Q 1534 1031 1641 628 
Q 1738 1016 1872 1384 
L 2581 3319 
L 3144 3319 
L 1881 -56 
Q 1678 -603 1566 -809 
Q 1416 -1088 1222 -1217 
Q 1028 -1347 759 -1347 
Q 597 -1347 397 -1278 
z
" transform="scale(0.015625)"/>
       <path id="ArialMT-5f" d="M -97 -1272 
L -97 -866 
L 3631 -866 
L 3631 -1272 
L -97 -1272 
z
" transform="scale(0.015625)"/>
       <path id="ArialMT-6e" d="M 422 0 
L 422 3319 
L 928 3319 
L 928 2847 
Q 1294 3394 1984 3394 
Q 2284 3394 2536 3286 
Q 2788 3178 2913 3003 
Q 3038 2828 3088 2588 
Q 3119 2431 3119 2041 
L 3119 0 
L 2556 0 
L 2556 2019 
Q 2556 2363 2490 2533 
Q 2425 2703 2258 2804 
Q 2091 2906 1866 2906 
Q 1506 2906 1245 2678 
Q 984 2450 984 1813 
L 984 0 
L 422 0 
z
" transform="scale(0.015625)"/>
       <path id="ArialMT-73" d="M 197 991 
L 753 1078 
Q 800 744 1014 566 
Q 1228 388 1613 388 
Q 2000 388 2187 545 
Q 2375 703 2375 916 
Q 2375 1106 2209 1216 
Q 2094 1291 1634 1406 
Q 1016 1563 777 1677 
Q 538 1791 414 1992 
Q 291 2194 291 2438 
Q 291 2659 392 2848 
Q 494 3038 669 3163 
Q 800 3259 1026 3326 
Q 1253 3394 1513 3394 
Q 1903 3394 2198 3281 
Q 2494 3169 2634 2976 
Q 2775 2784 2828 2463 
L 2278 2388 
Q 2241 2644 2061 2787 
Q 1881 2931 1553 2931 
Q 1166 2931 1000 2803 
Q 834 2675 834 2503 
Q 834 2394 903 2306 
Q 972 2216 1119 2156 
Q 1203 2125 1616 2013 
Q 2213 1853 2448 1751 
Q 2684 1650 2818 1456 
Q 2953 1263 2953 975 
Q 2953 694 2789 445 
Q 2625 197 2315 61 
Q 2006 -75 1616 -75 
Q 969 -75 630 194 
Q 291 463 197 991 
z
" transform="scale(0.015625)"/>
      </defs>
      <use xlink:href="#ArialMT-71"/>
      <use xlink:href="#ArialMT-75" x="55.615234"/>
      <use xlink:href="#ArialMT-65" x="111.230469"/>
      <use xlink:href="#ArialMT-72" x="166.845703"/>
      <use xlink:href="#ArialMT-79" x="200.146484"/>
      <use xlink:href="#ArialMT-5f" x="250.146484"/>
      <use xlink:href="#ArialMT-6c" x="305.761719"/>
      <use xlink:href="#ArialMT-65" x="327.978516"/>
      <use xlink:href="#ArialMT-6e" x="383.59375"/>
      <use xlink:href="#ArialMT-5f" x="439.208984"/>
      <use xlink:href="#ArialMT-73" x="494.824219"/>
      <use xlink:href="#ArialMT-75" x="544.824219"/>
      <use xlink:href="#ArialMT-6d" x="600.439453"/>
     </g>
    </g>
   </g>
   <g id="PolyCollection_1">
    <defs>
     <path id="mf6152c902e" d="M 142.789917 -73.497863 
L 142.475106 -73.497863 
L 142.42408 -76.043317 
L 142.359622 -78.588772 
L 142.279223 -81.134226 
L 142.180209 -83.679681 
L 142.059816 -86.225135 
L 141.915298 -88.77059 
L 141.744047 -91.316044 
L 141.543745 -93.861499 
L 141.312531 -96.406953 
L 141.049172 -98.952408 
L 140.753233 -101.497863 
L 140.425244 -104.043317 
L 140.066826 -106.588772 
L 139.680789 -109.134226 
L 139.271179 -111.679681 
L 138.84326 -114.225135 
L 138.403434 -116.77059 
L 137.959099 -119.316044 
L 137.518436 -121.861499 
L 137.090147 -124.406953 
L 136.68315 -126.952408 
L 136.306253 -129.497863 
L 135.967819 -132.043317 
L 135.675447 -134.588772 
L 135.435687 -137.134226 
L 135.253799 -139.679681 
L 135.133575 -142.225135 
L 135.077226 -144.77059 
L 135.085337 -147.316044 
L 135.156884 -149.861499 
L 135.289316 -152.406953 
L 135.478678 -154.952408 
L 135.719786 -157.497863 
L 136.006416 -160.043317 
L 136.331523 -162.588772 
L 136.687473 -165.134226 
L 137.066269 -167.679681 
L 137.459789 -170.225135 
L 137.860006 -172.77059 
L 138.259211 -175.316044 
L 138.650211 -177.861499 
L 139.026513 -180.406953 
L 139.382482 -182.952408 
L 139.713474 -185.497863 
L 140.015923 -188.043317 
L 140.2874 -190.588772 
L 140.526623 -193.134226 
L 140.733421 -195.679681 
L 140.908663 -198.225135 
L 141.054138 -200.77059 
L 141.17241 -203.316044 
L 141.266643 -205.861499 
L 141.340414 -208.406953 
L 141.397517 -210.952408 
L 141.441772 -213.497863 
L 141.47685 -216.043317 
L 141.506118 -218.588772 
L 141.532511 -221.134226 
L 141.558436 -223.679681 
L 141.585716 -226.225135 
L 141.615561 -228.77059 
L 141.648581 -231.316044 
L 141.684824 -233.861499 
L 141.723852 -236.406953 
L 141.764828 -238.952408 
L 141.806626 -241.497863 
L 141.847955 -244.043317 
L 141.88748 -246.588772 
L 141.923942 -249.134226 
L 141.956264 -251.679681 
L 141.983646 -254.225135 
L 142.005624 -256.77059 
L 142.022115 -259.316044 
L 142.03342 -261.861499 
L 142.040204 -264.406953 
L 142.043444 -266.952408 
L 142.044354 -269.497863 
L 142.044294 -272.043317 
L 142.044668 -274.588772 
L 142.046818 -277.134226 
L 142.051934 -279.679681 
L 142.060969 -282.225135 
L 142.074582 -284.77059 
L 142.093106 -287.316044 
L 142.116539 -289.861499 
L 142.144562 -292.406953 
L 142.176587 -294.952408 
L 142.211808 -297.497863 
L 142.249276 -300.043317 
L 142.28797 -302.588772 
L 142.326872 -305.134226 
L 142.365028 -307.679681 
L 142.401595 -310.225135 
L 142.435887 -312.77059 
L 142.467386 -315.316044 
L 142.49575 -317.861499 
L 142.520808 -320.406953 
L 142.54254 -322.952408 
L 142.561049 -325.497862 
L 142.703974 -325.497862 
L 142.703974 -325.497862 
L 142.722483 -322.952408 
L 142.744214 -320.406953 
L 142.769273 -317.861499 
L 142.797637 -315.316044 
L 142.829135 -312.77059 
L 142.863427 -310.225135 
L 142.899995 -307.679681 
L 142.93815 -305.134226 
L 142.977053 -302.588772 
L 143.015747 -300.043317 
L 143.053215 -297.497863 
L 143.088436 -294.952408 
L 143.12046 -292.406953 
L 143.148484 -289.861499 
L 143.171917 -287.316044 
L 143.190441 -284.77059 
L 143.204054 -282.225135 
L 143.213089 -279.679681 
L 143.218205 -277.134226 
L 143.220355 -274.588772 
L 143.220729 -272.043317 
L 143.220669 -269.497863 
L 143.221579 -266.952408 
L 143.224819 -264.406953 
L 143.231603 -261.861499 
L 143.242908 -259.316044 
L 143.259398 -256.77059 
L 143.281377 -254.225135 
L 143.308758 -251.679681 
L 143.341081 -249.134226 
L 143.377543 -246.588772 
L 143.417068 -244.043317 
L 143.458397 -241.497863 
L 143.500195 -238.952408 
L 143.54117 -236.406953 
L 143.580198 -233.861499 
L 143.616442 -231.316044 
L 143.649462 -228.77059 
L 143.679307 -226.225135 
L 143.706587 -223.679681 
L 143.732512 -221.134226 
L 143.758905 -218.588772 
L 143.788173 -216.043317 
L 143.823251 -213.497863 
L 143.867506 -210.952408 
L 143.924609 -208.406953 
L 143.99838 -205.861499 
L 144.092613 -203.316044 
L 144.210885 -200.77059 
L 144.35636 -198.225135 
L 144.531601 -195.679681 
L 144.7384 -193.134226 
L 144.977622 -190.588772 
L 145.2491 -188.043317 
L 145.551549 -185.497863 
L 145.88254 -182.952408 
L 146.23851 -180.406953 
L 146.614812 -177.861499 
L 147.005812 -175.316044 
L 147.405017 -172.77059 
L 147.805234 -170.225135 
L 148.198753 -167.679681 
L 148.57755 -165.134226 
L 148.933499 -162.588772 
L 149.258607 -160.043317 
L 149.545236 -157.497863 
L 149.786344 -154.952408 
L 149.975707 -152.406953 
L 150.108139 -149.861499 
L 150.179686 -147.316044 
L 150.187796 -144.77059 
L 150.131448 -142.225135 
L 150.011224 -139.679681 
L 149.829335 -137.134226 
L 149.589575 -134.588772 
L 149.297204 -132.043317 
L 148.95877 -129.497863 
L 148.581873 -126.952408 
L 148.174876 -124.406953 
L 147.746586 -121.861499 
L 147.305923 -119.316044 
L 146.861588 -116.77059 
L 146.421763 -114.225135 
L 145.993843 -111.679681 
L 145.584233 -109.134226 
L 145.198197 -106.588772 
L 144.839779 -104.043317 
L 144.511789 -101.497863 
L 144.215851 -98.952408 
L 143.952491 -96.406953 
L 143.721278 -93.861499 
L 143.520976 -91.316044 
L 143.349725 -88.77059 
L 143.205206 -86.225135 
L 143.084814 -83.679681 
L 142.985799 -81.134226 
L 142.9054 -78.588772 
L 142.840943 -76.043317 
L 142.789917 -73.497863 
z
" style="stroke: #3f3f3f; stroke-width: 1.2"/>
    </defs>
    <g clip-path="url(#p09b20c4f60)">
     <use xlink:href="#mf6152c902e" x="0" y="381.297862" style="fill: #3274a1; stroke: #3f3f3f; stroke-width: 1.2"/>
    </g>
   </g>
   <g id="PolyCollection_2">
    <defs>
     <path id="m4e4094d494" d="M 337.034083 -112.487195 
L 328.685486 -112.487195 
L 328.074677 -112.622047 
L 327.398703 -112.756899 
L 326.654607 -112.891751 
L 325.839915 -113.026603 
L 324.952727 -113.161454 
L 323.991808 -113.296306 
L 322.956668 -113.431158 
L 321.847633 -113.56601 
L 320.665903 -113.700862 
L 319.413591 -113.835714 
L 318.093742 -113.970566 
L 316.71034 -114.105417 
L 315.268276 -114.240269 
L 313.773302 -114.375121 
L 312.231959 -114.509973 
L 310.651479 -114.644825 
L 309.039665 -114.779677 
L 307.404754 -114.914529 
L 305.755257 -115.04938 
L 304.099793 -115.184232 
L 302.446909 -115.319084 
L 300.804904 -115.453936 
L 299.181648 -115.588788 
L 297.584411 -115.72364 
L 296.019709 -115.858492 
L 294.493164 -115.993343 
L 293.009384 -116.128195 
L 291.571879 -116.263047 
L 290.182992 -116.397899 
L 288.843872 -116.532751 
L 287.554476 -116.667603 
L 286.313599 -116.802455 
L 285.11894 -116.937306 
L 283.967197 -117.072158 
L 282.854184 -117.20701 
L 281.774977 -117.341862 
L 280.724075 -117.476714 
L 279.695586 -117.611566 
L 278.683415 -117.746418 
L 277.681466 -117.881269 
L 276.683847 -118.016121 
L 275.685076 -118.150973 
L 274.680279 -118.285825 
L 273.66539 -118.420677 
L 272.637327 -118.555529 
L 271.594163 -118.690381 
L 270.535278 -118.825232 
L 269.461482 -118.960084 
L 268.375125 -119.094936 
L 267.280166 -119.229788 
L 266.182221 -119.36464 
L 265.088568 -119.499492 
L 264.008122 -119.634344 
L 262.951362 -119.769195 
L 261.930222 -119.904047 
L 260.957942 -120.038899 
L 260.048868 -120.173751 
L 259.218221 -120.308603 
L 258.481823 -120.443455 
L 257.855791 -120.578307 
L 257.356206 -120.713158 
L 256.998757 -120.84801 
L 256.798377 -120.982862 
L 256.768875 -121.117714 
L 256.922579 -121.252566 
L 257.269994 -121.387418 
L 257.819492 -121.52227 
L 258.577041 -121.657121 
L 259.545984 -121.791973 
L 260.726875 -121.926825 
L 262.117381 -122.061677 
L 263.712249 -122.196529 
L 265.503344 -122.331381 
L 267.479761 -122.466233 
L 269.628002 -122.601084 
L 271.932216 -122.735936 
L 274.374495 -122.870788 
L 276.93522 -123.00564 
L 279.593436 -123.140492 
L 282.327263 -123.275344 
L 285.11431 -123.410196 
L 287.932096 -123.545047 
L 290.758459 -123.679899 
L 293.571938 -123.814751 
L 296.352133 -123.949603 
L 299.080011 -124.084455 
L 301.738181 -124.219307 
L 304.311098 -124.354159 
L 306.785234 -124.48901 
L 309.149172 -124.623862 
L 311.393662 -124.758714 
L 313.511615 -124.893566 
L 315.498057 -125.028418 
L 317.350031 -125.16327 
L 319.066473 -125.298122 
L 320.648052 -125.432973 
L 322.096989 -125.567825 
L 323.41686 -125.702677 
L 324.612394 -125.837529 
L 341.107174 -125.837529 
L 341.107174 -125.837529 
L 342.302708 -125.702677 
L 343.622579 -125.567825 
L 345.071516 -125.432973 
L 346.653095 -125.298122 
L 348.369537 -125.16327 
L 350.221512 -125.028418 
L 352.207953 -124.893566 
L 354.325907 -124.758714 
L 356.570396 -124.623862 
L 358.934334 -124.48901 
L 361.40847 -124.354159 
L 363.981388 -124.219307 
L 366.639557 -124.084455 
L 369.367436 -123.949603 
L 372.14763 -123.814751 
L 374.96111 -123.679899 
L 377.787472 -123.545047 
L 380.605258 -123.410196 
L 383.392305 -123.275344 
L 386.126132 -123.140492 
L 388.784348 -123.00564 
L 391.345073 -122.870788 
L 393.787352 -122.735936 
L 396.091567 -122.601084 
L 398.239808 -122.466233 
L 400.216225 -122.331381 
L 402.007319 -122.196529 
L 403.602187 -122.061677 
L 404.992693 -121.926825 
L 406.173584 -121.791973 
L 407.142527 -121.657121 
L 407.900076 -121.52227 
L 408.449574 -121.387418 
L 408.796989 -121.252566 
L 408.950693 -121.117714 
L 408.921191 -120.982862 
L 408.720811 -120.84801 
L 408.363362 -120.713158 
L 407.863777 -120.578307 
L 407.237745 -120.443455 
L 406.501347 -120.308603 
L 405.6707 -120.173751 
L 404.761626 -120.038899 
L 403.789346 -119.904047 
L 402.768207 -119.769195 
L 401.711446 -119.634344 
L 400.631 -119.499492 
L 399.537348 -119.36464 
L 398.439403 -119.229788 
L 397.344444 -119.094936 
L 396.258086 -118.960084 
L 395.18429 -118.825232 
L 394.125405 -118.690381 
L 393.082241 -118.555529 
L 392.054178 -118.420677 
L 391.039289 -118.285825 
L 390.034493 -118.150973 
L 389.035721 -118.016121 
L 388.038102 -117.881269 
L 387.036153 -117.746418 
L 386.023982 -117.611566 
L 384.995493 -117.476714 
L 383.944591 -117.341862 
L 382.865384 -117.20701 
L 381.752371 -117.072158 
L 380.600628 -116.937306 
L 379.40597 -116.802455 
L 378.165092 -116.667603 
L 376.875696 -116.532751 
L 375.536576 -116.397899 
L 374.147689 -116.263047 
L 372.710184 -116.128195 
L 371.226405 -115.993343 
L 369.699859 -115.858492 
L 368.135158 -115.72364 
L 366.53792 -115.588788 
L 364.914664 -115.453936 
L 363.272659 -115.319084 
L 361.619775 -115.184232 
L 359.964311 -115.04938 
L 358.314814 -114.914529 
L 356.679903 -114.779677 
L 355.06809 -114.644825 
L 353.487609 -114.509973 
L 351.946266 -114.375121 
L 350.451292 -114.240269 
L 349.009228 -114.105417 
L 347.625826 -113.970566 
L 346.305978 -113.835714 
L 345.053665 -113.700862 
L 343.871935 -113.56601 
L 342.7629 -113.431158 
L 341.727761 -113.296306 
L 340.766842 -113.161454 
L 339.879654 -113.026603 
L 339.064961 -112.891751 
L 338.320865 -112.756899 
L 337.644891 -112.622047 
L 337.034083 -112.487195 
z
" style="stroke: #3f3f3f; stroke-width: 1.2"/>
    </defs>
    <g clip-path="url(#p09b20c4f60)">
     <use xlink:href="#m4e4094d494" x="0" y="381.297862" style="fill: #e1812c; stroke: #3f3f3f; stroke-width: 1.2"/>
    </g>
   </g>
   <g id="line2d_6">
    <path d="M 142.632511 264.858738 
L 142.632511 204.947517 
" clip-path="url(#p09b20c4f60)" style="fill: none; stroke: #3f3f3f; stroke-width: 1.2; stroke-linecap: round"/>
   </g>
   <g id="line2d_7">
    <path d="M 142.632511 243.072839 
L 142.632511 213.117229 
" clip-path="url(#p09b20c4f60)" style="fill: none; stroke: #3f3f3f; stroke-width: 3.6; stroke-linecap: round"/>
   </g>
   <g id="line2d_8">
    <path d="M 332.859784 264.858738 
L 332.859784 259.412263 
" clip-path="url(#p09b20c4f60)" style="fill: none; stroke: #3f3f3f; stroke-width: 1.2; stroke-linecap: round"/>
   </g>
   <g id="line2d_9">
    <path d="M 332.859784 262.81631 
L 332.859784 259.412263 
" clip-path="url(#p09b20c4f60)" style="fill: none; stroke: #3f3f3f; stroke-width: 3.6; stroke-linecap: round"/>
   </g>
   <g id="patch_3">
    <path d="M 47.518875 320.4 
L 47.518875 43.2 
" style="fill: none; stroke: #cccccc; stroke-linejoin: miter; stroke-linecap: square"/>
   </g>
   <g id="patch_4">
    <path d="M 47.518875 320.4 
L 427.97342 320.4 
" style="fill: none; stroke: #cccccc; stroke-linejoin: miter; stroke-linecap: square"/>
   </g>
   <g id="PathCollection_1">
    <defs>
     <path id="m28ccaf4ff1" d="M 0 1.2 
C 0.318244 1.2 0.623496 1.07356 0.848528 0.848528 
C 1.07356 0.623496 1.2 0.318244 1.2 0 
C 1.2 -0.318244 1.07356 -0.623496 0.848528 -0.848528 
C 0.623496 -1.07356 0.318244 -1.2 0 -1.2 
C -0.318244 -1.2 -0.623496 -1.07356 -0.848528 -0.848528 
C -1.07356 -0.623496 -1.2 -0.318244 -1.2 0 
C -1.2 0.318244 -1.07356 0.623496 -0.848528 0.848528 
C -0.623496 1.07356 -0.318244 1.2 0 1.2 
z
" style="stroke: #3f3f3f; stroke-width: 0.8"/>
    </defs>
    <g clip-path="url(#p09b20c4f60)">
     <use xlink:href="#m28ccaf4ff1" x="142.632511" y="229.456653" style="fill: #ffffff; stroke: #3f3f3f; stroke-width: 0.8"/>
    </g>
   </g>
   <g id="PathCollection_2">
    <g clip-path="url(#p09b20c4f60)">
     <use xlink:href="#m28ccaf4ff1" x="332.859784" y="260.773882" style="fill: #ffffff; stroke: #3f3f3f; stroke-width: 0.8"/>
    </g>
   </g>
   <g id="text_10">
    <!-- Overall -->
    <g style="fill: #262626" transform="translate(214.941273 37.2) scale(0.144 -0.144)">
     <defs>
      <path id="ArialMT-76" d="M 1344 0 
L 81 3319 
L 675 3319 
L 1388 1331 
Q 1503 1009 1600 663 
Q 1675 925 1809 1294 
L 2547 3319 
L 3125 3319 
L 1869 0 
L 1344 0 
z
" transform="scale(0.015625)"/>
     </defs>
     <use xlink:href="#ArialMT-4f"/>
     <use xlink:href="#ArialMT-76" x="77.783203"/>
     <use xlink:href="#ArialMT-65" x="127.783203"/>
     <use xlink:href="#ArialMT-72" x="183.398438"/>
     <use xlink:href="#ArialMT-61" x="216.699219"/>
     <use xlink:href="#ArialMT-6c" x="272.314453"/>
     <use xlink:href="#ArialMT-6c" x="294.53125"/>
    </g>
   </g>
  </g>
  <g id="axes_2">
   <g id="patch_5">
    <path d="M 504.06433 320.4 
L 884.518875 320.4 
L 884.518875 43.2 
L 504.06433 43.2 
z
" style="fill: #ffffff"/>
   </g>
   <g id="matplotlib.axis_3">
    <g id="xtick_3">
     <g id="text_11">
      <!-- QSNR1: Beginning -->
      <g style="fill: #262626" transform="translate(543.415185 338.317437) scale(0.132 -0.132)">
       <defs>
        <path id="ArialMT-51" d="M 3966 491 
Q 4388 200 4744 66 
L 4566 -356 
Q 4072 -178 3581 206 
Q 3072 -78 2456 -78 
Q 1834 -78 1328 222 
Q 822 522 548 1065 
Q 275 1609 275 2291 
Q 275 2969 550 3525 
Q 825 4081 1333 4372 
Q 1841 4663 2469 4663 
Q 3103 4663 3612 4361 
Q 4122 4059 4389 3517 
Q 4656 2975 4656 2294 
Q 4656 1728 4484 1276 
Q 4313 825 3966 491 
z
M 2631 1266 
Q 3156 1119 3497 828 
Q 4031 1316 4031 2294 
Q 4031 2850 3842 3265 
Q 3653 3681 3289 3911 
Q 2925 4141 2472 4141 
Q 1794 4141 1347 3677 
Q 900 3213 900 2291 
Q 900 1397 1342 919 
Q 1784 441 2472 441 
Q 2797 441 3084 563 
Q 2800 747 2484 825 
L 2631 1266 
z
" transform="scale(0.015625)"/>
        <path id="ArialMT-53" d="M 288 1472 
L 859 1522 
Q 900 1178 1048 958 
Q 1197 738 1509 602 
Q 1822 466 2213 466 
Q 2559 466 2825 569 
Q 3091 672 3220 851 
Q 3350 1031 3350 1244 
Q 3350 1459 3225 1620 
Q 3100 1781 2813 1891 
Q 2628 1963 1997 2114 
Q 1366 2266 1113 2400 
Q 784 2572 623 2826 
Q 463 3081 463 3397 
Q 463 3744 659 4045 
Q 856 4347 1234 4503 
Q 1613 4659 2075 4659 
Q 2584 4659 2973 4495 
Q 3363 4331 3572 4012 
Q 3781 3694 3797 3291 
L 3216 3247 
Q 3169 3681 2898 3903 
Q 2628 4125 2100 4125 
Q 1550 4125 1298 3923 
Q 1047 3722 1047 3438 
Q 1047 3191 1225 3031 
Q 1400 2872 2139 2705 
Q 2878 2538 3153 2413 
Q 3553 2228 3743 1945 
Q 3934 1663 3934 1294 
Q 3934 928 3725 604 
Q 3516 281 3123 101 
Q 2731 -78 2241 -78 
Q 1619 -78 1198 103 
Q 778 284 539 648 
Q 300 1013 288 1472 
z
" transform="scale(0.015625)"/>
        <path id="ArialMT-52" d="M 503 0 
L 503 4581 
L 2534 4581 
Q 3147 4581 3465 4457 
Q 3784 4334 3975 4021 
Q 4166 3709 4166 3331 
Q 4166 2844 3850 2509 
Q 3534 2175 2875 2084 
Q 3116 1969 3241 1856 
Q 3506 1613 3744 1247 
L 4541 0 
L 3778 0 
L 3172 953 
Q 2906 1366 2734 1584 
Q 2563 1803 2427 1890 
Q 2291 1978 2150 2013 
Q 2047 2034 1813 2034 
L 1109 2034 
L 1109 0 
L 503 0 
z
M 1109 2559 
L 2413 2559 
Q 2828 2559 3062 2645 
Q 3297 2731 3419 2920 
Q 3541 3109 3541 3331 
Q 3541 3656 3305 3865 
Q 3069 4075 2559 4075 
L 1109 4075 
L 1109 2559 
z
" transform="scale(0.015625)"/>
        <path id="ArialMT-31" d="M 2384 0 
L 1822 0 
L 1822 3584 
Q 1619 3391 1289 3197 
Q 959 3003 697 2906 
L 697 3450 
Q 1169 3672 1522 3987 
Q 1875 4303 2022 4600 
L 2384 4600 
L 2384 0 
z
" transform="scale(0.015625)"/>
        <path id="ArialMT-3a" d="M 578 2678 
L 578 3319 
L 1219 3319 
L 1219 2678 
L 578 2678 
z
M 578 0 
L 578 641 
L 1219 641 
L 1219 0 
L 578 0 
z
" transform="scale(0.015625)"/>
        <path id="ArialMT-42" d="M 469 0 
L 469 4581 
L 2188 4581 
Q 2713 4581 3030 4442 
Q 3347 4303 3526 4014 
Q 3706 3725 3706 3409 
Q 3706 3116 3547 2856 
Q 3388 2597 3066 2438 
Q 3481 2316 3704 2022 
Q 3928 1728 3928 1328 
Q 3928 1006 3792 729 
Q 3656 453 3456 303 
Q 3256 153 2954 76 
Q 2653 0 2216 0 
L 469 0 
z
M 1075 2656 
L 2066 2656 
Q 2469 2656 2644 2709 
Q 2875 2778 2992 2937 
Q 3109 3097 3109 3338 
Q 3109 3566 3000 3739 
Q 2891 3913 2687 3977 
Q 2484 4041 1991 4041 
L 1075 4041 
L 1075 2656 
z
M 1075 541 
L 2216 541 
Q 2509 541 2628 563 
Q 2838 600 2978 687 
Q 3119 775 3209 942 
Q 3300 1109 3300 1328 
Q 3300 1584 3169 1773 
Q 3038 1963 2805 2039 
Q 2572 2116 2134 2116 
L 1075 2116 
L 1075 541 
z
" transform="scale(0.015625)"/>
        <path id="ArialMT-67" d="M 319 -275 
L 866 -356 
Q 900 -609 1056 -725 
Q 1266 -881 1628 -881 
Q 2019 -881 2231 -725 
Q 2444 -569 2519 -288 
Q 2563 -116 2559 434 
Q 2191 0 1641 0 
Q 956 0 581 494 
Q 206 988 206 1678 
Q 206 2153 378 2554 
Q 550 2956 876 3175 
Q 1203 3394 1644 3394 
Q 2231 3394 2613 2919 
L 2613 3319 
L 3131 3319 
L 3131 450 
Q 3131 -325 2973 -648 
Q 2816 -972 2473 -1159 
Q 2131 -1347 1631 -1347 
Q 1038 -1347 672 -1080 
Q 306 -813 319 -275 
z
M 784 1719 
Q 784 1066 1043 766 
Q 1303 466 1694 466 
Q 2081 466 2343 764 
Q 2606 1063 2606 1700 
Q 2606 2309 2336 2618 
Q 2066 2928 1684 2928 
Q 1309 2928 1046 2623 
Q 784 2319 784 1719 
z
" transform="scale(0.015625)"/>
       </defs>
       <use xlink:href="#ArialMT-51"/>
       <use xlink:href="#ArialMT-53" x="77.783203"/>
       <use xlink:href="#ArialMT-4e" x="144.482422"/>
       <use xlink:href="#ArialMT-52" x="216.699219"/>
       <use xlink:href="#ArialMT-31" x="288.916016"/>
       <use xlink:href="#ArialMT-3a" x="344.53125"/>
       <use xlink:href="#ArialMT-20" x="372.314453"/>
       <use xlink:href="#ArialMT-42" x="400.097656"/>
       <use xlink:href="#ArialMT-65" x="466.796875"/>
       <use xlink:href="#ArialMT-67" x="522.412109"/>
       <use xlink:href="#ArialMT-69" x="578.027344"/>
       <use xlink:href="#ArialMT-6e" x="600.244141"/>
       <use xlink:href="#ArialMT-6e" x="655.859375"/>
       <use xlink:href="#ArialMT-69" x="711.474609"/>
       <use xlink:href="#ArialMT-6e" x="733.691406"/>
       <use xlink:href="#ArialMT-67" x="789.306641"/>
      </g>
     </g>
    </g>
    <g id="xtick_4">
     <g id="text_12">
      <!-- QSNR3: End -->
      <g style="fill: #262626" transform="translate(751.256207 338.148312) scale(0.132 -0.132)">
       <defs>
        <path id="ArialMT-33" d="M 269 1209 
L 831 1284 
Q 928 806 1161 595 
Q 1394 384 1728 384 
Q 2125 384 2398 659 
Q 2672 934 2672 1341 
Q 2672 1728 2419 1979 
Q 2166 2231 1775 2231 
Q 1616 2231 1378 2169 
L 1441 2663 
Q 1497 2656 1531 2656 
Q 1891 2656 2178 2843 
Q 2466 3031 2466 3422 
Q 2466 3731 2256 3934 
Q 2047 4138 1716 4138 
Q 1388 4138 1169 3931 
Q 950 3725 888 3313 
L 325 3413 
Q 428 3978 793 4289 
Q 1159 4600 1703 4600 
Q 2078 4600 2393 4439 
Q 2709 4278 2876 4000 
Q 3044 3722 3044 3409 
Q 3044 3113 2884 2869 
Q 2725 2625 2413 2481 
Q 2819 2388 3044 2092 
Q 3269 1797 3269 1353 
Q 3269 753 2831 336 
Q 2394 -81 1725 -81 
Q 1122 -81 723 278 
Q 325 638 269 1209 
z
" transform="scale(0.015625)"/>
        <path id="ArialMT-45" d="M 506 0 
L 506 4581 
L 3819 4581 
L 3819 4041 
L 1113 4041 
L 1113 2638 
L 3647 2638 
L 3647 2100 
L 1113 2100 
L 1113 541 
L 3925 541 
L 3925 0 
L 506 0 
z
" transform="scale(0.015625)"/>
        <path id="ArialMT-64" d="M 2575 0 
L 2575 419 
Q 2259 -75 1647 -75 
Q 1250 -75 917 144 
Q 584 363 401 755 
Q 219 1147 219 1656 
Q 219 2153 384 2558 
Q 550 2963 881 3178 
Q 1213 3394 1622 3394 
Q 1922 3394 2156 3267 
Q 2391 3141 2538 2938 
L 2538 4581 
L 3097 4581 
L 3097 0 
L 2575 0 
z
M 797 1656 
Q 797 1019 1065 703 
Q 1334 388 1700 388 
Q 2069 388 2326 689 
Q 2584 991 2584 1609 
Q 2584 2291 2321 2609 
Q 2059 2928 1675 2928 
Q 1300 2928 1048 2622 
Q 797 2316 797 1656 
z
" transform="scale(0.015625)"/>
       </defs>
       <use xlink:href="#ArialMT-51"/>
       <use xlink:href="#ArialMT-53" x="77.783203"/>
       <use xlink:href="#ArialMT-4e" x="144.482422"/>
       <use xlink:href="#ArialMT-52" x="216.699219"/>
       <use xlink:href="#ArialMT-33" x="288.916016"/>
       <use xlink:href="#ArialMT-3a" x="344.53125"/>
       <use xlink:href="#ArialMT-20" x="372.314453"/>
       <use xlink:href="#ArialMT-45" x="400.097656"/>
       <use xlink:href="#ArialMT-6e" x="466.796875"/>
       <use xlink:href="#ArialMT-64" x="522.412109"/>
      </g>
     </g>
    </g>
    <g id="text_13">
     <!--  -->
     <g style="fill: #262626" transform="translate(694.291602 355.402875) scale(0.144 -0.144)"/>
     <!-- Time of Semester -->
     <g style="fill: #262626" transform="translate(637.749102 370.633575) scale(0.144 -0.144)">
      <defs>
       <path id="ArialMT-54" d="M 1659 0 
L 1659 4041 
L 150 4041 
L 150 4581 
L 3781 4581 
L 3781 4041 
L 2266 4041 
L 2266 0 
L 1659 0 
z
" transform="scale(0.015625)"/>
       <path id="ArialMT-74" d="M 1650 503 
L 1731 6 
Q 1494 -44 1306 -44 
Q 1000 -44 831 53 
Q 663 150 594 308 
Q 525 466 525 972 
L 525 2881 
L 113 2881 
L 113 3319 
L 525 3319 
L 525 4141 
L 1084 4478 
L 1084 3319 
L 1650 3319 
L 1650 2881 
L 1084 2881 
L 1084 941 
Q 1084 700 1114 631 
Q 1144 563 1211 522 
Q 1278 481 1403 481 
Q 1497 481 1650 503 
z
" transform="scale(0.015625)"/>
      </defs>
      <use xlink:href="#ArialMT-54"/>
      <use xlink:href="#ArialMT-69" x="57.333984"/>
      <use xlink:href="#ArialMT-6d" x="79.550781"/>
      <use xlink:href="#ArialMT-65" x="162.851562"/>
      <use xlink:href="#ArialMT-20" x="218.466797"/>
      <use xlink:href="#ArialMT-6f" x="246.25"/>
      <use xlink:href="#ArialMT-66" x="301.865234"/>
      <use xlink:href="#ArialMT-20" x="329.648438"/>
      <use xlink:href="#ArialMT-53" x="357.431641"/>
      <use xlink:href="#ArialMT-65" x="424.130859"/>
      <use xlink:href="#ArialMT-6d" x="479.746094"/>
      <use xlink:href="#ArialMT-65" x="563.046875"/>
      <use xlink:href="#ArialMT-73" x="618.662109"/>
      <use xlink:href="#ArialMT-74" x="668.662109"/>
      <use xlink:href="#ArialMT-65" x="696.445312"/>
      <use xlink:href="#ArialMT-72" x="752.060547"/>
     </g>
    </g>
   </g>
   <g id="matplotlib.axis_4">
    <g id="ytick_6">
     <g id="line2d_10">
      <path d="M 504.06433 270.914474 
L 884.518875 270.914474 
" clip-path="url(#pc9282f9096)" style="fill: none; stroke: #cccccc; stroke-width: 0.8; stroke-linecap: round"/>
     </g>
     <g id="text_14">
      <!-- 0 -->
      <g style="fill: #262626" transform="translate(488.423892 275.63863) scale(0.132 -0.132)">
       <use xlink:href="#ArialMT-30"/>
      </g>
     </g>
    </g>
    <g id="ytick_7">
     <g id="line2d_11">
      <path d="M 504.06433 219.253909 
L 884.518875 219.253909 
" clip-path="url(#pc9282f9096)" style="fill: none; stroke: #cccccc; stroke-width: 0.8; stroke-linecap: round"/>
     </g>
     <g id="text_15">
      <!-- 20 -->
      <g style="fill: #262626" transform="translate(481.083455 223.978066) scale(0.132 -0.132)">
       <use xlink:href="#ArialMT-32"/>
       <use xlink:href="#ArialMT-30" x="55.615234"/>
      </g>
     </g>
    </g>
    <g id="ytick_8">
     <g id="line2d_12">
      <path d="M 504.06433 167.593345 
L 884.518875 167.593345 
" clip-path="url(#pc9282f9096)" style="fill: none; stroke: #cccccc; stroke-width: 0.8; stroke-linecap: round"/>
     </g>
     <g id="text_16">
      <!-- 40 -->
      <g style="fill: #262626" transform="translate(481.083455 172.317501) scale(0.132 -0.132)">
       <use xlink:href="#ArialMT-34"/>
       <use xlink:href="#ArialMT-30" x="55.615234"/>
      </g>
     </g>
    </g>
    <g id="ytick_9">
     <g id="line2d_13">
      <path d="M 504.06433 115.93278 
L 884.518875 115.93278 
" clip-path="url(#pc9282f9096)" style="fill: none; stroke: #cccccc; stroke-width: 0.8; stroke-linecap: round"/>
     </g>
     <g id="text_17">
      <!-- 60 -->
      <g style="fill: #262626" transform="translate(481.083455 120.656936) scale(0.132 -0.132)">
       <use xlink:href="#ArialMT-36"/>
       <use xlink:href="#ArialMT-30" x="55.615234"/>
      </g>
     </g>
    </g>
    <g id="ytick_10">
     <g id="line2d_14">
      <path d="M 504.06433 64.272216 
L 884.518875 64.272216 
" clip-path="url(#pc9282f9096)" style="fill: none; stroke: #cccccc; stroke-width: 0.8; stroke-linecap: round"/>
     </g>
     <g id="text_18">
      <!-- 80 -->
      <g style="fill: #262626" transform="translate(481.083455 68.996372) scale(0.132 -0.132)">
       <use xlink:href="#ArialMT-38"/>
       <use xlink:href="#ArialMT-30" x="55.615234"/>
      </g>
     </g>
    </g>
    <g id="text_19">
     <!-- query_len_sum -->
     <g style="fill: #262626" transform="translate(474.052705 231.0255) rotate(-90) scale(0.144 -0.144)">
      <use xlink:href="#ArialMT-71"/>
      <use xlink:href="#ArialMT-75" x="55.615234"/>
      <use xlink:href="#ArialMT-65" x="111.230469"/>
      <use xlink:href="#ArialMT-72" x="166.845703"/>
      <use xlink:href="#ArialMT-79" x="200.146484"/>
      <use xlink:href="#ArialMT-5f" x="250.146484"/>
      <use xlink:href="#ArialMT-6c" x="305.761719"/>
      <use xlink:href="#ArialMT-65" x="327.978516"/>
      <use xlink:href="#ArialMT-6e" x="383.59375"/>
      <use xlink:href="#ArialMT-5f" x="439.208984"/>
      <use xlink:href="#ArialMT-73" x="494.824219"/>
      <use xlink:href="#ArialMT-75" x="544.824219"/>
      <use xlink:href="#ArialMT-6d" x="600.439453"/>
     </g>
    </g>
   </g>
   <g id="patch_6">
    <path d="M 599.177966 270.914474 
L 599.177966 270.914474 
L 599.177966 270.914474 
L 599.177966 270.914474 
z
" clip-path="url(#pc9282f9096)" style="fill: #3274a1; stroke: #3f3f3f; stroke-width: 0.6; stroke-linejoin: miter"/>
   </g>
   <g id="PolyCollection_3">
    <defs>
     <path id="m9d1d6153bb" d="M 599.177966 -109.189283 
L 591.941624 -109.189283 
L 591.075889 -109.369954 
L 590.134955 -109.550624 
L 589.116228 -109.731295 
L 588.017548 -109.911965 
L 586.837259 -110.092636 
L 585.574274 -110.273306 
L 584.228138 -110.453977 
L 582.799083 -110.634647 
L 581.288082 -110.815318 
L 579.696884 -110.995988 
L 578.028053 -111.176659 
L 576.284978 -111.357329 
L 574.471886 -111.538 
L 572.593831 -111.71867 
L 570.656672 -111.899341 
L 568.667035 -112.080011 
L 566.632257 -112.260682 
L 564.560323 -112.441352 
L 562.459777 -112.622023 
L 560.339632 -112.802693 
L 558.20926 -112.983364 
L 556.078277 -113.164034 
L 553.956419 -113.344705 
L 551.853415 -113.525375 
L 549.778858 -113.706046 
L 547.742077 -113.886716 
L 545.752014 -114.067387 
L 543.817113 -114.248057 
L 541.94521 -114.428728 
L 540.143448 -114.609398 
L 538.4182 -114.790069 
L 536.775015 -114.970739 
L 535.21858 -115.15141 
L 533.752706 -115.33208 
L 532.380333 -115.512751 
L 531.103556 -115.693421 
L 529.923674 -115.874092 
L 528.84125 -116.054762 
L 527.856199 -116.235433 
L 526.967878 -116.416103 
L 526.175196 -116.596774 
L 525.476722 -116.777444 
L 524.870809 -116.958115 
L 524.355703 -117.138785 
L 523.929662 -117.319456 
L 523.591053 -117.500126 
L 523.338453 -117.680797 
L 523.170719 -117.861467 
L 523.087057 -118.042138 
L 523.087057 -118.222808 
L 523.170719 -118.403479 
L 523.338453 -118.584149 
L 523.591053 -118.76482 
L 523.929662 -118.94549 
L 524.355703 -119.126161 
L 524.870809 -119.306832 
L 525.476722 -119.487502 
L 526.175196 -119.668173 
L 526.967878 -119.848843 
L 527.856199 -120.029514 
L 528.84125 -120.210184 
L 529.923674 -120.390855 
L 531.103556 -120.571525 
L 532.380333 -120.752196 
L 533.752706 -120.932866 
L 535.21858 -121.113537 
L 536.775015 -121.294207 
L 538.4182 -121.474878 
L 540.143448 -121.655548 
L 541.94521 -121.836219 
L 543.817113 -122.016889 
L 545.752014 -122.19756 
L 547.742077 -122.37823 
L 549.778858 -122.558901 
L 551.853415 -122.739571 
L 553.956419 -122.920242 
L 556.078277 -123.100912 
L 558.20926 -123.281583 
L 560.339632 -123.462253 
L 562.459777 -123.642924 
L 564.560323 -123.823594 
L 566.632257 -124.004265 
L 568.667035 -124.184935 
L 570.656672 -124.365606 
L 572.593831 -124.546276 
L 574.471886 -124.726947 
L 576.284978 -124.907617 
L 578.028053 -125.088288 
L 579.696884 -125.268958 
L 581.288082 -125.449629 
L 582.799083 -125.630299 
L 584.228138 -125.81097 
L 585.574274 -125.99164 
L 586.837259 -126.172311 
L 588.017548 -126.352981 
L 589.116228 -126.533652 
L 590.134955 -126.714322 
L 591.075889 -126.894993 
L 591.941624 -127.075663 
L 599.177966 -127.075663 
L 599.177966 -127.075663 
L 599.177966 -126.894993 
L 599.177966 -126.714322 
L 599.177966 -126.533652 
L 599.177966 -126.352981 
L 599.177966 -126.172311 
L 599.177966 -125.99164 
L 599.177966 -125.81097 
L 599.177966 -125.630299 
L 599.177966 -125.449629 
L 599.177966 -125.268958 
L 599.177966 -125.088288 
L 599.177966 -124.907617 
L 599.177966 -124.726947 
L 599.177966 -124.546276 
L 599.177966 -124.365606 
L 599.177966 -124.184935 
L 599.177966 -124.004265 
L 599.177966 -123.823594 
L 599.177966 -123.642924 
L 599.177966 -123.462253 
L 599.177966 -123.281583 
L 599.177966 -123.100912 
L 599.177966 -122.920242 
L 599.177966 -122.739571 
L 599.177966 -122.558901 
L 599.177966 -122.37823 
L 599.177966 -122.19756 
L 599.177966 -122.016889 
L 599.177966 -121.836219 
L 599.177966 -121.655548 
L 599.177966 -121.474878 
L 599.177966 -121.294207 
L 599.177966 -121.113537 
L 599.177966 -120.932866 
L 599.177966 -120.752196 
L 599.177966 -120.571525 
L 599.177966 -120.390855 
L 599.177966 -120.210184 
L 599.177966 -120.029514 
L 599.177966 -119.848843 
L 599.177966 -119.668173 
L 599.177966 -119.487502 
L 599.177966 -119.306832 
L 599.177966 -119.126161 
L 599.177966 -118.94549 
L 599.177966 -118.76482 
L 599.177966 -118.584149 
L 599.177966 -118.403479 
L 599.177966 -118.222808 
L 599.177966 -118.042138 
L 599.177966 -117.861467 
L 599.177966 -117.680797 
L 599.177966 -117.500126 
L 599.177966 -117.319456 
L 599.177966 -117.138785 
L 599.177966 -116.958115 
L 599.177966 -116.777444 
L 599.177966 -116.596774 
L 599.177966 -116.416103 
L 599.177966 -116.235433 
L 599.177966 -116.054762 
L 599.177966 -115.874092 
L 599.177966 -115.693421 
L 599.177966 -115.512751 
L 599.177966 -115.33208 
L 599.177966 -115.15141 
L 599.177966 -114.970739 
L 599.177966 -114.790069 
L 599.177966 -114.609398 
L 599.177966 -114.428728 
L 599.177966 -114.248057 
L 599.177966 -114.067387 
L 599.177966 -113.886716 
L 599.177966 -113.706046 
L 599.177966 -113.525375 
L 599.177966 -113.344705 
L 599.177966 -113.164034 
L 599.177966 -112.983364 
L 599.177966 -112.802693 
L 599.177966 -112.622023 
L 599.177966 -112.441352 
L 599.177966 -112.260682 
L 599.177966 -112.080011 
L 599.177966 -111.899341 
L 599.177966 -111.71867 
L 599.177966 -111.538 
L 599.177966 -111.357329 
L 599.177966 -111.176659 
L 599.177966 -110.995988 
L 599.177966 -110.815318 
L 599.177966 -110.634647 
L 599.177966 -110.453977 
L 599.177966 -110.273306 
L 599.177966 -110.092636 
L 599.177966 -109.911965 
L 599.177966 -109.731295 
L 599.177966 -109.550624 
L 599.177966 -109.369954 
L 599.177966 -109.189283 
z
" style="stroke: #3f3f3f; stroke-width: 1.2"/>
    </defs>
    <g clip-path="url(#pc9282f9096)">
     <use xlink:href="#m9d1d6153bb" x="0" y="381.297862" style="fill: #3274a1; stroke: #3f3f3f; stroke-width: 1.2"/>
    </g>
   </g>
   <g id="patch_7">
    <path d="M 599.177966 270.914474 
L 599.177966 270.914474 
L 599.177966 270.914474 
L 599.177966 270.914474 
z
" clip-path="url(#pc9282f9096)" style="fill: #e1812c; stroke: #3f3f3f; stroke-width: 0.6; stroke-linejoin: miter"/>
   </g>
   <g id="PolyCollection_4">
    <defs>
     <path id="mcf6f6c5905" d="M 599.769088 -73.497863 
L 599.177966 -73.497863 
L 599.177966 -76.043317 
L 599.177966 -78.588772 
L 599.177966 -81.134226 
L 599.177966 -83.679681 
L 599.177966 -86.225135 
L 599.177966 -88.77059 
L 599.177966 -91.316044 
L 599.177966 -93.861499 
L 599.177966 -96.406953 
L 599.177966 -98.952408 
L 599.177966 -101.497863 
L 599.177966 -104.043317 
L 599.177966 -106.588772 
L 599.177966 -109.134226 
L 599.177966 -111.679681 
L 599.177966 -114.225135 
L 599.177966 -116.77059 
L 599.177966 -119.316044 
L 599.177966 -121.861499 
L 599.177966 -124.406953 
L 599.177966 -126.952408 
L 599.177966 -129.497862 
L 599.177966 -132.043317 
L 599.177966 -134.588772 
L 599.177966 -137.134226 
L 599.177966 -139.679681 
L 599.177966 -142.225135 
L 599.177966 -144.77059 
L 599.177966 -147.316044 
L 599.177966 -149.861499 
L 599.177966 -152.406953 
L 599.177966 -154.952408 
L 599.177966 -157.497863 
L 599.177966 -160.043317 
L 599.177966 -162.588772 
L 599.177966 -165.134226 
L 599.177966 -167.679681 
L 599.177966 -170.225135 
L 599.177966 -172.77059 
L 599.177966 -175.316044 
L 599.177966 -177.861499 
L 599.177966 -180.406953 
L 599.177966 -182.952408 
L 599.177966 -185.497862 
L 599.177966 -188.043317 
L 599.177966 -190.588772 
L 599.177966 -193.134226 
L 599.177966 -195.679681 
L 599.177966 -198.225135 
L 599.177966 -200.77059 
L 599.177966 -203.316044 
L 599.177966 -205.861499 
L 599.177966 -208.406953 
L 599.177966 -210.952408 
L 599.177966 -213.497862 
L 599.177966 -216.043317 
L 599.177966 -218.588772 
L 599.177966 -221.134226 
L 599.177966 -223.679681 
L 599.177966 -226.225135 
L 599.177966 -228.77059 
L 599.177966 -231.316044 
L 599.177966 -233.861499 
L 599.177966 -236.406953 
L 599.177966 -238.952408 
L 599.177966 -241.497863 
L 599.177966 -244.043317 
L 599.177966 -246.588772 
L 599.177966 -249.134226 
L 599.177966 -251.679681 
L 599.177966 -254.225135 
L 599.177966 -256.77059 
L 599.177966 -259.316044 
L 599.177966 -261.861499 
L 599.177966 -264.406953 
L 599.177966 -266.952408 
L 599.177966 -269.497862 
L 599.177966 -272.043317 
L 599.177966 -274.588772 
L 599.177966 -277.134226 
L 599.177966 -279.679681 
L 599.177966 -282.225135 
L 599.177966 -284.77059 
L 599.177966 -287.316044 
L 599.177966 -289.861499 
L 599.177966 -292.406953 
L 599.177966 -294.952408 
L 599.177966 -297.497862 
L 599.177966 -300.043317 
L 599.177966 -302.588772 
L 599.177966 -305.134226 
L 599.177966 -307.679681 
L 599.177966 -310.225135 
L 599.177966 -312.77059 
L 599.177966 -315.316044 
L 599.177966 -317.861499 
L 599.177966 -320.406953 
L 599.177966 -322.952408 
L 599.177966 -325.497862 
L 599.302973 -325.497862 
L 599.302973 -325.497862 
L 599.329259 -322.952408 
L 599.359394 -320.406953 
L 599.393545 -317.861499 
L 599.431802 -315.316044 
L 599.474154 -312.77059 
L 599.520486 -310.225135 
L 599.570563 -307.679681 
L 599.624031 -305.134226 
L 599.680416 -302.588772 
L 599.739143 -300.043317 
L 599.799543 -297.497862 
L 599.860888 -294.952408 
L 599.922415 -292.406953 
L 599.983368 -289.861499 
L 600.043031 -287.316044 
L 600.100774 -284.77059 
L 600.156084 -282.225135 
L 600.208599 -279.679681 
L 600.258132 -277.134226 
L 600.304681 -274.588772 
L 600.348436 -272.043317 
L 600.389762 -269.497862 
L 600.429177 -266.952408 
L 600.467317 -264.406953 
L 600.504891 -261.861499 
L 600.542631 -259.316044 
L 600.581238 -256.77059 
L 600.621328 -254.225135 
L 600.663391 -251.679681 
L 600.707751 -249.134226 
L 600.754541 -246.588772 
L 600.803701 -244.043317 
L 600.854982 -241.497863 
L 600.907974 -238.952408 
L 600.962147 -236.406953 
L 601.016913 -233.861499 
L 601.071686 -231.316044 
L 601.125961 -228.77059 
L 601.179388 -226.225135 
L 601.231848 -223.679681 
L 601.283513 -221.134226 
L 601.334906 -218.588772 
L 601.386934 -216.043317 
L 601.440909 -213.497862 
L 601.498543 -210.952408 
L 601.561927 -208.406953 
L 601.633477 -205.861499 
L 601.715873 -203.316044 
L 601.811969 -200.77059 
L 601.924684 -198.225135 
L 602.05689 -195.679681 
L 602.211278 -193.134226 
L 602.390223 -190.588772 
L 602.595651 -188.043317 
L 602.828903 -185.497862 
L 603.090605 -182.952408 
L 603.380562 -180.406953 
L 603.697657 -177.861499 
L 604.039781 -175.316044 
L 604.403792 -172.77059 
L 604.785506 -170.225135 
L 605.179725 -167.679681 
L 605.580309 -165.134226 
L 605.980288 -162.588772 
L 606.372021 -160.043317 
L 606.747392 -157.497863 
L 607.098041 -154.952408 
L 607.415632 -152.406953 
L 607.692125 -149.861499 
L 607.92007 -147.316044 
L 608.092885 -144.77059 
L 608.205121 -142.225135 
L 608.252683 -139.679681 
L 608.233013 -137.134226 
L 608.145212 -134.588772 
L 607.990092 -132.043317 
L 607.770164 -129.497862 
L 607.48955 -126.952408 
L 607.153833 -124.406953 
L 606.76984 -121.861499 
L 606.345392 -119.316044 
L 605.889003 -116.77059 
L 605.409571 -114.225135 
L 604.916067 -111.679681 
L 604.417237 -109.134226 
L 603.921324 -106.588772 
L 603.435844 -104.043317 
L 602.9674 -101.497863 
L 602.521548 -98.952408 
L 602.102725 -96.406953 
L 601.714227 -93.861499 
L 601.358234 -91.316044 
L 601.035877 -88.77059 
L 600.747343 -86.225135 
L 600.491996 -83.679681 
L 600.268525 -81.134226 
L 600.075081 -78.588772 
L 599.909432 -76.043317 
L 599.769088 -73.497863 
z
" style="stroke: #3f3f3f; stroke-width: 1.2"/>
    </defs>
    <g clip-path="url(#pc9282f9096)">
     <use xlink:href="#mcf6f6c5905" x="0" y="381.297862" style="fill: #e1812c; stroke: #3f3f3f; stroke-width: 1.2"/>
    </g>
   </g>
   <g id="PolyCollection_5">
    <defs>
     <path id="md060f0e9d8" d="M 789.405239 -114.952392 
L 782.168897 -114.952392 
L 781.303162 -115.042728 
L 780.362228 -115.133063 
L 779.343501 -115.223398 
L 778.244821 -115.313733 
L 777.064532 -115.404069 
L 775.801547 -115.494404 
L 774.455411 -115.584739 
L 773.026356 -115.675074 
L 771.515355 -115.76541 
L 769.924157 -115.855745 
L 768.255325 -115.94608 
L 766.51225 -116.036415 
L 764.699158 -116.126751 
L 762.821104 -116.217086 
L 760.883945 -116.307421 
L 758.894308 -116.397756 
L 756.85953 -116.488092 
L 754.787596 -116.578427 
L 752.68705 -116.668762 
L 750.566905 -116.759097 
L 748.436533 -116.849433 
L 746.30555 -116.939768 
L 744.183692 -117.030103 
L 742.080688 -117.120438 
L 740.006131 -117.210774 
L 737.96935 -117.301109 
L 735.979287 -117.391444 
L 734.044386 -117.481779 
L 732.172483 -117.572115 
L 730.37072 -117.66245 
L 728.645472 -117.752785 
L 727.002287 -117.84312 
L 725.445852 -117.933456 
L 723.979979 -118.023791 
L 722.607606 -118.114126 
L 721.330829 -118.204461 
L 720.150947 -118.294797 
L 719.068523 -118.385132 
L 718.083472 -118.475467 
L 717.195151 -118.565802 
L 716.402468 -118.656138 
L 715.703995 -118.746473 
L 715.098081 -118.836808 
L 714.582976 -118.927143 
L 714.156934 -119.017479 
L 713.818326 -119.107814 
L 713.565726 -119.198149 
L 713.397992 -119.288484 
L 713.31433 -119.37882 
L 713.31433 -119.469155 
L 713.397992 -119.55949 
L 713.565726 -119.649825 
L 713.818326 -119.740161 
L 714.156934 -119.830496 
L 714.582976 -119.920831 
L 715.098081 -120.011166 
L 715.703995 -120.101502 
L 716.402468 -120.191837 
L 717.195151 -120.282172 
L 718.083472 -120.372507 
L 719.068523 -120.462843 
L 720.150947 -120.553178 
L 721.330829 -120.643513 
L 722.607606 -120.733848 
L 723.979979 -120.824184 
L 725.445852 -120.914519 
L 727.002287 -121.004854 
L 728.645472 -121.095189 
L 730.37072 -121.185525 
L 732.172483 -121.27586 
L 734.044386 -121.366195 
L 735.979287 -121.45653 
L 737.96935 -121.546866 
L 740.006131 -121.637201 
L 742.080688 -121.727536 
L 744.183692 -121.817871 
L 746.30555 -121.908207 
L 748.436533 -121.998542 
L 750.566905 -122.088877 
L 752.68705 -122.179212 
L 754.787596 -122.269548 
L 756.85953 -122.359883 
L 758.894308 -122.450218 
L 760.883945 -122.540553 
L 762.821104 -122.630889 
L 764.699158 -122.721224 
L 766.51225 -122.811559 
L 768.255325 -122.901894 
L 769.924157 -122.99223 
L 771.515355 -123.082565 
L 773.026356 -123.1729 
L 774.455411 -123.263235 
L 775.801547 -123.353571 
L 777.064532 -123.443906 
L 778.244821 -123.534241 
L 779.343501 -123.624577 
L 780.362228 -123.714912 
L 781.303162 -123.805247 
L 782.168897 -123.895582 
L 789.405239 -123.895582 
L 789.405239 -123.895582 
L 789.405239 -123.805247 
L 789.405239 -123.714912 
L 789.405239 -123.624577 
L 789.405239 -123.534241 
L 789.405239 -123.443906 
L 789.405239 -123.353571 
L 789.405239 -123.263235 
L 789.405239 -123.1729 
L 789.405239 -123.082565 
L 789.405239 -122.99223 
L 789.405239 -122.901894 
L 789.405239 -122.811559 
L 789.405239 -122.721224 
L 789.405239 -122.630889 
L 789.405239 -122.540553 
L 789.405239 -122.450218 
L 789.405239 -122.359883 
L 789.405239 -122.269548 
L 789.405239 -122.179212 
L 789.405239 -122.088877 
L 789.405239 -121.998542 
L 789.405239 -121.908207 
L 789.405239 -121.817871 
L 789.405239 -121.727536 
L 789.405239 -121.637201 
L 789.405239 -121.546866 
L 789.405239 -121.45653 
L 789.405239 -121.366195 
L 789.405239 -121.27586 
L 789.405239 -121.185525 
L 789.405239 -121.095189 
L 789.405239 -121.004854 
L 789.405239 -120.914519 
L 789.405239 -120.824184 
L 789.405239 -120.733848 
L 789.405239 -120.643513 
L 789.405239 -120.553178 
L 789.405239 -120.462843 
L 789.405239 -120.372507 
L 789.405239 -120.282172 
L 789.405239 -120.191837 
L 789.405239 -120.101502 
L 789.405239 -120.011166 
L 789.405239 -119.920831 
L 789.405239 -119.830496 
L 789.405239 -119.740161 
L 789.405239 -119.649825 
L 789.405239 -119.55949 
L 789.405239 -119.469155 
L 789.405239 -119.37882 
L 789.405239 -119.288484 
L 789.405239 -119.198149 
L 789.405239 -119.107814 
L 789.405239 -119.017479 
L 789.405239 -118.927143 
L 789.405239 -118.836808 
L 789.405239 -118.746473 
L 789.405239 -118.656138 
L 789.405239 -118.565802 
L 789.405239 -118.475467 
L 789.405239 -118.385132 
L 789.405239 -118.294797 
L 789.405239 -118.204461 
L 789.405239 -118.114126 
L 789.405239 -118.023791 
L 789.405239 -117.933456 
L 789.405239 -117.84312 
L 789.405239 -117.752785 
L 789.405239 -117.66245 
L 789.405239 -117.572115 
L 789.405239 -117.481779 
L 789.405239 -117.391444 
L 789.405239 -117.301109 
L 789.405239 -117.210774 
L 789.405239 -117.120438 
L 789.405239 -117.030103 
L 789.405239 -116.939768 
L 789.405239 -116.849433 
L 789.405239 -116.759097 
L 789.405239 -116.668762 
L 789.405239 -116.578427 
L 789.405239 -116.488092 
L 789.405239 -116.397756 
L 789.405239 -116.307421 
L 789.405239 -116.217086 
L 789.405239 -116.126751 
L 789.405239 -116.036415 
L 789.405239 -115.94608 
L 789.405239 -115.855745 
L 789.405239 -115.76541 
L 789.405239 -115.675074 
L 789.405239 -115.584739 
L 789.405239 -115.494404 
L 789.405239 -115.404069 
L 789.405239 -115.313733 
L 789.405239 -115.223398 
L 789.405239 -115.133063 
L 789.405239 -115.042728 
L 789.405239 -114.952392 
z
" style="stroke: #3f3f3f; stroke-width: 1.2"/>
    </defs>
    <g clip-path="url(#pc9282f9096)">
     <use xlink:href="#md060f0e9d8" x="0" y="381.297862" style="fill: #3274a1; stroke: #3f3f3f; stroke-width: 1.2"/>
    </g>
   </g>
   <g id="PolyCollection_6">
    <defs>
     <path id="m9e010a1b81" d="M 789.687908 -92.505831 
L 789.405239 -92.505831 
L 789.405239 -93.467091 
L 789.405239 -94.428352 
L 789.405239 -95.389612 
L 789.405239 -96.350872 
L 789.405239 -97.312132 
L 789.405239 -98.273393 
L 789.405239 -99.234653 
L 789.405239 -100.195913 
L 789.405239 -101.157173 
L 789.405239 -102.118434 
L 789.405239 -103.079694 
L 789.405239 -104.040954 
L 789.405239 -105.002214 
L 789.405239 -105.963475 
L 789.405239 -106.924735 
L 789.405239 -107.885995 
L 789.405239 -108.847255 
L 789.405239 -109.808516 
L 789.405239 -110.769776 
L 789.405239 -111.731036 
L 789.405239 -112.692296 
L 789.405239 -113.653557 
L 789.405239 -114.614817 
L 789.405239 -115.576077 
L 789.405239 -116.537337 
L 789.405239 -117.498597 
L 789.405239 -118.459858 
L 789.405239 -119.421118 
L 789.405239 -120.382378 
L 789.405239 -121.343638 
L 789.405239 -122.304899 
L 789.405239 -123.266159 
L 789.405239 -124.227419 
L 789.405239 -125.188679 
L 789.405239 -126.14994 
L 789.405239 -127.1112 
L 789.405239 -128.07246 
L 789.405239 -129.03372 
L 789.405239 -129.994981 
L 789.405239 -130.956241 
L 789.405239 -131.917501 
L 789.405239 -132.878761 
L 789.405239 -133.840022 
L 789.405239 -134.801282 
L 789.405239 -135.762542 
L 789.405239 -136.723802 
L 789.405239 -137.685063 
L 789.405239 -138.646323 
L 789.405239 -139.607583 
L 789.405239 -140.568843 
L 789.405239 -141.530104 
L 789.405239 -142.491364 
L 789.405239 -143.452624 
L 789.405239 -144.413884 
L 789.405239 -145.375145 
L 789.405239 -146.336405 
L 789.405239 -147.297665 
L 789.405239 -148.258925 
L 789.405239 -149.220186 
L 789.405239 -150.181446 
L 789.405239 -151.142706 
L 789.405239 -152.103966 
L 789.405239 -153.065226 
L 789.405239 -154.026487 
L 789.405239 -154.987747 
L 789.405239 -155.949007 
L 789.405239 -156.910267 
L 789.405239 -157.871528 
L 789.405239 -158.832788 
L 789.405239 -159.794048 
L 789.405239 -160.755308 
L 789.405239 -161.716569 
L 789.405239 -162.677829 
L 789.405239 -163.639089 
L 789.405239 -164.600349 
L 789.405239 -165.56161 
L 789.405239 -166.52287 
L 789.405239 -167.48413 
L 789.405239 -168.44539 
L 789.405239 -169.406651 
L 789.405239 -170.367911 
L 789.405239 -171.329171 
L 789.405239 -172.290431 
L 789.405239 -173.251692 
L 789.405239 -174.212952 
L 789.405239 -175.174212 
L 789.405239 -176.135472 
L 789.405239 -177.096733 
L 789.405239 -178.057993 
L 789.405239 -179.019253 
L 789.405239 -179.980513 
L 789.405239 -180.941774 
L 789.405239 -181.903034 
L 789.405239 -182.864294 
L 789.405239 -183.825554 
L 789.405239 -184.786815 
L 789.405239 -185.748075 
L 789.405239 -186.709335 
L 789.405239 -187.670595 
L 790.053121 -187.670595 
L 790.053121 -187.670595 
L 790.17517 -186.709335 
L 790.31445 -185.748075 
L 790.472212 -184.786815 
L 790.649581 -183.825554 
L 790.847507 -182.864294 
L 791.066718 -181.903034 
L 791.307685 -180.941774 
L 791.570568 -179.980513 
L 791.855194 -179.019253 
L 792.161014 -178.057993 
L 792.48709 -177.096733 
L 792.83208 -176.135472 
L 793.194235 -175.174212 
L 793.571408 -174.212952 
L 793.961078 -173.251692 
L 794.360377 -172.290431 
L 794.766132 -171.329171 
L 795.174916 -170.367911 
L 795.583107 -169.406651 
L 795.986946 -168.44539 
L 796.382605 -167.48413 
L 796.766257 -166.52287 
L 797.134134 -165.56161 
L 797.482599 -164.600349 
L 797.808197 -163.639089 
L 798.107713 -162.677829 
L 798.378215 -161.716569 
L 798.617092 -160.755308 
L 798.82209 -159.794048 
L 798.991332 -158.832788 
L 799.123336 -157.871528 
L 799.217031 -156.910267 
L 799.271759 -155.949007 
L 799.287277 -154.987747 
L 799.263759 -154.026487 
L 799.201786 -153.065226 
L 799.10234 -152.103966 
L 798.966793 -151.142706 
L 798.796889 -150.181446 
L 798.594732 -149.220186 
L 798.362758 -148.258925 
L 798.103718 -147.297665 
L 797.820641 -146.336405 
L 797.516803 -145.375145 
L 797.195688 -144.413884 
L 796.860944 -143.452624 
L 796.516332 -142.491364 
L 796.165672 -141.530104 
L 795.812788 -140.568843 
L 795.461443 -139.607583 
L 795.115282 -138.646323 
L 794.777763 -137.685063 
L 794.452101 -136.723802 
L 794.141203 -135.762542 
L 793.847619 -134.801282 
L 793.573492 -133.840022 
L 793.320518 -132.878761 
L 793.089916 -131.917501 
L 792.882406 -130.956241 
L 792.698207 -129.994981 
L 792.53704 -129.03372 
L 792.398142 -128.07246 
L 792.280306 -127.1112 
L 792.181913 -126.14994 
L 792.100999 -125.188679 
L 792.035306 -124.227419 
L 791.982364 -123.266159 
L 791.939562 -122.304899 
L 791.904228 -121.343638 
L 791.873709 -120.382378 
L 791.84545 -119.421118 
L 791.817061 -118.459858 
L 791.786384 -117.498597 
L 791.751546 -116.537337 
L 791.710998 -115.576077 
L 791.663548 -114.614817 
L 791.608373 -113.653557 
L 791.545021 -112.692296 
L 791.473405 -111.731036 
L 791.39377 -110.769776 
L 791.306668 -109.808516 
L 791.212912 -108.847255 
L 791.113526 -107.885995 
L 791.009698 -106.924735 
L 790.902719 -105.963475 
L 790.793934 -105.002214 
L 790.684692 -104.040954 
L 790.576298 -103.079694 
L 790.469975 -102.118434 
L 790.366829 -101.157173 
L 790.267828 -100.195913 
L 790.173782 -99.234653 
L 790.085334 -98.273393 
L 790.002958 -97.312132 
L 789.926966 -96.350872 
L 789.857511 -95.389612 
L 789.794607 -94.428352 
L 789.738145 -93.467091 
L 789.687908 -92.505831 
z
" style="stroke: #3f3f3f; stroke-width: 1.2"/>
    </defs>
    <g clip-path="url(#pc9282f9096)">
     <use xlink:href="#m9e010a1b81" x="0" y="381.297862" style="fill: #e1812c; stroke: #3f3f3f; stroke-width: 1.2"/>
    </g>
   </g>
   <g id="line2d_15">
    <path d="M 599.177966 265.748417 
L 599.177966 172.759401 
" clip-path="url(#pc9282f9096)" style="fill: none; stroke: #3f3f3f; stroke-width: 1.2; stroke-linecap: round"/>
   </g>
   <g id="line2d_16">
    <path d="M 599.177966 252.833276 
L 599.177966 220.545423 
" clip-path="url(#pc9282f9096)" style="fill: none; stroke: #3f3f3f; stroke-width: 3.6; stroke-linecap: round"/>
   </g>
   <g id="line2d_17">
    <path d="M 789.405239 265.748417 
L 789.405239 216.670881 
" clip-path="url(#pc9282f9096)" style="fill: none; stroke: #3f3f3f; stroke-width: 1.2; stroke-linecap: round"/>
   </g>
   <g id="line2d_18">
    <path d="M 789.405239 260.582361 
L 789.405239 224.419966 
" clip-path="url(#pc9282f9096)" style="fill: none; stroke: #3f3f3f; stroke-width: 3.6; stroke-linecap: round"/>
   </g>
   <g id="patch_8">
    <path d="M 504.06433 320.4 
L 504.06433 43.2 
" style="fill: none; stroke: #cccccc; stroke-linejoin: miter; stroke-linecap: square"/>
   </g>
   <g id="patch_9">
    <path d="M 504.06433 320.4 
L 884.518875 320.4 
" style="fill: none; stroke: #cccccc; stroke-linejoin: miter; stroke-linecap: square"/>
   </g>
   <g id="PathCollection_3">
    <g clip-path="url(#pc9282f9096)">
     <use xlink:href="#m28ccaf4ff1" x="599.177966" y="243.792678" style="fill: #ffffff; stroke: #3f3f3f; stroke-width: 0.8"/>
    </g>
   </g>
   <g id="PathCollection_4">
    <g clip-path="url(#pc9282f9096)">
     <use xlink:href="#m28ccaf4ff1" x="789.405239" y="232.16905" style="fill: #ffffff; stroke: #3f3f3f; stroke-width: 0.8"/>
    </g>
   </g>
   <g id="text_20">
    <!-- Across Time -->
    <g style="fill: #262626" transform="translate(654.684852 37.2) scale(0.144 -0.144)">
     <defs>
      <path id="ArialMT-41" d="M -9 0 
L 1750 4581 
L 2403 4581 
L 4278 0 
L 3588 0 
L 3053 1388 
L 1138 1388 
L 634 0 
L -9 0 
z
M 1313 1881 
L 2866 1881 
L 2388 3150 
Q 2169 3728 2063 4100 
Q 1975 3659 1816 3225 
L 1313 1881 
z
" transform="scale(0.015625)"/>
      <path id="ArialMT-63" d="M 2588 1216 
L 3141 1144 
Q 3050 572 2676 248 
Q 2303 -75 1759 -75 
Q 1078 -75 664 370 
Q 250 816 250 1647 
Q 250 2184 428 2587 
Q 606 2991 970 3192 
Q 1334 3394 1763 3394 
Q 2303 3394 2647 3120 
Q 2991 2847 3088 2344 
L 2541 2259 
Q 2463 2594 2264 2762 
Q 2066 2931 1784 2931 
Q 1359 2931 1093 2626 
Q 828 2322 828 1663 
Q 828 994 1084 691 
Q 1341 388 1753 388 
Q 2084 388 2306 591 
Q 2528 794 2588 1216 
z
" transform="scale(0.015625)"/>
     </defs>
     <use xlink:href="#ArialMT-41"/>
     <use xlink:href="#ArialMT-63" x="66.699219"/>
     <use xlink:href="#ArialMT-72" x="116.699219"/>
     <use xlink:href="#ArialMT-6f" x="150"/>
     <use xlink:href="#ArialMT-73" x="205.615234"/>
     <use xlink:href="#ArialMT-73" x="255.615234"/>
     <use xlink:href="#ArialMT-20" x="305.615234"/>
     <use xlink:href="#ArialMT-54" x="331.648438"/>
     <use xlink:href="#ArialMT-69" x="388.982422"/>
     <use xlink:href="#ArialMT-6d" x="411.199219"/>
     <use xlink:href="#ArialMT-65" x="494.5"/>
    </g>
   </g>
   <g id="legend_1">
    <g id="patch_10">
     <path d="M 786.773625 110.872875 
L 875.278875 110.872875 
Q 877.918875 110.872875 877.918875 108.232875 
L 877.918875 52.44 
Q 877.918875 49.8 875.278875 49.8 
L 786.773625 49.8 
Q 784.133625 49.8 784.133625 52.44 
L 784.133625 108.232875 
Q 784.133625 110.872875 786.773625 110.872875 
z
" style="fill: #ffffff; opacity: 0.8; stroke: #cccccc; stroke-width: 0.8; stroke-linejoin: miter"/>
    </g>
    <g id="text_21">
     <!-- Profile Name -->
     <g style="fill: #262626" transform="translate(789.413625 65.38725) scale(0.144 -0.144)">
      <use xlink:href="#ArialMT-50"/>
      <use xlink:href="#ArialMT-72" x="66.699219"/>
      <use xlink:href="#ArialMT-6f" x="100"/>
      <use xlink:href="#ArialMT-66" x="155.615234"/>
      <use xlink:href="#ArialMT-69" x="183.398438"/>
      <use xlink:href="#ArialMT-6c" x="205.615234"/>
      <use xlink:href="#ArialMT-65" x="227.832031"/>
      <use xlink:href="#ArialMT-20" x="283.447266"/>
      <use xlink:href="#ArialMT-4e" x="311.230469"/>
      <use xlink:href="#ArialMT-61" x="383.447266"/>
      <use xlink:href="#ArialMT-6d" x="439.0625"/>
      <use xlink:href="#ArialMT-65" x="522.363281"/>
     </g>
    </g>
    <g id="patch_11">
     <path d="M 803.742469 84.297562 
L 830.142469 84.297562 
L 830.142469 75.057562 
L 803.742469 75.057562 
z
" style="fill: #3274a1; stroke: #3f3f3f; stroke-width: 0.6; stroke-linejoin: miter"/>
    </g>
    <g id="text_22">
     <!-- HI -->
     <g style="fill: #262626" transform="translate(840.702469 84.297562) scale(0.132 -0.132)">
      <use xlink:href="#ArialMT-48"/>
      <use xlink:href="#ArialMT-49" x="72.216797"/>
     </g>
    </g>
    <g id="patch_12">
     <path d="M 803.742469 102.969375 
L 830.142469 102.969375 
L 830.142469 93.729375 
L 803.742469 93.729375 
z
" style="fill: #e1812c; stroke: #3f3f3f; stroke-width: 0.6; stroke-linejoin: miter"/>
    </g>
    <g id="text_23">
     <!-- LO -->
     <g style="fill: #262626" transform="translate(840.702469 102.969375) scale(0.132 -0.132)">
      <use xlink:href="#ArialMT-4c"/>
      <use xlink:href="#ArialMT-4f" x="55.615234"/>
     </g>
    </g>
   </g>
  </g>
  <g id="text_24">
   <!-- Query Length Total - - Non-repeated Task(s) -->
   <g style="fill: #262626" transform="translate(286.205625 19.7901) scale(0.1728 -0.1728)">
    <defs>
     <path id="ArialMT-68" d="M 422 0 
L 422 4581 
L 984 4581 
L 984 2938 
Q 1378 3394 1978 3394 
Q 2347 3394 2619 3248 
Q 2891 3103 3008 2847 
Q 3125 2591 3125 2103 
L 3125 0 
L 2563 0 
L 2563 2103 
Q 2563 2525 2380 2717 
Q 2197 2909 1863 2909 
Q 1613 2909 1392 2779 
Q 1172 2650 1078 2428 
Q 984 2206 984 1816 
L 984 0 
L 422 0 
z
" transform="scale(0.015625)"/>
     <path id="ArialMT-2d" d="M 203 1375 
L 203 1941 
L 1931 1941 
L 1931 1375 
L 203 1375 
z
" transform="scale(0.015625)"/>
     <path id="ArialMT-70" d="M 422 -1272 
L 422 3319 
L 934 3319 
L 934 2888 
Q 1116 3141 1344 3267 
Q 1572 3394 1897 3394 
Q 2322 3394 2647 3175 
Q 2972 2956 3137 2557 
Q 3303 2159 3303 1684 
Q 3303 1175 3120 767 
Q 2938 359 2589 142 
Q 2241 -75 1856 -75 
Q 1575 -75 1351 44 
Q 1128 163 984 344 
L 984 -1272 
L 422 -1272 
z
M 931 1641 
Q 931 1000 1190 694 
Q 1450 388 1819 388 
Q 2194 388 2461 705 
Q 2728 1022 2728 1688 
Q 2728 2322 2467 2637 
Q 2206 2953 1844 2953 
Q 1484 2953 1207 2617 
Q 931 2281 931 1641 
z
" transform="scale(0.015625)"/>
     <path id="ArialMT-6b" d="M 425 0 
L 425 4581 
L 988 4581 
L 988 1969 
L 2319 3319 
L 3047 3319 
L 1778 2088 
L 3175 0 
L 2481 0 
L 1384 1697 
L 988 1316 
L 988 0 
L 425 0 
z
" transform="scale(0.015625)"/>
     <path id="ArialMT-28" d="M 1497 -1347 
Q 1031 -759 709 28 
Q 388 816 388 1659 
Q 388 2403 628 3084 
Q 909 3875 1497 4659 
L 1900 4659 
Q 1522 4009 1400 3731 
Q 1209 3300 1100 2831 
Q 966 2247 966 1656 
Q 966 153 1900 -1347 
L 1497 -1347 
z
" transform="scale(0.015625)"/>
     <path id="ArialMT-29" d="M 791 -1347 
L 388 -1347 
Q 1322 153 1322 1656 
Q 1322 2244 1188 2822 
Q 1081 3291 891 3722 
Q 769 4003 388 4659 
L 791 4659 
Q 1378 3875 1659 3084 
Q 1900 2403 1900 1659 
Q 1900 816 1576 28 
Q 1253 -759 791 -1347 
z
" transform="scale(0.015625)"/>
    </defs>
    <use xlink:href="#ArialMT-51"/>
    <use xlink:href="#ArialMT-75" x="77.783203"/>
    <use xlink:href="#ArialMT-65" x="133.398438"/>
    <use xlink:href="#ArialMT-72" x="189.013672"/>
    <use xlink:href="#ArialMT-79" x="222.314453"/>
    <use xlink:href="#ArialMT-20" x="272.314453"/>
    <use xlink:href="#ArialMT-4c" x="300.097656"/>
    <use xlink:href="#ArialMT-65" x="355.712891"/>
    <use xlink:href="#ArialMT-6e" x="411.328125"/>
    <use xlink:href="#ArialMT-67" x="466.943359"/>
    <use xlink:href="#ArialMT-74" x="522.558594"/>
    <use xlink:href="#ArialMT-68" x="550.341797"/>
    <use xlink:href="#ArialMT-20" x="605.957031"/>
    <use xlink:href="#ArialMT-54" x="631.990234"/>
    <use xlink:href="#ArialMT-6f" x="681.949219"/>
    <use xlink:href="#ArialMT-74" x="737.564453"/>
    <use xlink:href="#ArialMT-61" x="765.347656"/>
    <use xlink:href="#ArialMT-6c" x="820.962891"/>
    <use xlink:href="#ArialMT-20" x="843.179688"/>
    <use xlink:href="#ArialMT-2d" x="870.962891"/>
    <use xlink:href="#ArialMT-2d" x="904.263672"/>
    <use xlink:href="#ArialMT-20" x="937.564453"/>
    <use xlink:href="#ArialMT-4e" x="965.347656"/>
    <use xlink:href="#ArialMT-6f" x="1037.564453"/>
    <use xlink:href="#ArialMT-6e" x="1093.179688"/>
    <use xlink:href="#ArialMT-2d" x="1148.794922"/>
    <use xlink:href="#ArialMT-72" x="1182.095703"/>
    <use xlink:href="#ArialMT-65" x="1215.396484"/>
    <use xlink:href="#ArialMT-70" x="1271.011719"/>
    <use xlink:href="#ArialMT-65" x="1326.626953"/>
    <use xlink:href="#ArialMT-61" x="1382.242188"/>
    <use xlink:href="#ArialMT-74" x="1437.857422"/>
    <use xlink:href="#ArialMT-65" x="1465.640625"/>
    <use xlink:href="#ArialMT-64" x="1521.255859"/>
    <use xlink:href="#ArialMT-20" x="1576.871094"/>
    <use xlink:href="#ArialMT-54" x="1602.904297"/>
    <use xlink:href="#ArialMT-61" x="1652.863281"/>
    <use xlink:href="#ArialMT-73" x="1708.478516"/>
    <use xlink:href="#ArialMT-6b" x="1758.478516"/>
    <use xlink:href="#ArialMT-28" x="1808.478516"/>
    <use xlink:href="#ArialMT-73" x="1841.779297"/>
    <use xlink:href="#ArialMT-29" x="1891.779297"/>
   </g>
  </g>
 </g>
 <defs>
  <clipPath id="p09b20c4f60">
   <rect x="47.518875" y="43.2" width="380.454545" height="277.2"/>
  </clipPath>
  <clipPath id="pc9282f9096">
   <rect x="504.06433" y="43.2" width="380.454545" height="277.2"/>
  </clipPath>
 </defs>
</svg>
