<?xml version="1.0" encoding="utf-8" standalone="no"?>
<!DOCTYPE svg PUBLIC "-//W3C//DTD SVG 1.1//EN"
  "http://www.w3.org/Graphics/SVG/1.1/DTD/svg11.dtd">
<svg xmlns:xlink="http://www.w3.org/1999/xlink" width="342.586125pt" height="381.297862pt" viewBox="0 0 342.586125 381.297862" xmlns="http://www.w3.org/2000/svg" version="1.1">
 <metadata>
  <rdf:RDF xmlns:dc="http://purl.org/dc/elements/1.1/" xmlns:cc="http://creativecommons.org/ns#" xmlns:rdf="http://www.w3.org/1999/02/22-rdf-syntax-ns#">
   <cc:Work>
    <dc:type rdf:resource="http://purl.org/dc/dcmitype/StillImage"/>
    <dc:date>2023-02-22T14:11:04.035209</dc:date>
    <dc:format>image/svg+xml</dc:format>
    <dc:creator>
     <cc:Agent>
      <dc:title>Matplotlib v3.6.3, https://matplotlib.org/</dc:title>
     </cc:Agent>
    </dc:creator>
   </cc:Work>
  </rdf:RDF>
 </metadata>
 <defs>
  <style type="text/css">*{stroke-linejoin: round; stroke-linecap: butt}</style>
 </defs>
 <g id="figure_1">
  <g id="patch_1">
   <path d="M 0 381.297862 
L 342.586125 381.297862 
L 342.586125 0 
L 0 0 
z
" style="fill: #ffffff"/>
  </g>
  <g id="axes_1">
   <g id="patch_2">
    <path d="M 47.518875 320.4 
L 326.518875 320.4 
L 326.518875 43.2 
L 47.518875 43.2 
z
" style="fill: #ffffff"/>
   </g>
   <g id="matplotlib.axis_1">
    <g id="xtick_1">
     <g id="text_1">
      <!-- LO -->
      <g style="fill: #262626" transform="translate(108.465094 338.148312) scale(0.132 -0.132)">
       <defs>
        <path id="ArialMT-4c" d="M 469 0 
L 469 4581 
L 1075 4581 
L 1075 541 
L 3331 541 
L 3331 0 
L 469 0 
z
" transform="scale(0.015625)"/>
        <path id="ArialMT-4f" d="M 309 2231 
Q 309 3372 921 4017 
Q 1534 4663 2503 4663 
Q 3138 4663 3647 4359 
Q 4156 4056 4423 3514 
Q 4691 2972 4691 2284 
Q 4691 1588 4409 1038 
Q 4128 488 3612 205 
Q 3097 -78 2500 -78 
Q 1853 -78 1343 234 
Q 834 547 571 1087 
Q 309 1628 309 2231 
z
M 934 2222 
Q 934 1394 1379 917 
Q 1825 441 2497 441 
Q 3181 441 3623 922 
Q 4066 1403 4066 2288 
Q 4066 2847 3877 3264 
Q 3688 3681 3323 3911 
Q 2959 4141 2506 4141 
Q 1863 4141 1398 3698 
Q 934 3256 934 2222 
z
" transform="scale(0.015625)"/>
       </defs>
       <use xlink:href="#ArialMT-4c"/>
       <use xlink:href="#ArialMT-4f" x="55.615234"/>
      </g>
     </g>
    </g>
    <g id="xtick_2">
     <g id="text_2">
      <!-- HI -->
      <g style="fill: #262626" transform="translate(250.168875 338.148312) scale(0.132 -0.132)">
       <defs>
        <path id="ArialMT-48" d="M 513 0 
L 513 4581 
L 1119 4581 
L 1119 2700 
L 3500 2700 
L 3500 4581 
L 4106 4581 
L 4106 0 
L 3500 0 
L 3500 2159 
L 1119 2159 
L 1119 0 
L 513 0 
z
" transform="scale(0.015625)"/>
        <path id="ArialMT-49" d="M 597 0 
L 597 4581 
L 1203 4581 
L 1203 0 
L 597 0 
z
" transform="scale(0.015625)"/>
       </defs>
       <use xlink:href="#ArialMT-48"/>
       <use xlink:href="#ArialMT-49" x="72.216797"/>
      </g>
     </g>
    </g>
    <g id="text_3">
     <!-- Profile Name -->
     <g style="fill: #262626" transform="translate(145.40625 355.079062) scale(0.144 -0.144)">
      <defs>
       <path id="ArialMT-50" d="M 494 0 
L 494 4581 
L 2222 4581 
Q 2678 4581 2919 4538 
Q 3256 4481 3484 4323 
Q 3713 4166 3852 3881 
Q 3991 3597 3991 3256 
Q 3991 2672 3619 2267 
Q 3247 1863 2275 1863 
L 1100 1863 
L 1100 0 
L 494 0 
z
M 1100 2403 
L 2284 2403 
Q 2872 2403 3119 2622 
Q 3366 2841 3366 3238 
Q 3366 3525 3220 3729 
Q 3075 3934 2838 4000 
Q 2684 4041 2272 4041 
L 1100 4041 
L 1100 2403 
z
" transform="scale(0.015625)"/>
       <path id="ArialMT-72" d="M 416 0 
L 416 3319 
L 922 3319 
L 922 2816 
Q 1116 3169 1280 3281 
Q 1444 3394 1641 3394 
Q 1925 3394 2219 3213 
L 2025 2691 
Q 1819 2813 1613 2813 
Q 1428 2813 1281 2702 
Q 1134 2591 1072 2394 
Q 978 2094 978 1738 
L 978 0 
L 416 0 
z
" transform="scale(0.015625)"/>
       <path id="ArialMT-6f" d="M 213 1659 
Q 213 2581 725 3025 
Q 1153 3394 1769 3394 
Q 2453 3394 2887 2945 
Q 3322 2497 3322 1706 
Q 3322 1066 3130 698 
Q 2938 331 2570 128 
Q 2203 -75 1769 -75 
Q 1072 -75 642 372 
Q 213 819 213 1659 
z
M 791 1659 
Q 791 1022 1069 705 
Q 1347 388 1769 388 
Q 2188 388 2466 706 
Q 2744 1025 2744 1678 
Q 2744 2294 2464 2611 
Q 2184 2928 1769 2928 
Q 1347 2928 1069 2612 
Q 791 2297 791 1659 
z
" transform="scale(0.015625)"/>
       <path id="ArialMT-66" d="M 556 0 
L 556 2881 
L 59 2881 
L 59 3319 
L 556 3319 
L 556 3672 
Q 556 4006 616 4169 
Q 697 4388 901 4523 
Q 1106 4659 1475 4659 
Q 1713 4659 2000 4603 
L 1916 4113 
Q 1741 4144 1584 4144 
Q 1328 4144 1222 4034 
Q 1116 3925 1116 3625 
L 1116 3319 
L 1763 3319 
L 1763 2881 
L 1116 2881 
L 1116 0 
L 556 0 
z
" transform="scale(0.015625)"/>
       <path id="ArialMT-69" d="M 425 3934 
L 425 4581 
L 988 4581 
L 988 3934 
L 425 3934 
z
M 425 0 
L 425 3319 
L 988 3319 
L 988 0 
L 425 0 
z
" transform="scale(0.015625)"/>
       <path id="ArialMT-6c" d="M 409 0 
L 409 4581 
L 972 4581 
L 972 0 
L 409 0 
z
" transform="scale(0.015625)"/>
       <path id="ArialMT-65" d="M 2694 1069 
L 3275 997 
Q 3138 488 2766 206 
Q 2394 -75 1816 -75 
Q 1088 -75 661 373 
Q 234 822 234 1631 
Q 234 2469 665 2931 
Q 1097 3394 1784 3394 
Q 2450 3394 2872 2941 
Q 3294 2488 3294 1666 
Q 3294 1616 3291 1516 
L 816 1516 
Q 847 969 1125 678 
Q 1403 388 1819 388 
Q 2128 388 2347 550 
Q 2566 713 2694 1069 
z
M 847 1978 
L 2700 1978 
Q 2663 2397 2488 2606 
Q 2219 2931 1791 2931 
Q 1403 2931 1139 2672 
Q 875 2413 847 1978 
z
" transform="scale(0.015625)"/>
       <path id="ArialMT-20" transform="scale(0.015625)"/>
       <path id="ArialMT-4e" d="M 488 0 
L 488 4581 
L 1109 4581 
L 3516 984 
L 3516 4581 
L 4097 4581 
L 4097 0 
L 3475 0 
L 1069 3600 
L 1069 0 
L 488 0 
z
" transform="scale(0.015625)"/>
       <path id="ArialMT-61" d="M 2588 409 
Q 2275 144 1986 34 
Q 1697 -75 1366 -75 
Q 819 -75 525 192 
Q 231 459 231 875 
Q 231 1119 342 1320 
Q 453 1522 633 1644 
Q 813 1766 1038 1828 
Q 1203 1872 1538 1913 
Q 2219 1994 2541 2106 
Q 2544 2222 2544 2253 
Q 2544 2597 2384 2738 
Q 2169 2928 1744 2928 
Q 1347 2928 1158 2789 
Q 969 2650 878 2297 
L 328 2372 
Q 403 2725 575 2942 
Q 747 3159 1072 3276 
Q 1397 3394 1825 3394 
Q 2250 3394 2515 3294 
Q 2781 3194 2906 3042 
Q 3031 2891 3081 2659 
Q 3109 2516 3109 2141 
L 3109 1391 
Q 3109 606 3145 398 
Q 3181 191 3288 0 
L 2700 0 
Q 2613 175 2588 409 
z
M 2541 1666 
Q 2234 1541 1622 1453 
Q 1275 1403 1131 1340 
Q 988 1278 909 1158 
Q 831 1038 831 891 
Q 831 666 1001 516 
Q 1172 366 1500 366 
Q 1825 366 2078 508 
Q 2331 650 2450 897 
Q 2541 1088 2541 1459 
L 2541 1666 
z
" transform="scale(0.015625)"/>
       <path id="ArialMT-6d" d="M 422 0 
L 422 3319 
L 925 3319 
L 925 2853 
Q 1081 3097 1340 3245 
Q 1600 3394 1931 3394 
Q 2300 3394 2536 3241 
Q 2772 3088 2869 2813 
Q 3263 3394 3894 3394 
Q 4388 3394 4653 3120 
Q 4919 2847 4919 2278 
L 4919 0 
L 4359 0 
L 4359 2091 
Q 4359 2428 4304 2576 
Q 4250 2725 4106 2815 
Q 3963 2906 3769 2906 
Q 3419 2906 3187 2673 
Q 2956 2441 2956 1928 
L 2956 0 
L 2394 0 
L 2394 2156 
Q 2394 2531 2256 2718 
Q 2119 2906 1806 2906 
Q 1569 2906 1367 2781 
Q 1166 2656 1075 2415 
Q 984 2175 984 1722 
L 984 0 
L 422 0 
z
" transform="scale(0.015625)"/>
      </defs>
      <use xlink:href="#ArialMT-50"/>
      <use xlink:href="#ArialMT-72" x="66.699219"/>
      <use xlink:href="#ArialMT-6f" x="100"/>
      <use xlink:href="#ArialMT-66" x="155.615234"/>
      <use xlink:href="#ArialMT-69" x="183.398438"/>
      <use xlink:href="#ArialMT-6c" x="205.615234"/>
      <use xlink:href="#ArialMT-65" x="227.832031"/>
      <use xlink:href="#ArialMT-20" x="283.447266"/>
      <use xlink:href="#ArialMT-4e" x="311.230469"/>
      <use xlink:href="#ArialMT-61" x="383.447266"/>
      <use xlink:href="#ArialMT-6d" x="439.0625"/>
      <use xlink:href="#ArialMT-65" x="522.363281"/>
     </g>
     <!-- $(U=10, n_{HI}=2, n_{LO}=5, p=.0952)$ -->
     <g style="fill: #262626" transform="translate(63.178875 371.073862) scale(0.144 -0.144)">
      <defs>
       <path id="DejaVuSans-28" d="M 1984 4856 
Q 1566 4138 1362 3434 
Q 1159 2731 1159 2009 
Q 1159 1288 1364 580 
Q 1569 -128 1984 -844 
L 1484 -844 
Q 1016 -109 783 600 
Q 550 1309 550 2009 
Q 550 2706 781 3412 
Q 1013 4119 1484 4856 
L 1984 4856 
z
" transform="scale(0.015625)"/>
       <path id="DejaVuSans-Oblique-55" d="M 991 4666 
L 1625 4666 
L 1075 1831 
Q 1041 1641 1027 1517 
Q 1013 1394 1013 1300 
Q 1013 869 1253 645 
Q 1494 422 1959 422 
Q 2563 422 2898 753 
Q 3234 1084 3378 1831 
L 3928 4666 
L 4563 4666 
L 4000 1753 
Q 3816 809 3300 359 
Q 2784 -91 1888 -91 
Q 1188 -91 780 261 
Q 372 613 372 1216 
Q 372 1325 387 1461 
Q 403 1597 434 1753 
L 991 4666 
z
" transform="scale(0.015625)"/>
       <path id="DejaVuSans-3d" d="M 678 2906 
L 4684 2906 
L 4684 2381 
L 678 2381 
L 678 2906 
z
M 678 1631 
L 4684 1631 
L 4684 1100 
L 678 1100 
L 678 1631 
z
" transform="scale(0.015625)"/>
       <path id="DejaVuSans-31" d="M 794 531 
L 1825 531 
L 1825 4091 
L 703 3866 
L 703 4441 
L 1819 4666 
L 2450 4666 
L 2450 531 
L 3481 531 
L 3481 0 
L 794 0 
L 794 531 
z
" transform="scale(0.015625)"/>
       <path id="DejaVuSans-30" d="M 2034 4250 
Q 1547 4250 1301 3770 
Q 1056 3291 1056 2328 
Q 1056 1369 1301 889 
Q 1547 409 2034 409 
Q 2525 409 2770 889 
Q 3016 1369 3016 2328 
Q 3016 3291 2770 3770 
Q 2525 4250 2034 4250 
z
M 2034 4750 
Q 2819 4750 3233 4129 
Q 3647 3509 3647 2328 
Q 3647 1150 3233 529 
Q 2819 -91 2034 -91 
Q 1250 -91 836 529 
Q 422 1150 422 2328 
Q 422 3509 836 4129 
Q 1250 4750 2034 4750 
z
" transform="scale(0.015625)"/>
       <path id="DejaVuSans-2c" d="M 750 794 
L 1409 794 
L 1409 256 
L 897 -744 
L 494 -744 
L 750 256 
L 750 794 
z
" transform="scale(0.015625)"/>
       <path id="DejaVuSans-Oblique-6e" d="M 3566 2113 
L 3156 0 
L 2578 0 
L 2988 2091 
Q 3016 2238 3031 2350 
Q 3047 2463 3047 2528 
Q 3047 2791 2881 2937 
Q 2716 3084 2419 3084 
Q 1956 3084 1622 2776 
Q 1288 2469 1184 1941 
L 800 0 
L 225 0 
L 903 3500 
L 1478 3500 
L 1363 2950 
Q 1603 3253 1940 3418 
Q 2278 3584 2650 3584 
Q 3113 3584 3367 3334 
Q 3622 3084 3622 2631 
Q 3622 2519 3608 2391 
Q 3594 2263 3566 2113 
z
" transform="scale(0.015625)"/>
       <path id="DejaVuSans-Oblique-48" d="M 1081 4666 
L 1716 4666 
L 1344 2753 
L 3634 2753 
L 4006 4666 
L 4641 4666 
L 3731 0 
L 3097 0 
L 3531 2222 
L 1241 2222 
L 806 0 
L 172 0 
L 1081 4666 
z
" transform="scale(0.015625)"/>
       <path id="DejaVuSans-Oblique-49" d="M 1081 4666 
L 1716 4666 
L 806 0 
L 172 0 
L 1081 4666 
z
" transform="scale(0.015625)"/>
       <path id="DejaVuSans-32" d="M 1228 531 
L 3431 531 
L 3431 0 
L 469 0 
L 469 531 
Q 828 903 1448 1529 
Q 2069 2156 2228 2338 
Q 2531 2678 2651 2914 
Q 2772 3150 2772 3378 
Q 2772 3750 2511 3984 
Q 2250 4219 1831 4219 
Q 1534 4219 1204 4116 
Q 875 4013 500 3803 
L 500 4441 
Q 881 4594 1212 4672 
Q 1544 4750 1819 4750 
Q 2544 4750 2975 4387 
Q 3406 4025 3406 3419 
Q 3406 3131 3298 2873 
Q 3191 2616 2906 2266 
Q 2828 2175 2409 1742 
Q 1991 1309 1228 531 
z
" transform="scale(0.015625)"/>
       <path id="DejaVuSans-Oblique-4c" d="M 1075 4666 
L 1709 4666 
L 909 525 
L 3181 525 
L 3078 0 
L 172 0 
L 1075 4666 
z
" transform="scale(0.015625)"/>
       <path id="DejaVuSans-Oblique-4f" d="M 2919 4238 
Q 2400 4238 2003 3986 
Q 1606 3734 1313 3219 
Q 1125 2891 1026 2522 
Q 928 2153 928 1778 
Q 928 1128 1239 775 
Q 1550 422 2119 422 
Q 2631 422 3032 676 
Q 3434 931 3719 1434 
Q 3909 1772 4009 2142 
Q 4109 2513 4109 2881 
Q 4109 3528 3796 3883 
Q 3484 4238 2919 4238 
z
M 2100 -91 
Q 1241 -91 748 418 
Q 256 928 256 1813 
Q 256 2319 448 2847 
Q 641 3375 978 3788 
Q 1375 4272 1862 4511 
Q 2350 4750 2938 4750 
Q 3794 4750 4287 4245 
Q 4781 3741 4781 2869 
Q 4781 2331 4593 1812 
Q 4406 1294 4056 872 
Q 3656 384 3173 146 
Q 2691 -91 2100 -91 
z
" transform="scale(0.015625)"/>
       <path id="DejaVuSans-35" d="M 691 4666 
L 3169 4666 
L 3169 4134 
L 1269 4134 
L 1269 2991 
Q 1406 3038 1543 3061 
Q 1681 3084 1819 3084 
Q 2600 3084 3056 2656 
Q 3513 2228 3513 1497 
Q 3513 744 3044 326 
Q 2575 -91 1722 -91 
Q 1428 -91 1123 -41 
Q 819 9 494 109 
L 494 744 
Q 775 591 1075 516 
Q 1375 441 1709 441 
Q 2250 441 2565 725 
Q 2881 1009 2881 1497 
Q 2881 1984 2565 2268 
Q 2250 2553 1709 2553 
Q 1456 2553 1204 2497 
Q 953 2441 691 2322 
L 691 4666 
z
" transform="scale(0.015625)"/>
       <path id="DejaVuSans-Oblique-70" d="M 3175 2156 
Q 3175 2616 2975 2859 
Q 2775 3103 2400 3103 
Q 2144 3103 1911 2972 
Q 1678 2841 1497 2591 
Q 1319 2344 1212 1994 
Q 1106 1644 1106 1300 
Q 1106 863 1306 627 
Q 1506 391 1875 391 
Q 2147 391 2380 519 
Q 2613 647 2778 891 
Q 2956 1147 3065 1494 
Q 3175 1841 3175 2156 
z
M 1394 2969 
Q 1625 3272 1939 3428 
Q 2253 3584 2638 3584 
Q 3175 3584 3472 3232 
Q 3769 2881 3769 2247 
Q 3769 1728 3584 1258 
Q 3400 788 3053 416 
Q 2822 169 2531 39 
Q 2241 -91 1919 -91 
Q 1547 -91 1294 64 
Q 1041 219 916 525 
L 556 -1331 
L -19 -1331 
L 922 3500 
L 1497 3500 
L 1394 2969 
z
" transform="scale(0.015625)"/>
       <path id="DejaVuSans-2e" d="M 684 794 
L 1344 794 
L 1344 0 
L 684 0 
L 684 794 
z
" transform="scale(0.015625)"/>
       <path id="DejaVuSans-39" d="M 703 97 
L 703 672 
Q 941 559 1184 500 
Q 1428 441 1663 441 
Q 2288 441 2617 861 
Q 2947 1281 2994 2138 
Q 2813 1869 2534 1725 
Q 2256 1581 1919 1581 
Q 1219 1581 811 2004 
Q 403 2428 403 3163 
Q 403 3881 828 4315 
Q 1253 4750 1959 4750 
Q 2769 4750 3195 4129 
Q 3622 3509 3622 2328 
Q 3622 1225 3098 567 
Q 2575 -91 1691 -91 
Q 1453 -91 1209 -44 
Q 966 3 703 97 
z
M 1959 2075 
Q 2384 2075 2632 2365 
Q 2881 2656 2881 3163 
Q 2881 3666 2632 3958 
Q 2384 4250 1959 4250 
Q 1534 4250 1286 3958 
Q 1038 3666 1038 3163 
Q 1038 2656 1286 2365 
Q 1534 2075 1959 2075 
z
" transform="scale(0.015625)"/>
       <path id="DejaVuSans-29" d="M 513 4856 
L 1013 4856 
Q 1481 4119 1714 3412 
Q 1947 2706 1947 2009 
Q 1947 1309 1714 600 
Q 1481 -109 1013 -844 
L 513 -844 
Q 928 -128 1133 580 
Q 1338 1288 1338 2009 
Q 1338 2731 1133 3434 
Q 928 4138 513 4856 
z
" transform="scale(0.015625)"/>
      </defs>
      <use xlink:href="#DejaVuSans-28" transform="translate(0 0.125)"/>
      <use xlink:href="#DejaVuSans-Oblique-55" transform="translate(39.013672 0.125)"/>
      <use xlink:href="#DejaVuSans-3d" transform="translate(131.689453 0.125)"/>
      <use xlink:href="#DejaVuSans-31" transform="translate(234.960938 0.125)"/>
      <use xlink:href="#DejaVuSans-30" transform="translate(298.583984 0.125)"/>
      <use xlink:href="#DejaVuSans-2c" transform="translate(362.207031 0.125)"/>
      <use xlink:href="#DejaVuSans-Oblique-6e" transform="translate(413.476562 0.125)"/>
      <use xlink:href="#DejaVuSans-Oblique-48" transform="translate(476.855469 -16.28125) scale(0.7)"/>
      <use xlink:href="#DejaVuSans-Oblique-49" transform="translate(529.492188 -16.28125) scale(0.7)"/>
      <use xlink:href="#DejaVuSans-3d" transform="translate(572.353516 0.125)"/>
      <use xlink:href="#DejaVuSans-32" transform="translate(675.625 0.125)"/>
      <use xlink:href="#DejaVuSans-2c" transform="translate(739.248047 0.125)"/>
      <use xlink:href="#DejaVuSans-Oblique-6e" transform="translate(790.517578 0.125)"/>
      <use xlink:href="#DejaVuSans-Oblique-4c" transform="translate(853.896484 -16.28125) scale(0.7)"/>
      <use xlink:href="#DejaVuSans-Oblique-4f" transform="translate(892.895508 -16.28125) scale(0.7)"/>
      <use xlink:href="#DejaVuSans-3d" transform="translate(970.209961 0.125)"/>
      <use xlink:href="#DejaVuSans-35" transform="translate(1073.481445 0.125)"/>
      <use xlink:href="#DejaVuSans-2c" transform="translate(1137.104492 0.125)"/>
      <use xlink:href="#DejaVuSans-Oblique-70" transform="translate(1188.374023 0.125)"/>
      <use xlink:href="#DejaVuSans-3d" transform="translate(1271.333008 0.125)"/>
      <use xlink:href="#DejaVuSans-2e" transform="translate(1374.604492 0.125)"/>
      <use xlink:href="#DejaVuSans-30" transform="translate(1425.874023 0.125)"/>
      <use xlink:href="#DejaVuSans-39" transform="translate(1489.49707 0.125)"/>
      <use xlink:href="#DejaVuSans-35" transform="translate(1553.120117 0.125)"/>
      <use xlink:href="#DejaVuSans-32" transform="translate(1616.743164 0.125)"/>
      <use xlink:href="#DejaVuSans-29" transform="translate(1680.366211 0.125)"/>
     </g>
    </g>
   </g>
   <g id="matplotlib.axis_2">
    <g id="ytick_1">
     <g id="line2d_1">
      <path d="M 47.518875 281.113758 
L 326.518875 281.113758 
" clip-path="url(#p5c1a957c37)" style="fill: none; stroke: #cccccc; stroke-width: 0.8; stroke-linecap: round"/>
     </g>
     <g id="text_4">
      <!-- 10 -->
      <g style="fill: #262626" transform="translate(24.538 285.837915) scale(0.132 -0.132)">
       <defs>
        <path id="ArialMT-31" d="M 2384 0 
L 1822 0 
L 1822 3584 
Q 1619 3391 1289 3197 
Q 959 3003 697 2906 
L 697 3450 
Q 1169 3672 1522 3987 
Q 1875 4303 2022 4600 
L 2384 4600 
L 2384 0 
z
" transform="scale(0.015625)"/>
        <path id="ArialMT-30" d="M 266 2259 
Q 266 3072 433 3567 
Q 600 4063 929 4331 
Q 1259 4600 1759 4600 
Q 2128 4600 2406 4451 
Q 2684 4303 2865 4023 
Q 3047 3744 3150 3342 
Q 3253 2941 3253 2259 
Q 3253 1453 3087 958 
Q 2922 463 2592 192 
Q 2263 -78 1759 -78 
Q 1097 -78 719 397 
Q 266 969 266 2259 
z
M 844 2259 
Q 844 1131 1108 757 
Q 1372 384 1759 384 
Q 2147 384 2411 759 
Q 2675 1134 2675 2259 
Q 2675 3391 2411 3762 
Q 2147 4134 1753 4134 
Q 1366 4134 1134 3806 
Q 844 3388 844 2259 
z
" transform="scale(0.015625)"/>
       </defs>
       <use xlink:href="#ArialMT-31"/>
       <use xlink:href="#ArialMT-30" x="55.615234"/>
      </g>
     </g>
    </g>
    <g id="ytick_2">
     <g id="line2d_2">
      <path d="M 47.518875 231.574306 
L 326.518875 231.574306 
" clip-path="url(#p5c1a957c37)" style="fill: none; stroke: #cccccc; stroke-width: 0.8; stroke-linecap: round"/>
     </g>
     <g id="text_5">
      <!-- 20 -->
      <g style="fill: #262626" transform="translate(24.538 236.298462) scale(0.132 -0.132)">
       <defs>
        <path id="ArialMT-32" d="M 3222 541 
L 3222 0 
L 194 0 
Q 188 203 259 391 
Q 375 700 629 1000 
Q 884 1300 1366 1694 
Q 2113 2306 2375 2664 
Q 2638 3022 2638 3341 
Q 2638 3675 2398 3904 
Q 2159 4134 1775 4134 
Q 1369 4134 1125 3890 
Q 881 3647 878 3216 
L 300 3275 
Q 359 3922 746 4261 
Q 1134 4600 1788 4600 
Q 2447 4600 2831 4234 
Q 3216 3869 3216 3328 
Q 3216 3053 3103 2787 
Q 2991 2522 2730 2228 
Q 2469 1934 1863 1422 
Q 1356 997 1212 845 
Q 1069 694 975 541 
L 3222 541 
z
" transform="scale(0.015625)"/>
       </defs>
       <use xlink:href="#ArialMT-32"/>
       <use xlink:href="#ArialMT-30" x="55.615234"/>
      </g>
     </g>
    </g>
    <g id="ytick_3">
     <g id="line2d_3">
      <path d="M 47.518875 182.034853 
L 326.518875 182.034853 
" clip-path="url(#p5c1a957c37)" style="fill: none; stroke: #cccccc; stroke-width: 0.8; stroke-linecap: round"/>
     </g>
     <g id="text_6">
      <!-- 30 -->
      <g style="fill: #262626" transform="translate(24.538 186.759009) scale(0.132 -0.132)">
       <defs>
        <path id="ArialMT-33" d="M 269 1209 
L 831 1284 
Q 928 806 1161 595 
Q 1394 384 1728 384 
Q 2125 384 2398 659 
Q 2672 934 2672 1341 
Q 2672 1728 2419 1979 
Q 2166 2231 1775 2231 
Q 1616 2231 1378 2169 
L 1441 2663 
Q 1497 2656 1531 2656 
Q 1891 2656 2178 2843 
Q 2466 3031 2466 3422 
Q 2466 3731 2256 3934 
Q 2047 4138 1716 4138 
Q 1388 4138 1169 3931 
Q 950 3725 888 3313 
L 325 3413 
Q 428 3978 793 4289 
Q 1159 4600 1703 4600 
Q 2078 4600 2393 4439 
Q 2709 4278 2876 4000 
Q 3044 3722 3044 3409 
Q 3044 3113 2884 2869 
Q 2725 2625 2413 2481 
Q 2819 2388 3044 2092 
Q 3269 1797 3269 1353 
Q 3269 753 2831 336 
Q 2394 -81 1725 -81 
Q 1122 -81 723 278 
Q 325 638 269 1209 
z
" transform="scale(0.015625)"/>
       </defs>
       <use xlink:href="#ArialMT-33"/>
       <use xlink:href="#ArialMT-30" x="55.615234"/>
      </g>
     </g>
    </g>
    <g id="ytick_4">
     <g id="line2d_4">
      <path d="M 47.518875 132.4954 
L 326.518875 132.4954 
" clip-path="url(#p5c1a957c37)" style="fill: none; stroke: #cccccc; stroke-width: 0.8; stroke-linecap: round"/>
     </g>
     <g id="text_7">
      <!-- 40 -->
      <g style="fill: #262626" transform="translate(24.538 137.219557) scale(0.132 -0.132)">
       <defs>
        <path id="ArialMT-34" d="M 2069 0 
L 2069 1097 
L 81 1097 
L 81 1613 
L 2172 4581 
L 2631 4581 
L 2631 1613 
L 3250 1613 
L 3250 1097 
L 2631 1097 
L 2631 0 
L 2069 0 
z
M 2069 1613 
L 2069 3678 
L 634 1613 
L 2069 1613 
z
" transform="scale(0.015625)"/>
       </defs>
       <use xlink:href="#ArialMT-34"/>
       <use xlink:href="#ArialMT-30" x="55.615234"/>
      </g>
     </g>
    </g>
    <g id="ytick_5">
     <g id="line2d_5">
      <path d="M 47.518875 82.955948 
L 326.518875 82.955948 
" clip-path="url(#p5c1a957c37)" style="fill: none; stroke: #cccccc; stroke-width: 0.8; stroke-linecap: round"/>
     </g>
     <g id="text_8">
      <!-- 50 -->
      <g style="fill: #262626" transform="translate(24.538 87.680104) scale(0.132 -0.132)">
       <defs>
        <path id="ArialMT-35" d="M 266 1200 
L 856 1250 
Q 922 819 1161 601 
Q 1400 384 1738 384 
Q 2144 384 2425 690 
Q 2706 997 2706 1503 
Q 2706 1984 2436 2262 
Q 2166 2541 1728 2541 
Q 1456 2541 1237 2417 
Q 1019 2294 894 2097 
L 366 2166 
L 809 4519 
L 3088 4519 
L 3088 3981 
L 1259 3981 
L 1013 2750 
Q 1425 3038 1878 3038 
Q 2478 3038 2890 2622 
Q 3303 2206 3303 1553 
Q 3303 931 2941 478 
Q 2500 -78 1738 -78 
Q 1113 -78 717 272 
Q 322 622 266 1200 
z
" transform="scale(0.015625)"/>
       </defs>
       <use xlink:href="#ArialMT-35"/>
       <use xlink:href="#ArialMT-30" x="55.615234"/>
      </g>
     </g>
    </g>
    <g id="text_9">
     <!-- query_len_sum -->
     <g style="fill: #262626" transform="translate(17.50725 231.0255) rotate(-90) scale(0.144 -0.144)">
      <defs>
       <path id="ArialMT-71" d="M 2538 -1272 
L 2538 353 
Q 2406 169 2170 47 
Q 1934 -75 1669 -75 
Q 1078 -75 651 397 
Q 225 869 225 1691 
Q 225 2191 398 2587 
Q 572 2984 901 3189 
Q 1231 3394 1625 3394 
Q 2241 3394 2594 2875 
L 2594 3319 
L 3100 3319 
L 3100 -1272 
L 2538 -1272 
z
M 803 1669 
Q 803 1028 1072 708 
Q 1341 388 1716 388 
Q 2075 388 2334 692 
Q 2594 997 2594 1619 
Q 2594 2281 2320 2615 
Q 2047 2950 1678 2950 
Q 1313 2950 1058 2639 
Q 803 2328 803 1669 
z
" transform="scale(0.015625)"/>
       <path id="ArialMT-75" d="M 2597 0 
L 2597 488 
Q 2209 -75 1544 -75 
Q 1250 -75 995 37 
Q 741 150 617 320 
Q 494 491 444 738 
Q 409 903 409 1263 
L 409 3319 
L 972 3319 
L 972 1478 
Q 972 1038 1006 884 
Q 1059 663 1231 536 
Q 1403 409 1656 409 
Q 1909 409 2131 539 
Q 2353 669 2445 892 
Q 2538 1116 2538 1541 
L 2538 3319 
L 3100 3319 
L 3100 0 
L 2597 0 
z
" transform="scale(0.015625)"/>
       <path id="ArialMT-79" d="M 397 -1278 
L 334 -750 
Q 519 -800 656 -800 
Q 844 -800 956 -737 
Q 1069 -675 1141 -563 
Q 1194 -478 1313 -144 
Q 1328 -97 1363 -6 
L 103 3319 
L 709 3319 
L 1400 1397 
Q 1534 1031 1641 628 
Q 1738 1016 1872 1384 
L 2581 3319 
L 3144 3319 
L 1881 -56 
Q 1678 -603 1566 -809 
Q 1416 -1088 1222 -1217 
Q 1028 -1347 759 -1347 
Q 597 -1347 397 -1278 
z
" transform="scale(0.015625)"/>
       <path id="ArialMT-5f" d="M -97 -1272 
L -97 -866 
L 3631 -866 
L 3631 -1272 
L -97 -1272 
z
" transform="scale(0.015625)"/>
       <path id="ArialMT-6e" d="M 422 0 
L 422 3319 
L 928 3319 
L 928 2847 
Q 1294 3394 1984 3394 
Q 2284 3394 2536 3286 
Q 2788 3178 2913 3003 
Q 3038 2828 3088 2588 
Q 3119 2431 3119 2041 
L 3119 0 
L 2556 0 
L 2556 2019 
Q 2556 2363 2490 2533 
Q 2425 2703 2258 2804 
Q 2091 2906 1866 2906 
Q 1506 2906 1245 2678 
Q 984 2450 984 1813 
L 984 0 
L 422 0 
z
" transform="scale(0.015625)"/>
       <path id="ArialMT-73" d="M 197 991 
L 753 1078 
Q 800 744 1014 566 
Q 1228 388 1613 388 
Q 2000 388 2187 545 
Q 2375 703 2375 916 
Q 2375 1106 2209 1216 
Q 2094 1291 1634 1406 
Q 1016 1563 777 1677 
Q 538 1791 414 1992 
Q 291 2194 291 2438 
Q 291 2659 392 2848 
Q 494 3038 669 3163 
Q 800 3259 1026 3326 
Q 1253 3394 1513 3394 
Q 1903 3394 2198 3281 
Q 2494 3169 2634 2976 
Q 2775 2784 2828 2463 
L 2278 2388 
Q 2241 2644 2061 2787 
Q 1881 2931 1553 2931 
Q 1166 2931 1000 2803 
Q 834 2675 834 2503 
Q 834 2394 903 2306 
Q 972 2216 1119 2156 
Q 1203 2125 1616 2013 
Q 2213 1853 2448 1751 
Q 2684 1650 2818 1456 
Q 2953 1263 2953 975 
Q 2953 694 2789 445 
Q 2625 197 2315 61 
Q 2006 -75 1616 -75 
Q 969 -75 630 194 
Q 291 463 197 991 
z
" transform="scale(0.015625)"/>
      </defs>
      <use xlink:href="#ArialMT-71"/>
      <use xlink:href="#ArialMT-75" x="55.615234"/>
      <use xlink:href="#ArialMT-65" x="111.230469"/>
      <use xlink:href="#ArialMT-72" x="166.845703"/>
      <use xlink:href="#ArialMT-79" x="200.146484"/>
      <use xlink:href="#ArialMT-5f" x="250.146484"/>
      <use xlink:href="#ArialMT-6c" x="305.761719"/>
      <use xlink:href="#ArialMT-65" x="327.978516"/>
      <use xlink:href="#ArialMT-6e" x="383.59375"/>
      <use xlink:href="#ArialMT-5f" x="439.208984"/>
      <use xlink:href="#ArialMT-73" x="494.824219"/>
      <use xlink:href="#ArialMT-75" x="544.824219"/>
      <use xlink:href="#ArialMT-6d" x="600.439453"/>
     </g>
    </g>
   </g>
   <g id="PolyCollection_1">
    <defs>
     <path id="m1726fef76a" d="M 119.540753 -77.982102 
L 114.996997 -77.982102 
L 114.596893 -80.482261 
L 114.142811 -82.98242 
L 113.630713 -85.482579 
L 113.05686 -87.982738 
L 112.417936 -90.482898 
L 111.711189 -92.983057 
L 110.93457 -95.483216 
L 110.086875 -97.983375 
L 109.167888 -100.483534 
L 108.178507 -102.983694 
L 107.120859 -105.483853 
L 105.998403 -107.984012 
L 104.815997 -110.484171 
L 103.579944 -112.98433 
L 102.297998 -115.48449 
L 100.979339 -117.984649 
L 99.634504 -120.484808 
L 98.275276 -122.984967 
L 96.914531 -125.485126 
L 95.566057 -127.985286 
L 94.244319 -130.485445 
L 92.964203 -132.985604 
L 91.740738 -135.485763 
L 90.588785 -137.985922 
L 89.522735 -140.486082 
L 88.556186 -142.986241 
L 87.701644 -145.4864 
L 86.970232 -147.986559 
L 86.371428 -150.486718 
L 85.912834 -152.986878 
L 85.599994 -155.487037 
L 85.436248 -157.987196 
L 85.422649 -160.487355 
L 85.557924 -162.987514 
L 85.8385 -165.487674 
L 86.258573 -167.987833 
L 86.810244 -170.487992 
L 87.483687 -172.988151 
L 88.267368 -175.48831 
L 89.148305 -177.98847 
L 90.112343 -180.488629 
L 91.144462 -182.988788 
L 92.229091 -185.488947 
L 93.35043 -187.989106 
L 94.492766 -190.489266 
L 95.640777 -192.989425 
L 96.779823 -195.489584 
L 97.896203 -197.989743 
L 98.977392 -200.489902 
L 100.012244 -202.990062 
L 100.991146 -205.490221 
L 101.906151 -207.99038 
L 102.751053 -210.490539 
L 103.521436 -212.990698 
L 104.214672 -215.490858 
L 104.829884 -217.991017 
L 105.367877 -220.491176 
L 105.831027 -222.991335 
L 106.223146 -225.491494 
L 106.549316 -227.991654 
L 106.815707 -230.491813 
L 107.029373 -232.991972 
L 107.198038 -235.492131 
L 107.329876 -237.99229 
L 107.43329 -240.49245 
L 107.516695 -242.992609 
L 107.588312 -245.492768 
L 107.655972 -247.992927 
L 107.726947 -250.493086 
L 107.807795 -252.993246 
L 107.904239 -255.493405 
L 108.02107 -257.993564 
L 108.162079 -260.493723 
L 108.330026 -262.993882 
L 108.52663 -265.494042 
L 108.752596 -267.994201 
L 109.007666 -270.49436 
L 109.290691 -272.994519 
L 109.599729 -275.494678 
L 109.932154 -277.994838 
L 110.284778 -280.494997 
L 110.653983 -282.995156 
L 111.035851 -285.495315 
L 111.426298 -287.995474 
L 111.821195 -290.495634 
L 112.216483 -292.995793 
L 112.608279 -295.495952 
L 112.992962 -297.996111 
L 113.367246 -300.49627 
L 113.728234 -302.99643 
L 114.073458 -305.496589 
L 114.4009 -307.996748 
L 114.708997 -310.496907 
L 114.996637 -312.997066 
L 115.263134 -315.497226 
L 115.508201 -317.997385 
L 115.731913 -320.497544 
L 115.934663 -322.997703 
L 116.117114 -325.497863 
L 118.420636 -325.497863 
L 118.420636 -325.497863 
L 118.603087 -322.997703 
L 118.805837 -320.497544 
L 119.029549 -317.997385 
L 119.274616 -315.497226 
L 119.541113 -312.997066 
L 119.828753 -310.496907 
L 120.13685 -307.996748 
L 120.464292 -305.496589 
L 120.809516 -302.99643 
L 121.170504 -300.49627 
L 121.544788 -297.996111 
L 121.929471 -295.495952 
L 122.321267 -292.995793 
L 122.716555 -290.495634 
L 123.111452 -287.995474 
L 123.501899 -285.495315 
L 123.883767 -282.995156 
L 124.252972 -280.494997 
L 124.605596 -277.994838 
L 124.938021 -275.494678 
L 125.247059 -272.994519 
L 125.530084 -270.49436 
L 125.785154 -267.994201 
L 126.01112 -265.494042 
L 126.207724 -262.993882 
L 126.375671 -260.493723 
L 126.51668 -257.993564 
L 126.633511 -255.493405 
L 126.729955 -252.993246 
L 126.810803 -250.493086 
L 126.881778 -247.992927 
L 126.949438 -245.492768 
L 127.021055 -242.992609 
L 127.10446 -240.49245 
L 127.207874 -237.99229 
L 127.339712 -235.492131 
L 127.508377 -232.991972 
L 127.722043 -230.491813 
L 127.988434 -227.991654 
L 128.314604 -225.491494 
L 128.706723 -222.991335 
L 129.169873 -220.491176 
L 129.707866 -217.991017 
L 130.323078 -215.490858 
L 131.016314 -212.990698 
L 131.786697 -210.490539 
L 132.631599 -207.99038 
L 133.546604 -205.490221 
L 134.525506 -202.990062 
L 135.560358 -200.489902 
L 136.641547 -197.989743 
L 137.757927 -195.489584 
L 138.896973 -192.989425 
L 140.044984 -190.489266 
L 141.18732 -187.989106 
L 142.308659 -185.488947 
L 143.393288 -182.988788 
L 144.425407 -180.488629 
L 145.389445 -177.98847 
L 146.270382 -175.48831 
L 147.054063 -172.988151 
L 147.727506 -170.487992 
L 148.279177 -167.987833 
L 148.69925 -165.487674 
L 148.979826 -162.987514 
L 149.115101 -160.487355 
L 149.101502 -157.987196 
L 148.937756 -155.487037 
L 148.624916 -152.986878 
L 148.166322 -150.486718 
L 147.567518 -147.986559 
L 146.836106 -145.4864 
L 145.981564 -142.986241 
L 145.015015 -140.486082 
L 143.948965 -137.985922 
L 142.797012 -135.485763 
L 141.573547 -132.985604 
L 140.293431 -130.485445 
L 138.971693 -127.985286 
L 137.623219 -125.485126 
L 136.262474 -122.984967 
L 134.903246 -120.484808 
L 133.558411 -117.984649 
L 132.239752 -115.48449 
L 130.957806 -112.98433 
L 129.721753 -110.484171 
L 128.539347 -107.984012 
L 127.416891 -105.483853 
L 126.359243 -102.983694 
L 125.369862 -100.483534 
L 124.450875 -97.983375 
L 123.60318 -95.483216 
L 122.826561 -92.983057 
L 122.119814 -90.482898 
L 121.48089 -87.982738 
L 120.907037 -85.482579 
L 120.394939 -82.98242 
L 119.940857 -80.482261 
L 119.540753 -77.982102 
z
" style="stroke: #3f3f3f; stroke-width: 1.2"/>
    </defs>
    <g clip-path="url(#p5c1a957c37)">
     <use xlink:href="#m1726fef76a" x="0" y="381.297862" style="fill: #3274a1; stroke: #3f3f3f; stroke-width: 1.2"/>
    </g>
   </g>
   <g id="PolyCollection_2">
    <defs>
     <path id="m3dd7186f04" d="M 262.075526 -73.497862 
L 251.462224 -73.497862 
L 250.827352 -74.537377 
L 250.137334 -75.576892 
L 249.390267 -76.616406 
L 248.584569 -77.655921 
L 247.719024 -78.695435 
L 246.792835 -79.73495 
L 245.805668 -80.774464 
L 244.757694 -81.813979 
L 243.649627 -82.853493 
L 242.482749 -83.893008 
L 241.258939 -84.932522 
L 239.980684 -85.972037 
L 238.651083 -87.011551 
L 237.273843 -88.051066 
L 235.85326 -89.09058 
L 234.394192 -90.130095 
L 232.902022 -91.169609 
L 231.382603 -92.209124 
L 229.842203 -93.248638 
L 228.28743 -94.288153 
L 226.725157 -95.327667 
L 225.162437 -96.367182 
L 223.606408 -97.406696 
L 222.064205 -98.446211 
L 220.542863 -99.485725 
L 219.049223 -100.52524 
L 217.589844 -101.564754 
L 216.170916 -102.604269 
L 214.798187 -103.643783 
L 213.476895 -104.683298 
L 212.211713 -105.722812 
L 211.006711 -106.762327 
L 209.865325 -107.801841 
L 208.790351 -108.841356 
L 207.783944 -109.88087 
L 206.847641 -110.920385 
L 205.982394 -111.959899 
L 205.188617 -112.999414 
L 204.466246 -114.038928 
L 203.814811 -115.078443 
L 203.23351 -116.117957 
L 202.721296 -117.157472 
L 202.27696 -118.196986 
L 201.899216 -119.236501 
L 201.586785 -120.276015 
L 201.338472 -121.31553 
L 201.153232 -122.355044 
L 201.030227 -123.394559 
L 200.968875 -124.434073 
L 200.968875 -125.473588 
L 201.030227 -126.513102 
L 201.153232 -127.552617 
L 201.338472 -128.592131 
L 201.586785 -129.631646 
L 201.899216 -130.67116 
L 202.27696 -131.710675 
L 202.721296 -132.750189 
L 203.23351 -133.789704 
L 203.814811 -134.829218 
L 204.466246 -135.868733 
L 205.188617 -136.908247 
L 205.982394 -137.947762 
L 206.847641 -138.987276 
L 207.783944 -140.026791 
L 208.790351 -141.066305 
L 209.865325 -142.10582 
L 211.006711 -143.145334 
L 212.211713 -144.184849 
L 213.476895 -145.224363 
L 214.798187 -146.263878 
L 216.170916 -147.303392 
L 217.589844 -148.342907 
L 219.049223 -149.382421 
L 220.542863 -150.421936 
L 222.064205 -151.46145 
L 223.606408 -152.500965 
L 225.162437 -153.540479 
L 226.725157 -154.579994 
L 228.28743 -155.619508 
L 229.842203 -156.659023 
L 231.382603 -157.698537 
L 232.902022 -158.738052 
L 234.394192 -159.777566 
L 235.85326 -160.817081 
L 237.273843 -161.856595 
L 238.651083 -162.89611 
L 239.980684 -163.935624 
L 241.258939 -164.975139 
L 242.482749 -166.014653 
L 243.649627 -167.054168 
L 244.757694 -168.093682 
L 245.805668 -169.133197 
L 246.792835 -170.172711 
L 247.719024 -171.212226 
L 248.584569 -172.25174 
L 249.390267 -173.291255 
L 250.137334 -174.330769 
L 250.827352 -175.370284 
L 251.462224 -176.409798 
L 262.075526 -176.409798 
L 262.075526 -176.409798 
L 262.710398 -175.370284 
L 263.400416 -174.330769 
L 264.147483 -173.291255 
L 264.953181 -172.25174 
L 265.818726 -171.212226 
L 266.744915 -170.172711 
L 267.732082 -169.133197 
L 268.780056 -168.093682 
L 269.888123 -167.054168 
L 271.055001 -166.014653 
L 272.278811 -164.975139 
L 273.557066 -163.935624 
L 274.886667 -162.89611 
L 276.263907 -161.856595 
L 277.68449 -160.817081 
L 279.143558 -159.777566 
L 280.635728 -158.738052 
L 282.155147 -157.698537 
L 283.695547 -156.659023 
L 285.25032 -155.619508 
L 286.812593 -154.579994 
L 288.375313 -153.540479 
L 289.931342 -152.500965 
L 291.473545 -151.46145 
L 292.994887 -150.421936 
L 294.488527 -149.382421 
L 295.947906 -148.342907 
L 297.366834 -147.303392 
L 298.739563 -146.263878 
L 300.060855 -145.224363 
L 301.326037 -144.184849 
L 302.531039 -143.145334 
L 303.672425 -142.10582 
L 304.747399 -141.066305 
L 305.753806 -140.026791 
L 306.690109 -138.987276 
L 307.555356 -137.947762 
L 308.349133 -136.908247 
L 309.071504 -135.868733 
L 309.722939 -134.829218 
L 310.30424 -133.789704 
L 310.816454 -132.750189 
L 311.26079 -131.710675 
L 311.638534 -130.67116 
L 311.950965 -129.631646 
L 312.199278 -128.592131 
L 312.384518 -127.552617 
L 312.507523 -126.513102 
L 312.568875 -125.473588 
L 312.568875 -124.434073 
L 312.507523 -123.394559 
L 312.384518 -122.355044 
L 312.199278 -121.31553 
L 311.950965 -120.276015 
L 311.638534 -119.236501 
L 311.26079 -118.196986 
L 310.816454 -117.157472 
L 310.30424 -116.117957 
L 309.722939 -115.078443 
L 309.071504 -114.038928 
L 308.349133 -112.999414 
L 307.555356 -111.959899 
L 306.690109 -110.920385 
L 305.753806 -109.88087 
L 304.747399 -108.841356 
L 303.672425 -107.801841 
L 302.531039 -106.762327 
L 301.326037 -105.722812 
L 300.060855 -104.683298 
L 298.739563 -103.643783 
L 297.366834 -102.604269 
L 295.947906 -101.564754 
L 294.488527 -100.52524 
L 292.994887 -99.485725 
L 291.473545 -98.446211 
L 289.931342 -97.406696 
L 288.375313 -96.367182 
L 286.812593 -95.327667 
L 285.25032 -94.288153 
L 283.695547 -93.248638 
L 282.155147 -92.209124 
L 280.635728 -91.169609 
L 279.143558 -90.130095 
L 277.68449 -89.09058 
L 276.263907 -88.051066 
L 274.886667 -87.011551 
L 273.557066 -85.972037 
L 272.278811 -84.932522 
L 271.055001 -83.893008 
L 269.888123 -82.853493 
L 268.780056 -81.813979 
L 267.732082 -80.774464 
L 266.744915 -79.73495 
L 265.818726 -78.695435 
L 264.953181 -77.655921 
L 264.147483 -76.616406 
L 263.400416 -75.576892 
L 262.710398 -74.537377 
L 262.075526 -73.497862 
z
" style="stroke: #3f3f3f; stroke-width: 1.2"/>
    </defs>
    <g clip-path="url(#p5c1a957c37)">
     <use xlink:href="#m3dd7186f04" x="0" y="381.297862" style="fill: #e1812c; stroke: #3f3f3f; stroke-width: 1.2"/>
    </g>
   </g>
   <g id="line2d_6">
    <path d="M 117.268875 236.528251 
L 117.268875 201.850634 
" clip-path="url(#p5c1a957c37)" style="fill: none; stroke: #3f3f3f; stroke-width: 1.2; stroke-linecap: round"/>
   </g>
   <g id="line2d_7">
    <path d="M 117.268875 226.62036 
L 117.268875 201.850634 
" clip-path="url(#p5c1a957c37)" style="fill: none; stroke: #3f3f3f; stroke-width: 3.6; stroke-linecap: round"/>
   </g>
   <g id="line2d_8">
    <path d="M 256.768875 271.205868 
L 256.768875 241.482196 
" clip-path="url(#p5c1a957c37)" style="fill: none; stroke: #3f3f3f; stroke-width: 1.2; stroke-linecap: round"/>
   </g>
   <g id="line2d_9">
    <path d="M 256.768875 263.77495 
L 256.768875 248.913114 
" clip-path="url(#p5c1a957c37)" style="fill: none; stroke: #3f3f3f; stroke-width: 3.6; stroke-linecap: round"/>
   </g>
   <g id="patch_3">
    <path d="M 47.518875 320.4 
L 47.518875 43.2 
" style="fill: none; stroke: #cccccc; stroke-linejoin: miter; stroke-linecap: square"/>
   </g>
   <g id="patch_4">
    <path d="M 47.518875 320.4 
L 326.518875 320.4 
" style="fill: none; stroke: #cccccc; stroke-linejoin: miter; stroke-linecap: square"/>
   </g>
   <g id="PathCollection_1">
    <defs>
     <path id="md353c230e5" d="M 0 1.2 
C 0.318244 1.2 0.623496 1.07356 0.848528 0.848528 
C 1.07356 0.623496 1.2 0.318244 1.2 0 
C 1.2 -0.318244 1.07356 -0.623496 0.848528 -0.848528 
C 0.623496 -1.07356 0.318244 -1.2 0 -1.2 
C -0.318244 -1.2 -0.623496 -1.07356 -0.848528 -0.848528 
C -1.07356 -0.623496 -1.2 -0.318244 -1.2 0 
C -1.2 0.318244 -1.07356 0.623496 -0.848528 0.848528 
C -0.623496 1.07356 -0.318244 1.2 0 1.2 
z
" style="stroke: #3f3f3f; stroke-width: 0.8"/>
    </defs>
    <g clip-path="url(#p5c1a957c37)">
     <use xlink:href="#md353c230e5" x="117.268875" y="221.666415" style="fill: #ffffff; stroke: #3f3f3f; stroke-width: 0.8"/>
    </g>
   </g>
   <g id="PathCollection_2">
    <g clip-path="url(#p5c1a957c37)">
     <use xlink:href="#md353c230e5" x="256.768875" y="256.344032" style="fill: #ffffff; stroke: #3f3f3f; stroke-width: 0.8"/>
    </g>
   </g>
  </g>
  <g id="text_10">
   <!-- Query Length Total - - PHASE2A Task(s) -->
   <g style="fill: #262626" transform="translate(29.651625 19.7901) scale(0.1728 -0.1728)">
    <defs>
     <path id="ArialMT-51" d="M 3966 491 
Q 4388 200 4744 66 
L 4566 -356 
Q 4072 -178 3581 206 
Q 3072 -78 2456 -78 
Q 1834 -78 1328 222 
Q 822 522 548 1065 
Q 275 1609 275 2291 
Q 275 2969 550 3525 
Q 825 4081 1333 4372 
Q 1841 4663 2469 4663 
Q 3103 4663 3612 4361 
Q 4122 4059 4389 3517 
Q 4656 2975 4656 2294 
Q 4656 1728 4484 1276 
Q 4313 825 3966 491 
z
M 2631 1266 
Q 3156 1119 3497 828 
Q 4031 1316 4031 2294 
Q 4031 2850 3842 3265 
Q 3653 3681 3289 3911 
Q 2925 4141 2472 4141 
Q 1794 4141 1347 3677 
Q 900 3213 900 2291 
Q 900 1397 1342 919 
Q 1784 441 2472 441 
Q 2797 441 3084 563 
Q 2800 747 2484 825 
L 2631 1266 
z
" transform="scale(0.015625)"/>
     <path id="ArialMT-67" d="M 319 -275 
L 866 -356 
Q 900 -609 1056 -725 
Q 1266 -881 1628 -881 
Q 2019 -881 2231 -725 
Q 2444 -569 2519 -288 
Q 2563 -116 2559 434 
Q 2191 0 1641 0 
Q 956 0 581 494 
Q 206 988 206 1678 
Q 206 2153 378 2554 
Q 550 2956 876 3175 
Q 1203 3394 1644 3394 
Q 2231 3394 2613 2919 
L 2613 3319 
L 3131 3319 
L 3131 450 
Q 3131 -325 2973 -648 
Q 2816 -972 2473 -1159 
Q 2131 -1347 1631 -1347 
Q 1038 -1347 672 -1080 
Q 306 -813 319 -275 
z
M 784 1719 
Q 784 1066 1043 766 
Q 1303 466 1694 466 
Q 2081 466 2343 764 
Q 2606 1063 2606 1700 
Q 2606 2309 2336 2618 
Q 2066 2928 1684 2928 
Q 1309 2928 1046 2623 
Q 784 2319 784 1719 
z
" transform="scale(0.015625)"/>
     <path id="ArialMT-74" d="M 1650 503 
L 1731 6 
Q 1494 -44 1306 -44 
Q 1000 -44 831 53 
Q 663 150 594 308 
Q 525 466 525 972 
L 525 2881 
L 113 2881 
L 113 3319 
L 525 3319 
L 525 4141 
L 1084 4478 
L 1084 3319 
L 1650 3319 
L 1650 2881 
L 1084 2881 
L 1084 941 
Q 1084 700 1114 631 
Q 1144 563 1211 522 
Q 1278 481 1403 481 
Q 1497 481 1650 503 
z
" transform="scale(0.015625)"/>
     <path id="ArialMT-68" d="M 422 0 
L 422 4581 
L 984 4581 
L 984 2938 
Q 1378 3394 1978 3394 
Q 2347 3394 2619 3248 
Q 2891 3103 3008 2847 
Q 3125 2591 3125 2103 
L 3125 0 
L 2563 0 
L 2563 2103 
Q 2563 2525 2380 2717 
Q 2197 2909 1863 2909 
Q 1613 2909 1392 2779 
Q 1172 2650 1078 2428 
Q 984 2206 984 1816 
L 984 0 
L 422 0 
z
" transform="scale(0.015625)"/>
     <path id="ArialMT-54" d="M 1659 0 
L 1659 4041 
L 150 4041 
L 150 4581 
L 3781 4581 
L 3781 4041 
L 2266 4041 
L 2266 0 
L 1659 0 
z
" transform="scale(0.015625)"/>
     <path id="ArialMT-2d" d="M 203 1375 
L 203 1941 
L 1931 1941 
L 1931 1375 
L 203 1375 
z
" transform="scale(0.015625)"/>
     <path id="ArialMT-41" d="M -9 0 
L 1750 4581 
L 2403 4581 
L 4278 0 
L 3588 0 
L 3053 1388 
L 1138 1388 
L 634 0 
L -9 0 
z
M 1313 1881 
L 2866 1881 
L 2388 3150 
Q 2169 3728 2063 4100 
Q 1975 3659 1816 3225 
L 1313 1881 
z
" transform="scale(0.015625)"/>
     <path id="ArialMT-53" d="M 288 1472 
L 859 1522 
Q 900 1178 1048 958 
Q 1197 738 1509 602 
Q 1822 466 2213 466 
Q 2559 466 2825 569 
Q 3091 672 3220 851 
Q 3350 1031 3350 1244 
Q 3350 1459 3225 1620 
Q 3100 1781 2813 1891 
Q 2628 1963 1997 2114 
Q 1366 2266 1113 2400 
Q 784 2572 623 2826 
Q 463 3081 463 3397 
Q 463 3744 659 4045 
Q 856 4347 1234 4503 
Q 1613 4659 2075 4659 
Q 2584 4659 2973 4495 
Q 3363 4331 3572 4012 
Q 3781 3694 3797 3291 
L 3216 3247 
Q 3169 3681 2898 3903 
Q 2628 4125 2100 4125 
Q 1550 4125 1298 3923 
Q 1047 3722 1047 3438 
Q 1047 3191 1225 3031 
Q 1400 2872 2139 2705 
Q 2878 2538 3153 2413 
Q 3553 2228 3743 1945 
Q 3934 1663 3934 1294 
Q 3934 928 3725 604 
Q 3516 281 3123 101 
Q 2731 -78 2241 -78 
Q 1619 -78 1198 103 
Q 778 284 539 648 
Q 300 1013 288 1472 
z
" transform="scale(0.015625)"/>
     <path id="ArialMT-45" d="M 506 0 
L 506 4581 
L 3819 4581 
L 3819 4041 
L 1113 4041 
L 1113 2638 
L 3647 2638 
L 3647 2100 
L 1113 2100 
L 1113 541 
L 3925 541 
L 3925 0 
L 506 0 
z
" transform="scale(0.015625)"/>
     <path id="ArialMT-6b" d="M 425 0 
L 425 4581 
L 988 4581 
L 988 1969 
L 2319 3319 
L 3047 3319 
L 1778 2088 
L 3175 0 
L 2481 0 
L 1384 1697 
L 988 1316 
L 988 0 
L 425 0 
z
" transform="scale(0.015625)"/>
     <path id="ArialMT-28" d="M 1497 -1347 
Q 1031 -759 709 28 
Q 388 816 388 1659 
Q 388 2403 628 3084 
Q 909 3875 1497 4659 
L 1900 4659 
Q 1522 4009 1400 3731 
Q 1209 3300 1100 2831 
Q 966 2247 966 1656 
Q 966 153 1900 -1347 
L 1497 -1347 
z
" transform="scale(0.015625)"/>
     <path id="ArialMT-29" d="M 791 -1347 
L 388 -1347 
Q 1322 153 1322 1656 
Q 1322 2244 1188 2822 
Q 1081 3291 891 3722 
Q 769 4003 388 4659 
L 791 4659 
Q 1378 3875 1659 3084 
Q 1900 2403 1900 1659 
Q 1900 816 1576 28 
Q 1253 -759 791 -1347 
z
" transform="scale(0.015625)"/>
    </defs>
    <use xlink:href="#ArialMT-51"/>
    <use xlink:href="#ArialMT-75" x="77.783203"/>
    <use xlink:href="#ArialMT-65" x="133.398438"/>
    <use xlink:href="#ArialMT-72" x="189.013672"/>
    <use xlink:href="#ArialMT-79" x="222.314453"/>
    <use xlink:href="#ArialMT-20" x="272.314453"/>
    <use xlink:href="#ArialMT-4c" x="300.097656"/>
    <use xlink:href="#ArialMT-65" x="355.712891"/>
    <use xlink:href="#ArialMT-6e" x="411.328125"/>
    <use xlink:href="#ArialMT-67" x="466.943359"/>
    <use xlink:href="#ArialMT-74" x="522.558594"/>
    <use xlink:href="#ArialMT-68" x="550.341797"/>
    <use xlink:href="#ArialMT-20" x="605.957031"/>
    <use xlink:href="#ArialMT-54" x="631.990234"/>
    <use xlink:href="#ArialMT-6f" x="681.949219"/>
    <use xlink:href="#ArialMT-74" x="737.564453"/>
    <use xlink:href="#ArialMT-61" x="765.347656"/>
    <use xlink:href="#ArialMT-6c" x="820.962891"/>
    <use xlink:href="#ArialMT-20" x="843.179688"/>
    <use xlink:href="#ArialMT-2d" x="870.962891"/>
    <use xlink:href="#ArialMT-2d" x="904.263672"/>
    <use xlink:href="#ArialMT-20" x="937.564453"/>
    <use xlink:href="#ArialMT-50" x="965.347656"/>
    <use xlink:href="#ArialMT-48" x="1032.046875"/>
    <use xlink:href="#ArialMT-41" x="1104.263672"/>
    <use xlink:href="#ArialMT-53" x="1170.962891"/>
    <use xlink:href="#ArialMT-45" x="1237.662109"/>
    <use xlink:href="#ArialMT-32" x="1304.361328"/>
    <use xlink:href="#ArialMT-41" x="1359.976562"/>
    <use xlink:href="#ArialMT-20" x="1421.175781"/>
    <use xlink:href="#ArialMT-54" x="1447.208984"/>
    <use xlink:href="#ArialMT-61" x="1497.167969"/>
    <use xlink:href="#ArialMT-73" x="1552.783203"/>
    <use xlink:href="#ArialMT-6b" x="1602.783203"/>
    <use xlink:href="#ArialMT-28" x="1652.783203"/>
    <use xlink:href="#ArialMT-73" x="1686.083984"/>
    <use xlink:href="#ArialMT-29" x="1736.083984"/>
   </g>
  </g>
 </g>
 <defs>
  <clipPath id="p5c1a957c37">
   <rect x="47.518875" y="43.2" width="279" height="277.2"/>
  </clipPath>
 </defs>
</svg>
