<?xml version="1.0" encoding="utf-8" standalone="no"?>
<!DOCTYPE svg PUBLIC "-//W3C//DTD SVG 1.1//EN"
  "http://www.w3.org/Graphics/SVG/1.1/DTD/svg11.dtd">
<svg xmlns:xlink="http://www.w3.org/1999/xlink" width="895.21725pt" height="543.059375pt" viewBox="0 0 895.21725 543.059375" xmlns="http://www.w3.org/2000/svg" version="1.1">
 <metadata>
  <rdf:RDF xmlns:dc="http://purl.org/dc/elements/1.1/" xmlns:cc="http://creativecommons.org/ns#" xmlns:rdf="http://www.w3.org/1999/02/22-rdf-syntax-ns#">
   <cc:Work>
    <dc:type rdf:resource="http://purl.org/dc/dcmitype/StillImage"/>
    <dc:date>2023-02-22T16:35:30.493061</dc:date>
    <dc:format>image/svg+xml</dc:format>
    <dc:creator>
     <cc:Agent>
      <dc:title>Matplotlib v3.6.3, https://matplotlib.org/</dc:title>
     </cc:Agent>
    </dc:creator>
   </cc:Work>
  </rdf:RDF>
 </metadata>
 <defs>
  <style type="text/css">*{stroke-linejoin: round; stroke-linecap: butt}</style>
 </defs>
 <g id="figure_1">
  <g id="patch_1">
   <path d="M 0 543.059375 
L 895.21725 543.059375 
L 895.21725 0 
L 0 0 
z
" style="fill: #ffffff"/>
  </g>
  <g id="axes_1">
   <g id="patch_2">
    <path d="M 51.01725 383.04 
L 241.244523 383.04 
L 241.244523 50.4 
L 51.01725 50.4 
z
" style="fill: #ffffff"/>
   </g>
   <g id="matplotlib.axis_1">
    <g id="xtick_1">
     <g id="text_1">
      <!-- LO -->
      <g style="fill: #262626" transform="translate(89.770287 400.788313) scale(0.132 -0.132)">
       <defs>
        <path id="ArialMT-4c" d="M 469 0 
L 469 4581 
L 1075 4581 
L 1075 541 
L 3331 541 
L 3331 0 
L 469 0 
z
" transform="scale(0.015625)"/>
        <path id="ArialMT-4f" d="M 309 2231 
Q 309 3372 921 4017 
Q 1534 4663 2503 4663 
Q 3138 4663 3647 4359 
Q 4156 4056 4423 3514 
Q 4691 2972 4691 2284 
Q 4691 1588 4409 1038 
Q 4128 488 3612 205 
Q 3097 -78 2500 -78 
Q 1853 -78 1343 234 
Q 834 547 571 1087 
Q 309 1628 309 2231 
z
M 934 2222 
Q 934 1394 1379 917 
Q 1825 441 2497 441 
Q 3181 441 3623 922 
Q 4066 1403 4066 2288 
Q 4066 2847 3877 3264 
Q 3688 3681 3323 3911 
Q 2959 4141 2506 4141 
Q 1863 4141 1398 3698 
Q 934 3256 934 2222 
z
" transform="scale(0.015625)"/>
       </defs>
       <use xlink:href="#ArialMT-4c"/>
       <use xlink:href="#ArialMT-4f" x="55.615234"/>
      </g>
     </g>
    </g>
    <g id="xtick_2">
     <g id="text_2">
      <!-- HI -->
      <g style="fill: #262626" transform="translate(187.087705 400.788313) scale(0.132 -0.132)">
       <defs>
        <path id="ArialMT-48" d="M 513 0 
L 513 4581 
L 1119 4581 
L 1119 2700 
L 3500 2700 
L 3500 4581 
L 4106 4581 
L 4106 0 
L 3500 0 
L 3500 2159 
L 1119 2159 
L 1119 0 
L 513 0 
z
" transform="scale(0.015625)"/>
        <path id="ArialMT-49" d="M 597 0 
L 597 4581 
L 1203 4581 
L 1203 0 
L 597 0 
z
" transform="scale(0.015625)"/>
       </defs>
       <use xlink:href="#ArialMT-48"/>
       <use xlink:href="#ArialMT-49" x="72.216797"/>
      </g>
     </g>
    </g>
   </g>
   <g id="matplotlib.axis_2">
    <g id="ytick_1">
     <g id="line2d_1">
      <path d="M 51.01725 378.576857 
L 241.244523 378.576857 
" clip-path="url(#p0c250df790)" style="fill: none; stroke: #cccccc; stroke-width: 0.8; stroke-linecap: round"/>
     </g>
     <g id="text_3">
      <!-- 0.2 -->
      <g style="fill: #262626" transform="translate(24.36925 383.301013) scale(0.132 -0.132)">
       <defs>
        <path id="ArialMT-30" d="M 266 2259 
Q 266 3072 433 3567 
Q 600 4063 929 4331 
Q 1259 4600 1759 4600 
Q 2128 4600 2406 4451 
Q 2684 4303 2865 4023 
Q 3047 3744 3150 3342 
Q 3253 2941 3253 2259 
Q 3253 1453 3087 958 
Q 2922 463 2592 192 
Q 2263 -78 1759 -78 
Q 1097 -78 719 397 
Q 266 969 266 2259 
z
M 844 2259 
Q 844 1131 1108 757 
Q 1372 384 1759 384 
Q 2147 384 2411 759 
Q 2675 1134 2675 2259 
Q 2675 3391 2411 3762 
Q 2147 4134 1753 4134 
Q 1366 4134 1134 3806 
Q 844 3388 844 2259 
z
" transform="scale(0.015625)"/>
        <path id="ArialMT-2e" d="M 581 0 
L 581 641 
L 1222 641 
L 1222 0 
L 581 0 
z
" transform="scale(0.015625)"/>
        <path id="ArialMT-32" d="M 3222 541 
L 3222 0 
L 194 0 
Q 188 203 259 391 
Q 375 700 629 1000 
Q 884 1300 1366 1694 
Q 2113 2306 2375 2664 
Q 2638 3022 2638 3341 
Q 2638 3675 2398 3904 
Q 2159 4134 1775 4134 
Q 1369 4134 1125 3890 
Q 881 3647 878 3216 
L 300 3275 
Q 359 3922 746 4261 
Q 1134 4600 1788 4600 
Q 2447 4600 2831 4234 
Q 3216 3869 3216 3328 
Q 3216 3053 3103 2787 
Q 2991 2522 2730 2228 
Q 2469 1934 1863 1422 
Q 1356 997 1212 845 
Q 1069 694 975 541 
L 3222 541 
z
" transform="scale(0.015625)"/>
       </defs>
       <use xlink:href="#ArialMT-30"/>
       <use xlink:href="#ArialMT-2e" x="55.615234"/>
       <use xlink:href="#ArialMT-32" x="83.398438"/>
      </g>
     </g>
    </g>
    <g id="ytick_2">
     <g id="line2d_2">
      <path d="M 51.01725 339.44475 
L 241.244523 339.44475 
" clip-path="url(#p0c250df790)" style="fill: none; stroke: #cccccc; stroke-width: 0.8; stroke-linecap: round"/>
     </g>
     <g id="text_4">
      <!-- 0.3 -->
      <g style="fill: #262626" transform="translate(24.36925 344.168906) scale(0.132 -0.132)">
       <defs>
        <path id="ArialMT-33" d="M 269 1209 
L 831 1284 
Q 928 806 1161 595 
Q 1394 384 1728 384 
Q 2125 384 2398 659 
Q 2672 934 2672 1341 
Q 2672 1728 2419 1979 
Q 2166 2231 1775 2231 
Q 1616 2231 1378 2169 
L 1441 2663 
Q 1497 2656 1531 2656 
Q 1891 2656 2178 2843 
Q 2466 3031 2466 3422 
Q 2466 3731 2256 3934 
Q 2047 4138 1716 4138 
Q 1388 4138 1169 3931 
Q 950 3725 888 3313 
L 325 3413 
Q 428 3978 793 4289 
Q 1159 4600 1703 4600 
Q 2078 4600 2393 4439 
Q 2709 4278 2876 4000 
Q 3044 3722 3044 3409 
Q 3044 3113 2884 2869 
Q 2725 2625 2413 2481 
Q 2819 2388 3044 2092 
Q 3269 1797 3269 1353 
Q 3269 753 2831 336 
Q 2394 -81 1725 -81 
Q 1122 -81 723 278 
Q 325 638 269 1209 
z
" transform="scale(0.015625)"/>
       </defs>
       <use xlink:href="#ArialMT-30"/>
       <use xlink:href="#ArialMT-2e" x="55.615234"/>
       <use xlink:href="#ArialMT-33" x="83.398438"/>
      </g>
     </g>
    </g>
    <g id="ytick_3">
     <g id="line2d_3">
      <path d="M 51.01725 300.312643 
L 241.244523 300.312643 
" clip-path="url(#p0c250df790)" style="fill: none; stroke: #cccccc; stroke-width: 0.8; stroke-linecap: round"/>
     </g>
     <g id="text_5">
      <!-- 0.4 -->
      <g style="fill: #262626" transform="translate(24.36925 305.036799) scale(0.132 -0.132)">
       <defs>
        <path id="ArialMT-34" d="M 2069 0 
L 2069 1097 
L 81 1097 
L 81 1613 
L 2172 4581 
L 2631 4581 
L 2631 1613 
L 3250 1613 
L 3250 1097 
L 2631 1097 
L 2631 0 
L 2069 0 
z
M 2069 1613 
L 2069 3678 
L 634 1613 
L 2069 1613 
z
" transform="scale(0.015625)"/>
       </defs>
       <use xlink:href="#ArialMT-30"/>
       <use xlink:href="#ArialMT-2e" x="55.615234"/>
       <use xlink:href="#ArialMT-34" x="83.398438"/>
      </g>
     </g>
    </g>
    <g id="ytick_4">
     <g id="line2d_4">
      <path d="M 51.01725 261.180536 
L 241.244523 261.180536 
" clip-path="url(#p0c250df790)" style="fill: none; stroke: #cccccc; stroke-width: 0.8; stroke-linecap: round"/>
     </g>
     <g id="text_6">
      <!-- 0.5 -->
      <g style="fill: #262626" transform="translate(24.36925 265.904692) scale(0.132 -0.132)">
       <defs>
        <path id="ArialMT-35" d="M 266 1200 
L 856 1250 
Q 922 819 1161 601 
Q 1400 384 1738 384 
Q 2144 384 2425 690 
Q 2706 997 2706 1503 
Q 2706 1984 2436 2262 
Q 2166 2541 1728 2541 
Q 1456 2541 1237 2417 
Q 1019 2294 894 2097 
L 366 2166 
L 809 4519 
L 3088 4519 
L 3088 3981 
L 1259 3981 
L 1013 2750 
Q 1425 3038 1878 3038 
Q 2478 3038 2890 2622 
Q 3303 2206 3303 1553 
Q 3303 931 2941 478 
Q 2500 -78 1738 -78 
Q 1113 -78 717 272 
Q 322 622 266 1200 
z
" transform="scale(0.015625)"/>
       </defs>
       <use xlink:href="#ArialMT-30"/>
       <use xlink:href="#ArialMT-2e" x="55.615234"/>
       <use xlink:href="#ArialMT-35" x="83.398438"/>
      </g>
     </g>
    </g>
    <g id="ytick_5">
     <g id="line2d_5">
      <path d="M 51.01725 222.048428 
L 241.244523 222.048428 
" clip-path="url(#p0c250df790)" style="fill: none; stroke: #cccccc; stroke-width: 0.8; stroke-linecap: round"/>
     </g>
     <g id="text_7">
      <!-- 0.6 -->
      <g style="fill: #262626" transform="translate(24.36925 226.772585) scale(0.132 -0.132)">
       <defs>
        <path id="ArialMT-36" d="M 3184 3459 
L 2625 3416 
Q 2550 3747 2413 3897 
Q 2184 4138 1850 4138 
Q 1581 4138 1378 3988 
Q 1113 3794 959 3422 
Q 806 3050 800 2363 
Q 1003 2672 1297 2822 
Q 1591 2972 1913 2972 
Q 2475 2972 2870 2558 
Q 3266 2144 3266 1488 
Q 3266 1056 3080 686 
Q 2894 316 2569 119 
Q 2244 -78 1831 -78 
Q 1128 -78 684 439 
Q 241 956 241 2144 
Q 241 3472 731 4075 
Q 1159 4600 1884 4600 
Q 2425 4600 2770 4297 
Q 3116 3994 3184 3459 
z
M 888 1484 
Q 888 1194 1011 928 
Q 1134 663 1356 523 
Q 1578 384 1822 384 
Q 2178 384 2434 671 
Q 2691 959 2691 1453 
Q 2691 1928 2437 2201 
Q 2184 2475 1800 2475 
Q 1419 2475 1153 2201 
Q 888 1928 888 1484 
z
" transform="scale(0.015625)"/>
       </defs>
       <use xlink:href="#ArialMT-30"/>
       <use xlink:href="#ArialMT-2e" x="55.615234"/>
       <use xlink:href="#ArialMT-36" x="83.398438"/>
      </g>
     </g>
    </g>
    <g id="ytick_6">
     <g id="line2d_6">
      <path d="M 51.01725 182.916321 
L 241.244523 182.916321 
" clip-path="url(#p0c250df790)" style="fill: none; stroke: #cccccc; stroke-width: 0.8; stroke-linecap: round"/>
     </g>
     <g id="text_8">
      <!-- 0.7 -->
      <g style="fill: #262626" transform="translate(24.36925 187.640478) scale(0.132 -0.132)">
       <defs>
        <path id="ArialMT-37" d="M 303 3981 
L 303 4522 
L 3269 4522 
L 3269 4084 
Q 2831 3619 2401 2847 
Q 1972 2075 1738 1259 
Q 1569 684 1522 0 
L 944 0 
Q 953 541 1156 1306 
Q 1359 2072 1739 2783 
Q 2119 3494 2547 3981 
L 303 3981 
z
" transform="scale(0.015625)"/>
       </defs>
       <use xlink:href="#ArialMT-30"/>
       <use xlink:href="#ArialMT-2e" x="55.615234"/>
       <use xlink:href="#ArialMT-37" x="83.398438"/>
      </g>
     </g>
    </g>
    <g id="ytick_7">
     <g id="line2d_7">
      <path d="M 51.01725 143.784214 
L 241.244523 143.784214 
" clip-path="url(#p0c250df790)" style="fill: none; stroke: #cccccc; stroke-width: 0.8; stroke-linecap: round"/>
     </g>
     <g id="text_9">
      <!-- 0.8 -->
      <g style="fill: #262626" transform="translate(24.36925 148.50837) scale(0.132 -0.132)">
       <defs>
        <path id="ArialMT-38" d="M 1131 2484 
Q 781 2613 612 2850 
Q 444 3088 444 3419 
Q 444 3919 803 4259 
Q 1163 4600 1759 4600 
Q 2359 4600 2725 4251 
Q 3091 3903 3091 3403 
Q 3091 3084 2923 2848 
Q 2756 2613 2416 2484 
Q 2838 2347 3058 2040 
Q 3278 1734 3278 1309 
Q 3278 722 2862 322 
Q 2447 -78 1769 -78 
Q 1091 -78 675 323 
Q 259 725 259 1325 
Q 259 1772 486 2073 
Q 713 2375 1131 2484 
z
M 1019 3438 
Q 1019 3113 1228 2906 
Q 1438 2700 1772 2700 
Q 2097 2700 2305 2904 
Q 2513 3109 2513 3406 
Q 2513 3716 2298 3927 
Q 2084 4138 1766 4138 
Q 1444 4138 1231 3931 
Q 1019 3725 1019 3438 
z
M 838 1322 
Q 838 1081 952 856 
Q 1066 631 1291 507 
Q 1516 384 1775 384 
Q 2178 384 2440 643 
Q 2703 903 2703 1303 
Q 2703 1709 2433 1975 
Q 2163 2241 1756 2241 
Q 1359 2241 1098 1978 
Q 838 1716 838 1322 
z
" transform="scale(0.015625)"/>
       </defs>
       <use xlink:href="#ArialMT-30"/>
       <use xlink:href="#ArialMT-2e" x="55.615234"/>
       <use xlink:href="#ArialMT-38" x="83.398438"/>
      </g>
     </g>
    </g>
    <g id="ytick_8">
     <g id="line2d_8">
      <path d="M 51.01725 104.652107 
L 241.244523 104.652107 
" clip-path="url(#p0c250df790)" style="fill: none; stroke: #cccccc; stroke-width: 0.8; stroke-linecap: round"/>
     </g>
     <g id="text_10">
      <!-- 0.9 -->
      <g style="fill: #262626" transform="translate(24.36925 109.376263) scale(0.132 -0.132)">
       <defs>
        <path id="ArialMT-39" d="M 350 1059 
L 891 1109 
Q 959 728 1153 556 
Q 1347 384 1650 384 
Q 1909 384 2104 503 
Q 2300 622 2425 820 
Q 2550 1019 2634 1356 
Q 2719 1694 2719 2044 
Q 2719 2081 2716 2156 
Q 2547 1888 2255 1720 
Q 1963 1553 1622 1553 
Q 1053 1553 659 1965 
Q 266 2378 266 3053 
Q 266 3750 677 4175 
Q 1088 4600 1706 4600 
Q 2153 4600 2523 4359 
Q 2894 4119 3086 3673 
Q 3278 3228 3278 2384 
Q 3278 1506 3087 986 
Q 2897 466 2520 194 
Q 2144 -78 1638 -78 
Q 1100 -78 759 220 
Q 419 519 350 1059 
z
M 2653 3081 
Q 2653 3566 2395 3850 
Q 2138 4134 1775 4134 
Q 1400 4134 1122 3828 
Q 844 3522 844 3034 
Q 844 2597 1108 2323 
Q 1372 2050 1759 2050 
Q 2150 2050 2401 2323 
Q 2653 2597 2653 3081 
z
" transform="scale(0.015625)"/>
       </defs>
       <use xlink:href="#ArialMT-30"/>
       <use xlink:href="#ArialMT-2e" x="55.615234"/>
       <use xlink:href="#ArialMT-39" x="83.398438"/>
      </g>
     </g>
    </g>
    <g id="ytick_9">
     <g id="line2d_9">
      <path d="M 51.01725 65.52 
L 241.244523 65.52 
" clip-path="url(#p0c250df790)" style="fill: none; stroke: #cccccc; stroke-width: 0.8; stroke-linecap: round"/>
     </g>
     <g id="text_11">
      <!-- 1.0 -->
      <g style="fill: #262626" transform="translate(24.36925 70.244156) scale(0.132 -0.132)">
       <defs>
        <path id="ArialMT-31" d="M 2384 0 
L 1822 0 
L 1822 3584 
Q 1619 3391 1289 3197 
Q 959 3003 697 2906 
L 697 3450 
Q 1169 3672 1522 3987 
Q 1875 4303 2022 4600 
L 2384 4600 
L 2384 0 
z
" transform="scale(0.015625)"/>
       </defs>
       <use xlink:href="#ArialMT-31"/>
       <use xlink:href="#ArialMT-2e" x="55.615234"/>
       <use xlink:href="#ArialMT-30" x="83.398438"/>
      </g>
     </g>
    </g>
    <g id="text_12">
     <!-- search_tactics_Hs_end -->
     <g style="fill: #262626" transform="translate(17.50725 291.556125) rotate(-90) scale(0.144 -0.144)">
      <defs>
       <path id="ArialMT-73" d="M 197 991 
L 753 1078 
Q 800 744 1014 566 
Q 1228 388 1613 388 
Q 2000 388 2187 545 
Q 2375 703 2375 916 
Q 2375 1106 2209 1216 
Q 2094 1291 1634 1406 
Q 1016 1563 777 1677 
Q 538 1791 414 1992 
Q 291 2194 291 2438 
Q 291 2659 392 2848 
Q 494 3038 669 3163 
Q 800 3259 1026 3326 
Q 1253 3394 1513 3394 
Q 1903 3394 2198 3281 
Q 2494 3169 2634 2976 
Q 2775 2784 2828 2463 
L 2278 2388 
Q 2241 2644 2061 2787 
Q 1881 2931 1553 2931 
Q 1166 2931 1000 2803 
Q 834 2675 834 2503 
Q 834 2394 903 2306 
Q 972 2216 1119 2156 
Q 1203 2125 1616 2013 
Q 2213 1853 2448 1751 
Q 2684 1650 2818 1456 
Q 2953 1263 2953 975 
Q 2953 694 2789 445 
Q 2625 197 2315 61 
Q 2006 -75 1616 -75 
Q 969 -75 630 194 
Q 291 463 197 991 
z
" transform="scale(0.015625)"/>
       <path id="ArialMT-65" d="M 2694 1069 
L 3275 997 
Q 3138 488 2766 206 
Q 2394 -75 1816 -75 
Q 1088 -75 661 373 
Q 234 822 234 1631 
Q 234 2469 665 2931 
Q 1097 3394 1784 3394 
Q 2450 3394 2872 2941 
Q 3294 2488 3294 1666 
Q 3294 1616 3291 1516 
L 816 1516 
Q 847 969 1125 678 
Q 1403 388 1819 388 
Q 2128 388 2347 550 
Q 2566 713 2694 1069 
z
M 847 1978 
L 2700 1978 
Q 2663 2397 2488 2606 
Q 2219 2931 1791 2931 
Q 1403 2931 1139 2672 
Q 875 2413 847 1978 
z
" transform="scale(0.015625)"/>
       <path id="ArialMT-61" d="M 2588 409 
Q 2275 144 1986 34 
Q 1697 -75 1366 -75 
Q 819 -75 525 192 
Q 231 459 231 875 
Q 231 1119 342 1320 
Q 453 1522 633 1644 
Q 813 1766 1038 1828 
Q 1203 1872 1538 1913 
Q 2219 1994 2541 2106 
Q 2544 2222 2544 2253 
Q 2544 2597 2384 2738 
Q 2169 2928 1744 2928 
Q 1347 2928 1158 2789 
Q 969 2650 878 2297 
L 328 2372 
Q 403 2725 575 2942 
Q 747 3159 1072 3276 
Q 1397 3394 1825 3394 
Q 2250 3394 2515 3294 
Q 2781 3194 2906 3042 
Q 3031 2891 3081 2659 
Q 3109 2516 3109 2141 
L 3109 1391 
Q 3109 606 3145 398 
Q 3181 191 3288 0 
L 2700 0 
Q 2613 175 2588 409 
z
M 2541 1666 
Q 2234 1541 1622 1453 
Q 1275 1403 1131 1340 
Q 988 1278 909 1158 
Q 831 1038 831 891 
Q 831 666 1001 516 
Q 1172 366 1500 366 
Q 1825 366 2078 508 
Q 2331 650 2450 897 
Q 2541 1088 2541 1459 
L 2541 1666 
z
" transform="scale(0.015625)"/>
       <path id="ArialMT-72" d="M 416 0 
L 416 3319 
L 922 3319 
L 922 2816 
Q 1116 3169 1280 3281 
Q 1444 3394 1641 3394 
Q 1925 3394 2219 3213 
L 2025 2691 
Q 1819 2813 1613 2813 
Q 1428 2813 1281 2702 
Q 1134 2591 1072 2394 
Q 978 2094 978 1738 
L 978 0 
L 416 0 
z
" transform="scale(0.015625)"/>
       <path id="ArialMT-63" d="M 2588 1216 
L 3141 1144 
Q 3050 572 2676 248 
Q 2303 -75 1759 -75 
Q 1078 -75 664 370 
Q 250 816 250 1647 
Q 250 2184 428 2587 
Q 606 2991 970 3192 
Q 1334 3394 1763 3394 
Q 2303 3394 2647 3120 
Q 2991 2847 3088 2344 
L 2541 2259 
Q 2463 2594 2264 2762 
Q 2066 2931 1784 2931 
Q 1359 2931 1093 2626 
Q 828 2322 828 1663 
Q 828 994 1084 691 
Q 1341 388 1753 388 
Q 2084 388 2306 591 
Q 2528 794 2588 1216 
z
" transform="scale(0.015625)"/>
       <path id="ArialMT-68" d="M 422 0 
L 422 4581 
L 984 4581 
L 984 2938 
Q 1378 3394 1978 3394 
Q 2347 3394 2619 3248 
Q 2891 3103 3008 2847 
Q 3125 2591 3125 2103 
L 3125 0 
L 2563 0 
L 2563 2103 
Q 2563 2525 2380 2717 
Q 2197 2909 1863 2909 
Q 1613 2909 1392 2779 
Q 1172 2650 1078 2428 
Q 984 2206 984 1816 
L 984 0 
L 422 0 
z
" transform="scale(0.015625)"/>
       <path id="ArialMT-5f" d="M -97 -1272 
L -97 -866 
L 3631 -866 
L 3631 -1272 
L -97 -1272 
z
" transform="scale(0.015625)"/>
       <path id="ArialMT-74" d="M 1650 503 
L 1731 6 
Q 1494 -44 1306 -44 
Q 1000 -44 831 53 
Q 663 150 594 308 
Q 525 466 525 972 
L 525 2881 
L 113 2881 
L 113 3319 
L 525 3319 
L 525 4141 
L 1084 4478 
L 1084 3319 
L 1650 3319 
L 1650 2881 
L 1084 2881 
L 1084 941 
Q 1084 700 1114 631 
Q 1144 563 1211 522 
Q 1278 481 1403 481 
Q 1497 481 1650 503 
z
" transform="scale(0.015625)"/>
       <path id="ArialMT-69" d="M 425 3934 
L 425 4581 
L 988 4581 
L 988 3934 
L 425 3934 
z
M 425 0 
L 425 3319 
L 988 3319 
L 988 0 
L 425 0 
z
" transform="scale(0.015625)"/>
       <path id="ArialMT-6e" d="M 422 0 
L 422 3319 
L 928 3319 
L 928 2847 
Q 1294 3394 1984 3394 
Q 2284 3394 2536 3286 
Q 2788 3178 2913 3003 
Q 3038 2828 3088 2588 
Q 3119 2431 3119 2041 
L 3119 0 
L 2556 0 
L 2556 2019 
Q 2556 2363 2490 2533 
Q 2425 2703 2258 2804 
Q 2091 2906 1866 2906 
Q 1506 2906 1245 2678 
Q 984 2450 984 1813 
L 984 0 
L 422 0 
z
" transform="scale(0.015625)"/>
       <path id="ArialMT-64" d="M 2575 0 
L 2575 419 
Q 2259 -75 1647 -75 
Q 1250 -75 917 144 
Q 584 363 401 755 
Q 219 1147 219 1656 
Q 219 2153 384 2558 
Q 550 2963 881 3178 
Q 1213 3394 1622 3394 
Q 1922 3394 2156 3267 
Q 2391 3141 2538 2938 
L 2538 4581 
L 3097 4581 
L 3097 0 
L 2575 0 
z
M 797 1656 
Q 797 1019 1065 703 
Q 1334 388 1700 388 
Q 2069 388 2326 689 
Q 2584 991 2584 1609 
Q 2584 2291 2321 2609 
Q 2059 2928 1675 2928 
Q 1300 2928 1048 2622 
Q 797 2316 797 1656 
z
" transform="scale(0.015625)"/>
      </defs>
      <use xlink:href="#ArialMT-73"/>
      <use xlink:href="#ArialMT-65" x="50"/>
      <use xlink:href="#ArialMT-61" x="105.615234"/>
      <use xlink:href="#ArialMT-72" x="161.230469"/>
      <use xlink:href="#ArialMT-63" x="194.53125"/>
      <use xlink:href="#ArialMT-68" x="244.53125"/>
      <use xlink:href="#ArialMT-5f" x="300.146484"/>
      <use xlink:href="#ArialMT-74" x="355.761719"/>
      <use xlink:href="#ArialMT-61" x="383.544922"/>
      <use xlink:href="#ArialMT-63" x="439.160156"/>
      <use xlink:href="#ArialMT-74" x="489.160156"/>
      <use xlink:href="#ArialMT-69" x="516.943359"/>
      <use xlink:href="#ArialMT-63" x="539.160156"/>
      <use xlink:href="#ArialMT-73" x="589.160156"/>
      <use xlink:href="#ArialMT-5f" x="639.160156"/>
      <use xlink:href="#ArialMT-48" x="694.775391"/>
      <use xlink:href="#ArialMT-73" x="766.992188"/>
      <use xlink:href="#ArialMT-5f" x="816.992188"/>
      <use xlink:href="#ArialMT-65" x="872.607422"/>
      <use xlink:href="#ArialMT-6e" x="928.222656"/>
      <use xlink:href="#ArialMT-64" x="983.837891"/>
     </g>
    </g>
   </g>
   <g id="PolyCollection_1">
    <defs>
     <path id="m606addaf11" d="M 107.827076 -189.443039 
L 89.32106 -189.443039 
L 88.689123 -192.353103 
L 88.064598 -195.263167 
L 87.450044 -198.173231 
L 86.847206 -201.083295 
L 86.256977 -203.993359 
L 85.679417 -206.903423 
L 85.113808 -209.813487 
L 84.55875 -212.723551 
L 84.012287 -215.633615 
L 83.472059 -218.543679 
L 82.935457 -221.453743 
L 82.399789 -224.363807 
L 81.862426 -227.273871 
L 81.320937 -230.183935 
L 80.773194 -233.093999 
L 80.21745 -236.004063 
L 79.65239 -238.914127 
L 79.077151 -241.824191 
L 78.491319 -244.734255 
L 77.894921 -247.644319 
L 77.28839 -250.554383 
L 76.672552 -253.464447 
L 76.048606 -256.374511 
L 75.418129 -259.284575 
L 74.783089 -262.194639 
L 74.145894 -265.104703 
L 73.509441 -268.014767 
L 72.87719 -270.924831 
L 72.253238 -273.834895 
L 71.642392 -276.744959 
L 71.050218 -279.655023 
L 70.483072 -282.565087 
L 69.948084 -285.475151 
L 69.4531 -288.385215 
L 69.006568 -291.295279 
L 68.617369 -294.205343 
L 68.294593 -297.115407 
L 68.047269 -300.025471 
L 67.884061 -302.935535 
L 67.812929 -305.845599 
L 67.840802 -308.755663 
L 67.973253 -311.665727 
L 68.214211 -314.575791 
L 68.565726 -317.485855 
L 69.027798 -320.395919 
L 69.5983 -323.305983 
L 70.272968 -326.216047 
L 71.045507 -329.126111 
L 71.907764 -332.036175 
L 72.849989 -334.946239 
L 73.861158 -337.856303 
L 74.929337 -340.766367 
L 76.042077 -343.676431 
L 77.186801 -346.586495 
L 78.351178 -349.496559 
L 79.523454 -352.406623 
L 80.69273 -355.316687 
L 81.849169 -358.226751 
L 82.984137 -361.136815 
L 84.090266 -364.046879 
L 85.161449 -366.956943 
L 86.192778 -369.867007 
L 87.180428 -372.777071 
L 88.121516 -375.687135 
L 89.013928 -378.597199 
L 89.856153 -381.507263 
L 90.647117 -384.417327 
L 91.386037 -387.327391 
L 92.072299 -390.237455 
L 92.705375 -393.147519 
L 93.284758 -396.057583 
L 93.809947 -398.967647 
L 94.280449 -401.877711 
L 94.695815 -404.787775 
L 95.055696 -407.697839 
L 95.359915 -410.607903 
L 95.608556 -413.517967 
L 95.802047 -416.428031 
L 95.941261 -419.338095 
L 96.027598 -422.248159 
L 96.063069 -425.158223 
L 96.050358 -428.068287 
L 95.992872 -430.978351 
L 95.894767 -433.888415 
L 95.760944 -436.798479 
L 95.597018 -439.708543 
L 95.409251 -442.618607 
L 95.204454 -445.528671 
L 94.989852 -448.438735 
L 94.772916 -451.348799 
L 94.561176 -454.258863 
L 94.362005 -457.168927 
L 94.182398 -460.078991 
L 94.02875 -462.989055 
L 93.906646 -465.899119 
L 93.820671 -468.809183 
L 93.774258 -471.719247 
L 93.769581 -474.629311 
L 93.807492 -477.539375 
L 103.340644 -477.539375 
L 103.340644 -477.539375 
L 103.378555 -474.629311 
L 103.373878 -471.719247 
L 103.327466 -468.809183 
L 103.24149 -465.899119 
L 103.119386 -462.989055 
L 102.965738 -460.078991 
L 102.786131 -457.168927 
L 102.58696 -454.258863 
L 102.37522 -451.348799 
L 102.158284 -448.438735 
L 101.943682 -445.528671 
L 101.738885 -442.618607 
L 101.551119 -439.708543 
L 101.387192 -436.798479 
L 101.253369 -433.888415 
L 101.155264 -430.978351 
L 101.097778 -428.068287 
L 101.085067 -425.158223 
L 101.120538 -422.248159 
L 101.206876 -419.338095 
L 101.34609 -416.428031 
L 101.539581 -413.517967 
L 101.788221 -410.607903 
L 102.09244 -407.697839 
L 102.452321 -404.787775 
L 102.867687 -401.877711 
L 103.338189 -398.967647 
L 103.863378 -396.057583 
L 104.442762 -393.147519 
L 105.075837 -390.237455 
L 105.7621 -387.327391 
L 106.501019 -384.417327 
L 107.291983 -381.507263 
L 108.134209 -378.597199 
L 109.026621 -375.687135 
L 109.967708 -372.777071 
L 110.955359 -369.867007 
L 111.986687 -366.956943 
L 113.057871 -364.046879 
L 114.164 -361.136815 
L 115.298968 -358.226751 
L 116.455407 -355.316687 
L 117.624682 -352.406623 
L 118.796958 -349.496559 
L 119.961335 -346.586495 
L 121.106059 -343.676431 
L 122.218799 -340.766367 
L 123.286978 -337.856303 
L 124.298147 -334.946239 
L 125.240372 -332.036175 
L 126.102629 -329.126111 
L 126.875168 -326.216047 
L 127.549837 -323.305983 
L 128.120338 -320.395919 
L 128.582411 -317.485855 
L 128.933925 -314.575791 
L 129.174883 -311.665727 
L 129.307334 -308.755663 
L 129.335208 -305.845599 
L 129.264076 -302.935535 
L 129.100867 -300.025471 
L 128.853544 -297.115407 
L 128.530768 -294.205343 
L 128.141568 -291.295279 
L 127.695036 -288.385215 
L 127.200052 -285.475151 
L 126.665064 -282.565087 
L 126.097918 -279.655023 
L 125.505744 -276.744959 
L 124.894898 -273.834895 
L 124.270946 -270.924831 
L 123.638695 -268.014767 
L 123.002242 -265.104703 
L 122.365047 -262.194639 
L 121.730008 -259.284575 
L 121.09953 -256.374511 
L 120.475584 -253.464447 
L 119.859746 -250.554383 
L 119.253216 -247.644319 
L 118.656817 -244.734255 
L 118.070986 -241.824191 
L 117.495746 -238.914127 
L 116.930686 -236.004063 
L 116.374942 -233.093999 
L 115.827199 -230.183935 
L 115.28571 -227.273871 
L 114.748348 -224.363807 
L 114.21268 -221.453743 
L 113.676078 -218.543679 
L 113.135849 -215.633615 
L 112.589386 -212.723551 
L 112.034328 -209.813487 
L 111.468719 -206.903423 
L 110.89116 -203.993359 
L 110.300931 -201.083295 
L 109.698092 -198.173231 
L 109.083538 -195.263167 
L 108.459013 -192.353103 
L 107.827076 -189.443039 
z
" style="stroke: #3f3f3f; stroke-width: 1.2"/>
    </defs>
    <g clip-path="url(#p0c250df790)">
     <use xlink:href="#m606addaf11" x="0" y="543.059375" style="fill: #3274a1; stroke: #3f3f3f; stroke-width: 1.2"/>
    </g>
   </g>
   <g id="PolyCollection_2">
    <defs>
     <path id="m5a8bed66d1" d="M 204.695342 -175.139375 
L 182.680067 -175.139375 
L 181.670647 -177.935084 
L 180.663123 -180.730793 
L 179.666767 -183.526502 
L 178.689125 -186.322211 
L 177.735458 -189.11792 
L 176.808319 -191.913629 
L 175.907304 -194.709338 
L 175.029015 -197.505047 
L 174.167254 -200.300756 
L 173.313459 -203.096465 
L 172.457362 -205.892174 
L 171.587836 -208.687883 
L 170.693875 -211.483592 
L 169.765649 -214.279301 
L 168.795546 -217.07501 
L 167.779133 -219.870719 
L 166.715947 -222.666428 
L 165.610063 -225.462137 
L 164.470379 -228.257846 
L 163.310595 -231.053555 
L 162.148872 -233.849264 
L 161.007188 -236.644973 
L 159.910434 -239.440682 
L 158.885301 -242.236391 
L 157.959031 -245.0321 
L 157.158108 -247.827809 
L 156.506971 -250.623518 
L 156.026828 -253.419227 
L 155.734628 -256.214936 
L 155.64225 -259.010645 
L 155.755953 -261.806354 
L 156.076089 -264.602063 
L 156.597104 -267.397772 
L 157.307796 -270.193481 
L 158.191826 -272.98919 
L 159.228432 -275.784899 
L 160.393318 -278.580608 
L 161.659665 -281.376317 
L 162.999217 -284.172026 
L 164.383405 -286.967735 
L 165.784437 -289.763444 
L 167.176336 -292.559153 
L 168.535855 -295.354862 
L 169.843254 -298.150571 
L 171.082885 -300.94628 
L 172.243576 -303.741989 
L 173.318783 -306.537698 
L 174.306517 -309.333407 
L 175.20905 -312.129116 
L 176.032414 -314.924825 
L 176.785726 -317.720534 
L 177.480391 -320.516243 
L 178.129213 -323.311952 
L 178.74549 -326.107661 
L 179.342127 -328.90337 
L 179.930843 -331.699079 
L 180.521491 -334.494788 
L 181.121555 -337.290497 
L 181.735826 -340.086206 
L 182.366281 -342.881915 
L 183.012156 -345.677624 
L 183.670195 -348.473333 
L 184.335049 -351.269042 
L 184.999789 -354.064751 
L 185.656489 -356.86046 
L 186.296825 -359.656169 
L 186.912661 -362.451878 
L 187.496578 -365.247587 
L 188.042298 -368.043296 
L 188.545005 -370.839005 
L 189.001531 -373.634714 
L 189.410413 -376.430423 
L 189.771827 -379.226132 
L 190.087412 -382.021841 
L 190.360017 -384.81755 
L 190.593383 -387.613259 
L 190.791813 -390.408968 
L 190.95983 -393.204677 
L 191.101879 -396.000386 
L 191.222072 -398.796095 
L 191.324004 -401.591804 
L 191.410649 -404.387513 
L 191.484323 -407.183222 
L 191.546728 -409.978931 
L 191.59905 -412.77464 
L 191.642098 -415.570349 
L 191.676477 -418.366058 
L 191.702747 -421.161767 
L 191.721587 -423.957476 
L 191.733913 -426.753185 
L 191.740959 -429.548894 
L 191.744309 -432.344603 
L 191.745874 -435.140312 
L 191.747825 -437.936021 
L 191.752484 -440.73173 
L 191.762187 -443.527439 
L 191.77914 -446.323148 
L 191.80527 -449.118857 
L 191.842092 -451.914566 
L 195.533317 -451.914566 
L 195.533317 -451.914566 
L 195.570139 -449.118857 
L 195.596269 -446.323148 
L 195.613222 -443.527439 
L 195.622925 -440.73173 
L 195.627584 -437.936021 
L 195.629535 -435.140312 
L 195.6311 -432.344603 
L 195.63445 -429.548894 
L 195.641496 -426.753185 
L 195.653822 -423.957476 
L 195.672662 -421.161767 
L 195.698932 -418.366058 
L 195.733311 -415.570349 
L 195.776359 -412.77464 
L 195.828681 -409.978931 
L 195.891086 -407.183222 
L 195.96476 -404.387513 
L 196.051405 -401.591804 
L 196.153338 -398.796095 
L 196.27353 -396.000386 
L 196.415579 -393.204677 
L 196.583596 -390.408968 
L 196.782026 -387.613259 
L 197.015392 -384.81755 
L 197.287997 -382.021841 
L 197.603582 -379.226132 
L 197.964996 -376.430423 
L 198.373878 -373.634714 
L 198.830404 -370.839005 
L 199.333111 -368.043296 
L 199.878831 -365.247587 
L 200.462748 -362.451878 
L 201.078584 -359.656169 
L 201.71892 -356.86046 
L 202.37562 -354.064751 
L 203.040361 -351.269042 
L 203.705215 -348.473333 
L 204.363253 -345.677624 
L 205.009128 -342.881915 
L 205.639584 -340.086206 
L 206.253854 -337.290497 
L 206.853918 -334.494788 
L 207.444566 -331.699079 
L 208.033282 -328.90337 
L 208.629919 -326.107661 
L 209.246196 -323.311952 
L 209.895018 -320.516243 
L 210.589683 -317.720534 
L 211.342995 -314.924825 
L 212.166359 -312.129116 
L 213.068892 -309.333407 
L 214.056626 -306.537698 
L 215.131833 -303.741989 
L 216.292524 -300.94628 
L 217.532155 -298.150571 
L 218.839554 -295.354862 
L 220.199073 -292.559153 
L 221.590972 -289.763444 
L 222.992004 -286.967735 
L 224.376192 -284.172026 
L 225.715744 -281.376317 
L 226.982091 -278.580608 
L 228.146977 -275.784899 
L 229.183583 -272.98919 
L 230.067613 -270.193481 
L 230.778305 -267.397772 
L 231.29932 -264.602063 
L 231.619456 -261.806354 
L 231.733159 -259.010645 
L 231.640782 -256.214936 
L 231.348581 -253.419227 
L 230.868438 -250.623518 
L 230.217301 -247.827809 
L 229.416378 -245.0321 
L 228.490108 -242.236391 
L 227.464975 -239.440682 
L 226.368221 -236.644973 
L 225.226537 -233.849264 
L 224.064814 -231.053555 
L 222.905031 -228.257846 
L 221.765347 -225.462137 
L 220.659462 -222.666428 
L 219.596276 -219.870719 
L 218.579863 -217.07501 
L 217.60976 -214.279301 
L 216.681534 -211.483592 
L 215.787573 -208.687883 
L 214.918047 -205.892174 
L 214.06195 -203.096465 
L 213.208155 -200.300756 
L 212.346394 -197.505047 
L 211.468105 -194.709338 
L 210.56709 -191.913629 
L 209.639951 -189.11792 
L 208.686284 -186.322211 
L 207.708642 -183.526502 
L 206.712286 -180.730793 
L 205.704762 -177.935084 
L 204.695342 -175.139375 
z
" style="stroke: #3f3f3f; stroke-width: 1.2"/>
    </defs>
    <g clip-path="url(#p0c250df790)">
     <use xlink:href="#m5a8bed66d1" x="0" y="543.059375" style="fill: #e1812c; stroke: #3f3f3f; stroke-width: 1.2"/>
    </g>
   </g>
   <g id="line2d_10">
    <path d="M 98.574068 353.616336 
L 98.574068 157.191116 
" clip-path="url(#p0c250df790)" style="fill: none; stroke: #3f3f3f; stroke-width: 1.2; stroke-linecap: round"/>
   </g>
   <g id="line2d_11">
    <path d="M 98.574068 285.684194 
L 98.574068 212.477097 
" clip-path="url(#p0c250df790)" style="fill: none; stroke: #3f3f3f; stroke-width: 3.6; stroke-linecap: round"/>
   </g>
   <g id="line2d_12">
    <path d="M 193.687705 348.658923 
L 193.687705 198.589092 
" clip-path="url(#p0c250df790)" style="fill: none; stroke: #3f3f3f; stroke-width: 1.2; stroke-linecap: round"/>
   </g>
   <g id="line2d_13">
    <path d="M 193.687705 299.276284 
L 193.687705 257.000542 
" clip-path="url(#p0c250df790)" style="fill: none; stroke: #3f3f3f; stroke-width: 3.6; stroke-linecap: round"/>
   </g>
   <g id="patch_3">
    <path d="M 51.01725 383.04 
L 51.01725 50.4 
" style="fill: none; stroke: #cccccc; stroke-linejoin: miter; stroke-linecap: square"/>
   </g>
   <g id="patch_4">
    <path d="M 51.01725 383.04 
L 241.244523 383.04 
" style="fill: none; stroke: #cccccc; stroke-linejoin: miter; stroke-linecap: square"/>
   </g>
   <g id="PathCollection_1">
    <defs>
     <path id="m7330528fd3" d="M 0 1.2 
C 0.318244 1.2 0.623496 1.07356 0.848528 0.848528 
C 1.07356 0.623496 1.2 0.318244 1.2 0 
C 1.2 -0.318244 1.07356 -0.623496 0.848528 -0.848528 
C 0.623496 -1.07356 0.318244 -1.2 0 -1.2 
C -0.318244 -1.2 -0.623496 -1.07356 -0.848528 -0.848528 
C -1.07356 -0.623496 -1.2 -0.318244 -1.2 0 
C -1.2 0.318244 -1.07356 0.623496 -0.848528 0.848528 
C -0.623496 1.07356 -0.318244 1.2 0 1.2 
z
" style="stroke: #3f3f3f; stroke-width: 0.8"/>
    </defs>
    <g clip-path="url(#p0c250df790)">
     <use xlink:href="#m7330528fd3" x="98.574068" y="243.470349" style="fill: #ffffff; stroke: #3f3f3f; stroke-width: 0.8"/>
    </g>
   </g>
   <g id="PathCollection_2">
    <g clip-path="url(#p0c250df790)">
     <use xlink:href="#m7330528fd3" x="193.687705" y="286.922259" style="fill: #ffffff; stroke: #3f3f3f; stroke-width: 0.8"/>
    </g>
   </g>
   <g id="text_13">
    <!-- Overall -->
    <g style="fill: #262626" transform="translate(123.326011 44.4) scale(0.144 -0.144)">
     <defs>
      <path id="ArialMT-76" d="M 1344 0 
L 81 3319 
L 675 3319 
L 1388 1331 
Q 1503 1009 1600 663 
Q 1675 925 1809 1294 
L 2547 3319 
L 3125 3319 
L 1869 0 
L 1344 0 
z
" transform="scale(0.015625)"/>
      <path id="ArialMT-6c" d="M 409 0 
L 409 4581 
L 972 4581 
L 972 0 
L 409 0 
z
" transform="scale(0.015625)"/>
     </defs>
     <use xlink:href="#ArialMT-4f"/>
     <use xlink:href="#ArialMT-76" x="77.783203"/>
     <use xlink:href="#ArialMT-65" x="127.783203"/>
     <use xlink:href="#ArialMT-72" x="183.398438"/>
     <use xlink:href="#ArialMT-61" x="216.699219"/>
     <use xlink:href="#ArialMT-6c" x="272.314453"/>
     <use xlink:href="#ArialMT-6c" x="294.53125"/>
    </g>
   </g>
  </g>
  <g id="axes_2">
   <g id="patch_5">
    <path d="M 317.335432 383.04 
L 888.01725 383.04 
L 888.01725 50.4 
L 317.335432 50.4 
z
" style="fill: #ffffff"/>
   </g>
   <g id="matplotlib.axis_3">
    <g id="xtick_3">
     <g id="text_14">
      <!-- PHASE1 - Finance -->
      <g style="fill: #262626" transform="translate(343.246023 502.118938) rotate(-90) scale(0.132 -0.132)">
       <defs>
        <path id="ArialMT-50" d="M 494 0 
L 494 4581 
L 2222 4581 
Q 2678 4581 2919 4538 
Q 3256 4481 3484 4323 
Q 3713 4166 3852 3881 
Q 3991 3597 3991 3256 
Q 3991 2672 3619 2267 
Q 3247 1863 2275 1863 
L 1100 1863 
L 1100 0 
L 494 0 
z
M 1100 2403 
L 2284 2403 
Q 2872 2403 3119 2622 
Q 3366 2841 3366 3238 
Q 3366 3525 3220 3729 
Q 3075 3934 2838 4000 
Q 2684 4041 2272 4041 
L 1100 4041 
L 1100 2403 
z
" transform="scale(0.015625)"/>
        <path id="ArialMT-41" d="M -9 0 
L 1750 4581 
L 2403 4581 
L 4278 0 
L 3588 0 
L 3053 1388 
L 1138 1388 
L 634 0 
L -9 0 
z
M 1313 1881 
L 2866 1881 
L 2388 3150 
Q 2169 3728 2063 4100 
Q 1975 3659 1816 3225 
L 1313 1881 
z
" transform="scale(0.015625)"/>
        <path id="ArialMT-53" d="M 288 1472 
L 859 1522 
Q 900 1178 1048 958 
Q 1197 738 1509 602 
Q 1822 466 2213 466 
Q 2559 466 2825 569 
Q 3091 672 3220 851 
Q 3350 1031 3350 1244 
Q 3350 1459 3225 1620 
Q 3100 1781 2813 1891 
Q 2628 1963 1997 2114 
Q 1366 2266 1113 2400 
Q 784 2572 623 2826 
Q 463 3081 463 3397 
Q 463 3744 659 4045 
Q 856 4347 1234 4503 
Q 1613 4659 2075 4659 
Q 2584 4659 2973 4495 
Q 3363 4331 3572 4012 
Q 3781 3694 3797 3291 
L 3216 3247 
Q 3169 3681 2898 3903 
Q 2628 4125 2100 4125 
Q 1550 4125 1298 3923 
Q 1047 3722 1047 3438 
Q 1047 3191 1225 3031 
Q 1400 2872 2139 2705 
Q 2878 2538 3153 2413 
Q 3553 2228 3743 1945 
Q 3934 1663 3934 1294 
Q 3934 928 3725 604 
Q 3516 281 3123 101 
Q 2731 -78 2241 -78 
Q 1619 -78 1198 103 
Q 778 284 539 648 
Q 300 1013 288 1472 
z
" transform="scale(0.015625)"/>
        <path id="ArialMT-45" d="M 506 0 
L 506 4581 
L 3819 4581 
L 3819 4041 
L 1113 4041 
L 1113 2638 
L 3647 2638 
L 3647 2100 
L 1113 2100 
L 1113 541 
L 3925 541 
L 3925 0 
L 506 0 
z
" transform="scale(0.015625)"/>
        <path id="ArialMT-20" transform="scale(0.015625)"/>
        <path id="ArialMT-2d" d="M 203 1375 
L 203 1941 
L 1931 1941 
L 1931 1375 
L 203 1375 
z
" transform="scale(0.015625)"/>
        <path id="ArialMT-46" d="M 525 0 
L 525 4581 
L 3616 4581 
L 3616 4041 
L 1131 4041 
L 1131 2622 
L 3281 2622 
L 3281 2081 
L 1131 2081 
L 1131 0 
L 525 0 
z
" transform="scale(0.015625)"/>
       </defs>
       <use xlink:href="#ArialMT-50"/>
       <use xlink:href="#ArialMT-48" x="66.699219"/>
       <use xlink:href="#ArialMT-41" x="138.916016"/>
       <use xlink:href="#ArialMT-53" x="205.615234"/>
       <use xlink:href="#ArialMT-45" x="272.314453"/>
       <use xlink:href="#ArialMT-31" x="339.013672"/>
       <use xlink:href="#ArialMT-20" x="394.628906"/>
       <use xlink:href="#ArialMT-2d" x="422.412109"/>
       <use xlink:href="#ArialMT-20" x="455.712891"/>
       <use xlink:href="#ArialMT-46" x="483.496094"/>
       <use xlink:href="#ArialMT-69" x="544.580078"/>
       <use xlink:href="#ArialMT-6e" x="566.796875"/>
       <use xlink:href="#ArialMT-61" x="622.412109"/>
       <use xlink:href="#ArialMT-6e" x="678.027344"/>
       <use xlink:href="#ArialMT-63" x="733.642578"/>
       <use xlink:href="#ArialMT-65" x="783.642578"/>
      </g>
     </g>
    </g>
    <g id="xtick_4">
     <g id="text_15">
      <!-- PHASE1 - Ubuntu -->
      <g style="fill: #262626" transform="translate(400.314205 497.72375) rotate(-90) scale(0.132 -0.132)">
       <defs>
        <path id="ArialMT-55" d="M 3500 4581 
L 4106 4581 
L 4106 1934 
Q 4106 1244 3950 837 
Q 3794 431 3386 176 
Q 2978 -78 2316 -78 
Q 1672 -78 1262 144 
Q 853 366 678 786 
Q 503 1206 503 1934 
L 503 4581 
L 1109 4581 
L 1109 1938 
Q 1109 1341 1220 1058 
Q 1331 775 1601 622 
Q 1872 469 2263 469 
Q 2931 469 3215 772 
Q 3500 1075 3500 1938 
L 3500 4581 
z
" transform="scale(0.015625)"/>
        <path id="ArialMT-62" d="M 941 0 
L 419 0 
L 419 4581 
L 981 4581 
L 981 2947 
Q 1338 3394 1891 3394 
Q 2197 3394 2470 3270 
Q 2744 3147 2920 2923 
Q 3097 2700 3197 2384 
Q 3297 2069 3297 1709 
Q 3297 856 2875 390 
Q 2453 -75 1863 -75 
Q 1275 -75 941 416 
L 941 0 
z
M 934 1684 
Q 934 1088 1097 822 
Q 1363 388 1816 388 
Q 2184 388 2453 708 
Q 2722 1028 2722 1663 
Q 2722 2313 2464 2622 
Q 2206 2931 1841 2931 
Q 1472 2931 1203 2611 
Q 934 2291 934 1684 
z
" transform="scale(0.015625)"/>
        <path id="ArialMT-75" d="M 2597 0 
L 2597 488 
Q 2209 -75 1544 -75 
Q 1250 -75 995 37 
Q 741 150 617 320 
Q 494 491 444 738 
Q 409 903 409 1263 
L 409 3319 
L 972 3319 
L 972 1478 
Q 972 1038 1006 884 
Q 1059 663 1231 536 
Q 1403 409 1656 409 
Q 1909 409 2131 539 
Q 2353 669 2445 892 
Q 2538 1116 2538 1541 
L 2538 3319 
L 3100 3319 
L 3100 0 
L 2597 0 
z
" transform="scale(0.015625)"/>
       </defs>
       <use xlink:href="#ArialMT-50"/>
       <use xlink:href="#ArialMT-48" x="66.699219"/>
       <use xlink:href="#ArialMT-41" x="138.916016"/>
       <use xlink:href="#ArialMT-53" x="205.615234"/>
       <use xlink:href="#ArialMT-45" x="272.314453"/>
       <use xlink:href="#ArialMT-31" x="339.013672"/>
       <use xlink:href="#ArialMT-20" x="394.628906"/>
       <use xlink:href="#ArialMT-2d" x="422.412109"/>
       <use xlink:href="#ArialMT-20" x="455.712891"/>
       <use xlink:href="#ArialMT-55" x="483.496094"/>
       <use xlink:href="#ArialMT-62" x="555.712891"/>
       <use xlink:href="#ArialMT-75" x="611.328125"/>
       <use xlink:href="#ArialMT-6e" x="666.943359"/>
       <use xlink:href="#ArialMT-74" x="722.558594"/>
       <use xlink:href="#ArialMT-75" x="750.341797"/>
      </g>
     </g>
    </g>
    <g id="xtick_5">
     <g id="text_16">
      <!-- PHASE1 - SHEG -->
      <g style="fill: #262626" transform="translate(457.382386 492.571625) rotate(-90) scale(0.132 -0.132)">
       <defs>
        <path id="ArialMT-47" d="M 2638 1797 
L 2638 2334 
L 4578 2338 
L 4578 638 
Q 4131 281 3656 101 
Q 3181 -78 2681 -78 
Q 2006 -78 1454 211 
Q 903 500 622 1047 
Q 341 1594 341 2269 
Q 341 2938 620 3517 
Q 900 4097 1425 4378 
Q 1950 4659 2634 4659 
Q 3131 4659 3532 4498 
Q 3934 4338 4162 4050 
Q 4391 3763 4509 3300 
L 3963 3150 
Q 3859 3500 3706 3700 
Q 3553 3900 3268 4020 
Q 2984 4141 2638 4141 
Q 2222 4141 1919 4014 
Q 1616 3888 1430 3681 
Q 1244 3475 1141 3228 
Q 966 2803 966 2306 
Q 966 1694 1177 1281 
Q 1388 869 1791 669 
Q 2194 469 2647 469 
Q 3041 469 3416 620 
Q 3791 772 3984 944 
L 3984 1797 
L 2638 1797 
z
" transform="scale(0.015625)"/>
       </defs>
       <use xlink:href="#ArialMT-50"/>
       <use xlink:href="#ArialMT-48" x="66.699219"/>
       <use xlink:href="#ArialMT-41" x="138.916016"/>
       <use xlink:href="#ArialMT-53" x="205.615234"/>
       <use xlink:href="#ArialMT-45" x="272.314453"/>
       <use xlink:href="#ArialMT-31" x="339.013672"/>
       <use xlink:href="#ArialMT-20" x="394.628906"/>
       <use xlink:href="#ArialMT-2d" x="422.412109"/>
       <use xlink:href="#ArialMT-20" x="455.712891"/>
       <use xlink:href="#ArialMT-53" x="483.496094"/>
       <use xlink:href="#ArialMT-48" x="550.195312"/>
       <use xlink:href="#ArialMT-45" x="622.412109"/>
       <use xlink:href="#ArialMT-47" x="689.111328"/>
      </g>
     </g>
    </g>
    <g id="xtick_6">
     <g id="text_17">
      <!-- PHASE2A - Proposal -->
      <g style="fill: #262626" transform="translate(514.450568 515.335438) rotate(-90) scale(0.132 -0.132)">
       <defs>
        <path id="ArialMT-6f" d="M 213 1659 
Q 213 2581 725 3025 
Q 1153 3394 1769 3394 
Q 2453 3394 2887 2945 
Q 3322 2497 3322 1706 
Q 3322 1066 3130 698 
Q 2938 331 2570 128 
Q 2203 -75 1769 -75 
Q 1072 -75 642 372 
Q 213 819 213 1659 
z
M 791 1659 
Q 791 1022 1069 705 
Q 1347 388 1769 388 
Q 2188 388 2466 706 
Q 2744 1025 2744 1678 
Q 2744 2294 2464 2611 
Q 2184 2928 1769 2928 
Q 1347 2928 1069 2612 
Q 791 2297 791 1659 
z
" transform="scale(0.015625)"/>
        <path id="ArialMT-70" d="M 422 -1272 
L 422 3319 
L 934 3319 
L 934 2888 
Q 1116 3141 1344 3267 
Q 1572 3394 1897 3394 
Q 2322 3394 2647 3175 
Q 2972 2956 3137 2557 
Q 3303 2159 3303 1684 
Q 3303 1175 3120 767 
Q 2938 359 2589 142 
Q 2241 -75 1856 -75 
Q 1575 -75 1351 44 
Q 1128 163 984 344 
L 984 -1272 
L 422 -1272 
z
M 931 1641 
Q 931 1000 1190 694 
Q 1450 388 1819 388 
Q 2194 388 2461 705 
Q 2728 1022 2728 1688 
Q 2728 2322 2467 2637 
Q 2206 2953 1844 2953 
Q 1484 2953 1207 2617 
Q 931 2281 931 1641 
z
" transform="scale(0.015625)"/>
       </defs>
       <use xlink:href="#ArialMT-50"/>
       <use xlink:href="#ArialMT-48" x="66.699219"/>
       <use xlink:href="#ArialMT-41" x="138.916016"/>
       <use xlink:href="#ArialMT-53" x="205.615234"/>
       <use xlink:href="#ArialMT-45" x="272.314453"/>
       <use xlink:href="#ArialMT-32" x="339.013672"/>
       <use xlink:href="#ArialMT-41" x="394.628906"/>
       <use xlink:href="#ArialMT-20" x="455.828125"/>
       <use xlink:href="#ArialMT-2d" x="483.611328"/>
       <use xlink:href="#ArialMT-20" x="516.912109"/>
       <use xlink:href="#ArialMT-50" x="544.695312"/>
       <use xlink:href="#ArialMT-72" x="611.394531"/>
       <use xlink:href="#ArialMT-6f" x="644.695312"/>
       <use xlink:href="#ArialMT-70" x="700.310547"/>
       <use xlink:href="#ArialMT-6f" x="755.925781"/>
       <use xlink:href="#ArialMT-73" x="811.541016"/>
       <use xlink:href="#ArialMT-61" x="861.541016"/>
       <use xlink:href="#ArialMT-6c" x="917.15625"/>
      </g>
     </g>
    </g>
    <g id="xtick_7">
     <g id="text_18">
      <!-- PHASE2B - Outline -->
      <g style="fill: #262626" transform="translate(571.51875 505.788125) rotate(-90) scale(0.132 -0.132)">
       <defs>
        <path id="ArialMT-42" d="M 469 0 
L 469 4581 
L 2188 4581 
Q 2713 4581 3030 4442 
Q 3347 4303 3526 4014 
Q 3706 3725 3706 3409 
Q 3706 3116 3547 2856 
Q 3388 2597 3066 2438 
Q 3481 2316 3704 2022 
Q 3928 1728 3928 1328 
Q 3928 1006 3792 729 
Q 3656 453 3456 303 
Q 3256 153 2954 76 
Q 2653 0 2216 0 
L 469 0 
z
M 1075 2656 
L 2066 2656 
Q 2469 2656 2644 2709 
Q 2875 2778 2992 2937 
Q 3109 3097 3109 3338 
Q 3109 3566 3000 3739 
Q 2891 3913 2687 3977 
Q 2484 4041 1991 4041 
L 1075 4041 
L 1075 2656 
z
M 1075 541 
L 2216 541 
Q 2509 541 2628 563 
Q 2838 600 2978 687 
Q 3119 775 3209 942 
Q 3300 1109 3300 1328 
Q 3300 1584 3169 1773 
Q 3038 1963 2805 2039 
Q 2572 2116 2134 2116 
L 1075 2116 
L 1075 541 
z
" transform="scale(0.015625)"/>
       </defs>
       <use xlink:href="#ArialMT-50"/>
       <use xlink:href="#ArialMT-48" x="66.699219"/>
       <use xlink:href="#ArialMT-41" x="138.916016"/>
       <use xlink:href="#ArialMT-53" x="205.615234"/>
       <use xlink:href="#ArialMT-45" x="272.314453"/>
       <use xlink:href="#ArialMT-32" x="339.013672"/>
       <use xlink:href="#ArialMT-42" x="394.628906"/>
       <use xlink:href="#ArialMT-20" x="461.328125"/>
       <use xlink:href="#ArialMT-2d" x="489.111328"/>
       <use xlink:href="#ArialMT-20" x="522.412109"/>
       <use xlink:href="#ArialMT-4f" x="550.195312"/>
       <use xlink:href="#ArialMT-75" x="627.978516"/>
       <use xlink:href="#ArialMT-74" x="683.59375"/>
       <use xlink:href="#ArialMT-6c" x="711.376953"/>
       <use xlink:href="#ArialMT-69" x="733.59375"/>
       <use xlink:href="#ArialMT-6e" x="755.810547"/>
       <use xlink:href="#ArialMT-65" x="811.425781"/>
      </g>
     </g>
    </g>
    <g id="xtick_8">
     <g id="text_19">
      <!-- PHASE2C - Rough Draft -->
      <g style="fill: #262626" transform="translate(628.432244 535.859375) rotate(-90) scale(0.132 -0.132)">
       <defs>
        <path id="ArialMT-43" d="M 3763 1606 
L 4369 1453 
Q 4178 706 3683 314 
Q 3188 -78 2472 -78 
Q 1731 -78 1267 223 
Q 803 525 561 1097 
Q 319 1669 319 2325 
Q 319 3041 592 3573 
Q 866 4106 1370 4382 
Q 1875 4659 2481 4659 
Q 3169 4659 3637 4309 
Q 4106 3959 4291 3325 
L 3694 3184 
Q 3534 3684 3231 3912 
Q 2928 4141 2469 4141 
Q 1941 4141 1586 3887 
Q 1231 3634 1087 3207 
Q 944 2781 944 2328 
Q 944 1744 1114 1308 
Q 1284 872 1643 656 
Q 2003 441 2422 441 
Q 2931 441 3284 734 
Q 3638 1028 3763 1606 
z
" transform="scale(0.015625)"/>
        <path id="ArialMT-52" d="M 503 0 
L 503 4581 
L 2534 4581 
Q 3147 4581 3465 4457 
Q 3784 4334 3975 4021 
Q 4166 3709 4166 3331 
Q 4166 2844 3850 2509 
Q 3534 2175 2875 2084 
Q 3116 1969 3241 1856 
Q 3506 1613 3744 1247 
L 4541 0 
L 3778 0 
L 3172 953 
Q 2906 1366 2734 1584 
Q 2563 1803 2427 1890 
Q 2291 1978 2150 2013 
Q 2047 2034 1813 2034 
L 1109 2034 
L 1109 0 
L 503 0 
z
M 1109 2559 
L 2413 2559 
Q 2828 2559 3062 2645 
Q 3297 2731 3419 2920 
Q 3541 3109 3541 3331 
Q 3541 3656 3305 3865 
Q 3069 4075 2559 4075 
L 1109 4075 
L 1109 2559 
z
" transform="scale(0.015625)"/>
        <path id="ArialMT-67" d="M 319 -275 
L 866 -356 
Q 900 -609 1056 -725 
Q 1266 -881 1628 -881 
Q 2019 -881 2231 -725 
Q 2444 -569 2519 -288 
Q 2563 -116 2559 434 
Q 2191 0 1641 0 
Q 956 0 581 494 
Q 206 988 206 1678 
Q 206 2153 378 2554 
Q 550 2956 876 3175 
Q 1203 3394 1644 3394 
Q 2231 3394 2613 2919 
L 2613 3319 
L 3131 3319 
L 3131 450 
Q 3131 -325 2973 -648 
Q 2816 -972 2473 -1159 
Q 2131 -1347 1631 -1347 
Q 1038 -1347 672 -1080 
Q 306 -813 319 -275 
z
M 784 1719 
Q 784 1066 1043 766 
Q 1303 466 1694 466 
Q 2081 466 2343 764 
Q 2606 1063 2606 1700 
Q 2606 2309 2336 2618 
Q 2066 2928 1684 2928 
Q 1309 2928 1046 2623 
Q 784 2319 784 1719 
z
" transform="scale(0.015625)"/>
        <path id="ArialMT-44" d="M 494 0 
L 494 4581 
L 2072 4581 
Q 2606 4581 2888 4516 
Q 3281 4425 3559 4188 
Q 3922 3881 4101 3404 
Q 4281 2928 4281 2316 
Q 4281 1794 4159 1391 
Q 4038 988 3847 723 
Q 3656 459 3429 307 
Q 3203 156 2883 78 
Q 2563 0 2147 0 
L 494 0 
z
M 1100 541 
L 2078 541 
Q 2531 541 2789 625 
Q 3047 709 3200 863 
Q 3416 1078 3536 1442 
Q 3656 1806 3656 2325 
Q 3656 3044 3420 3430 
Q 3184 3816 2847 3947 
Q 2603 4041 2063 4041 
L 1100 4041 
L 1100 541 
z
" transform="scale(0.015625)"/>
        <path id="ArialMT-66" d="M 556 0 
L 556 2881 
L 59 2881 
L 59 3319 
L 556 3319 
L 556 3672 
Q 556 4006 616 4169 
Q 697 4388 901 4523 
Q 1106 4659 1475 4659 
Q 1713 4659 2000 4603 
L 1916 4113 
Q 1741 4144 1584 4144 
Q 1328 4144 1222 4034 
Q 1116 3925 1116 3625 
L 1116 3319 
L 1763 3319 
L 1763 2881 
L 1116 2881 
L 1116 0 
L 556 0 
z
" transform="scale(0.015625)"/>
       </defs>
       <use xlink:href="#ArialMT-50"/>
       <use xlink:href="#ArialMT-48" x="66.699219"/>
       <use xlink:href="#ArialMT-41" x="138.916016"/>
       <use xlink:href="#ArialMT-53" x="205.615234"/>
       <use xlink:href="#ArialMT-45" x="272.314453"/>
       <use xlink:href="#ArialMT-32" x="339.013672"/>
       <use xlink:href="#ArialMT-43" x="394.628906"/>
       <use xlink:href="#ArialMT-20" x="466.845703"/>
       <use xlink:href="#ArialMT-2d" x="494.628906"/>
       <use xlink:href="#ArialMT-20" x="527.929688"/>
       <use xlink:href="#ArialMT-52" x="555.712891"/>
       <use xlink:href="#ArialMT-6f" x="627.929688"/>
       <use xlink:href="#ArialMT-75" x="683.544922"/>
       <use xlink:href="#ArialMT-67" x="739.160156"/>
       <use xlink:href="#ArialMT-68" x="794.775391"/>
       <use xlink:href="#ArialMT-20" x="850.390625"/>
       <use xlink:href="#ArialMT-44" x="878.173828"/>
       <use xlink:href="#ArialMT-72" x="950.390625"/>
       <use xlink:href="#ArialMT-61" x="983.691406"/>
       <use xlink:href="#ArialMT-66" x="1039.306641"/>
       <use xlink:href="#ArialMT-74" x="1067.089844"/>
      </g>
     </g>
    </g>
    <g id="xtick_9">
     <g id="text_20">
      <!-- PHASE2D - Final Paper -->
      <g style="fill: #262626" transform="translate(685.655114 532.19225) rotate(-90) scale(0.132 -0.132)">
       <use xlink:href="#ArialMT-50"/>
       <use xlink:href="#ArialMT-48" x="66.699219"/>
       <use xlink:href="#ArialMT-41" x="138.916016"/>
       <use xlink:href="#ArialMT-53" x="205.615234"/>
       <use xlink:href="#ArialMT-45" x="272.314453"/>
       <use xlink:href="#ArialMT-32" x="339.013672"/>
       <use xlink:href="#ArialMT-44" x="394.628906"/>
       <use xlink:href="#ArialMT-20" x="466.845703"/>
       <use xlink:href="#ArialMT-2d" x="494.628906"/>
       <use xlink:href="#ArialMT-20" x="527.929688"/>
       <use xlink:href="#ArialMT-46" x="555.712891"/>
       <use xlink:href="#ArialMT-69" x="616.796875"/>
       <use xlink:href="#ArialMT-6e" x="639.013672"/>
       <use xlink:href="#ArialMT-61" x="694.628906"/>
       <use xlink:href="#ArialMT-6c" x="750.244141"/>
       <use xlink:href="#ArialMT-20" x="772.460938"/>
       <use xlink:href="#ArialMT-50" x="800.244141"/>
       <use xlink:href="#ArialMT-61" x="866.943359"/>
       <use xlink:href="#ArialMT-70" x="922.558594"/>
       <use xlink:href="#ArialMT-65" x="978.173828"/>
       <use xlink:href="#ArialMT-72" x="1033.789062"/>
      </g>
     </g>
    </g>
    <g id="xtick_10">
     <g id="text_21">
      <!-- PHASE3 - Finance -->
      <g style="fill: #262626" transform="translate(742.723295 502.118938) rotate(-90) scale(0.132 -0.132)">
       <use xlink:href="#ArialMT-50"/>
       <use xlink:href="#ArialMT-48" x="66.699219"/>
       <use xlink:href="#ArialMT-41" x="138.916016"/>
       <use xlink:href="#ArialMT-53" x="205.615234"/>
       <use xlink:href="#ArialMT-45" x="272.314453"/>
       <use xlink:href="#ArialMT-33" x="339.013672"/>
       <use xlink:href="#ArialMT-20" x="394.628906"/>
       <use xlink:href="#ArialMT-2d" x="422.412109"/>
       <use xlink:href="#ArialMT-20" x="455.712891"/>
       <use xlink:href="#ArialMT-46" x="483.496094"/>
       <use xlink:href="#ArialMT-69" x="544.580078"/>
       <use xlink:href="#ArialMT-6e" x="566.796875"/>
       <use xlink:href="#ArialMT-61" x="622.412109"/>
       <use xlink:href="#ArialMT-6e" x="678.027344"/>
       <use xlink:href="#ArialMT-63" x="733.642578"/>
       <use xlink:href="#ArialMT-65" x="783.642578"/>
      </g>
     </g>
    </g>
    <g id="xtick_11">
     <g id="text_22">
      <!-- PHASE3 - Bias -->
      <g style="fill: #262626" transform="translate(799.791477 480.840125) rotate(-90) scale(0.132 -0.132)">
       <use xlink:href="#ArialMT-50"/>
       <use xlink:href="#ArialMT-48" x="66.699219"/>
       <use xlink:href="#ArialMT-41" x="138.916016"/>
       <use xlink:href="#ArialMT-53" x="205.615234"/>
       <use xlink:href="#ArialMT-45" x="272.314453"/>
       <use xlink:href="#ArialMT-33" x="339.013672"/>
       <use xlink:href="#ArialMT-20" x="394.628906"/>
       <use xlink:href="#ArialMT-2d" x="422.412109"/>
       <use xlink:href="#ArialMT-20" x="455.712891"/>
       <use xlink:href="#ArialMT-42" x="483.496094"/>
       <use xlink:href="#ArialMT-69" x="550.195312"/>
       <use xlink:href="#ArialMT-61" x="572.412109"/>
       <use xlink:href="#ArialMT-73" x="628.027344"/>
      </g>
     </g>
    </g>
    <g id="xtick_12">
     <g id="text_23">
      <!-- PHASE3 - SHEG -->
      <g style="fill: #262626" transform="translate(856.859659 492.571625) rotate(-90) scale(0.132 -0.132)">
       <use xlink:href="#ArialMT-50"/>
       <use xlink:href="#ArialMT-48" x="66.699219"/>
       <use xlink:href="#ArialMT-41" x="138.916016"/>
       <use xlink:href="#ArialMT-53" x="205.615234"/>
       <use xlink:href="#ArialMT-45" x="272.314453"/>
       <use xlink:href="#ArialMT-33" x="339.013672"/>
       <use xlink:href="#ArialMT-20" x="394.628906"/>
       <use xlink:href="#ArialMT-2d" x="422.412109"/>
       <use xlink:href="#ArialMT-20" x="455.712891"/>
       <use xlink:href="#ArialMT-53" x="483.496094"/>
       <use xlink:href="#ArialMT-48" x="550.195312"/>
       <use xlink:href="#ArialMT-45" x="622.412109"/>
       <use xlink:href="#ArialMT-47" x="689.111328"/>
      </g>
     </g>
    </g>
   </g>
   <g id="matplotlib.axis_4">
    <g id="ytick_10">
     <g id="line2d_14">
      <path d="M 317.335432 352.521361 
L 888.01725 352.521361 
" clip-path="url(#p55cffe2fd9)" style="fill: none; stroke: #cccccc; stroke-width: 0.8; stroke-linecap: round"/>
     </g>
     <g id="text_24">
      <!-- 0.3 -->
      <g style="fill: #262626" transform="translate(290.687432 357.245517) scale(0.132 -0.132)">
       <use xlink:href="#ArialMT-30"/>
       <use xlink:href="#ArialMT-2e" x="55.615234"/>
       <use xlink:href="#ArialMT-33" x="83.398438"/>
      </g>
     </g>
    </g>
    <g id="ytick_11">
     <g id="line2d_15">
      <path d="M 317.335432 287.124151 
L 888.01725 287.124151 
" clip-path="url(#p55cffe2fd9)" style="fill: none; stroke: #cccccc; stroke-width: 0.8; stroke-linecap: round"/>
     </g>
     <g id="text_25">
      <!-- 0.4 -->
      <g style="fill: #262626" transform="translate(290.687432 291.848307) scale(0.132 -0.132)">
       <use xlink:href="#ArialMT-30"/>
       <use xlink:href="#ArialMT-2e" x="55.615234"/>
       <use xlink:href="#ArialMT-34" x="83.398438"/>
      </g>
     </g>
    </g>
    <g id="ytick_12">
     <g id="line2d_16">
      <path d="M 317.335432 221.726941 
L 888.01725 221.726941 
" clip-path="url(#p55cffe2fd9)" style="fill: none; stroke: #cccccc; stroke-width: 0.8; stroke-linecap: round"/>
     </g>
     <g id="text_26">
      <!-- 0.5 -->
      <g style="fill: #262626" transform="translate(290.687432 226.451097) scale(0.132 -0.132)">
       <use xlink:href="#ArialMT-30"/>
       <use xlink:href="#ArialMT-2e" x="55.615234"/>
       <use xlink:href="#ArialMT-35" x="83.398438"/>
      </g>
     </g>
    </g>
    <g id="ytick_13">
     <g id="line2d_17">
      <path d="M 317.335432 156.329731 
L 888.01725 156.329731 
" clip-path="url(#p55cffe2fd9)" style="fill: none; stroke: #cccccc; stroke-width: 0.8; stroke-linecap: round"/>
     </g>
     <g id="text_27">
      <!-- 0.6 -->
      <g style="fill: #262626" transform="translate(290.687432 161.053888) scale(0.132 -0.132)">
       <use xlink:href="#ArialMT-30"/>
       <use xlink:href="#ArialMT-2e" x="55.615234"/>
       <use xlink:href="#ArialMT-36" x="83.398438"/>
      </g>
     </g>
    </g>
    <g id="ytick_14">
     <g id="line2d_18">
      <path d="M 317.335432 90.932522 
L 888.01725 90.932522 
" clip-path="url(#p55cffe2fd9)" style="fill: none; stroke: #cccccc; stroke-width: 0.8; stroke-linecap: round"/>
     </g>
     <g id="text_28">
      <!-- 0.7 -->
      <g style="fill: #262626" transform="translate(290.687432 95.656678) scale(0.132 -0.132)">
       <use xlink:href="#ArialMT-30"/>
       <use xlink:href="#ArialMT-2e" x="55.615234"/>
       <use xlink:href="#ArialMT-37" x="83.398438"/>
      </g>
     </g>
    </g>
    <g id="text_29">
     <!-- search_tactics_Hs_end -->
     <g style="fill: #262626" transform="translate(283.825432 291.556125) rotate(-90) scale(0.144 -0.144)">
      <use xlink:href="#ArialMT-73"/>
      <use xlink:href="#ArialMT-65" x="50"/>
      <use xlink:href="#ArialMT-61" x="105.615234"/>
      <use xlink:href="#ArialMT-72" x="161.230469"/>
      <use xlink:href="#ArialMT-63" x="194.53125"/>
      <use xlink:href="#ArialMT-68" x="244.53125"/>
      <use xlink:href="#ArialMT-5f" x="300.146484"/>
      <use xlink:href="#ArialMT-74" x="355.761719"/>
      <use xlink:href="#ArialMT-61" x="383.544922"/>
      <use xlink:href="#ArialMT-63" x="439.160156"/>
      <use xlink:href="#ArialMT-74" x="489.160156"/>
      <use xlink:href="#ArialMT-69" x="516.943359"/>
      <use xlink:href="#ArialMT-63" x="539.160156"/>
      <use xlink:href="#ArialMT-73" x="589.160156"/>
      <use xlink:href="#ArialMT-5f" x="639.160156"/>
      <use xlink:href="#ArialMT-48" x="694.775391"/>
      <use xlink:href="#ArialMT-73" x="766.992188"/>
      <use xlink:href="#ArialMT-5f" x="816.992188"/>
      <use xlink:href="#ArialMT-65" x="872.607422"/>
      <use xlink:href="#ArialMT-6e" x="928.222656"/>
      <use xlink:href="#ArialMT-64" x="983.837891"/>
     </g>
    </g>
   </g>
   <g id="line2d_19">
    <path d="M 344.442818 263.969957 
L 401.511 257.616935 
L 458.579182 223.732916 
L 515.647364 151.92846 
L 572.715545 209.570303 
L 629.783727 193.618834 
L 686.851909 274.385969 
L 743.920091 367.92 
L 800.988273 340.691855 
L 858.056455 322.061301 
" clip-path="url(#p55cffe2fd9)" style="fill: none; stroke: #1f77b4; stroke-width: 2.16; stroke-linecap: round"/>
   </g>
   <g id="PathCollection_3">
    <defs>
     <path id="mbecc499323" d="M 0 -2.707159 
L -2.707159 2.707159 
L 2.707159 2.707159 
z
" style="stroke: #1f77b4; stroke-width: 1.62"/>
    </defs>
    <g clip-path="url(#p55cffe2fd9)">
     <use xlink:href="#mbecc499323" x="344.442818" y="263.969957" style="fill: #1f77b4; stroke: #1f77b4; stroke-width: 1.62"/>
     <use xlink:href="#mbecc499323" x="401.511" y="257.616935" style="fill: #1f77b4; stroke: #1f77b4; stroke-width: 1.62"/>
     <use xlink:href="#mbecc499323" x="458.579182" y="223.732916" style="fill: #1f77b4; stroke: #1f77b4; stroke-width: 1.62"/>
     <use xlink:href="#mbecc499323" x="515.647364" y="151.92846" style="fill: #1f77b4; stroke: #1f77b4; stroke-width: 1.62"/>
     <use xlink:href="#mbecc499323" x="572.715545" y="209.570303" style="fill: #1f77b4; stroke: #1f77b4; stroke-width: 1.62"/>
     <use xlink:href="#mbecc499323" x="629.783727" y="193.618834" style="fill: #1f77b4; stroke: #1f77b4; stroke-width: 1.62"/>
     <use xlink:href="#mbecc499323" x="686.851909" y="274.385969" style="fill: #1f77b4; stroke: #1f77b4; stroke-width: 1.62"/>
     <use xlink:href="#mbecc499323" x="743.920091" y="367.92" style="fill: #1f77b4; stroke: #1f77b4; stroke-width: 1.62"/>
     <use xlink:href="#mbecc499323" x="800.988273" y="340.691855" style="fill: #1f77b4; stroke: #1f77b4; stroke-width: 1.62"/>
     <use xlink:href="#mbecc499323" x="858.056455" y="322.061301" style="fill: #1f77b4; stroke: #1f77b4; stroke-width: 1.62"/>
    </g>
   </g>
   <g id="line2d_20">
    <path d="M 347.296227 203.759178 
L 404.364409 221.19913 
L 461.432591 198.85095 
L 518.500773 123.616973 
L 575.568955 81.390984 
L 632.637136 66.174399 
L 689.705318 65.52 
L 746.7735 329.245548 
L 803.841682 249.552298 
L 860.909864 272.278802 
" clip-path="url(#p55cffe2fd9)" style="fill: none; stroke-dasharray: 7.992,3.456; stroke-dashoffset: 0; stroke: #ff7f0e; stroke-width: 2.16"/>
   </g>
   <g id="PathCollection_4">
    <defs>
     <path id="mf738bd866f" d="M 0 2.707159 
C 0.717947 2.707159 1.406585 2.421915 1.91425 1.91425 
C 2.421915 1.406585 2.707159 0.717947 2.707159 0 
C 2.707159 -0.717947 2.421915 -1.406585 1.91425 -1.91425 
C 1.406585 -2.421915 0.717947 -2.707159 0 -2.707159 
C -0.717947 -2.707159 -1.406585 -2.421915 -1.91425 -1.91425 
C -2.421915 -1.406585 -2.707159 -0.717947 -2.707159 0 
C -2.707159 0.717947 -2.421915 1.406585 -1.91425 1.91425 
C -1.406585 2.421915 -0.717947 2.707159 0 2.707159 
z
" style="stroke: #ff7f0e; stroke-width: 1.62"/>
    </defs>
    <g clip-path="url(#p55cffe2fd9)">
     <use xlink:href="#mf738bd866f" x="347.296227" y="203.759178" style="fill: #ff7f0e; stroke: #ff7f0e; stroke-width: 1.62"/>
     <use xlink:href="#mf738bd866f" x="404.364409" y="221.19913" style="fill: #ff7f0e; stroke: #ff7f0e; stroke-width: 1.62"/>
     <use xlink:href="#mf738bd866f" x="461.432591" y="198.85095" style="fill: #ff7f0e; stroke: #ff7f0e; stroke-width: 1.62"/>
     <use xlink:href="#mf738bd866f" x="518.500773" y="123.616973" style="fill: #ff7f0e; stroke: #ff7f0e; stroke-width: 1.62"/>
     <use xlink:href="#mf738bd866f" x="575.568955" y="81.390984" style="fill: #ff7f0e; stroke: #ff7f0e; stroke-width: 1.62"/>
     <use xlink:href="#mf738bd866f" x="632.637136" y="66.174399" style="fill: #ff7f0e; stroke: #ff7f0e; stroke-width: 1.62"/>
     <use xlink:href="#mf738bd866f" x="689.705318" y="65.52" style="fill: #ff7f0e; stroke: #ff7f0e; stroke-width: 1.62"/>
     <use xlink:href="#mf738bd866f" x="746.7735" y="329.245548" style="fill: #ff7f0e; stroke: #ff7f0e; stroke-width: 1.62"/>
     <use xlink:href="#mf738bd866f" x="803.841682" y="249.552298" style="fill: #ff7f0e; stroke: #ff7f0e; stroke-width: 1.62"/>
     <use xlink:href="#mf738bd866f" x="860.909864" y="272.278802" style="fill: #ff7f0e; stroke: #ff7f0e; stroke-width: 1.62"/>
    </g>
   </g>
   <g id="patch_6">
    <path d="M 317.335432 383.04 
L 317.335432 50.4 
" style="fill: none; stroke: #cccccc; stroke-linejoin: miter; stroke-linecap: square"/>
   </g>
   <g id="patch_7">
    <path d="M 317.335432 383.04 
L 888.01725 383.04 
" style="fill: none; stroke: #cccccc; stroke-linejoin: miter; stroke-linecap: square"/>
   </g>
   <g id="text_30">
    <!-- Trend Over Time -->
    <g style="fill: #262626" transform="translate(548.935091 44.4) scale(0.144 -0.144)">
     <defs>
      <path id="ArialMT-54" d="M 1659 0 
L 1659 4041 
L 150 4041 
L 150 4581 
L 3781 4581 
L 3781 4041 
L 2266 4041 
L 2266 0 
L 1659 0 
z
" transform="scale(0.015625)"/>
      <path id="ArialMT-6d" d="M 422 0 
L 422 3319 
L 925 3319 
L 925 2853 
Q 1081 3097 1340 3245 
Q 1600 3394 1931 3394 
Q 2300 3394 2536 3241 
Q 2772 3088 2869 2813 
Q 3263 3394 3894 3394 
Q 4388 3394 4653 3120 
Q 4919 2847 4919 2278 
L 4919 0 
L 4359 0 
L 4359 2091 
Q 4359 2428 4304 2576 
Q 4250 2725 4106 2815 
Q 3963 2906 3769 2906 
Q 3419 2906 3187 2673 
Q 2956 2441 2956 1928 
L 2956 0 
L 2394 0 
L 2394 2156 
Q 2394 2531 2256 2718 
Q 2119 2906 1806 2906 
Q 1569 2906 1367 2781 
Q 1166 2656 1075 2415 
Q 984 2175 984 1722 
L 984 0 
L 422 0 
z
" transform="scale(0.015625)"/>
     </defs>
     <use xlink:href="#ArialMT-54"/>
     <use xlink:href="#ArialMT-72" x="57.333984"/>
     <use xlink:href="#ArialMT-65" x="90.634766"/>
     <use xlink:href="#ArialMT-6e" x="146.25"/>
     <use xlink:href="#ArialMT-64" x="201.865234"/>
     <use xlink:href="#ArialMT-20" x="257.480469"/>
     <use xlink:href="#ArialMT-4f" x="285.263672"/>
     <use xlink:href="#ArialMT-76" x="363.046875"/>
     <use xlink:href="#ArialMT-65" x="413.046875"/>
     <use xlink:href="#ArialMT-72" x="468.662109"/>
     <use xlink:href="#ArialMT-20" x="501.962891"/>
     <use xlink:href="#ArialMT-54" x="527.996094"/>
     <use xlink:href="#ArialMT-69" x="585.330078"/>
     <use xlink:href="#ArialMT-6d" x="607.546875"/>
     <use xlink:href="#ArialMT-65" x="690.847656"/>
    </g>
   </g>
   <g id="legend_1">
    <g id="patch_8">
     <path d="M 818.929687 118.072875 
L 878.77725 118.072875 
Q 881.41725 118.072875 881.41725 115.432875 
L 881.41725 59.64 
Q 881.41725 57 878.77725 57 
L 818.929687 57 
Q 816.289687 57 816.289687 59.64 
L 816.289687 115.432875 
Q 816.289687 118.072875 818.929687 118.072875 
z
" style="fill: #ffffff; opacity: 0.8; stroke: #cccccc; stroke-width: 0.8; stroke-linejoin: miter"/>
    </g>
    <g id="text_31">
     <!-- Profile -->
     <g style="fill: #262626" transform="translate(828.445969 72.58725) scale(0.144 -0.144)">
      <use xlink:href="#ArialMT-50"/>
      <use xlink:href="#ArialMT-72" x="66.699219"/>
      <use xlink:href="#ArialMT-6f" x="100"/>
      <use xlink:href="#ArialMT-66" x="155.615234"/>
      <use xlink:href="#ArialMT-69" x="183.398438"/>
      <use xlink:href="#ArialMT-6c" x="205.615234"/>
      <use xlink:href="#ArialMT-65" x="227.832031"/>
     </g>
    </g>
    <g id="PathCollection_5">
     <g>
      <use xlink:href="#mbecc499323" x="834.769687" y="88.032563" style="fill: #1f77b4; stroke: #1f77b4; stroke-width: 1.62"/>
     </g>
    </g>
    <g id="text_32">
     <!-- HI -->
     <g style="fill: #262626" transform="translate(858.529687 91.497563) scale(0.132 -0.132)">
      <use xlink:href="#ArialMT-48"/>
      <use xlink:href="#ArialMT-49" x="72.216797"/>
     </g>
    </g>
    <g id="PathCollection_6">
     <g>
      <use xlink:href="#mf738bd866f" x="834.769687" y="106.704375" style="fill: #ff7f0e; stroke: #ff7f0e; stroke-width: 1.62"/>
     </g>
    </g>
    <g id="text_33">
     <!-- LO -->
     <g style="fill: #262626" transform="translate(858.529687 110.169375) scale(0.132 -0.132)">
      <use xlink:href="#ArialMT-4c"/>
      <use xlink:href="#ArialMT-4f" x="55.615234"/>
     </g>
    </g>
   </g>
  </g>
  <g id="text_34">
   <!-- Stationary Entropy of Search Tactics at Task End - - All Task(s) -->
   <g style="fill: #262626" transform="translate(219.76185 19.7793) scale(0.1728 -0.1728)">
    <defs>
     <path id="ArialMT-79" d="M 397 -1278 
L 334 -750 
Q 519 -800 656 -800 
Q 844 -800 956 -737 
Q 1069 -675 1141 -563 
Q 1194 -478 1313 -144 
Q 1328 -97 1363 -6 
L 103 3319 
L 709 3319 
L 1400 1397 
Q 1534 1031 1641 628 
Q 1738 1016 1872 1384 
L 2581 3319 
L 3144 3319 
L 1881 -56 
Q 1678 -603 1566 -809 
Q 1416 -1088 1222 -1217 
Q 1028 -1347 759 -1347 
Q 597 -1347 397 -1278 
z
" transform="scale(0.015625)"/>
     <path id="ArialMT-6b" d="M 425 0 
L 425 4581 
L 988 4581 
L 988 1969 
L 2319 3319 
L 3047 3319 
L 1778 2088 
L 3175 0 
L 2481 0 
L 1384 1697 
L 988 1316 
L 988 0 
L 425 0 
z
" transform="scale(0.015625)"/>
     <path id="ArialMT-28" d="M 1497 -1347 
Q 1031 -759 709 28 
Q 388 816 388 1659 
Q 388 2403 628 3084 
Q 909 3875 1497 4659 
L 1900 4659 
Q 1522 4009 1400 3731 
Q 1209 3300 1100 2831 
Q 966 2247 966 1656 
Q 966 153 1900 -1347 
L 1497 -1347 
z
" transform="scale(0.015625)"/>
     <path id="ArialMT-29" d="M 791 -1347 
L 388 -1347 
Q 1322 153 1322 1656 
Q 1322 2244 1188 2822 
Q 1081 3291 891 3722 
Q 769 4003 388 4659 
L 791 4659 
Q 1378 3875 1659 3084 
Q 1900 2403 1900 1659 
Q 1900 816 1576 28 
Q 1253 -759 791 -1347 
z
" transform="scale(0.015625)"/>
    </defs>
    <use xlink:href="#ArialMT-53"/>
    <use xlink:href="#ArialMT-74" x="66.699219"/>
    <use xlink:href="#ArialMT-61" x="94.482422"/>
    <use xlink:href="#ArialMT-74" x="150.097656"/>
    <use xlink:href="#ArialMT-69" x="177.880859"/>
    <use xlink:href="#ArialMT-6f" x="200.097656"/>
    <use xlink:href="#ArialMT-6e" x="255.712891"/>
    <use xlink:href="#ArialMT-61" x="311.328125"/>
    <use xlink:href="#ArialMT-72" x="366.943359"/>
    <use xlink:href="#ArialMT-79" x="400.244141"/>
    <use xlink:href="#ArialMT-20" x="450.244141"/>
    <use xlink:href="#ArialMT-45" x="478.027344"/>
    <use xlink:href="#ArialMT-6e" x="544.726562"/>
    <use xlink:href="#ArialMT-74" x="600.341797"/>
    <use xlink:href="#ArialMT-72" x="628.125"/>
    <use xlink:href="#ArialMT-6f" x="661.425781"/>
    <use xlink:href="#ArialMT-70" x="717.041016"/>
    <use xlink:href="#ArialMT-79" x="772.65625"/>
    <use xlink:href="#ArialMT-20" x="822.65625"/>
    <use xlink:href="#ArialMT-6f" x="850.439453"/>
    <use xlink:href="#ArialMT-66" x="906.054688"/>
    <use xlink:href="#ArialMT-20" x="933.837891"/>
    <use xlink:href="#ArialMT-53" x="961.621094"/>
    <use xlink:href="#ArialMT-65" x="1028.320312"/>
    <use xlink:href="#ArialMT-61" x="1083.935547"/>
    <use xlink:href="#ArialMT-72" x="1139.550781"/>
    <use xlink:href="#ArialMT-63" x="1172.851562"/>
    <use xlink:href="#ArialMT-68" x="1222.851562"/>
    <use xlink:href="#ArialMT-20" x="1278.466797"/>
    <use xlink:href="#ArialMT-54" x="1304.5"/>
    <use xlink:href="#ArialMT-61" x="1354.458984"/>
    <use xlink:href="#ArialMT-63" x="1410.074219"/>
    <use xlink:href="#ArialMT-74" x="1460.074219"/>
    <use xlink:href="#ArialMT-69" x="1487.857422"/>
    <use xlink:href="#ArialMT-63" x="1510.074219"/>
    <use xlink:href="#ArialMT-73" x="1560.074219"/>
    <use xlink:href="#ArialMT-20" x="1610.074219"/>
    <use xlink:href="#ArialMT-61" x="1637.857422"/>
    <use xlink:href="#ArialMT-74" x="1693.472656"/>
    <use xlink:href="#ArialMT-20" x="1721.255859"/>
    <use xlink:href="#ArialMT-54" x="1747.289062"/>
    <use xlink:href="#ArialMT-61" x="1797.248047"/>
    <use xlink:href="#ArialMT-73" x="1852.863281"/>
    <use xlink:href="#ArialMT-6b" x="1902.863281"/>
    <use xlink:href="#ArialMT-20" x="1952.863281"/>
    <use xlink:href="#ArialMT-45" x="1980.646484"/>
    <use xlink:href="#ArialMT-6e" x="2047.345703"/>
    <use xlink:href="#ArialMT-64" x="2102.960938"/>
    <use xlink:href="#ArialMT-20" x="2158.576172"/>
    <use xlink:href="#ArialMT-2d" x="2186.359375"/>
    <use xlink:href="#ArialMT-2d" x="2219.660156"/>
    <use xlink:href="#ArialMT-20" x="2252.960938"/>
    <use xlink:href="#ArialMT-41" x="2275.244141"/>
    <use xlink:href="#ArialMT-6c" x="2341.943359"/>
    <use xlink:href="#ArialMT-6c" x="2364.160156"/>
    <use xlink:href="#ArialMT-20" x="2386.376953"/>
    <use xlink:href="#ArialMT-54" x="2412.410156"/>
    <use xlink:href="#ArialMT-61" x="2462.369141"/>
    <use xlink:href="#ArialMT-73" x="2517.984375"/>
    <use xlink:href="#ArialMT-6b" x="2567.984375"/>
    <use xlink:href="#ArialMT-28" x="2617.984375"/>
    <use xlink:href="#ArialMT-73" x="2651.285156"/>
    <use xlink:href="#ArialMT-29" x="2701.285156"/>
   </g>
  </g>
 </g>
 <defs>
  <clipPath id="p0c250df790">
   <rect x="51.01725" y="50.4" width="190.227273" height="332.64"/>
  </clipPath>
  <clipPath id="p55cffe2fd9">
   <rect x="317.335432" y="50.4" width="570.681818" height="332.64"/>
  </clipPath>
 </defs>
</svg>
