<?xml version="1.0" encoding="utf-8" standalone="no"?>
<!DOCTYPE svg PUBLIC "-//W3C//DTD SVG 1.1//EN"
  "http://www.w3.org/Graphics/SVG/1.1/DTD/svg11.dtd">
<svg xmlns:xlink="http://www.w3.org/1999/xlink" width="902.726437pt" height="543.059375pt" viewBox="0 0 902.726437 543.059375" xmlns="http://www.w3.org/2000/svg" version="1.1">
 <metadata>
  <rdf:RDF xmlns:dc="http://purl.org/dc/elements/1.1/" xmlns:cc="http://creativecommons.org/ns#" xmlns:rdf="http://www.w3.org/1999/02/22-rdf-syntax-ns#">
   <cc:Work>
    <dc:type rdf:resource="http://purl.org/dc/dcmitype/StillImage"/>
    <dc:date>2023-02-22T19:00:06.071111</dc:date>
    <dc:format>image/svg+xml</dc:format>
    <dc:creator>
     <cc:Agent>
      <dc:title>Matplotlib v3.6.3, https://matplotlib.org/</dc:title>
     </cc:Agent>
    </dc:creator>
   </cc:Work>
  </rdf:RDF>
 </metadata>
 <defs>
  <style type="text/css">*{stroke-linejoin: round; stroke-linecap: butt}</style>
 </defs>
 <g id="figure_1">
  <g id="patch_1">
   <path d="M 0 543.059375 
L 902.726437 543.059375 
L 902.726437 0 
L 0 0 
z
" style="fill: #ffffff"/>
  </g>
  <g id="axes_1">
   <g id="patch_2">
    <path d="M 58.526438 383.04 
L 248.75371 383.04 
L 248.75371 50.4 
L 58.526438 50.4 
z
" style="fill: #ffffff"/>
   </g>
   <g id="matplotlib.axis_1">
    <g id="xtick_1">
     <g id="text_1">
      <!-- HI -->
      <g style="fill: #262626" transform="translate(99.483256 400.788313) scale(0.132 -0.132)">
       <defs>
        <path id="ArialMT-48" d="M 513 0 
L 513 4581 
L 1119 4581 
L 1119 2700 
L 3500 2700 
L 3500 4581 
L 4106 4581 
L 4106 0 
L 3500 0 
L 3500 2159 
L 1119 2159 
L 1119 0 
L 513 0 
z
" transform="scale(0.015625)"/>
        <path id="ArialMT-49" d="M 597 0 
L 597 4581 
L 1203 4581 
L 1203 0 
L 597 0 
z
" transform="scale(0.015625)"/>
       </defs>
       <use xlink:href="#ArialMT-48"/>
       <use xlink:href="#ArialMT-49" x="72.216797"/>
      </g>
     </g>
    </g>
    <g id="xtick_2">
     <g id="text_2">
      <!-- LO -->
      <g style="fill: #262626" transform="translate(192.393111 400.788313) scale(0.132 -0.132)">
       <defs>
        <path id="ArialMT-4c" d="M 469 0 
L 469 4581 
L 1075 4581 
L 1075 541 
L 3331 541 
L 3331 0 
L 469 0 
z
" transform="scale(0.015625)"/>
        <path id="ArialMT-4f" d="M 309 2231 
Q 309 3372 921 4017 
Q 1534 4663 2503 4663 
Q 3138 4663 3647 4359 
Q 4156 4056 4423 3514 
Q 4691 2972 4691 2284 
Q 4691 1588 4409 1038 
Q 4128 488 3612 205 
Q 3097 -78 2500 -78 
Q 1853 -78 1343 234 
Q 834 547 571 1087 
Q 309 1628 309 2231 
z
M 934 2222 
Q 934 1394 1379 917 
Q 1825 441 2497 441 
Q 3181 441 3623 922 
Q 4066 1403 4066 2288 
Q 4066 2847 3877 3264 
Q 3688 3681 3323 3911 
Q 2959 4141 2506 4141 
Q 1863 4141 1398 3698 
Q 934 3256 934 2222 
z
" transform="scale(0.015625)"/>
       </defs>
       <use xlink:href="#ArialMT-4c"/>
       <use xlink:href="#ArialMT-4f" x="55.615234"/>
      </g>
     </g>
    </g>
   </g>
   <g id="matplotlib.axis_2">
    <g id="ytick_1">
     <g id="line2d_1">
      <path d="M 58.526438 342.72 
L 248.75371 342.72 
" clip-path="url(#p6946a14926)" style="fill: none; stroke: #cccccc; stroke-width: 0.8; stroke-linecap: round"/>
     </g>
     <g id="text_3">
      <!-- 2.5 -->
      <g style="fill: #262626" transform="translate(31.878438 347.444156) scale(0.132 -0.132)">
       <defs>
        <path id="ArialMT-32" d="M 3222 541 
L 3222 0 
L 194 0 
Q 188 203 259 391 
Q 375 700 629 1000 
Q 884 1300 1366 1694 
Q 2113 2306 2375 2664 
Q 2638 3022 2638 3341 
Q 2638 3675 2398 3904 
Q 2159 4134 1775 4134 
Q 1369 4134 1125 3890 
Q 881 3647 878 3216 
L 300 3275 
Q 359 3922 746 4261 
Q 1134 4600 1788 4600 
Q 2447 4600 2831 4234 
Q 3216 3869 3216 3328 
Q 3216 3053 3103 2787 
Q 2991 2522 2730 2228 
Q 2469 1934 1863 1422 
Q 1356 997 1212 845 
Q 1069 694 975 541 
L 3222 541 
z
" transform="scale(0.015625)"/>
        <path id="ArialMT-2e" d="M 581 0 
L 581 641 
L 1222 641 
L 1222 0 
L 581 0 
z
" transform="scale(0.015625)"/>
        <path id="ArialMT-35" d="M 266 1200 
L 856 1250 
Q 922 819 1161 601 
Q 1400 384 1738 384 
Q 2144 384 2425 690 
Q 2706 997 2706 1503 
Q 2706 1984 2436 2262 
Q 2166 2541 1728 2541 
Q 1456 2541 1237 2417 
Q 1019 2294 894 2097 
L 366 2166 
L 809 4519 
L 3088 4519 
L 3088 3981 
L 1259 3981 
L 1013 2750 
Q 1425 3038 1878 3038 
Q 2478 3038 2890 2622 
Q 3303 2206 3303 1553 
Q 3303 931 2941 478 
Q 2500 -78 1738 -78 
Q 1113 -78 717 272 
Q 322 622 266 1200 
z
" transform="scale(0.015625)"/>
       </defs>
       <use xlink:href="#ArialMT-32"/>
       <use xlink:href="#ArialMT-2e" x="55.615234"/>
       <use xlink:href="#ArialMT-35" x="83.398438"/>
      </g>
     </g>
    </g>
    <g id="ytick_2">
     <g id="line2d_2">
      <path d="M 58.526438 300.72 
L 248.75371 300.72 
" clip-path="url(#p6946a14926)" style="fill: none; stroke: #cccccc; stroke-width: 0.8; stroke-linecap: round"/>
     </g>
     <g id="text_4">
      <!-- 5.0 -->
      <g style="fill: #262626" transform="translate(31.878438 305.444156) scale(0.132 -0.132)">
       <defs>
        <path id="ArialMT-30" d="M 266 2259 
Q 266 3072 433 3567 
Q 600 4063 929 4331 
Q 1259 4600 1759 4600 
Q 2128 4600 2406 4451 
Q 2684 4303 2865 4023 
Q 3047 3744 3150 3342 
Q 3253 2941 3253 2259 
Q 3253 1453 3087 958 
Q 2922 463 2592 192 
Q 2263 -78 1759 -78 
Q 1097 -78 719 397 
Q 266 969 266 2259 
z
M 844 2259 
Q 844 1131 1108 757 
Q 1372 384 1759 384 
Q 2147 384 2411 759 
Q 2675 1134 2675 2259 
Q 2675 3391 2411 3762 
Q 2147 4134 1753 4134 
Q 1366 4134 1134 3806 
Q 844 3388 844 2259 
z
" transform="scale(0.015625)"/>
       </defs>
       <use xlink:href="#ArialMT-35"/>
       <use xlink:href="#ArialMT-2e" x="55.615234"/>
       <use xlink:href="#ArialMT-30" x="83.398438"/>
      </g>
     </g>
    </g>
    <g id="ytick_3">
     <g id="line2d_3">
      <path d="M 58.526438 258.72 
L 248.75371 258.72 
" clip-path="url(#p6946a14926)" style="fill: none; stroke: #cccccc; stroke-width: 0.8; stroke-linecap: round"/>
     </g>
     <g id="text_5">
      <!-- 7.5 -->
      <g style="fill: #262626" transform="translate(31.878438 263.444156) scale(0.132 -0.132)">
       <defs>
        <path id="ArialMT-37" d="M 303 3981 
L 303 4522 
L 3269 4522 
L 3269 4084 
Q 2831 3619 2401 2847 
Q 1972 2075 1738 1259 
Q 1569 684 1522 0 
L 944 0 
Q 953 541 1156 1306 
Q 1359 2072 1739 2783 
Q 2119 3494 2547 3981 
L 303 3981 
z
" transform="scale(0.015625)"/>
       </defs>
       <use xlink:href="#ArialMT-37"/>
       <use xlink:href="#ArialMT-2e" x="55.615234"/>
       <use xlink:href="#ArialMT-35" x="83.398438"/>
      </g>
     </g>
    </g>
    <g id="ytick_4">
     <g id="line2d_4">
      <path d="M 58.526438 216.72 
L 248.75371 216.72 
" clip-path="url(#p6946a14926)" style="fill: none; stroke: #cccccc; stroke-width: 0.8; stroke-linecap: round"/>
     </g>
     <g id="text_6">
      <!-- 10.0 -->
      <g style="fill: #262626" transform="translate(24.538 221.444156) scale(0.132 -0.132)">
       <defs>
        <path id="ArialMT-31" d="M 2384 0 
L 1822 0 
L 1822 3584 
Q 1619 3391 1289 3197 
Q 959 3003 697 2906 
L 697 3450 
Q 1169 3672 1522 3987 
Q 1875 4303 2022 4600 
L 2384 4600 
L 2384 0 
z
" transform="scale(0.015625)"/>
       </defs>
       <use xlink:href="#ArialMT-31"/>
       <use xlink:href="#ArialMT-30" x="55.615234"/>
       <use xlink:href="#ArialMT-2e" x="111.230469"/>
       <use xlink:href="#ArialMT-30" x="139.013672"/>
      </g>
     </g>
    </g>
    <g id="ytick_5">
     <g id="line2d_5">
      <path d="M 58.526438 174.72 
L 248.75371 174.72 
" clip-path="url(#p6946a14926)" style="fill: none; stroke: #cccccc; stroke-width: 0.8; stroke-linecap: round"/>
     </g>
     <g id="text_7">
      <!-- 12.5 -->
      <g style="fill: #262626" transform="translate(24.538 179.444156) scale(0.132 -0.132)">
       <use xlink:href="#ArialMT-31"/>
       <use xlink:href="#ArialMT-32" x="55.615234"/>
       <use xlink:href="#ArialMT-2e" x="111.230469"/>
       <use xlink:href="#ArialMT-35" x="139.013672"/>
      </g>
     </g>
    </g>
    <g id="ytick_6">
     <g id="line2d_6">
      <path d="M 58.526438 132.72 
L 248.75371 132.72 
" clip-path="url(#p6946a14926)" style="fill: none; stroke: #cccccc; stroke-width: 0.8; stroke-linecap: round"/>
     </g>
     <g id="text_8">
      <!-- 15.0 -->
      <g style="fill: #262626" transform="translate(24.538 137.444156) scale(0.132 -0.132)">
       <use xlink:href="#ArialMT-31"/>
       <use xlink:href="#ArialMT-35" x="55.615234"/>
       <use xlink:href="#ArialMT-2e" x="111.230469"/>
       <use xlink:href="#ArialMT-30" x="139.013672"/>
      </g>
     </g>
    </g>
    <g id="ytick_7">
     <g id="line2d_7">
      <path d="M 58.526438 90.72 
L 248.75371 90.72 
" clip-path="url(#p6946a14926)" style="fill: none; stroke: #cccccc; stroke-width: 0.8; stroke-linecap: round"/>
     </g>
     <g id="text_9">
      <!-- 17.5 -->
      <g style="fill: #262626" transform="translate(24.538 95.444156) scale(0.132 -0.132)">
       <use xlink:href="#ArialMT-31"/>
       <use xlink:href="#ArialMT-37" x="55.615234"/>
       <use xlink:href="#ArialMT-2e" x="111.230469"/>
       <use xlink:href="#ArialMT-35" x="139.013672"/>
      </g>
     </g>
    </g>
    <g id="text_10">
     <!-- query_len_avg -->
     <g style="fill: #262626" transform="translate(17.50725 263.952) rotate(-90) scale(0.144 -0.144)">
      <defs>
       <path id="ArialMT-71" d="M 2538 -1272 
L 2538 353 
Q 2406 169 2170 47 
Q 1934 -75 1669 -75 
Q 1078 -75 651 397 
Q 225 869 225 1691 
Q 225 2191 398 2587 
Q 572 2984 901 3189 
Q 1231 3394 1625 3394 
Q 2241 3394 2594 2875 
L 2594 3319 
L 3100 3319 
L 3100 -1272 
L 2538 -1272 
z
M 803 1669 
Q 803 1028 1072 708 
Q 1341 388 1716 388 
Q 2075 388 2334 692 
Q 2594 997 2594 1619 
Q 2594 2281 2320 2615 
Q 2047 2950 1678 2950 
Q 1313 2950 1058 2639 
Q 803 2328 803 1669 
z
" transform="scale(0.015625)"/>
       <path id="ArialMT-75" d="M 2597 0 
L 2597 488 
Q 2209 -75 1544 -75 
Q 1250 -75 995 37 
Q 741 150 617 320 
Q 494 491 444 738 
Q 409 903 409 1263 
L 409 3319 
L 972 3319 
L 972 1478 
Q 972 1038 1006 884 
Q 1059 663 1231 536 
Q 1403 409 1656 409 
Q 1909 409 2131 539 
Q 2353 669 2445 892 
Q 2538 1116 2538 1541 
L 2538 3319 
L 3100 3319 
L 3100 0 
L 2597 0 
z
" transform="scale(0.015625)"/>
       <path id="ArialMT-65" d="M 2694 1069 
L 3275 997 
Q 3138 488 2766 206 
Q 2394 -75 1816 -75 
Q 1088 -75 661 373 
Q 234 822 234 1631 
Q 234 2469 665 2931 
Q 1097 3394 1784 3394 
Q 2450 3394 2872 2941 
Q 3294 2488 3294 1666 
Q 3294 1616 3291 1516 
L 816 1516 
Q 847 969 1125 678 
Q 1403 388 1819 388 
Q 2128 388 2347 550 
Q 2566 713 2694 1069 
z
M 847 1978 
L 2700 1978 
Q 2663 2397 2488 2606 
Q 2219 2931 1791 2931 
Q 1403 2931 1139 2672 
Q 875 2413 847 1978 
z
" transform="scale(0.015625)"/>
       <path id="ArialMT-72" d="M 416 0 
L 416 3319 
L 922 3319 
L 922 2816 
Q 1116 3169 1280 3281 
Q 1444 3394 1641 3394 
Q 1925 3394 2219 3213 
L 2025 2691 
Q 1819 2813 1613 2813 
Q 1428 2813 1281 2702 
Q 1134 2591 1072 2394 
Q 978 2094 978 1738 
L 978 0 
L 416 0 
z
" transform="scale(0.015625)"/>
       <path id="ArialMT-79" d="M 397 -1278 
L 334 -750 
Q 519 -800 656 -800 
Q 844 -800 956 -737 
Q 1069 -675 1141 -563 
Q 1194 -478 1313 -144 
Q 1328 -97 1363 -6 
L 103 3319 
L 709 3319 
L 1400 1397 
Q 1534 1031 1641 628 
Q 1738 1016 1872 1384 
L 2581 3319 
L 3144 3319 
L 1881 -56 
Q 1678 -603 1566 -809 
Q 1416 -1088 1222 -1217 
Q 1028 -1347 759 -1347 
Q 597 -1347 397 -1278 
z
" transform="scale(0.015625)"/>
       <path id="ArialMT-5f" d="M -97 -1272 
L -97 -866 
L 3631 -866 
L 3631 -1272 
L -97 -1272 
z
" transform="scale(0.015625)"/>
       <path id="ArialMT-6c" d="M 409 0 
L 409 4581 
L 972 4581 
L 972 0 
L 409 0 
z
" transform="scale(0.015625)"/>
       <path id="ArialMT-6e" d="M 422 0 
L 422 3319 
L 928 3319 
L 928 2847 
Q 1294 3394 1984 3394 
Q 2284 3394 2536 3286 
Q 2788 3178 2913 3003 
Q 3038 2828 3088 2588 
Q 3119 2431 3119 2041 
L 3119 0 
L 2556 0 
L 2556 2019 
Q 2556 2363 2490 2533 
Q 2425 2703 2258 2804 
Q 2091 2906 1866 2906 
Q 1506 2906 1245 2678 
Q 984 2450 984 1813 
L 984 0 
L 422 0 
z
" transform="scale(0.015625)"/>
       <path id="ArialMT-61" d="M 2588 409 
Q 2275 144 1986 34 
Q 1697 -75 1366 -75 
Q 819 -75 525 192 
Q 231 459 231 875 
Q 231 1119 342 1320 
Q 453 1522 633 1644 
Q 813 1766 1038 1828 
Q 1203 1872 1538 1913 
Q 2219 1994 2541 2106 
Q 2544 2222 2544 2253 
Q 2544 2597 2384 2738 
Q 2169 2928 1744 2928 
Q 1347 2928 1158 2789 
Q 969 2650 878 2297 
L 328 2372 
Q 403 2725 575 2942 
Q 747 3159 1072 3276 
Q 1397 3394 1825 3394 
Q 2250 3394 2515 3294 
Q 2781 3194 2906 3042 
Q 3031 2891 3081 2659 
Q 3109 2516 3109 2141 
L 3109 1391 
Q 3109 606 3145 398 
Q 3181 191 3288 0 
L 2700 0 
Q 2613 175 2588 409 
z
M 2541 1666 
Q 2234 1541 1622 1453 
Q 1275 1403 1131 1340 
Q 988 1278 909 1158 
Q 831 1038 831 891 
Q 831 666 1001 516 
Q 1172 366 1500 366 
Q 1825 366 2078 508 
Q 2331 650 2450 897 
Q 2541 1088 2541 1459 
L 2541 1666 
z
" transform="scale(0.015625)"/>
       <path id="ArialMT-76" d="M 1344 0 
L 81 3319 
L 675 3319 
L 1388 1331 
Q 1503 1009 1600 663 
Q 1675 925 1809 1294 
L 2547 3319 
L 3125 3319 
L 1869 0 
L 1344 0 
z
" transform="scale(0.015625)"/>
       <path id="ArialMT-67" d="M 319 -275 
L 866 -356 
Q 900 -609 1056 -725 
Q 1266 -881 1628 -881 
Q 2019 -881 2231 -725 
Q 2444 -569 2519 -288 
Q 2563 -116 2559 434 
Q 2191 0 1641 0 
Q 956 0 581 494 
Q 206 988 206 1678 
Q 206 2153 378 2554 
Q 550 2956 876 3175 
Q 1203 3394 1644 3394 
Q 2231 3394 2613 2919 
L 2613 3319 
L 3131 3319 
L 3131 450 
Q 3131 -325 2973 -648 
Q 2816 -972 2473 -1159 
Q 2131 -1347 1631 -1347 
Q 1038 -1347 672 -1080 
Q 306 -813 319 -275 
z
M 784 1719 
Q 784 1066 1043 766 
Q 1303 466 1694 466 
Q 2081 466 2343 764 
Q 2606 1063 2606 1700 
Q 2606 2309 2336 2618 
Q 2066 2928 1684 2928 
Q 1309 2928 1046 2623 
Q 784 2319 784 1719 
z
" transform="scale(0.015625)"/>
      </defs>
      <use xlink:href="#ArialMT-71"/>
      <use xlink:href="#ArialMT-75" x="55.615234"/>
      <use xlink:href="#ArialMT-65" x="111.230469"/>
      <use xlink:href="#ArialMT-72" x="166.845703"/>
      <use xlink:href="#ArialMT-79" x="200.146484"/>
      <use xlink:href="#ArialMT-5f" x="250.146484"/>
      <use xlink:href="#ArialMT-6c" x="305.761719"/>
      <use xlink:href="#ArialMT-65" x="327.978516"/>
      <use xlink:href="#ArialMT-6e" x="383.59375"/>
      <use xlink:href="#ArialMT-5f" x="439.208984"/>
      <use xlink:href="#ArialMT-61" x="494.824219"/>
      <use xlink:href="#ArialMT-76" x="550.439453"/>
      <use xlink:href="#ArialMT-67" x="600.439453"/>
     </g>
    </g>
   </g>
   <g id="PolyCollection_1">
    <defs>
     <path id="m45b11c695c" d="M 115.261022 -175.139375 
L 96.90549 -175.139375 
L 95.042376 -178.19392 
L 93.027803 -181.248466 
L 90.894538 -184.303011 
L 88.680032 -187.357557 
L 86.424392 -190.412102 
L 84.168821 -193.466648 
L 81.954786 -196.521193 
L 79.823913 -199.575739 
L 77.81834 -202.630284 
L 75.981081 -205.68483 
L 74.355865 -208.739375 
L 72.986078 -211.79392 
L 71.912628 -214.848466 
L 71.170925 -217.903011 
L 70.787423 -220.957557 
L 70.77637 -224.012102 
L 71.13741 -227.066648 
L 71.854545 -230.121193 
L 72.896696 -233.175739 
L 74.219808 -236.230284 
L 75.770187 -239.28483 
L 77.488583 -242.339375 
L 79.314513 -245.39392 
L 81.190355 -248.448466 
L 83.064829 -251.503011 
L 84.895652 -254.557557 
L 86.651176 -257.612102 
L 88.310979 -260.666648 
L 89.865372 -263.721193 
L 91.313916 -266.775739 
L 92.663134 -269.830284 
L 93.923697 -272.88483 
L 95.107498 -275.939375 
L 96.225035 -278.99392 
L 97.283515 -282.048466 
L 98.285922 -285.103011 
L 99.231145 -288.157557 
L 100.114996 -291.212102 
L 100.931793 -294.266648 
L 101.676112 -297.321193 
L 102.344275 -300.375739 
L 102.935308 -303.430284 
L 103.451216 -306.48483 
L 103.89665 -309.539375 
L 104.278134 -312.59392 
L 104.603106 -315.648466 
L 104.87902 -318.703011 
L 105.11268 -321.757557 
L 105.30989 -324.812102 
L 105.475396 -327.866648 
L 105.613046 -330.921193 
L 105.72606 -333.975739 
L 105.817289 -337.030284 
L 105.889418 -340.08483 
L 105.945054 -343.139375 
L 105.986723 -346.19392 
L 106.016792 -349.248466 
L 106.037357 -352.303011 
L 106.050123 -355.357557 
L 106.056315 -358.412102 
L 106.056614 -361.466648 
L 106.05115 -364.521193 
L 106.039537 -367.575739 
L 106.020972 -370.630284 
L 105.994392 -373.68483 
L 105.958704 -376.739375 
L 105.913059 -379.79392 
L 105.85717 -382.848466 
L 105.791618 -385.903011 
L 105.718088 -388.957557 
L 105.639492 -392.012102 
L 105.559896 -395.066648 
L 105.484248 -398.121193 
L 105.417909 -401.175739 
L 105.366029 -404.230284 
L 105.332889 -407.28483 
L 105.321291 -410.339375 
L 105.332141 -413.39392 
L 105.364276 -416.448466 
L 105.414585 -419.503011 
L 105.478377 -422.557557 
L 105.549935 -425.612102 
L 105.62314 -428.666648 
L 105.692058 -431.721193 
L 105.751419 -434.775739 
L 105.79694 -437.830284 
L 105.825504 -440.88483 
L 105.835234 -443.939375 
L 105.825504 -446.99392 
L 105.79694 -450.048466 
L 105.751419 -453.103011 
L 105.692058 -456.157557 
L 105.62314 -459.212102 
L 105.549935 -462.266648 
L 105.478377 -465.321193 
L 105.414585 -468.375739 
L 105.364276 -471.430284 
L 105.332141 -474.48483 
L 105.321291 -477.539375 
L 106.845221 -477.539375 
L 106.845221 -477.539375 
L 106.834371 -474.48483 
L 106.802235 -471.430284 
L 106.751926 -468.375739 
L 106.688135 -465.321193 
L 106.616576 -462.266648 
L 106.543371 -459.212102 
L 106.474453 -456.157557 
L 106.415092 -453.103011 
L 106.369572 -450.048466 
L 106.341007 -446.99392 
L 106.331277 -443.939375 
L 106.341007 -440.88483 
L 106.369572 -437.830284 
L 106.415092 -434.775739 
L 106.474453 -431.721193 
L 106.543371 -428.666648 
L 106.616576 -425.612102 
L 106.688135 -422.557557 
L 106.751926 -419.503011 
L 106.802235 -416.448466 
L 106.834371 -413.39392 
L 106.845221 -410.339375 
L 106.833623 -407.28483 
L 106.800482 -404.230284 
L 106.748603 -401.175739 
L 106.682263 -398.121193 
L 106.606616 -395.066648 
L 106.527019 -392.012102 
L 106.448423 -388.957557 
L 106.374894 -385.903011 
L 106.309341 -382.848466 
L 106.253453 -379.79392 
L 106.207808 -376.739375 
L 106.172119 -373.68483 
L 106.14554 -370.630284 
L 106.126974 -367.575739 
L 106.115361 -364.521193 
L 106.109897 -361.466648 
L 106.110196 -358.412102 
L 106.116388 -355.357557 
L 106.129155 -352.303011 
L 106.149719 -349.248466 
L 106.179789 -346.19392 
L 106.221458 -343.139375 
L 106.277093 -340.08483 
L 106.349222 -337.030284 
L 106.440451 -333.975739 
L 106.553465 -330.921193 
L 106.691115 -327.866648 
L 106.856621 -324.812102 
L 107.053831 -321.757557 
L 107.287491 -318.703011 
L 107.563405 -315.648466 
L 107.888377 -312.59392 
L 108.269862 -309.539375 
L 108.715296 -306.48483 
L 109.231204 -303.430284 
L 109.822236 -300.375739 
L 110.4904 -297.321193 
L 111.234718 -294.266648 
L 112.051516 -291.212102 
L 112.935366 -288.157557 
L 113.88059 -285.103011 
L 114.882997 -282.048466 
L 115.941476 -278.99392 
L 117.059014 -275.939375 
L 118.242815 -272.88483 
L 119.503378 -269.830284 
L 120.852595 -266.775739 
L 122.30114 -263.721193 
L 123.855532 -260.666648 
L 125.515335 -257.612102 
L 127.27086 -254.557557 
L 129.101682 -251.503011 
L 130.976157 -248.448466 
L 132.851998 -245.39392 
L 134.677929 -242.339375 
L 136.396324 -239.28483 
L 137.946703 -236.230284 
L 139.269816 -233.175739 
L 140.311966 -230.121193 
L 141.029101 -227.066648 
L 141.390141 -224.012102 
L 141.379088 -220.957557 
L 140.995586 -217.903011 
L 140.253883 -214.848466 
L 139.180433 -211.79392 
L 137.810646 -208.739375 
L 136.185431 -205.68483 
L 134.348171 -202.630284 
L 132.342598 -199.575739 
L 130.211725 -196.521193 
L 127.997691 -193.466648 
L 125.74212 -190.412102 
L 123.486479 -187.357557 
L 121.271973 -184.303011 
L 119.138708 -181.248466 
L 117.124135 -178.19392 
L 115.261022 -175.139375 
z
" style="stroke: #3f3f3f; stroke-width: 1.2"/>
    </defs>
    <g clip-path="url(#p6946a14926)">
     <use xlink:href="#m45b11c695c" x="0" y="543.059375" style="fill: #3274a1; stroke: #3f3f3f; stroke-width: 1.2"/>
    </g>
   </g>
   <g id="PolyCollection_2">
    <defs>
     <path id="m30b1d20fcd" d="M 205.746487 -175.139375 
L 196.647297 -175.139375 
L 196.477034 -176.836345 
L 196.299465 -178.533314 
L 196.109804 -180.230284 
L 195.902648 -181.927254 
L 195.672087 -183.624223 
L 195.411842 -185.321193 
L 195.115428 -187.018163 
L 194.77633 -188.715133 
L 194.388193 -190.412102 
L 193.945015 -192.109072 
L 193.441338 -193.806042 
L 192.872434 -195.503011 
L 192.234462 -197.199981 
L 191.52462 -198.896951 
L 190.741254 -200.59392 
L 189.883943 -202.29089 
L 188.953551 -203.98786 
L 187.95224 -205.68483 
L 186.883455 -207.381799 
L 185.751869 -209.078769 
L 184.563313 -210.775739 
L 183.32467 -212.472708 
L 182.043767 -214.169678 
L 180.729242 -215.866648 
L 179.390421 -217.563617 
L 178.037187 -219.260587 
L 176.67986 -220.957557 
L 175.329088 -222.654527 
L 173.995746 -224.351496 
L 172.690855 -226.048466 
L 171.425505 -227.745436 
L 170.210791 -229.442405 
L 169.057752 -231.139375 
L 167.977309 -232.836345 
L 166.980198 -234.533314 
L 166.076891 -236.230284 
L 165.277501 -237.927254 
L 164.591666 -239.624223 
L 164.028418 -241.321193 
L 163.596023 -243.018163 
L 163.30181 -244.715133 
L 163.151985 -246.412102 
L 163.151438 -248.109072 
L 163.303554 -249.806042 
L 163.610038 -251.503011 
L 164.070761 -253.199981 
L 164.683639 -254.896951 
L 165.444553 -256.59392 
L 166.347331 -258.29089 
L 167.383767 -259.98786 
L 168.543718 -261.68483 
L 169.815248 -263.381799 
L 171.184834 -265.078769 
L 172.637624 -266.775739 
L 174.157734 -268.472708 
L 175.728577 -270.169678 
L 177.333217 -271.866648 
L 178.954721 -273.563617 
L 180.576513 -275.260587 
L 182.182701 -276.957557 
L 183.758377 -278.654527 
L 185.289879 -280.351496 
L 186.764996 -282.048466 
L 188.173128 -283.745436 
L 189.505387 -285.442405 
L 190.754644 -287.139375 
L 191.915519 -288.836345 
L 192.984333 -290.533314 
L 193.95901 -292.230284 
L 194.838947 -293.927254 
L 195.624865 -295.624223 
L 196.318642 -297.321193 
L 196.923132 -299.018163 
L 197.441996 -300.715133 
L 197.879533 -302.412102 
L 198.240529 -304.109072 
L 198.530116 -305.806042 
L 198.753663 -307.503011 
L 198.916672 -309.199981 
L 199.024713 -310.896951 
L 199.08336 -312.59392 
L 199.098158 -314.29089 
L 199.074593 -315.98786 
L 199.01808 -317.68483 
L 198.933945 -319.381799 
L 198.827424 -321.078769 
L 198.703643 -322.775739 
L 198.567611 -324.472708 
L 198.424191 -326.169678 
L 198.278075 -327.866648 
L 198.133743 -329.563617 
L 197.995423 -331.260587 
L 197.867036 -332.957557 
L 197.752147 -334.654527 
L 197.653911 -336.351496 
L 197.57502 -338.048466 
L 197.517659 -339.745436 
L 197.48347 -341.442405 
L 197.473529 -343.139375 
L 204.920256 -343.139375 
L 204.920256 -343.139375 
L 204.910314 -341.442405 
L 204.876125 -339.745436 
L 204.818765 -338.048466 
L 204.739873 -336.351496 
L 204.641637 -334.654527 
L 204.526749 -332.957557 
L 204.398361 -331.260587 
L 204.260041 -329.563617 
L 204.115709 -327.866648 
L 203.969593 -326.169678 
L 203.826173 -324.472708 
L 203.690141 -322.775739 
L 203.56636 -321.078769 
L 203.459839 -319.381799 
L 203.375705 -317.68483 
L 203.319191 -315.98786 
L 203.295627 -314.29089 
L 203.310424 -312.59392 
L 203.369071 -310.896951 
L 203.477112 -309.199981 
L 203.640121 -307.503011 
L 203.863668 -305.806042 
L 204.153255 -304.109072 
L 204.514251 -302.412102 
L 204.951789 -300.715133 
L 205.470653 -299.018163 
L 206.075142 -297.321193 
L 206.768919 -295.624223 
L 207.554837 -293.927254 
L 208.434774 -292.230284 
L 209.409451 -290.533314 
L 210.478265 -288.836345 
L 211.63914 -287.139375 
L 212.888397 -285.442405 
L 214.220656 -283.745436 
L 215.628788 -282.048466 
L 217.103905 -280.351496 
L 218.635407 -278.654527 
L 220.211084 -276.957557 
L 221.817271 -275.260587 
L 223.439063 -273.563617 
L 225.060567 -271.866648 
L 226.665207 -270.169678 
L 228.23605 -268.472708 
L 229.75616 -266.775739 
L 231.20895 -265.078769 
L 232.578537 -263.381799 
L 233.850066 -261.68483 
L 235.010017 -259.98786 
L 236.046453 -258.29089 
L 236.949231 -256.59392 
L 237.710146 -254.896951 
L 238.323023 -253.199981 
L 238.783746 -251.503011 
L 239.09023 -249.806042 
L 239.242347 -248.109072 
L 239.241799 -246.412102 
L 239.091974 -244.715133 
L 238.797761 -243.018163 
L 238.365366 -241.321193 
L 237.802118 -239.624223 
L 237.116283 -237.927254 
L 236.316893 -236.230284 
L 235.413586 -234.533314 
L 234.416475 -232.836345 
L 233.336032 -231.139375 
L 232.182993 -229.442405 
L 230.968279 -227.745436 
L 229.702929 -226.048466 
L 228.398038 -224.351496 
L 227.064696 -222.654527 
L 225.713924 -220.957557 
L 224.356597 -219.260587 
L 223.003363 -217.563617 
L 221.664542 -215.866648 
L 220.350017 -214.169678 
L 219.069114 -212.472708 
L 217.830472 -210.775739 
L 216.641915 -209.078769 
L 215.510329 -207.381799 
L 214.441544 -205.68483 
L 213.440234 -203.98786 
L 212.509841 -202.29089 
L 211.65253 -200.59392 
L 210.869164 -198.896951 
L 210.159322 -197.199981 
L 209.52135 -195.503011 
L 208.952446 -193.806042 
L 208.448769 -192.109072 
L 208.005591 -190.412102 
L 207.617454 -188.715133 
L 207.278356 -187.018163 
L 206.981942 -185.321193 
L 206.721697 -183.624223 
L 206.491136 -181.927254 
L 206.28398 -180.230284 
L 206.094319 -178.533314 
L 205.91675 -176.836345 
L 205.746487 -175.139375 
z
" style="stroke: #3f3f3f; stroke-width: 1.2"/>
    </defs>
    <g clip-path="url(#p6946a14926)">
     <use xlink:href="#m30b1d20fcd" x="0" y="543.059375" style="fill: #e1812c; stroke: #3f3f3f; stroke-width: 1.2"/>
    </g>
   </g>
   <g id="line2d_8">
    <path d="M 106.083256 367.92 
L 106.083256 252.72072 
" clip-path="url(#p6946a14926)" style="fill: none; stroke: #3f3f3f; stroke-width: 1.2; stroke-linecap: round"/>
   </g>
   <g id="line2d_9">
    <path d="M 106.083256 334.32 
L 106.083256 299.19288 
" clip-path="url(#p6946a14926)" style="fill: none; stroke: #3f3f3f; stroke-width: 3.6; stroke-linecap: round"/>
   </g>
   <g id="line2d_10">
    <path d="M 201.196892 323.11944 
L 201.196892 275.52 
" clip-path="url(#p6946a14926)" style="fill: none; stroke: #3f3f3f; stroke-width: 1.2; stroke-linecap: round"/>
   </g>
   <g id="line2d_11">
    <path d="M 201.196892 314.72028 
L 201.196892 283.92 
" clip-path="url(#p6946a14926)" style="fill: none; stroke: #3f3f3f; stroke-width: 3.6; stroke-linecap: round"/>
   </g>
   <g id="patch_3">
    <path d="M 58.526438 383.04 
L 58.526438 50.4 
" style="fill: none; stroke: #cccccc; stroke-linejoin: miter; stroke-linecap: square"/>
   </g>
   <g id="patch_4">
    <path d="M 58.526438 383.04 
L 248.75371 383.04 
" style="fill: none; stroke: #cccccc; stroke-linejoin: miter; stroke-linecap: square"/>
   </g>
   <g id="PathCollection_1">
    <defs>
     <path id="md470797e41" d="M 0 1.2 
C 0.318244 1.2 0.623496 1.07356 0.848528 0.848528 
C 1.07356 0.623496 1.2 0.318244 1.2 0 
C 1.2 -0.318244 1.07356 -0.623496 0.848528 -0.848528 
C 0.623496 -1.07356 0.318244 -1.2 0 -1.2 
C -0.318244 -1.2 -0.623496 -1.07356 -0.848528 -0.848528 
C -1.07356 -0.623496 -1.2 -0.318244 -1.2 0 
C -1.2 0.318244 -1.07356 0.623496 -0.848528 0.848528 
C -0.623496 1.07356 -0.318244 1.2 0 1.2 
z
" style="stroke: #3f3f3f; stroke-width: 0.8"/>
    </defs>
    <g clip-path="url(#p6946a14926)">
     <use xlink:href="#md470797e41" x="106.083256" y="317.52" style="fill: #ffffff; stroke: #3f3f3f; stroke-width: 0.8"/>
    </g>
   </g>
   <g id="PathCollection_2">
    <g clip-path="url(#p6946a14926)">
     <use xlink:href="#md470797e41" x="201.196892" y="295.12056" style="fill: #ffffff; stroke: #3f3f3f; stroke-width: 0.8"/>
    </g>
   </g>
   <g id="text_11">
    <!-- Overall -->
    <g style="fill: #262626" transform="translate(130.835199 44.4) scale(0.144 -0.144)">
     <use xlink:href="#ArialMT-4f"/>
     <use xlink:href="#ArialMT-76" x="77.783203"/>
     <use xlink:href="#ArialMT-65" x="127.783203"/>
     <use xlink:href="#ArialMT-72" x="183.398438"/>
     <use xlink:href="#ArialMT-61" x="216.699219"/>
     <use xlink:href="#ArialMT-6c" x="272.314453"/>
     <use xlink:href="#ArialMT-6c" x="294.53125"/>
    </g>
   </g>
  </g>
  <g id="axes_2">
   <g id="patch_5">
    <path d="M 324.844619 383.04 
L 895.526437 383.04 
L 895.526437 50.4 
L 324.844619 50.4 
z
" style="fill: #ffffff"/>
   </g>
   <g id="matplotlib.axis_3">
    <g id="xtick_3">
     <g id="text_12">
      <!-- PHASE1 - Finance -->
      <g style="fill: #262626" transform="translate(350.75521 502.118938) rotate(-90) scale(0.132 -0.132)">
       <defs>
        <path id="ArialMT-50" d="M 494 0 
L 494 4581 
L 2222 4581 
Q 2678 4581 2919 4538 
Q 3256 4481 3484 4323 
Q 3713 4166 3852 3881 
Q 3991 3597 3991 3256 
Q 3991 2672 3619 2267 
Q 3247 1863 2275 1863 
L 1100 1863 
L 1100 0 
L 494 0 
z
M 1100 2403 
L 2284 2403 
Q 2872 2403 3119 2622 
Q 3366 2841 3366 3238 
Q 3366 3525 3220 3729 
Q 3075 3934 2838 4000 
Q 2684 4041 2272 4041 
L 1100 4041 
L 1100 2403 
z
" transform="scale(0.015625)"/>
        <path id="ArialMT-41" d="M -9 0 
L 1750 4581 
L 2403 4581 
L 4278 0 
L 3588 0 
L 3053 1388 
L 1138 1388 
L 634 0 
L -9 0 
z
M 1313 1881 
L 2866 1881 
L 2388 3150 
Q 2169 3728 2063 4100 
Q 1975 3659 1816 3225 
L 1313 1881 
z
" transform="scale(0.015625)"/>
        <path id="ArialMT-53" d="M 288 1472 
L 859 1522 
Q 900 1178 1048 958 
Q 1197 738 1509 602 
Q 1822 466 2213 466 
Q 2559 466 2825 569 
Q 3091 672 3220 851 
Q 3350 1031 3350 1244 
Q 3350 1459 3225 1620 
Q 3100 1781 2813 1891 
Q 2628 1963 1997 2114 
Q 1366 2266 1113 2400 
Q 784 2572 623 2826 
Q 463 3081 463 3397 
Q 463 3744 659 4045 
Q 856 4347 1234 4503 
Q 1613 4659 2075 4659 
Q 2584 4659 2973 4495 
Q 3363 4331 3572 4012 
Q 3781 3694 3797 3291 
L 3216 3247 
Q 3169 3681 2898 3903 
Q 2628 4125 2100 4125 
Q 1550 4125 1298 3923 
Q 1047 3722 1047 3438 
Q 1047 3191 1225 3031 
Q 1400 2872 2139 2705 
Q 2878 2538 3153 2413 
Q 3553 2228 3743 1945 
Q 3934 1663 3934 1294 
Q 3934 928 3725 604 
Q 3516 281 3123 101 
Q 2731 -78 2241 -78 
Q 1619 -78 1198 103 
Q 778 284 539 648 
Q 300 1013 288 1472 
z
" transform="scale(0.015625)"/>
        <path id="ArialMT-45" d="M 506 0 
L 506 4581 
L 3819 4581 
L 3819 4041 
L 1113 4041 
L 1113 2638 
L 3647 2638 
L 3647 2100 
L 1113 2100 
L 1113 541 
L 3925 541 
L 3925 0 
L 506 0 
z
" transform="scale(0.015625)"/>
        <path id="ArialMT-20" transform="scale(0.015625)"/>
        <path id="ArialMT-2d" d="M 203 1375 
L 203 1941 
L 1931 1941 
L 1931 1375 
L 203 1375 
z
" transform="scale(0.015625)"/>
        <path id="ArialMT-46" d="M 525 0 
L 525 4581 
L 3616 4581 
L 3616 4041 
L 1131 4041 
L 1131 2622 
L 3281 2622 
L 3281 2081 
L 1131 2081 
L 1131 0 
L 525 0 
z
" transform="scale(0.015625)"/>
        <path id="ArialMT-69" d="M 425 3934 
L 425 4581 
L 988 4581 
L 988 3934 
L 425 3934 
z
M 425 0 
L 425 3319 
L 988 3319 
L 988 0 
L 425 0 
z
" transform="scale(0.015625)"/>
        <path id="ArialMT-63" d="M 2588 1216 
L 3141 1144 
Q 3050 572 2676 248 
Q 2303 -75 1759 -75 
Q 1078 -75 664 370 
Q 250 816 250 1647 
Q 250 2184 428 2587 
Q 606 2991 970 3192 
Q 1334 3394 1763 3394 
Q 2303 3394 2647 3120 
Q 2991 2847 3088 2344 
L 2541 2259 
Q 2463 2594 2264 2762 
Q 2066 2931 1784 2931 
Q 1359 2931 1093 2626 
Q 828 2322 828 1663 
Q 828 994 1084 691 
Q 1341 388 1753 388 
Q 2084 388 2306 591 
Q 2528 794 2588 1216 
z
" transform="scale(0.015625)"/>
       </defs>
       <use xlink:href="#ArialMT-50"/>
       <use xlink:href="#ArialMT-48" x="66.699219"/>
       <use xlink:href="#ArialMT-41" x="138.916016"/>
       <use xlink:href="#ArialMT-53" x="205.615234"/>
       <use xlink:href="#ArialMT-45" x="272.314453"/>
       <use xlink:href="#ArialMT-31" x="339.013672"/>
       <use xlink:href="#ArialMT-20" x="394.628906"/>
       <use xlink:href="#ArialMT-2d" x="422.412109"/>
       <use xlink:href="#ArialMT-20" x="455.712891"/>
       <use xlink:href="#ArialMT-46" x="483.496094"/>
       <use xlink:href="#ArialMT-69" x="544.580078"/>
       <use xlink:href="#ArialMT-6e" x="566.796875"/>
       <use xlink:href="#ArialMT-61" x="622.412109"/>
       <use xlink:href="#ArialMT-6e" x="678.027344"/>
       <use xlink:href="#ArialMT-63" x="733.642578"/>
       <use xlink:href="#ArialMT-65" x="783.642578"/>
      </g>
     </g>
    </g>
    <g id="xtick_4">
     <g id="text_13">
      <!-- PHASE1 - Ubuntu -->
      <g style="fill: #262626" transform="translate(407.823392 497.72375) rotate(-90) scale(0.132 -0.132)">
       <defs>
        <path id="ArialMT-55" d="M 3500 4581 
L 4106 4581 
L 4106 1934 
Q 4106 1244 3950 837 
Q 3794 431 3386 176 
Q 2978 -78 2316 -78 
Q 1672 -78 1262 144 
Q 853 366 678 786 
Q 503 1206 503 1934 
L 503 4581 
L 1109 4581 
L 1109 1938 
Q 1109 1341 1220 1058 
Q 1331 775 1601 622 
Q 1872 469 2263 469 
Q 2931 469 3215 772 
Q 3500 1075 3500 1938 
L 3500 4581 
z
" transform="scale(0.015625)"/>
        <path id="ArialMT-62" d="M 941 0 
L 419 0 
L 419 4581 
L 981 4581 
L 981 2947 
Q 1338 3394 1891 3394 
Q 2197 3394 2470 3270 
Q 2744 3147 2920 2923 
Q 3097 2700 3197 2384 
Q 3297 2069 3297 1709 
Q 3297 856 2875 390 
Q 2453 -75 1863 -75 
Q 1275 -75 941 416 
L 941 0 
z
M 934 1684 
Q 934 1088 1097 822 
Q 1363 388 1816 388 
Q 2184 388 2453 708 
Q 2722 1028 2722 1663 
Q 2722 2313 2464 2622 
Q 2206 2931 1841 2931 
Q 1472 2931 1203 2611 
Q 934 2291 934 1684 
z
" transform="scale(0.015625)"/>
        <path id="ArialMT-74" d="M 1650 503 
L 1731 6 
Q 1494 -44 1306 -44 
Q 1000 -44 831 53 
Q 663 150 594 308 
Q 525 466 525 972 
L 525 2881 
L 113 2881 
L 113 3319 
L 525 3319 
L 525 4141 
L 1084 4478 
L 1084 3319 
L 1650 3319 
L 1650 2881 
L 1084 2881 
L 1084 941 
Q 1084 700 1114 631 
Q 1144 563 1211 522 
Q 1278 481 1403 481 
Q 1497 481 1650 503 
z
" transform="scale(0.015625)"/>
       </defs>
       <use xlink:href="#ArialMT-50"/>
       <use xlink:href="#ArialMT-48" x="66.699219"/>
       <use xlink:href="#ArialMT-41" x="138.916016"/>
       <use xlink:href="#ArialMT-53" x="205.615234"/>
       <use xlink:href="#ArialMT-45" x="272.314453"/>
       <use xlink:href="#ArialMT-31" x="339.013672"/>
       <use xlink:href="#ArialMT-20" x="394.628906"/>
       <use xlink:href="#ArialMT-2d" x="422.412109"/>
       <use xlink:href="#ArialMT-20" x="455.712891"/>
       <use xlink:href="#ArialMT-55" x="483.496094"/>
       <use xlink:href="#ArialMT-62" x="555.712891"/>
       <use xlink:href="#ArialMT-75" x="611.328125"/>
       <use xlink:href="#ArialMT-6e" x="666.943359"/>
       <use xlink:href="#ArialMT-74" x="722.558594"/>
       <use xlink:href="#ArialMT-75" x="750.341797"/>
      </g>
     </g>
    </g>
    <g id="xtick_5">
     <g id="text_14">
      <!-- PHASE1 - SHEG -->
      <g style="fill: #262626" transform="translate(464.891574 492.571625) rotate(-90) scale(0.132 -0.132)">
       <defs>
        <path id="ArialMT-47" d="M 2638 1797 
L 2638 2334 
L 4578 2338 
L 4578 638 
Q 4131 281 3656 101 
Q 3181 -78 2681 -78 
Q 2006 -78 1454 211 
Q 903 500 622 1047 
Q 341 1594 341 2269 
Q 341 2938 620 3517 
Q 900 4097 1425 4378 
Q 1950 4659 2634 4659 
Q 3131 4659 3532 4498 
Q 3934 4338 4162 4050 
Q 4391 3763 4509 3300 
L 3963 3150 
Q 3859 3500 3706 3700 
Q 3553 3900 3268 4020 
Q 2984 4141 2638 4141 
Q 2222 4141 1919 4014 
Q 1616 3888 1430 3681 
Q 1244 3475 1141 3228 
Q 966 2803 966 2306 
Q 966 1694 1177 1281 
Q 1388 869 1791 669 
Q 2194 469 2647 469 
Q 3041 469 3416 620 
Q 3791 772 3984 944 
L 3984 1797 
L 2638 1797 
z
" transform="scale(0.015625)"/>
       </defs>
       <use xlink:href="#ArialMT-50"/>
       <use xlink:href="#ArialMT-48" x="66.699219"/>
       <use xlink:href="#ArialMT-41" x="138.916016"/>
       <use xlink:href="#ArialMT-53" x="205.615234"/>
       <use xlink:href="#ArialMT-45" x="272.314453"/>
       <use xlink:href="#ArialMT-31" x="339.013672"/>
       <use xlink:href="#ArialMT-20" x="394.628906"/>
       <use xlink:href="#ArialMT-2d" x="422.412109"/>
       <use xlink:href="#ArialMT-20" x="455.712891"/>
       <use xlink:href="#ArialMT-53" x="483.496094"/>
       <use xlink:href="#ArialMT-48" x="550.195312"/>
       <use xlink:href="#ArialMT-45" x="622.412109"/>
       <use xlink:href="#ArialMT-47" x="689.111328"/>
      </g>
     </g>
    </g>
    <g id="xtick_6">
     <g id="text_15">
      <!-- PHASE2A - Proposal -->
      <g style="fill: #262626" transform="translate(521.959756 515.335438) rotate(-90) scale(0.132 -0.132)">
       <defs>
        <path id="ArialMT-6f" d="M 213 1659 
Q 213 2581 725 3025 
Q 1153 3394 1769 3394 
Q 2453 3394 2887 2945 
Q 3322 2497 3322 1706 
Q 3322 1066 3130 698 
Q 2938 331 2570 128 
Q 2203 -75 1769 -75 
Q 1072 -75 642 372 
Q 213 819 213 1659 
z
M 791 1659 
Q 791 1022 1069 705 
Q 1347 388 1769 388 
Q 2188 388 2466 706 
Q 2744 1025 2744 1678 
Q 2744 2294 2464 2611 
Q 2184 2928 1769 2928 
Q 1347 2928 1069 2612 
Q 791 2297 791 1659 
z
" transform="scale(0.015625)"/>
        <path id="ArialMT-70" d="M 422 -1272 
L 422 3319 
L 934 3319 
L 934 2888 
Q 1116 3141 1344 3267 
Q 1572 3394 1897 3394 
Q 2322 3394 2647 3175 
Q 2972 2956 3137 2557 
Q 3303 2159 3303 1684 
Q 3303 1175 3120 767 
Q 2938 359 2589 142 
Q 2241 -75 1856 -75 
Q 1575 -75 1351 44 
Q 1128 163 984 344 
L 984 -1272 
L 422 -1272 
z
M 931 1641 
Q 931 1000 1190 694 
Q 1450 388 1819 388 
Q 2194 388 2461 705 
Q 2728 1022 2728 1688 
Q 2728 2322 2467 2637 
Q 2206 2953 1844 2953 
Q 1484 2953 1207 2617 
Q 931 2281 931 1641 
z
" transform="scale(0.015625)"/>
        <path id="ArialMT-73" d="M 197 991 
L 753 1078 
Q 800 744 1014 566 
Q 1228 388 1613 388 
Q 2000 388 2187 545 
Q 2375 703 2375 916 
Q 2375 1106 2209 1216 
Q 2094 1291 1634 1406 
Q 1016 1563 777 1677 
Q 538 1791 414 1992 
Q 291 2194 291 2438 
Q 291 2659 392 2848 
Q 494 3038 669 3163 
Q 800 3259 1026 3326 
Q 1253 3394 1513 3394 
Q 1903 3394 2198 3281 
Q 2494 3169 2634 2976 
Q 2775 2784 2828 2463 
L 2278 2388 
Q 2241 2644 2061 2787 
Q 1881 2931 1553 2931 
Q 1166 2931 1000 2803 
Q 834 2675 834 2503 
Q 834 2394 903 2306 
Q 972 2216 1119 2156 
Q 1203 2125 1616 2013 
Q 2213 1853 2448 1751 
Q 2684 1650 2818 1456 
Q 2953 1263 2953 975 
Q 2953 694 2789 445 
Q 2625 197 2315 61 
Q 2006 -75 1616 -75 
Q 969 -75 630 194 
Q 291 463 197 991 
z
" transform="scale(0.015625)"/>
       </defs>
       <use xlink:href="#ArialMT-50"/>
       <use xlink:href="#ArialMT-48" x="66.699219"/>
       <use xlink:href="#ArialMT-41" x="138.916016"/>
       <use xlink:href="#ArialMT-53" x="205.615234"/>
       <use xlink:href="#ArialMT-45" x="272.314453"/>
       <use xlink:href="#ArialMT-32" x="339.013672"/>
       <use xlink:href="#ArialMT-41" x="394.628906"/>
       <use xlink:href="#ArialMT-20" x="455.828125"/>
       <use xlink:href="#ArialMT-2d" x="483.611328"/>
       <use xlink:href="#ArialMT-20" x="516.912109"/>
       <use xlink:href="#ArialMT-50" x="544.695312"/>
       <use xlink:href="#ArialMT-72" x="611.394531"/>
       <use xlink:href="#ArialMT-6f" x="644.695312"/>
       <use xlink:href="#ArialMT-70" x="700.310547"/>
       <use xlink:href="#ArialMT-6f" x="755.925781"/>
       <use xlink:href="#ArialMT-73" x="811.541016"/>
       <use xlink:href="#ArialMT-61" x="861.541016"/>
       <use xlink:href="#ArialMT-6c" x="917.15625"/>
      </g>
     </g>
    </g>
    <g id="xtick_7">
     <g id="text_16">
      <!-- PHASE2B - Outline -->
      <g style="fill: #262626" transform="translate(579.027937 505.788125) rotate(-90) scale(0.132 -0.132)">
       <defs>
        <path id="ArialMT-42" d="M 469 0 
L 469 4581 
L 2188 4581 
Q 2713 4581 3030 4442 
Q 3347 4303 3526 4014 
Q 3706 3725 3706 3409 
Q 3706 3116 3547 2856 
Q 3388 2597 3066 2438 
Q 3481 2316 3704 2022 
Q 3928 1728 3928 1328 
Q 3928 1006 3792 729 
Q 3656 453 3456 303 
Q 3256 153 2954 76 
Q 2653 0 2216 0 
L 469 0 
z
M 1075 2656 
L 2066 2656 
Q 2469 2656 2644 2709 
Q 2875 2778 2992 2937 
Q 3109 3097 3109 3338 
Q 3109 3566 3000 3739 
Q 2891 3913 2687 3977 
Q 2484 4041 1991 4041 
L 1075 4041 
L 1075 2656 
z
M 1075 541 
L 2216 541 
Q 2509 541 2628 563 
Q 2838 600 2978 687 
Q 3119 775 3209 942 
Q 3300 1109 3300 1328 
Q 3300 1584 3169 1773 
Q 3038 1963 2805 2039 
Q 2572 2116 2134 2116 
L 1075 2116 
L 1075 541 
z
" transform="scale(0.015625)"/>
       </defs>
       <use xlink:href="#ArialMT-50"/>
       <use xlink:href="#ArialMT-48" x="66.699219"/>
       <use xlink:href="#ArialMT-41" x="138.916016"/>
       <use xlink:href="#ArialMT-53" x="205.615234"/>
       <use xlink:href="#ArialMT-45" x="272.314453"/>
       <use xlink:href="#ArialMT-32" x="339.013672"/>
       <use xlink:href="#ArialMT-42" x="394.628906"/>
       <use xlink:href="#ArialMT-20" x="461.328125"/>
       <use xlink:href="#ArialMT-2d" x="489.111328"/>
       <use xlink:href="#ArialMT-20" x="522.412109"/>
       <use xlink:href="#ArialMT-4f" x="550.195312"/>
       <use xlink:href="#ArialMT-75" x="627.978516"/>
       <use xlink:href="#ArialMT-74" x="683.59375"/>
       <use xlink:href="#ArialMT-6c" x="711.376953"/>
       <use xlink:href="#ArialMT-69" x="733.59375"/>
       <use xlink:href="#ArialMT-6e" x="755.810547"/>
       <use xlink:href="#ArialMT-65" x="811.425781"/>
      </g>
     </g>
    </g>
    <g id="xtick_8">
     <g id="text_17">
      <!-- PHASE2C - Rough Draft -->
      <g style="fill: #262626" transform="translate(635.941432 535.859375) rotate(-90) scale(0.132 -0.132)">
       <defs>
        <path id="ArialMT-43" d="M 3763 1606 
L 4369 1453 
Q 4178 706 3683 314 
Q 3188 -78 2472 -78 
Q 1731 -78 1267 223 
Q 803 525 561 1097 
Q 319 1669 319 2325 
Q 319 3041 592 3573 
Q 866 4106 1370 4382 
Q 1875 4659 2481 4659 
Q 3169 4659 3637 4309 
Q 4106 3959 4291 3325 
L 3694 3184 
Q 3534 3684 3231 3912 
Q 2928 4141 2469 4141 
Q 1941 4141 1586 3887 
Q 1231 3634 1087 3207 
Q 944 2781 944 2328 
Q 944 1744 1114 1308 
Q 1284 872 1643 656 
Q 2003 441 2422 441 
Q 2931 441 3284 734 
Q 3638 1028 3763 1606 
z
" transform="scale(0.015625)"/>
        <path id="ArialMT-52" d="M 503 0 
L 503 4581 
L 2534 4581 
Q 3147 4581 3465 4457 
Q 3784 4334 3975 4021 
Q 4166 3709 4166 3331 
Q 4166 2844 3850 2509 
Q 3534 2175 2875 2084 
Q 3116 1969 3241 1856 
Q 3506 1613 3744 1247 
L 4541 0 
L 3778 0 
L 3172 953 
Q 2906 1366 2734 1584 
Q 2563 1803 2427 1890 
Q 2291 1978 2150 2013 
Q 2047 2034 1813 2034 
L 1109 2034 
L 1109 0 
L 503 0 
z
M 1109 2559 
L 2413 2559 
Q 2828 2559 3062 2645 
Q 3297 2731 3419 2920 
Q 3541 3109 3541 3331 
Q 3541 3656 3305 3865 
Q 3069 4075 2559 4075 
L 1109 4075 
L 1109 2559 
z
" transform="scale(0.015625)"/>
        <path id="ArialMT-68" d="M 422 0 
L 422 4581 
L 984 4581 
L 984 2938 
Q 1378 3394 1978 3394 
Q 2347 3394 2619 3248 
Q 2891 3103 3008 2847 
Q 3125 2591 3125 2103 
L 3125 0 
L 2563 0 
L 2563 2103 
Q 2563 2525 2380 2717 
Q 2197 2909 1863 2909 
Q 1613 2909 1392 2779 
Q 1172 2650 1078 2428 
Q 984 2206 984 1816 
L 984 0 
L 422 0 
z
" transform="scale(0.015625)"/>
        <path id="ArialMT-44" d="M 494 0 
L 494 4581 
L 2072 4581 
Q 2606 4581 2888 4516 
Q 3281 4425 3559 4188 
Q 3922 3881 4101 3404 
Q 4281 2928 4281 2316 
Q 4281 1794 4159 1391 
Q 4038 988 3847 723 
Q 3656 459 3429 307 
Q 3203 156 2883 78 
Q 2563 0 2147 0 
L 494 0 
z
M 1100 541 
L 2078 541 
Q 2531 541 2789 625 
Q 3047 709 3200 863 
Q 3416 1078 3536 1442 
Q 3656 1806 3656 2325 
Q 3656 3044 3420 3430 
Q 3184 3816 2847 3947 
Q 2603 4041 2063 4041 
L 1100 4041 
L 1100 541 
z
" transform="scale(0.015625)"/>
        <path id="ArialMT-66" d="M 556 0 
L 556 2881 
L 59 2881 
L 59 3319 
L 556 3319 
L 556 3672 
Q 556 4006 616 4169 
Q 697 4388 901 4523 
Q 1106 4659 1475 4659 
Q 1713 4659 2000 4603 
L 1916 4113 
Q 1741 4144 1584 4144 
Q 1328 4144 1222 4034 
Q 1116 3925 1116 3625 
L 1116 3319 
L 1763 3319 
L 1763 2881 
L 1116 2881 
L 1116 0 
L 556 0 
z
" transform="scale(0.015625)"/>
       </defs>
       <use xlink:href="#ArialMT-50"/>
       <use xlink:href="#ArialMT-48" x="66.699219"/>
       <use xlink:href="#ArialMT-41" x="138.916016"/>
       <use xlink:href="#ArialMT-53" x="205.615234"/>
       <use xlink:href="#ArialMT-45" x="272.314453"/>
       <use xlink:href="#ArialMT-32" x="339.013672"/>
       <use xlink:href="#ArialMT-43" x="394.628906"/>
       <use xlink:href="#ArialMT-20" x="466.845703"/>
       <use xlink:href="#ArialMT-2d" x="494.628906"/>
       <use xlink:href="#ArialMT-20" x="527.929688"/>
       <use xlink:href="#ArialMT-52" x="555.712891"/>
       <use xlink:href="#ArialMT-6f" x="627.929688"/>
       <use xlink:href="#ArialMT-75" x="683.544922"/>
       <use xlink:href="#ArialMT-67" x="739.160156"/>
       <use xlink:href="#ArialMT-68" x="794.775391"/>
       <use xlink:href="#ArialMT-20" x="850.390625"/>
       <use xlink:href="#ArialMT-44" x="878.173828"/>
       <use xlink:href="#ArialMT-72" x="950.390625"/>
       <use xlink:href="#ArialMT-61" x="983.691406"/>
       <use xlink:href="#ArialMT-66" x="1039.306641"/>
       <use xlink:href="#ArialMT-74" x="1067.089844"/>
      </g>
     </g>
    </g>
    <g id="xtick_9">
     <g id="text_18">
      <!-- PHASE2D - Final Paper -->
      <g style="fill: #262626" transform="translate(693.164301 532.19225) rotate(-90) scale(0.132 -0.132)">
       <use xlink:href="#ArialMT-50"/>
       <use xlink:href="#ArialMT-48" x="66.699219"/>
       <use xlink:href="#ArialMT-41" x="138.916016"/>
       <use xlink:href="#ArialMT-53" x="205.615234"/>
       <use xlink:href="#ArialMT-45" x="272.314453"/>
       <use xlink:href="#ArialMT-32" x="339.013672"/>
       <use xlink:href="#ArialMT-44" x="394.628906"/>
       <use xlink:href="#ArialMT-20" x="466.845703"/>
       <use xlink:href="#ArialMT-2d" x="494.628906"/>
       <use xlink:href="#ArialMT-20" x="527.929688"/>
       <use xlink:href="#ArialMT-46" x="555.712891"/>
       <use xlink:href="#ArialMT-69" x="616.796875"/>
       <use xlink:href="#ArialMT-6e" x="639.013672"/>
       <use xlink:href="#ArialMT-61" x="694.628906"/>
       <use xlink:href="#ArialMT-6c" x="750.244141"/>
       <use xlink:href="#ArialMT-20" x="772.460938"/>
       <use xlink:href="#ArialMT-50" x="800.244141"/>
       <use xlink:href="#ArialMT-61" x="866.943359"/>
       <use xlink:href="#ArialMT-70" x="922.558594"/>
       <use xlink:href="#ArialMT-65" x="978.173828"/>
       <use xlink:href="#ArialMT-72" x="1033.789062"/>
      </g>
     </g>
    </g>
    <g id="xtick_10">
     <g id="text_19">
      <!-- PHASE3 - Finance -->
      <g style="fill: #262626" transform="translate(750.232483 502.118938) rotate(-90) scale(0.132 -0.132)">
       <defs>
        <path id="ArialMT-33" d="M 269 1209 
L 831 1284 
Q 928 806 1161 595 
Q 1394 384 1728 384 
Q 2125 384 2398 659 
Q 2672 934 2672 1341 
Q 2672 1728 2419 1979 
Q 2166 2231 1775 2231 
Q 1616 2231 1378 2169 
L 1441 2663 
Q 1497 2656 1531 2656 
Q 1891 2656 2178 2843 
Q 2466 3031 2466 3422 
Q 2466 3731 2256 3934 
Q 2047 4138 1716 4138 
Q 1388 4138 1169 3931 
Q 950 3725 888 3313 
L 325 3413 
Q 428 3978 793 4289 
Q 1159 4600 1703 4600 
Q 2078 4600 2393 4439 
Q 2709 4278 2876 4000 
Q 3044 3722 3044 3409 
Q 3044 3113 2884 2869 
Q 2725 2625 2413 2481 
Q 2819 2388 3044 2092 
Q 3269 1797 3269 1353 
Q 3269 753 2831 336 
Q 2394 -81 1725 -81 
Q 1122 -81 723 278 
Q 325 638 269 1209 
z
" transform="scale(0.015625)"/>
       </defs>
       <use xlink:href="#ArialMT-50"/>
       <use xlink:href="#ArialMT-48" x="66.699219"/>
       <use xlink:href="#ArialMT-41" x="138.916016"/>
       <use xlink:href="#ArialMT-53" x="205.615234"/>
       <use xlink:href="#ArialMT-45" x="272.314453"/>
       <use xlink:href="#ArialMT-33" x="339.013672"/>
       <use xlink:href="#ArialMT-20" x="394.628906"/>
       <use xlink:href="#ArialMT-2d" x="422.412109"/>
       <use xlink:href="#ArialMT-20" x="455.712891"/>
       <use xlink:href="#ArialMT-46" x="483.496094"/>
       <use xlink:href="#ArialMT-69" x="544.580078"/>
       <use xlink:href="#ArialMT-6e" x="566.796875"/>
       <use xlink:href="#ArialMT-61" x="622.412109"/>
       <use xlink:href="#ArialMT-6e" x="678.027344"/>
       <use xlink:href="#ArialMT-63" x="733.642578"/>
       <use xlink:href="#ArialMT-65" x="783.642578"/>
      </g>
     </g>
    </g>
    <g id="xtick_11">
     <g id="text_20">
      <!-- PHASE3 - Bias -->
      <g style="fill: #262626" transform="translate(807.300665 480.840125) rotate(-90) scale(0.132 -0.132)">
       <use xlink:href="#ArialMT-50"/>
       <use xlink:href="#ArialMT-48" x="66.699219"/>
       <use xlink:href="#ArialMT-41" x="138.916016"/>
       <use xlink:href="#ArialMT-53" x="205.615234"/>
       <use xlink:href="#ArialMT-45" x="272.314453"/>
       <use xlink:href="#ArialMT-33" x="339.013672"/>
       <use xlink:href="#ArialMT-20" x="394.628906"/>
       <use xlink:href="#ArialMT-2d" x="422.412109"/>
       <use xlink:href="#ArialMT-20" x="455.712891"/>
       <use xlink:href="#ArialMT-42" x="483.496094"/>
       <use xlink:href="#ArialMT-69" x="550.195312"/>
       <use xlink:href="#ArialMT-61" x="572.412109"/>
       <use xlink:href="#ArialMT-73" x="628.027344"/>
      </g>
     </g>
    </g>
    <g id="xtick_12">
     <g id="text_21">
      <!-- PHASE3 - SHEG -->
      <g style="fill: #262626" transform="translate(864.368847 492.571625) rotate(-90) scale(0.132 -0.132)">
       <use xlink:href="#ArialMT-50"/>
       <use xlink:href="#ArialMT-48" x="66.699219"/>
       <use xlink:href="#ArialMT-41" x="138.916016"/>
       <use xlink:href="#ArialMT-53" x="205.615234"/>
       <use xlink:href="#ArialMT-45" x="272.314453"/>
       <use xlink:href="#ArialMT-33" x="339.013672"/>
       <use xlink:href="#ArialMT-20" x="394.628906"/>
       <use xlink:href="#ArialMT-2d" x="422.412109"/>
       <use xlink:href="#ArialMT-20" x="455.712891"/>
       <use xlink:href="#ArialMT-53" x="483.496094"/>
       <use xlink:href="#ArialMT-48" x="550.195312"/>
       <use xlink:href="#ArialMT-45" x="622.412109"/>
       <use xlink:href="#ArialMT-47" x="689.111328"/>
      </g>
     </g>
    </g>
   </g>
   <g id="matplotlib.axis_4">
    <g id="ytick_8">
     <g id="line2d_12">
      <path d="M 324.844619 367.92 
L 895.526437 367.92 
" clip-path="url(#p3697be9b28)" style="fill: none; stroke: #cccccc; stroke-width: 0.8; stroke-linecap: round"/>
     </g>
     <g id="text_22">
      <!-- 3 -->
      <g style="fill: #262626" transform="translate(309.204182 372.644156) scale(0.132 -0.132)">
       <use xlink:href="#ArialMT-33"/>
      </g>
     </g>
    </g>
    <g id="ytick_9">
     <g id="line2d_13">
      <path d="M 324.844619 330.12 
L 895.526437 330.12 
" clip-path="url(#p3697be9b28)" style="fill: none; stroke: #cccccc; stroke-width: 0.8; stroke-linecap: round"/>
     </g>
     <g id="text_23">
      <!-- 4 -->
      <g style="fill: #262626" transform="translate(309.204182 334.844156) scale(0.132 -0.132)">
       <defs>
        <path id="ArialMT-34" d="M 2069 0 
L 2069 1097 
L 81 1097 
L 81 1613 
L 2172 4581 
L 2631 4581 
L 2631 1613 
L 3250 1613 
L 3250 1097 
L 2631 1097 
L 2631 0 
L 2069 0 
z
M 2069 1613 
L 2069 3678 
L 634 1613 
L 2069 1613 
z
" transform="scale(0.015625)"/>
       </defs>
       <use xlink:href="#ArialMT-34"/>
      </g>
     </g>
    </g>
    <g id="ytick_10">
     <g id="line2d_14">
      <path d="M 324.844619 292.32 
L 895.526437 292.32 
" clip-path="url(#p3697be9b28)" style="fill: none; stroke: #cccccc; stroke-width: 0.8; stroke-linecap: round"/>
     </g>
     <g id="text_24">
      <!-- 5 -->
      <g style="fill: #262626" transform="translate(309.204182 297.044156) scale(0.132 -0.132)">
       <use xlink:href="#ArialMT-35"/>
      </g>
     </g>
    </g>
    <g id="ytick_11">
     <g id="line2d_15">
      <path d="M 324.844619 254.52 
L 895.526437 254.52 
" clip-path="url(#p3697be9b28)" style="fill: none; stroke: #cccccc; stroke-width: 0.8; stroke-linecap: round"/>
     </g>
     <g id="text_25">
      <!-- 6 -->
      <g style="fill: #262626" transform="translate(309.204182 259.244156) scale(0.132 -0.132)">
       <defs>
        <path id="ArialMT-36" d="M 3184 3459 
L 2625 3416 
Q 2550 3747 2413 3897 
Q 2184 4138 1850 4138 
Q 1581 4138 1378 3988 
Q 1113 3794 959 3422 
Q 806 3050 800 2363 
Q 1003 2672 1297 2822 
Q 1591 2972 1913 2972 
Q 2475 2972 2870 2558 
Q 3266 2144 3266 1488 
Q 3266 1056 3080 686 
Q 2894 316 2569 119 
Q 2244 -78 1831 -78 
Q 1128 -78 684 439 
Q 241 956 241 2144 
Q 241 3472 731 4075 
Q 1159 4600 1884 4600 
Q 2425 4600 2770 4297 
Q 3116 3994 3184 3459 
z
M 888 1484 
Q 888 1194 1011 928 
Q 1134 663 1356 523 
Q 1578 384 1822 384 
Q 2178 384 2434 671 
Q 2691 959 2691 1453 
Q 2691 1928 2437 2201 
Q 2184 2475 1800 2475 
Q 1419 2475 1153 2201 
Q 888 1928 888 1484 
z
" transform="scale(0.015625)"/>
       </defs>
       <use xlink:href="#ArialMT-36"/>
      </g>
     </g>
    </g>
    <g id="ytick_12">
     <g id="line2d_16">
      <path d="M 324.844619 216.72 
L 895.526437 216.72 
" clip-path="url(#p3697be9b28)" style="fill: none; stroke: #cccccc; stroke-width: 0.8; stroke-linecap: round"/>
     </g>
     <g id="text_26">
      <!-- 7 -->
      <g style="fill: #262626" transform="translate(309.204182 221.444156) scale(0.132 -0.132)">
       <use xlink:href="#ArialMT-37"/>
      </g>
     </g>
    </g>
    <g id="ytick_13">
     <g id="line2d_17">
      <path d="M 324.844619 178.92 
L 895.526437 178.92 
" clip-path="url(#p3697be9b28)" style="fill: none; stroke: #cccccc; stroke-width: 0.8; stroke-linecap: round"/>
     </g>
     <g id="text_27">
      <!-- 8 -->
      <g style="fill: #262626" transform="translate(309.204182 183.644156) scale(0.132 -0.132)">
       <defs>
        <path id="ArialMT-38" d="M 1131 2484 
Q 781 2613 612 2850 
Q 444 3088 444 3419 
Q 444 3919 803 4259 
Q 1163 4600 1759 4600 
Q 2359 4600 2725 4251 
Q 3091 3903 3091 3403 
Q 3091 3084 2923 2848 
Q 2756 2613 2416 2484 
Q 2838 2347 3058 2040 
Q 3278 1734 3278 1309 
Q 3278 722 2862 322 
Q 2447 -78 1769 -78 
Q 1091 -78 675 323 
Q 259 725 259 1325 
Q 259 1772 486 2073 
Q 713 2375 1131 2484 
z
M 1019 3438 
Q 1019 3113 1228 2906 
Q 1438 2700 1772 2700 
Q 2097 2700 2305 2904 
Q 2513 3109 2513 3406 
Q 2513 3716 2298 3927 
Q 2084 4138 1766 4138 
Q 1444 4138 1231 3931 
Q 1019 3725 1019 3438 
z
M 838 1322 
Q 838 1081 952 856 
Q 1066 631 1291 507 
Q 1516 384 1775 384 
Q 2178 384 2440 643 
Q 2703 903 2703 1303 
Q 2703 1709 2433 1975 
Q 2163 2241 1756 2241 
Q 1359 2241 1098 1978 
Q 838 1716 838 1322 
z
" transform="scale(0.015625)"/>
       </defs>
       <use xlink:href="#ArialMT-38"/>
      </g>
     </g>
    </g>
    <g id="ytick_14">
     <g id="line2d_18">
      <path d="M 324.844619 141.12 
L 895.526437 141.12 
" clip-path="url(#p3697be9b28)" style="fill: none; stroke: #cccccc; stroke-width: 0.8; stroke-linecap: round"/>
     </g>
     <g id="text_28">
      <!-- 9 -->
      <g style="fill: #262626" transform="translate(309.204182 145.844156) scale(0.132 -0.132)">
       <defs>
        <path id="ArialMT-39" d="M 350 1059 
L 891 1109 
Q 959 728 1153 556 
Q 1347 384 1650 384 
Q 1909 384 2104 503 
Q 2300 622 2425 820 
Q 2550 1019 2634 1356 
Q 2719 1694 2719 2044 
Q 2719 2081 2716 2156 
Q 2547 1888 2255 1720 
Q 1963 1553 1622 1553 
Q 1053 1553 659 1965 
Q 266 2378 266 3053 
Q 266 3750 677 4175 
Q 1088 4600 1706 4600 
Q 2153 4600 2523 4359 
Q 2894 4119 3086 3673 
Q 3278 3228 3278 2384 
Q 3278 1506 3087 986 
Q 2897 466 2520 194 
Q 2144 -78 1638 -78 
Q 1100 -78 759 220 
Q 419 519 350 1059 
z
M 2653 3081 
Q 2653 3566 2395 3850 
Q 2138 4134 1775 4134 
Q 1400 4134 1122 3828 
Q 844 3522 844 3034 
Q 844 2597 1108 2323 
Q 1372 2050 1759 2050 
Q 2150 2050 2401 2323 
Q 2653 2597 2653 3081 
z
" transform="scale(0.015625)"/>
       </defs>
       <use xlink:href="#ArialMT-39"/>
      </g>
     </g>
    </g>
    <g id="ytick_15">
     <g id="line2d_19">
      <path d="M 324.844619 103.32 
L 895.526437 103.32 
" clip-path="url(#p3697be9b28)" style="fill: none; stroke: #cccccc; stroke-width: 0.8; stroke-linecap: round"/>
     </g>
     <g id="text_29">
      <!-- 10 -->
      <g style="fill: #262626" transform="translate(301.863744 108.044156) scale(0.132 -0.132)">
       <use xlink:href="#ArialMT-31"/>
       <use xlink:href="#ArialMT-30" x="55.615234"/>
      </g>
     </g>
    </g>
    <g id="ytick_16">
     <g id="line2d_20">
      <path d="M 324.844619 65.52 
L 895.526437 65.52 
" clip-path="url(#p3697be9b28)" style="fill: none; stroke: #cccccc; stroke-width: 0.8; stroke-linecap: round"/>
     </g>
     <g id="text_30">
      <!-- 11 -->
      <g style="fill: #262626" transform="translate(302.837244 70.244156) scale(0.132 -0.132)">
       <use xlink:href="#ArialMT-31"/>
       <use xlink:href="#ArialMT-31" x="48.240234"/>
      </g>
     </g>
    </g>
    <g id="text_31">
     <!-- query_len_avg -->
     <g style="fill: #262626" transform="translate(294.832994 263.952) rotate(-90) scale(0.144 -0.144)">
      <use xlink:href="#ArialMT-71"/>
      <use xlink:href="#ArialMT-75" x="55.615234"/>
      <use xlink:href="#ArialMT-65" x="111.230469"/>
      <use xlink:href="#ArialMT-72" x="166.845703"/>
      <use xlink:href="#ArialMT-79" x="200.146484"/>
      <use xlink:href="#ArialMT-5f" x="250.146484"/>
      <use xlink:href="#ArialMT-6c" x="305.761719"/>
      <use xlink:href="#ArialMT-65" x="327.978516"/>
      <use xlink:href="#ArialMT-6e" x="383.59375"/>
      <use xlink:href="#ArialMT-5f" x="439.208984"/>
      <use xlink:href="#ArialMT-61" x="494.824219"/>
      <use xlink:href="#ArialMT-76" x="550.439453"/>
      <use xlink:href="#ArialMT-67" x="600.439453"/>
     </g>
    </g>
   </g>
   <g id="line2d_21">
    <path d="M 351.952006 271.18278 
L 409.020188 300.42972 
L 466.088369 348.103522 
L 523.156551 330.9075 
L 580.224733 304.566885 
L 637.292915 315.25272 
L 694.361097 314.383388 
L 751.429278 335.160252 
L 808.49746 338.22 
L 865.565642 367.92 
" clip-path="url(#p3697be9b28)" style="fill: none; stroke: #1f77b4; stroke-width: 2.16; stroke-linecap: round"/>
   </g>
   <g id="PathCollection_3">
    <defs>
     <path id="mcbed6de745" d="M 0 -2.707159 
L -2.707159 2.707159 
L 2.707159 2.707159 
z
" style="stroke: #1f77b4; stroke-width: 1.62"/>
    </defs>
    <g clip-path="url(#p3697be9b28)">
     <use xlink:href="#mcbed6de745" x="351.952006" y="271.18278" style="fill: #1f77b4; stroke: #1f77b4; stroke-width: 1.62"/>
     <use xlink:href="#mcbed6de745" x="409.020188" y="300.42972" style="fill: #1f77b4; stroke: #1f77b4; stroke-width: 1.62"/>
     <use xlink:href="#mcbed6de745" x="466.088369" y="348.103522" style="fill: #1f77b4; stroke: #1f77b4; stroke-width: 1.62"/>
     <use xlink:href="#mcbed6de745" x="523.156551" y="330.9075" style="fill: #1f77b4; stroke: #1f77b4; stroke-width: 1.62"/>
     <use xlink:href="#mcbed6de745" x="580.224733" y="304.566885" style="fill: #1f77b4; stroke: #1f77b4; stroke-width: 1.62"/>
     <use xlink:href="#mcbed6de745" x="637.292915" y="315.25272" style="fill: #1f77b4; stroke: #1f77b4; stroke-width: 1.62"/>
     <use xlink:href="#mcbed6de745" x="694.361097" y="314.383388" style="fill: #1f77b4; stroke: #1f77b4; stroke-width: 1.62"/>
     <use xlink:href="#mcbed6de745" x="751.429278" y="335.160252" style="fill: #1f77b4; stroke: #1f77b4; stroke-width: 1.62"/>
     <use xlink:href="#mcbed6de745" x="808.49746" y="338.22" style="fill: #1f77b4; stroke: #1f77b4; stroke-width: 1.62"/>
     <use xlink:href="#mcbed6de745" x="865.565642" y="367.92" style="fill: #1f77b4; stroke: #1f77b4; stroke-width: 1.62"/>
    </g>
   </g>
   <g id="line2d_22">
    <path d="M 354.805415 254.52 
L 411.873597 336.41937 
L 468.941778 367.92 
L 526.00996 235.62 
L 583.078142 288.72144 
L 640.146324 65.52 
L 697.214506 279.96696 
L 754.282687 254.52 
L 811.350869 304.92063 
" clip-path="url(#p3697be9b28)" style="fill: none; stroke-dasharray: 7.992,3.456; stroke-dashoffset: 0; stroke: #ff7f0e; stroke-width: 2.16"/>
   </g>
   <g id="PathCollection_4">
    <defs>
     <path id="m0cf6a30fe2" d="M 0 2.707159 
C 0.717947 2.707159 1.406585 2.421915 1.91425 1.91425 
C 2.421915 1.406585 2.707159 0.717947 2.707159 0 
C 2.707159 -0.717947 2.421915 -1.406585 1.91425 -1.91425 
C 1.406585 -2.421915 0.717947 -2.707159 0 -2.707159 
C -0.717947 -2.707159 -1.406585 -2.421915 -1.91425 -1.91425 
C -2.421915 -1.406585 -2.707159 -0.717947 -2.707159 0 
C -2.707159 0.717947 -2.421915 1.406585 -1.91425 1.91425 
C -1.406585 2.421915 -0.717947 2.707159 0 2.707159 
z
" style="stroke: #ff7f0e; stroke-width: 1.62"/>
    </defs>
    <g clip-path="url(#p3697be9b28)">
     <use xlink:href="#m0cf6a30fe2" x="354.805415" y="254.52" style="fill: #ff7f0e; stroke: #ff7f0e; stroke-width: 1.62"/>
     <use xlink:href="#m0cf6a30fe2" x="411.873597" y="336.41937" style="fill: #ff7f0e; stroke: #ff7f0e; stroke-width: 1.62"/>
     <use xlink:href="#m0cf6a30fe2" x="468.941778" y="367.92" style="fill: #ff7f0e; stroke: #ff7f0e; stroke-width: 1.62"/>
     <use xlink:href="#m0cf6a30fe2" x="526.00996" y="235.62" style="fill: #ff7f0e; stroke: #ff7f0e; stroke-width: 1.62"/>
     <use xlink:href="#m0cf6a30fe2" x="583.078142" y="288.72144" style="fill: #ff7f0e; stroke: #ff7f0e; stroke-width: 1.62"/>
     <use xlink:href="#m0cf6a30fe2" x="640.146324" y="65.52" style="fill: #ff7f0e; stroke: #ff7f0e; stroke-width: 1.62"/>
     <use xlink:href="#m0cf6a30fe2" x="697.214506" y="279.96696" style="fill: #ff7f0e; stroke: #ff7f0e; stroke-width: 1.62"/>
     <use xlink:href="#m0cf6a30fe2" x="754.282687" y="254.52" style="fill: #ff7f0e; stroke: #ff7f0e; stroke-width: 1.62"/>
     <use xlink:href="#m0cf6a30fe2" x="811.350869" y="304.92063" style="fill: #ff7f0e; stroke: #ff7f0e; stroke-width: 1.62"/>
    </g>
   </g>
   <g id="patch_6">
    <path d="M 324.844619 383.04 
L 324.844619 50.4 
" style="fill: none; stroke: #cccccc; stroke-linejoin: miter; stroke-linecap: square"/>
   </g>
   <g id="patch_7">
    <path d="M 324.844619 383.04 
L 895.526437 383.04 
" style="fill: none; stroke: #cccccc; stroke-linejoin: miter; stroke-linecap: square"/>
   </g>
   <g id="text_32">
    <!-- Trend Across Time -->
    <g style="fill: #262626" transform="translate(550.437903 44.4) scale(0.144 -0.144)">
     <defs>
      <path id="ArialMT-54" d="M 1659 0 
L 1659 4041 
L 150 4041 
L 150 4581 
L 3781 4581 
L 3781 4041 
L 2266 4041 
L 2266 0 
L 1659 0 
z
" transform="scale(0.015625)"/>
      <path id="ArialMT-64" d="M 2575 0 
L 2575 419 
Q 2259 -75 1647 -75 
Q 1250 -75 917 144 
Q 584 363 401 755 
Q 219 1147 219 1656 
Q 219 2153 384 2558 
Q 550 2963 881 3178 
Q 1213 3394 1622 3394 
Q 1922 3394 2156 3267 
Q 2391 3141 2538 2938 
L 2538 4581 
L 3097 4581 
L 3097 0 
L 2575 0 
z
M 797 1656 
Q 797 1019 1065 703 
Q 1334 388 1700 388 
Q 2069 388 2326 689 
Q 2584 991 2584 1609 
Q 2584 2291 2321 2609 
Q 2059 2928 1675 2928 
Q 1300 2928 1048 2622 
Q 797 2316 797 1656 
z
" transform="scale(0.015625)"/>
      <path id="ArialMT-6d" d="M 422 0 
L 422 3319 
L 925 3319 
L 925 2853 
Q 1081 3097 1340 3245 
Q 1600 3394 1931 3394 
Q 2300 3394 2536 3241 
Q 2772 3088 2869 2813 
Q 3263 3394 3894 3394 
Q 4388 3394 4653 3120 
Q 4919 2847 4919 2278 
L 4919 0 
L 4359 0 
L 4359 2091 
Q 4359 2428 4304 2576 
Q 4250 2725 4106 2815 
Q 3963 2906 3769 2906 
Q 3419 2906 3187 2673 
Q 2956 2441 2956 1928 
L 2956 0 
L 2394 0 
L 2394 2156 
Q 2394 2531 2256 2718 
Q 2119 2906 1806 2906 
Q 1569 2906 1367 2781 
Q 1166 2656 1075 2415 
Q 984 2175 984 1722 
L 984 0 
L 422 0 
z
" transform="scale(0.015625)"/>
     </defs>
     <use xlink:href="#ArialMT-54"/>
     <use xlink:href="#ArialMT-72" x="57.333984"/>
     <use xlink:href="#ArialMT-65" x="90.634766"/>
     <use xlink:href="#ArialMT-6e" x="146.25"/>
     <use xlink:href="#ArialMT-64" x="201.865234"/>
     <use xlink:href="#ArialMT-20" x="257.480469"/>
     <use xlink:href="#ArialMT-41" x="279.763672"/>
     <use xlink:href="#ArialMT-63" x="346.462891"/>
     <use xlink:href="#ArialMT-72" x="396.462891"/>
     <use xlink:href="#ArialMT-6f" x="429.763672"/>
     <use xlink:href="#ArialMT-73" x="485.378906"/>
     <use xlink:href="#ArialMT-73" x="535.378906"/>
     <use xlink:href="#ArialMT-20" x="585.378906"/>
     <use xlink:href="#ArialMT-54" x="611.412109"/>
     <use xlink:href="#ArialMT-69" x="668.746094"/>
     <use xlink:href="#ArialMT-6d" x="690.962891"/>
     <use xlink:href="#ArialMT-65" x="774.263672"/>
    </g>
   </g>
   <g id="legend_1">
    <g id="patch_8">
     <path d="M 826.438875 118.072875 
L 886.286437 118.072875 
Q 888.926437 118.072875 888.926437 115.432875 
L 888.926437 59.64 
Q 888.926437 57 886.286437 57 
L 826.438875 57 
Q 823.798875 57 823.798875 59.64 
L 823.798875 115.432875 
Q 823.798875 118.072875 826.438875 118.072875 
z
" style="fill: #ffffff; opacity: 0.8; stroke: #cccccc; stroke-width: 0.8; stroke-linejoin: miter"/>
    </g>
    <g id="text_33">
     <!-- Profile -->
     <g style="fill: #262626" transform="translate(835.955156 72.58725) scale(0.144 -0.144)">
      <use xlink:href="#ArialMT-50"/>
      <use xlink:href="#ArialMT-72" x="66.699219"/>
      <use xlink:href="#ArialMT-6f" x="100"/>
      <use xlink:href="#ArialMT-66" x="155.615234"/>
      <use xlink:href="#ArialMT-69" x="183.398438"/>
      <use xlink:href="#ArialMT-6c" x="205.615234"/>
      <use xlink:href="#ArialMT-65" x="227.832031"/>
     </g>
    </g>
    <g id="PathCollection_5">
     <g>
      <use xlink:href="#mcbed6de745" x="842.278875" y="88.032563" style="fill: #1f77b4; stroke: #1f77b4; stroke-width: 1.62"/>
     </g>
    </g>
    <g id="text_34">
     <!-- HI -->
     <g style="fill: #262626" transform="translate(866.038875 91.497563) scale(0.132 -0.132)">
      <use xlink:href="#ArialMT-48"/>
      <use xlink:href="#ArialMT-49" x="72.216797"/>
     </g>
    </g>
    <g id="PathCollection_6">
     <g>
      <use xlink:href="#m0cf6a30fe2" x="842.278875" y="106.704375" style="fill: #ff7f0e; stroke: #ff7f0e; stroke-width: 1.62"/>
     </g>
    </g>
    <g id="text_35">
     <!-- LO -->
     <g style="fill: #262626" transform="translate(866.038875 110.169375) scale(0.132 -0.132)">
      <use xlink:href="#ArialMT-4c"/>
      <use xlink:href="#ArialMT-4f" x="55.615234"/>
     </g>
    </g>
   </g>
  </g>
  <g id="text_36">
   <!-- Query Length (Average) - - All Task(s) -->
   <g style="fill: #262626" transform="translate(321.229688 19.7901) scale(0.1728 -0.1728)">
    <defs>
     <path id="ArialMT-51" d="M 3966 491 
Q 4388 200 4744 66 
L 4566 -356 
Q 4072 -178 3581 206 
Q 3072 -78 2456 -78 
Q 1834 -78 1328 222 
Q 822 522 548 1065 
Q 275 1609 275 2291 
Q 275 2969 550 3525 
Q 825 4081 1333 4372 
Q 1841 4663 2469 4663 
Q 3103 4663 3612 4361 
Q 4122 4059 4389 3517 
Q 4656 2975 4656 2294 
Q 4656 1728 4484 1276 
Q 4313 825 3966 491 
z
M 2631 1266 
Q 3156 1119 3497 828 
Q 4031 1316 4031 2294 
Q 4031 2850 3842 3265 
Q 3653 3681 3289 3911 
Q 2925 4141 2472 4141 
Q 1794 4141 1347 3677 
Q 900 3213 900 2291 
Q 900 1397 1342 919 
Q 1784 441 2472 441 
Q 2797 441 3084 563 
Q 2800 747 2484 825 
L 2631 1266 
z
" transform="scale(0.015625)"/>
     <path id="ArialMT-28" d="M 1497 -1347 
Q 1031 -759 709 28 
Q 388 816 388 1659 
Q 388 2403 628 3084 
Q 909 3875 1497 4659 
L 1900 4659 
Q 1522 4009 1400 3731 
Q 1209 3300 1100 2831 
Q 966 2247 966 1656 
Q 966 153 1900 -1347 
L 1497 -1347 
z
" transform="scale(0.015625)"/>
     <path id="ArialMT-29" d="M 791 -1347 
L 388 -1347 
Q 1322 153 1322 1656 
Q 1322 2244 1188 2822 
Q 1081 3291 891 3722 
Q 769 4003 388 4659 
L 791 4659 
Q 1378 3875 1659 3084 
Q 1900 2403 1900 1659 
Q 1900 816 1576 28 
Q 1253 -759 791 -1347 
z
" transform="scale(0.015625)"/>
     <path id="ArialMT-6b" d="M 425 0 
L 425 4581 
L 988 4581 
L 988 1969 
L 2319 3319 
L 3047 3319 
L 1778 2088 
L 3175 0 
L 2481 0 
L 1384 1697 
L 988 1316 
L 988 0 
L 425 0 
z
" transform="scale(0.015625)"/>
    </defs>
    <use xlink:href="#ArialMT-51"/>
    <use xlink:href="#ArialMT-75" x="77.783203"/>
    <use xlink:href="#ArialMT-65" x="133.398438"/>
    <use xlink:href="#ArialMT-72" x="189.013672"/>
    <use xlink:href="#ArialMT-79" x="222.314453"/>
    <use xlink:href="#ArialMT-20" x="272.314453"/>
    <use xlink:href="#ArialMT-4c" x="300.097656"/>
    <use xlink:href="#ArialMT-65" x="355.712891"/>
    <use xlink:href="#ArialMT-6e" x="411.328125"/>
    <use xlink:href="#ArialMT-67" x="466.943359"/>
    <use xlink:href="#ArialMT-74" x="522.558594"/>
    <use xlink:href="#ArialMT-68" x="550.341797"/>
    <use xlink:href="#ArialMT-20" x="605.957031"/>
    <use xlink:href="#ArialMT-28" x="633.740234"/>
    <use xlink:href="#ArialMT-41" x="667.041016"/>
    <use xlink:href="#ArialMT-76" x="731.990234"/>
    <use xlink:href="#ArialMT-65" x="781.990234"/>
    <use xlink:href="#ArialMT-72" x="837.605469"/>
    <use xlink:href="#ArialMT-61" x="870.90625"/>
    <use xlink:href="#ArialMT-67" x="926.521484"/>
    <use xlink:href="#ArialMT-65" x="982.136719"/>
    <use xlink:href="#ArialMT-29" x="1037.751953"/>
    <use xlink:href="#ArialMT-20" x="1071.052734"/>
    <use xlink:href="#ArialMT-2d" x="1098.835938"/>
    <use xlink:href="#ArialMT-2d" x="1132.136719"/>
    <use xlink:href="#ArialMT-20" x="1165.4375"/>
    <use xlink:href="#ArialMT-41" x="1187.720703"/>
    <use xlink:href="#ArialMT-6c" x="1254.419922"/>
    <use xlink:href="#ArialMT-6c" x="1276.636719"/>
    <use xlink:href="#ArialMT-20" x="1298.853516"/>
    <use xlink:href="#ArialMT-54" x="1324.886719"/>
    <use xlink:href="#ArialMT-61" x="1374.845703"/>
    <use xlink:href="#ArialMT-73" x="1430.460938"/>
    <use xlink:href="#ArialMT-6b" x="1480.460938"/>
    <use xlink:href="#ArialMT-28" x="1530.460938"/>
    <use xlink:href="#ArialMT-73" x="1563.761719"/>
    <use xlink:href="#ArialMT-29" x="1613.761719"/>
   </g>
  </g>
 </g>
 <defs>
  <clipPath id="p6946a14926">
   <rect x="58.526438" y="50.4" width="190.227273" height="332.64"/>
  </clipPath>
  <clipPath id="p3697be9b28">
   <rect x="324.844619" y="50.4" width="570.681818" height="332.64"/>
  </clipPath>
 </defs>
</svg>
